%TF.GenerationSoftware,KiCad,Pcbnew,5.1.9*%
%TF.CreationDate,2021-04-18T19:33:57+02:00*%
%TF.ProjectId,protoMxCog,70726f74-6f4d-4784-936f-672e6b696361,rev?*%
%TF.SameCoordinates,Original*%
%TF.FileFunction,Soldermask,Bot*%
%TF.FilePolarity,Negative*%
%FSLAX46Y46*%
G04 Gerber Fmt 4.6, Leading zero omitted, Abs format (unit mm)*
G04 Created by KiCad (PCBNEW 5.1.9) date 2021-04-18 19:33:57*
%MOMM*%
%LPD*%
G01*
G04 APERTURE LIST*
%ADD10C,2.692400*%
%ADD11C,1.193800*%
%ADD12C,3.479800*%
%ADD13C,4.394200*%
%ADD14C,2.108200*%
%ADD15C,2.057400*%
%ADD16C,2.540000*%
%ADD17C,5.867400*%
G04 APERTURE END LIST*
%TO.C,J2*%
G36*
G01*
X76314200Y-107690000D02*
X76314200Y-108690000D01*
G75*
G02*
X76111000Y-108893200I-203200J0D01*
G01*
X73111000Y-108893200D01*
G75*
G02*
X72907800Y-108690000I0J203200D01*
G01*
X72907800Y-107690000D01*
G75*
G02*
X73111000Y-107486800I203200J0D01*
G01*
X76111000Y-107486800D01*
G75*
G02*
X76314200Y-107690000I0J-203200D01*
G01*
G37*
G36*
G01*
X76314200Y-105150000D02*
X76314200Y-106150000D01*
G75*
G02*
X76111000Y-106353200I-203200J0D01*
G01*
X73111000Y-106353200D01*
G75*
G02*
X72907800Y-106150000I0J203200D01*
G01*
X72907800Y-105150000D01*
G75*
G02*
X73111000Y-104946800I203200J0D01*
G01*
X76111000Y-104946800D01*
G75*
G02*
X76314200Y-105150000I0J-203200D01*
G01*
G37*
G36*
G01*
X76314200Y-102610000D02*
X76314200Y-103610000D01*
G75*
G02*
X76111000Y-103813200I-203200J0D01*
G01*
X73111000Y-103813200D01*
G75*
G02*
X72907800Y-103610000I0J203200D01*
G01*
X72907800Y-102610000D01*
G75*
G02*
X73111000Y-102406800I203200J0D01*
G01*
X76111000Y-102406800D01*
G75*
G02*
X76314200Y-102610000I0J-203200D01*
G01*
G37*
G36*
G01*
X76314200Y-100070000D02*
X76314200Y-101070000D01*
G75*
G02*
X76111000Y-101273200I-203200J0D01*
G01*
X73111000Y-101273200D01*
G75*
G02*
X72907800Y-101070000I0J203200D01*
G01*
X72907800Y-100070000D01*
G75*
G02*
X73111000Y-99866800I203200J0D01*
G01*
X76111000Y-99866800D01*
G75*
G02*
X76314200Y-100070000I0J-203200D01*
G01*
G37*
G36*
G01*
X76314200Y-97530000D02*
X76314200Y-98530000D01*
G75*
G02*
X76111000Y-98733200I-203200J0D01*
G01*
X73111000Y-98733200D01*
G75*
G02*
X72907800Y-98530000I0J203200D01*
G01*
X72907800Y-97530000D01*
G75*
G02*
X73111000Y-97326800I203200J0D01*
G01*
X76111000Y-97326800D01*
G75*
G02*
X76314200Y-97530000I0J-203200D01*
G01*
G37*
%TD*%
%TO.C,J1*%
G36*
G01*
X76173200Y-73750000D02*
X76173200Y-74750000D01*
G75*
G02*
X75970000Y-74953200I-203200J0D01*
G01*
X72970000Y-74953200D01*
G75*
G02*
X72766800Y-74750000I0J203200D01*
G01*
X72766800Y-73750000D01*
G75*
G02*
X72970000Y-73546800I203200J0D01*
G01*
X75970000Y-73546800D01*
G75*
G02*
X76173200Y-73750000I0J-203200D01*
G01*
G37*
G36*
G01*
X76173200Y-76290000D02*
X76173200Y-77290000D01*
G75*
G02*
X75970000Y-77493200I-203200J0D01*
G01*
X72970000Y-77493200D01*
G75*
G02*
X72766800Y-77290000I0J203200D01*
G01*
X72766800Y-76290000D01*
G75*
G02*
X72970000Y-76086800I203200J0D01*
G01*
X75970000Y-76086800D01*
G75*
G02*
X76173200Y-76290000I0J-203200D01*
G01*
G37*
G36*
G01*
X76173200Y-78830000D02*
X76173200Y-79830000D01*
G75*
G02*
X75970000Y-80033200I-203200J0D01*
G01*
X72970000Y-80033200D01*
G75*
G02*
X72766800Y-79830000I0J203200D01*
G01*
X72766800Y-78830000D01*
G75*
G02*
X72970000Y-78626800I203200J0D01*
G01*
X75970000Y-78626800D01*
G75*
G02*
X76173200Y-78830000I0J-203200D01*
G01*
G37*
%TD*%
%TO.C,R4*%
G36*
G01*
X185360900Y-54859300D02*
X186039100Y-54859300D01*
G75*
G02*
X186378200Y-55198400I0J-339100D01*
G01*
X186378200Y-55901600D01*
G75*
G02*
X186039100Y-56240700I-339100J0D01*
G01*
X185360900Y-56240700D01*
G75*
G02*
X185021800Y-55901600I0J339100D01*
G01*
X185021800Y-55198400D01*
G75*
G02*
X185360900Y-54859300I339100J0D01*
G01*
G37*
G36*
G01*
X185360900Y-53034300D02*
X186039100Y-53034300D01*
G75*
G02*
X186378200Y-53373400I0J-339100D01*
G01*
X186378200Y-54076600D01*
G75*
G02*
X186039100Y-54415700I-339100J0D01*
G01*
X185360900Y-54415700D01*
G75*
G02*
X185021800Y-54076600I0J339100D01*
G01*
X185021800Y-53373400D01*
G75*
G02*
X185360900Y-53034300I339100J0D01*
G01*
G37*
%TD*%
%TO.C,R3*%
G36*
G01*
X183610900Y-54871800D02*
X184289100Y-54871800D01*
G75*
G02*
X184628200Y-55210900I0J-339100D01*
G01*
X184628200Y-55914100D01*
G75*
G02*
X184289100Y-56253200I-339100J0D01*
G01*
X183610900Y-56253200D01*
G75*
G02*
X183271800Y-55914100I0J339100D01*
G01*
X183271800Y-55210900D01*
G75*
G02*
X183610900Y-54871800I339100J0D01*
G01*
G37*
G36*
G01*
X183610900Y-53046800D02*
X184289100Y-53046800D01*
G75*
G02*
X184628200Y-53385900I0J-339100D01*
G01*
X184628200Y-54089100D01*
G75*
G02*
X184289100Y-54428200I-339100J0D01*
G01*
X183610900Y-54428200D01*
G75*
G02*
X183271800Y-54089100I0J339100D01*
G01*
X183271800Y-53385900D01*
G75*
G02*
X183610900Y-53046800I339100J0D01*
G01*
G37*
%TD*%
%TO.C,D6*%
G36*
G01*
X190085146Y-54971800D02*
X191214854Y-54971800D01*
G75*
G02*
X191553200Y-55310146I0J-338346D01*
G01*
X191553200Y-56189854D01*
G75*
G02*
X191214854Y-56528200I-338346J0D01*
G01*
X190085146Y-56528200D01*
G75*
G02*
X189746800Y-56189854I0J338346D01*
G01*
X189746800Y-55310146D01*
G75*
G02*
X190085146Y-54971800I338346J0D01*
G01*
G37*
G36*
G01*
X190085146Y-52921800D02*
X191214854Y-52921800D01*
G75*
G02*
X191553200Y-53260146I0J-338346D01*
G01*
X191553200Y-54139854D01*
G75*
G02*
X191214854Y-54478200I-338346J0D01*
G01*
X190085146Y-54478200D01*
G75*
G02*
X189746800Y-54139854I0J338346D01*
G01*
X189746800Y-53260146D01*
G75*
G02*
X190085146Y-52921800I338346J0D01*
G01*
G37*
%TD*%
%TO.C,D4*%
G36*
G01*
X194053200Y-52650000D02*
X194053200Y-53650000D01*
G75*
G02*
X193850000Y-53853200I-203200J0D01*
G01*
X192350000Y-53853200D01*
G75*
G02*
X192146800Y-53650000I0J203200D01*
G01*
X192146800Y-52650000D01*
G75*
G02*
X192350000Y-52446800I203200J0D01*
G01*
X193850000Y-52446800D01*
G75*
G02*
X194053200Y-52650000I0J-203200D01*
G01*
G37*
G36*
G01*
X194053200Y-55850000D02*
X194053200Y-56850000D01*
G75*
G02*
X193850000Y-57053200I-203200J0D01*
G01*
X192350000Y-57053200D01*
G75*
G02*
X192146800Y-56850000I0J203200D01*
G01*
X192146800Y-55850000D01*
G75*
G02*
X192350000Y-55646800I203200J0D01*
G01*
X193850000Y-55646800D01*
G75*
G02*
X194053200Y-55850000I0J-203200D01*
G01*
G37*
G36*
G01*
X189153200Y-52650000D02*
X189153200Y-53650000D01*
G75*
G02*
X188950000Y-53853200I-203200J0D01*
G01*
X187450000Y-53853200D01*
G75*
G02*
X187246800Y-53650000I0J203200D01*
G01*
X187246800Y-52650000D01*
G75*
G02*
X187450000Y-52446800I203200J0D01*
G01*
X188950000Y-52446800D01*
G75*
G02*
X189153200Y-52650000I0J-203200D01*
G01*
G37*
G36*
G01*
X189153200Y-55850000D02*
X189153200Y-56850000D01*
G75*
G02*
X188950000Y-57053200I-203200J0D01*
G01*
X187450000Y-57053200D01*
G75*
G02*
X187246800Y-56850000I0J203200D01*
G01*
X187246800Y-55850000D01*
G75*
G02*
X187450000Y-55646800I203200J0D01*
G01*
X188950000Y-55646800D01*
G75*
G02*
X189153200Y-55850000I0J-203200D01*
G01*
G37*
%TD*%
%TO.C,D3*%
G36*
G01*
X181385146Y-54971800D02*
X182514854Y-54971800D01*
G75*
G02*
X182853200Y-55310146I0J-338346D01*
G01*
X182853200Y-56189854D01*
G75*
G02*
X182514854Y-56528200I-338346J0D01*
G01*
X181385146Y-56528200D01*
G75*
G02*
X181046800Y-56189854I0J338346D01*
G01*
X181046800Y-55310146D01*
G75*
G02*
X181385146Y-54971800I338346J0D01*
G01*
G37*
G36*
G01*
X181385146Y-52921800D02*
X182514854Y-52921800D01*
G75*
G02*
X182853200Y-53260146I0J-338346D01*
G01*
X182853200Y-54139854D01*
G75*
G02*
X182514854Y-54478200I-338346J0D01*
G01*
X181385146Y-54478200D01*
G75*
G02*
X181046800Y-54139854I0J338346D01*
G01*
X181046800Y-53260146D01*
G75*
G02*
X181385146Y-52921800I338346J0D01*
G01*
G37*
%TD*%
D10*
%TO.C,SX0:11*%
X72513303Y-173278793D03*
X65684798Y-173660397D03*
D11*
X63460336Y-171895101D03*
X72668424Y-167601299D03*
D12*
X68064380Y-169748200D03*
D10*
X72590863Y-170440046D03*
X67909259Y-175425694D03*
%TD*%
%TO.C,SX0:10*%
X89780223Y-165229533D03*
X82951718Y-165611137D03*
D11*
X80727256Y-163845841D03*
X89935344Y-159552039D03*
D12*
X85331300Y-161698940D03*
D10*
X89857783Y-162390786D03*
X85176179Y-167376434D03*
%TD*%
%TO.C,SX1:8*%
X72830577Y-140901427D03*
X79659082Y-140519823D03*
D11*
X81883544Y-142285119D03*
X72675456Y-146578921D03*
D12*
X77279500Y-144432020D03*
D10*
X72753017Y-143740174D03*
X77434621Y-138754526D03*
%TD*%
%TO.C,SX1:7*%
X55566197Y-148953227D03*
X62394702Y-148571623D03*
D11*
X64619164Y-150336919D03*
X55411076Y-154630721D03*
D12*
X60015120Y-152483820D03*
D10*
X55488637Y-151791974D03*
X60170241Y-146806326D03*
%TD*%
%TO.C,SW0:11*%
X58360986Y-160962159D03*
X63346634Y-165643763D03*
D13*
X64038480Y-161117280D03*
D14*
X66185381Y-165721324D03*
X61891579Y-156513236D03*
D10*
X60126283Y-158737698D03*
X60507887Y-165566203D03*
D15*
X70252699Y-162423412D03*
G36*
G01*
X68215252Y-156100795D02*
X66718938Y-156798537D01*
G75*
G02*
X66448900Y-156700251I-85876J184162D01*
G01*
X65751158Y-155203937D01*
G75*
G02*
X65849444Y-154933899I184162J85876D01*
G01*
X67345758Y-154236157D01*
G75*
G02*
X67615796Y-154334443I85876J-184162D01*
G01*
X68313538Y-155830757D01*
G75*
G02*
X68215252Y-156100795I-184162J-85876D01*
G01*
G37*
X72554721Y-161349962D03*
G36*
G01*
X70517274Y-155027344D02*
X69020960Y-155725086D01*
G75*
G02*
X68750922Y-155626800I-85876J184162D01*
G01*
X68053180Y-154130486D01*
G75*
G02*
X68151466Y-153860448I184162J85876D01*
G01*
X69647780Y-153162706D01*
G75*
G02*
X69917818Y-153260992I85876J-184162D01*
G01*
X70615560Y-154757306D01*
G75*
G02*
X70517274Y-155027344I-184162J-85876D01*
G01*
G37*
G36*
G01*
X72290485Y-159791629D02*
X71530816Y-160145868D01*
G75*
G02*
X71260779Y-160047583I-85876J184161D01*
G01*
X70906540Y-159287914D01*
G75*
G02*
X71004825Y-159017877I184161J85876D01*
G01*
X71764494Y-158663638D01*
G75*
G02*
X72034531Y-158761923I85876J-184161D01*
G01*
X72388770Y-159521592D01*
G75*
G02*
X72290485Y-159791629I-184161J-85876D01*
G01*
G37*
G36*
G01*
X70884265Y-156775981D02*
X70124596Y-157130220D01*
G75*
G02*
X69854559Y-157031935I-85876J184161D01*
G01*
X69500320Y-156272266D01*
G75*
G02*
X69598605Y-156002229I184161J85876D01*
G01*
X70358274Y-155647990D01*
G75*
G02*
X70628311Y-155746275I85876J-184161D01*
G01*
X70982550Y-156505944D01*
G75*
G02*
X70884265Y-156775981I-184161J-85876D01*
G01*
G37*
%TD*%
D10*
%TO.C,SW0:10*%
X75625366Y-152910359D03*
X80611014Y-157591963D03*
D13*
X81302860Y-153065480D03*
D14*
X83449761Y-157669524D03*
X79155959Y-148461436D03*
D10*
X77390663Y-150685898D03*
X77772267Y-157514403D03*
D15*
X87517079Y-154371612D03*
G36*
G01*
X85479632Y-148048995D02*
X83983318Y-148746737D01*
G75*
G02*
X83713280Y-148648451I-85876J184162D01*
G01*
X83015538Y-147152137D01*
G75*
G02*
X83113824Y-146882099I184162J85876D01*
G01*
X84610138Y-146184357D01*
G75*
G02*
X84880176Y-146282643I85876J-184162D01*
G01*
X85577918Y-147778957D01*
G75*
G02*
X85479632Y-148048995I-184162J-85876D01*
G01*
G37*
X89819101Y-153298162D03*
G36*
G01*
X87781654Y-146975544D02*
X86285340Y-147673286D01*
G75*
G02*
X86015302Y-147575000I-85876J184162D01*
G01*
X85317560Y-146078686D01*
G75*
G02*
X85415846Y-145808648I184162J85876D01*
G01*
X86912160Y-145110906D01*
G75*
G02*
X87182198Y-145209192I85876J-184162D01*
G01*
X87879940Y-146705506D01*
G75*
G02*
X87781654Y-146975544I-184162J-85876D01*
G01*
G37*
G36*
G01*
X89554865Y-151739829D02*
X88795196Y-152094068D01*
G75*
G02*
X88525159Y-151995783I-85876J184161D01*
G01*
X88170920Y-151236114D01*
G75*
G02*
X88269205Y-150966077I184161J85876D01*
G01*
X89028874Y-150611838D01*
G75*
G02*
X89298911Y-150710123I85876J-184161D01*
G01*
X89653150Y-151469792D01*
G75*
G02*
X89554865Y-151739829I-184161J-85876D01*
G01*
G37*
G36*
G01*
X88148645Y-148724181D02*
X87388976Y-149078420D01*
G75*
G02*
X87118939Y-148980135I-85876J184161D01*
G01*
X86764700Y-148220466D01*
G75*
G02*
X86862985Y-147950429I184161J85876D01*
G01*
X87622654Y-147596190D01*
G75*
G02*
X87892691Y-147694475I85876J-184161D01*
G01*
X88246930Y-148454144D01*
G75*
G02*
X88148645Y-148724181I-184161J-85876D01*
G01*
G37*
%TD*%
D10*
%TO.C,SW5:13*%
X193992500Y-61925200D03*
X187642500Y-64465200D03*
D13*
X191452500Y-67005200D03*
D14*
X186372500Y-67005200D03*
X196532500Y-67005200D03*
D10*
X195262500Y-64465200D03*
X188912500Y-61925200D03*
D15*
X187642500Y-72085200D03*
G36*
G01*
X194233800Y-72910700D02*
X194233800Y-71259700D01*
G75*
G02*
X194437000Y-71056500I203200J0D01*
G01*
X196088000Y-71056500D01*
G75*
G02*
X196291200Y-71259700I0J-203200D01*
G01*
X196291200Y-72910700D01*
G75*
G02*
X196088000Y-73113900I-203200J0D01*
G01*
X194437000Y-73113900D01*
G75*
G02*
X194233800Y-72910700I0J203200D01*
G01*
G37*
X187642500Y-74625200D03*
G36*
G01*
X194233800Y-75450700D02*
X194233800Y-73799700D01*
G75*
G02*
X194437000Y-73596500I203200J0D01*
G01*
X196088000Y-73596500D01*
G75*
G02*
X196291200Y-73799700I0J-203200D01*
G01*
X196291200Y-75450700D01*
G75*
G02*
X196088000Y-75653900I-203200J0D01*
G01*
X194437000Y-75653900D01*
G75*
G02*
X194233800Y-75450700I0J203200D01*
G01*
G37*
G36*
G01*
X189166500Y-75044301D02*
X189166500Y-74206099D01*
G75*
G02*
X189369699Y-74002900I203199J0D01*
G01*
X190207901Y-74002900D01*
G75*
G02*
X190411100Y-74206099I0J-203199D01*
G01*
X190411100Y-75044301D01*
G75*
G02*
X190207901Y-75247500I-203199J0D01*
G01*
X189369699Y-75247500D01*
G75*
G02*
X189166500Y-75044301I0J203199D01*
G01*
G37*
G36*
G01*
X192493900Y-75044301D02*
X192493900Y-74206099D01*
G75*
G02*
X192697099Y-74002900I203199J0D01*
G01*
X193535301Y-74002900D01*
G75*
G02*
X193738500Y-74206099I0J-203199D01*
G01*
X193738500Y-75044301D01*
G75*
G02*
X193535301Y-75247500I-203199J0D01*
G01*
X192697099Y-75247500D01*
G75*
G02*
X192493900Y-75044301I0J203199D01*
G01*
G37*
%TD*%
D10*
%TO.C,SW5:12*%
X170180000Y-61925200D03*
X163830000Y-64465200D03*
D13*
X167640000Y-67005200D03*
D14*
X162560000Y-67005200D03*
X172720000Y-67005200D03*
D10*
X171450000Y-64465200D03*
X165100000Y-61925200D03*
D15*
X163830000Y-72085200D03*
G36*
G01*
X170421300Y-72910700D02*
X170421300Y-71259700D01*
G75*
G02*
X170624500Y-71056500I203200J0D01*
G01*
X172275500Y-71056500D01*
G75*
G02*
X172478700Y-71259700I0J-203200D01*
G01*
X172478700Y-72910700D01*
G75*
G02*
X172275500Y-73113900I-203200J0D01*
G01*
X170624500Y-73113900D01*
G75*
G02*
X170421300Y-72910700I0J203200D01*
G01*
G37*
X163830000Y-74625200D03*
G36*
G01*
X170421300Y-75450700D02*
X170421300Y-73799700D01*
G75*
G02*
X170624500Y-73596500I203200J0D01*
G01*
X172275500Y-73596500D01*
G75*
G02*
X172478700Y-73799700I0J-203200D01*
G01*
X172478700Y-75450700D01*
G75*
G02*
X172275500Y-75653900I-203200J0D01*
G01*
X170624500Y-75653900D01*
G75*
G02*
X170421300Y-75450700I0J203200D01*
G01*
G37*
G36*
G01*
X165354000Y-75044301D02*
X165354000Y-74206099D01*
G75*
G02*
X165557199Y-74002900I203199J0D01*
G01*
X166395401Y-74002900D01*
G75*
G02*
X166598600Y-74206099I0J-203199D01*
G01*
X166598600Y-75044301D01*
G75*
G02*
X166395401Y-75247500I-203199J0D01*
G01*
X165557199Y-75247500D01*
G75*
G02*
X165354000Y-75044301I0J203199D01*
G01*
G37*
G36*
G01*
X168681400Y-75044301D02*
X168681400Y-74206099D01*
G75*
G02*
X168884599Y-74002900I203199J0D01*
G01*
X169722801Y-74002900D01*
G75*
G02*
X169926000Y-74206099I0J-203199D01*
G01*
X169926000Y-75044301D01*
G75*
G02*
X169722801Y-75247500I-203199J0D01*
G01*
X168884599Y-75247500D01*
G75*
G02*
X168681400Y-75044301I0J203199D01*
G01*
G37*
%TD*%
D10*
%TO.C,SW5:11*%
X151130000Y-58747660D03*
X144780000Y-61287660D03*
D13*
X148590000Y-63827660D03*
D14*
X143510000Y-63827660D03*
X153670000Y-63827660D03*
D10*
X152400000Y-61287660D03*
X146050000Y-58747660D03*
D15*
X144780000Y-68907660D03*
G36*
G01*
X151371300Y-69733160D02*
X151371300Y-68082160D01*
G75*
G02*
X151574500Y-67878960I203200J0D01*
G01*
X153225500Y-67878960D01*
G75*
G02*
X153428700Y-68082160I0J-203200D01*
G01*
X153428700Y-69733160D01*
G75*
G02*
X153225500Y-69936360I-203200J0D01*
G01*
X151574500Y-69936360D01*
G75*
G02*
X151371300Y-69733160I0J203200D01*
G01*
G37*
X144780000Y-71447660D03*
G36*
G01*
X151371300Y-72273160D02*
X151371300Y-70622160D01*
G75*
G02*
X151574500Y-70418960I203200J0D01*
G01*
X153225500Y-70418960D01*
G75*
G02*
X153428700Y-70622160I0J-203200D01*
G01*
X153428700Y-72273160D01*
G75*
G02*
X153225500Y-72476360I-203200J0D01*
G01*
X151574500Y-72476360D01*
G75*
G02*
X151371300Y-72273160I0J203200D01*
G01*
G37*
G36*
G01*
X146304000Y-71866761D02*
X146304000Y-71028559D01*
G75*
G02*
X146507199Y-70825360I203199J0D01*
G01*
X147345401Y-70825360D01*
G75*
G02*
X147548600Y-71028559I0J-203199D01*
G01*
X147548600Y-71866761D01*
G75*
G02*
X147345401Y-72069960I-203199J0D01*
G01*
X146507199Y-72069960D01*
G75*
G02*
X146304000Y-71866761I0J203199D01*
G01*
G37*
G36*
G01*
X149631400Y-71866761D02*
X149631400Y-71028559D01*
G75*
G02*
X149834599Y-70825360I203199J0D01*
G01*
X150672801Y-70825360D01*
G75*
G02*
X150876000Y-71028559I0J-203199D01*
G01*
X150876000Y-71866761D01*
G75*
G02*
X150672801Y-72069960I-203199J0D01*
G01*
X149834599Y-72069960D01*
G75*
G02*
X149631400Y-71866761I0J203199D01*
G01*
G37*
%TD*%
D10*
%TO.C,SW5:10*%
X132080000Y-57150000D03*
X125730000Y-59690000D03*
D13*
X129540000Y-62230000D03*
D14*
X124460000Y-62230000D03*
X134620000Y-62230000D03*
D10*
X133350000Y-59690000D03*
X127000000Y-57150000D03*
D15*
X125730000Y-67310000D03*
G36*
G01*
X132321300Y-68135500D02*
X132321300Y-66484500D01*
G75*
G02*
X132524500Y-66281300I203200J0D01*
G01*
X134175500Y-66281300D01*
G75*
G02*
X134378700Y-66484500I0J-203200D01*
G01*
X134378700Y-68135500D01*
G75*
G02*
X134175500Y-68338700I-203200J0D01*
G01*
X132524500Y-68338700D01*
G75*
G02*
X132321300Y-68135500I0J203200D01*
G01*
G37*
X125730000Y-69850000D03*
G36*
G01*
X132321300Y-70675500D02*
X132321300Y-69024500D01*
G75*
G02*
X132524500Y-68821300I203200J0D01*
G01*
X134175500Y-68821300D01*
G75*
G02*
X134378700Y-69024500I0J-203200D01*
G01*
X134378700Y-70675500D01*
G75*
G02*
X134175500Y-70878700I-203200J0D01*
G01*
X132524500Y-70878700D01*
G75*
G02*
X132321300Y-70675500I0J203200D01*
G01*
G37*
G36*
G01*
X127254000Y-70269101D02*
X127254000Y-69430899D01*
G75*
G02*
X127457199Y-69227700I203199J0D01*
G01*
X128295401Y-69227700D01*
G75*
G02*
X128498600Y-69430899I0J-203199D01*
G01*
X128498600Y-70269101D01*
G75*
G02*
X128295401Y-70472300I-203199J0D01*
G01*
X127457199Y-70472300D01*
G75*
G02*
X127254000Y-70269101I0J203199D01*
G01*
G37*
G36*
G01*
X130581400Y-70269101D02*
X130581400Y-69430899D01*
G75*
G02*
X130784599Y-69227700I203199J0D01*
G01*
X131622801Y-69227700D01*
G75*
G02*
X131826000Y-69430899I0J-203199D01*
G01*
X131826000Y-70269101D01*
G75*
G02*
X131622801Y-70472300I-203199J0D01*
G01*
X130784599Y-70472300D01*
G75*
G02*
X130581400Y-70269101I0J203199D01*
G01*
G37*
%TD*%
D10*
%TO.C,SW5:9*%
X113030000Y-58747660D03*
X106680000Y-61287660D03*
D13*
X110490000Y-63827660D03*
D14*
X105410000Y-63827660D03*
X115570000Y-63827660D03*
D10*
X114300000Y-61287660D03*
X107950000Y-58747660D03*
D15*
X106680000Y-68907660D03*
G36*
G01*
X113271300Y-69733160D02*
X113271300Y-68082160D01*
G75*
G02*
X113474500Y-67878960I203200J0D01*
G01*
X115125500Y-67878960D01*
G75*
G02*
X115328700Y-68082160I0J-203200D01*
G01*
X115328700Y-69733160D01*
G75*
G02*
X115125500Y-69936360I-203200J0D01*
G01*
X113474500Y-69936360D01*
G75*
G02*
X113271300Y-69733160I0J203200D01*
G01*
G37*
X106680000Y-71447660D03*
G36*
G01*
X113271300Y-72273160D02*
X113271300Y-70622160D01*
G75*
G02*
X113474500Y-70418960I203200J0D01*
G01*
X115125500Y-70418960D01*
G75*
G02*
X115328700Y-70622160I0J-203200D01*
G01*
X115328700Y-72273160D01*
G75*
G02*
X115125500Y-72476360I-203200J0D01*
G01*
X113474500Y-72476360D01*
G75*
G02*
X113271300Y-72273160I0J203200D01*
G01*
G37*
G36*
G01*
X108204000Y-71866761D02*
X108204000Y-71028559D01*
G75*
G02*
X108407199Y-70825360I203199J0D01*
G01*
X109245401Y-70825360D01*
G75*
G02*
X109448600Y-71028559I0J-203199D01*
G01*
X109448600Y-71866761D01*
G75*
G02*
X109245401Y-72069960I-203199J0D01*
G01*
X108407199Y-72069960D01*
G75*
G02*
X108204000Y-71866761I0J203199D01*
G01*
G37*
G36*
G01*
X111531400Y-71866761D02*
X111531400Y-71028559D01*
G75*
G02*
X111734599Y-70825360I203199J0D01*
G01*
X112572801Y-70825360D01*
G75*
G02*
X112776000Y-71028559I0J-203199D01*
G01*
X112776000Y-71866761D01*
G75*
G02*
X112572801Y-72069960I-203199J0D01*
G01*
X111734599Y-72069960D01*
G75*
G02*
X111531400Y-71866761I0J203199D01*
G01*
G37*
%TD*%
D10*
%TO.C,SW5:8*%
X93980000Y-60020200D03*
X87630000Y-62560200D03*
D13*
X91440000Y-65100200D03*
D14*
X86360000Y-65100200D03*
X96520000Y-65100200D03*
D10*
X95250000Y-62560200D03*
X88900000Y-60020200D03*
D15*
X87630000Y-70180200D03*
G36*
G01*
X94221300Y-71005700D02*
X94221300Y-69354700D01*
G75*
G02*
X94424500Y-69151500I203200J0D01*
G01*
X96075500Y-69151500D01*
G75*
G02*
X96278700Y-69354700I0J-203200D01*
G01*
X96278700Y-71005700D01*
G75*
G02*
X96075500Y-71208900I-203200J0D01*
G01*
X94424500Y-71208900D01*
G75*
G02*
X94221300Y-71005700I0J203200D01*
G01*
G37*
X87630000Y-72720200D03*
G36*
G01*
X94221300Y-73545700D02*
X94221300Y-71894700D01*
G75*
G02*
X94424500Y-71691500I203200J0D01*
G01*
X96075500Y-71691500D01*
G75*
G02*
X96278700Y-71894700I0J-203200D01*
G01*
X96278700Y-73545700D01*
G75*
G02*
X96075500Y-73748900I-203200J0D01*
G01*
X94424500Y-73748900D01*
G75*
G02*
X94221300Y-73545700I0J203200D01*
G01*
G37*
G36*
G01*
X89154000Y-73139301D02*
X89154000Y-72301099D01*
G75*
G02*
X89357199Y-72097900I203199J0D01*
G01*
X90195401Y-72097900D01*
G75*
G02*
X90398600Y-72301099I0J-203199D01*
G01*
X90398600Y-73139301D01*
G75*
G02*
X90195401Y-73342500I-203199J0D01*
G01*
X89357199Y-73342500D01*
G75*
G02*
X89154000Y-73139301I0J203199D01*
G01*
G37*
G36*
G01*
X92481400Y-73139301D02*
X92481400Y-72301099D01*
G75*
G02*
X92684599Y-72097900I203199J0D01*
G01*
X93522801Y-72097900D01*
G75*
G02*
X93726000Y-72301099I0J-203199D01*
G01*
X93726000Y-73139301D01*
G75*
G02*
X93522801Y-73342500I-203199J0D01*
G01*
X92684599Y-73342500D01*
G75*
G02*
X92481400Y-73139301I0J203199D01*
G01*
G37*
%TD*%
D10*
%TO.C,SW5:7*%
X67310000Y-62560200D03*
X69850000Y-68910200D03*
D13*
X72390000Y-65100200D03*
D14*
X72390000Y-70180200D03*
X72390000Y-60020200D03*
D10*
X69850000Y-61290200D03*
X67310000Y-67640200D03*
D15*
X77470000Y-68910200D03*
G36*
G01*
X78295500Y-62318900D02*
X76644500Y-62318900D01*
G75*
G02*
X76441300Y-62115700I0J203200D01*
G01*
X76441300Y-60464700D01*
G75*
G02*
X76644500Y-60261500I203200J0D01*
G01*
X78295500Y-60261500D01*
G75*
G02*
X78498700Y-60464700I0J-203200D01*
G01*
X78498700Y-62115700D01*
G75*
G02*
X78295500Y-62318900I-203200J0D01*
G01*
G37*
X80010000Y-68910200D03*
G36*
G01*
X80835500Y-62318900D02*
X79184500Y-62318900D01*
G75*
G02*
X78981300Y-62115700I0J203200D01*
G01*
X78981300Y-60464700D01*
G75*
G02*
X79184500Y-60261500I203200J0D01*
G01*
X80835500Y-60261500D01*
G75*
G02*
X81038700Y-60464700I0J-203200D01*
G01*
X81038700Y-62115700D01*
G75*
G02*
X80835500Y-62318900I-203200J0D01*
G01*
G37*
G36*
G01*
X80429101Y-67386200D02*
X79590899Y-67386200D01*
G75*
G02*
X79387700Y-67183001I0J203199D01*
G01*
X79387700Y-66344799D01*
G75*
G02*
X79590899Y-66141600I203199J0D01*
G01*
X80429101Y-66141600D01*
G75*
G02*
X80632300Y-66344799I0J-203199D01*
G01*
X80632300Y-67183001D01*
G75*
G02*
X80429101Y-67386200I-203199J0D01*
G01*
G37*
G36*
G01*
X80429101Y-64058800D02*
X79590899Y-64058800D01*
G75*
G02*
X79387700Y-63855601I0J203199D01*
G01*
X79387700Y-63017399D01*
G75*
G02*
X79590899Y-62814200I203199J0D01*
G01*
X80429101Y-62814200D01*
G75*
G02*
X80632300Y-63017399I0J-203199D01*
G01*
X80632300Y-63855601D01*
G75*
G02*
X80429101Y-64058800I-203199J0D01*
G01*
G37*
%TD*%
D10*
%TO.C,SW4:13*%
X193992500Y-80972660D03*
X187642500Y-83512660D03*
D13*
X191452500Y-86052660D03*
D14*
X186372500Y-86052660D03*
X196532500Y-86052660D03*
D10*
X195262500Y-83512660D03*
X188912500Y-80972660D03*
D15*
X187642500Y-91132660D03*
G36*
G01*
X194233800Y-91958160D02*
X194233800Y-90307160D01*
G75*
G02*
X194437000Y-90103960I203200J0D01*
G01*
X196088000Y-90103960D01*
G75*
G02*
X196291200Y-90307160I0J-203200D01*
G01*
X196291200Y-91958160D01*
G75*
G02*
X196088000Y-92161360I-203200J0D01*
G01*
X194437000Y-92161360D01*
G75*
G02*
X194233800Y-91958160I0J203200D01*
G01*
G37*
X187642500Y-93672660D03*
G36*
G01*
X194233800Y-94498160D02*
X194233800Y-92847160D01*
G75*
G02*
X194437000Y-92643960I203200J0D01*
G01*
X196088000Y-92643960D01*
G75*
G02*
X196291200Y-92847160I0J-203200D01*
G01*
X196291200Y-94498160D01*
G75*
G02*
X196088000Y-94701360I-203200J0D01*
G01*
X194437000Y-94701360D01*
G75*
G02*
X194233800Y-94498160I0J203200D01*
G01*
G37*
G36*
G01*
X189166500Y-94091761D02*
X189166500Y-93253559D01*
G75*
G02*
X189369699Y-93050360I203199J0D01*
G01*
X190207901Y-93050360D01*
G75*
G02*
X190411100Y-93253559I0J-203199D01*
G01*
X190411100Y-94091761D01*
G75*
G02*
X190207901Y-94294960I-203199J0D01*
G01*
X189369699Y-94294960D01*
G75*
G02*
X189166500Y-94091761I0J203199D01*
G01*
G37*
G36*
G01*
X192493900Y-94091761D02*
X192493900Y-93253559D01*
G75*
G02*
X192697099Y-93050360I203199J0D01*
G01*
X193535301Y-93050360D01*
G75*
G02*
X193738500Y-93253559I0J-203199D01*
G01*
X193738500Y-94091761D01*
G75*
G02*
X193535301Y-94294960I-203199J0D01*
G01*
X192697099Y-94294960D01*
G75*
G02*
X192493900Y-94091761I0J203199D01*
G01*
G37*
%TD*%
D10*
%TO.C,SW4:12*%
X170180000Y-80972660D03*
X163830000Y-83512660D03*
D13*
X167640000Y-86052660D03*
D14*
X162560000Y-86052660D03*
X172720000Y-86052660D03*
D10*
X171450000Y-83512660D03*
X165100000Y-80972660D03*
D15*
X163830000Y-91132660D03*
G36*
G01*
X170421300Y-91958160D02*
X170421300Y-90307160D01*
G75*
G02*
X170624500Y-90103960I203200J0D01*
G01*
X172275500Y-90103960D01*
G75*
G02*
X172478700Y-90307160I0J-203200D01*
G01*
X172478700Y-91958160D01*
G75*
G02*
X172275500Y-92161360I-203200J0D01*
G01*
X170624500Y-92161360D01*
G75*
G02*
X170421300Y-91958160I0J203200D01*
G01*
G37*
X163830000Y-93672660D03*
G36*
G01*
X170421300Y-94498160D02*
X170421300Y-92847160D01*
G75*
G02*
X170624500Y-92643960I203200J0D01*
G01*
X172275500Y-92643960D01*
G75*
G02*
X172478700Y-92847160I0J-203200D01*
G01*
X172478700Y-94498160D01*
G75*
G02*
X172275500Y-94701360I-203200J0D01*
G01*
X170624500Y-94701360D01*
G75*
G02*
X170421300Y-94498160I0J203200D01*
G01*
G37*
G36*
G01*
X165354000Y-94091761D02*
X165354000Y-93253559D01*
G75*
G02*
X165557199Y-93050360I203199J0D01*
G01*
X166395401Y-93050360D01*
G75*
G02*
X166598600Y-93253559I0J-203199D01*
G01*
X166598600Y-94091761D01*
G75*
G02*
X166395401Y-94294960I-203199J0D01*
G01*
X165557199Y-94294960D01*
G75*
G02*
X165354000Y-94091761I0J203199D01*
G01*
G37*
G36*
G01*
X168681400Y-94091761D02*
X168681400Y-93253559D01*
G75*
G02*
X168884599Y-93050360I203199J0D01*
G01*
X169722801Y-93050360D01*
G75*
G02*
X169926000Y-93253559I0J-203199D01*
G01*
X169926000Y-94091761D01*
G75*
G02*
X169722801Y-94294960I-203199J0D01*
G01*
X168884599Y-94294960D01*
G75*
G02*
X168681400Y-94091761I0J203199D01*
G01*
G37*
%TD*%
D10*
%TO.C,SW4:11*%
X151130000Y-77797660D03*
X144780000Y-80337660D03*
D13*
X148590000Y-82877660D03*
D14*
X143510000Y-82877660D03*
X153670000Y-82877660D03*
D10*
X152400000Y-80337660D03*
X146050000Y-77797660D03*
D15*
X144780000Y-87957660D03*
G36*
G01*
X151371300Y-88783160D02*
X151371300Y-87132160D01*
G75*
G02*
X151574500Y-86928960I203200J0D01*
G01*
X153225500Y-86928960D01*
G75*
G02*
X153428700Y-87132160I0J-203200D01*
G01*
X153428700Y-88783160D01*
G75*
G02*
X153225500Y-88986360I-203200J0D01*
G01*
X151574500Y-88986360D01*
G75*
G02*
X151371300Y-88783160I0J203200D01*
G01*
G37*
X144780000Y-90497660D03*
G36*
G01*
X151371300Y-91323160D02*
X151371300Y-89672160D01*
G75*
G02*
X151574500Y-89468960I203200J0D01*
G01*
X153225500Y-89468960D01*
G75*
G02*
X153428700Y-89672160I0J-203200D01*
G01*
X153428700Y-91323160D01*
G75*
G02*
X153225500Y-91526360I-203200J0D01*
G01*
X151574500Y-91526360D01*
G75*
G02*
X151371300Y-91323160I0J203200D01*
G01*
G37*
G36*
G01*
X146304000Y-90916761D02*
X146304000Y-90078559D01*
G75*
G02*
X146507199Y-89875360I203199J0D01*
G01*
X147345401Y-89875360D01*
G75*
G02*
X147548600Y-90078559I0J-203199D01*
G01*
X147548600Y-90916761D01*
G75*
G02*
X147345401Y-91119960I-203199J0D01*
G01*
X146507199Y-91119960D01*
G75*
G02*
X146304000Y-90916761I0J203199D01*
G01*
G37*
G36*
G01*
X149631400Y-90916761D02*
X149631400Y-90078559D01*
G75*
G02*
X149834599Y-89875360I203199J0D01*
G01*
X150672801Y-89875360D01*
G75*
G02*
X150876000Y-90078559I0J-203199D01*
G01*
X150876000Y-90916761D01*
G75*
G02*
X150672801Y-91119960I-203199J0D01*
G01*
X149834599Y-91119960D01*
G75*
G02*
X149631400Y-90916761I0J203199D01*
G01*
G37*
%TD*%
D10*
%TO.C,SW4:10*%
X132080000Y-76200000D03*
X125730000Y-78740000D03*
D13*
X129540000Y-81280000D03*
D14*
X124460000Y-81280000D03*
X134620000Y-81280000D03*
D10*
X133350000Y-78740000D03*
X127000000Y-76200000D03*
D15*
X125730000Y-86360000D03*
G36*
G01*
X132321300Y-87185500D02*
X132321300Y-85534500D01*
G75*
G02*
X132524500Y-85331300I203200J0D01*
G01*
X134175500Y-85331300D01*
G75*
G02*
X134378700Y-85534500I0J-203200D01*
G01*
X134378700Y-87185500D01*
G75*
G02*
X134175500Y-87388700I-203200J0D01*
G01*
X132524500Y-87388700D01*
G75*
G02*
X132321300Y-87185500I0J203200D01*
G01*
G37*
X125730000Y-88900000D03*
G36*
G01*
X132321300Y-89725500D02*
X132321300Y-88074500D01*
G75*
G02*
X132524500Y-87871300I203200J0D01*
G01*
X134175500Y-87871300D01*
G75*
G02*
X134378700Y-88074500I0J-203200D01*
G01*
X134378700Y-89725500D01*
G75*
G02*
X134175500Y-89928700I-203200J0D01*
G01*
X132524500Y-89928700D01*
G75*
G02*
X132321300Y-89725500I0J203200D01*
G01*
G37*
G36*
G01*
X127254000Y-89319101D02*
X127254000Y-88480899D01*
G75*
G02*
X127457199Y-88277700I203199J0D01*
G01*
X128295401Y-88277700D01*
G75*
G02*
X128498600Y-88480899I0J-203199D01*
G01*
X128498600Y-89319101D01*
G75*
G02*
X128295401Y-89522300I-203199J0D01*
G01*
X127457199Y-89522300D01*
G75*
G02*
X127254000Y-89319101I0J203199D01*
G01*
G37*
G36*
G01*
X130581400Y-89319101D02*
X130581400Y-88480899D01*
G75*
G02*
X130784599Y-88277700I203199J0D01*
G01*
X131622801Y-88277700D01*
G75*
G02*
X131826000Y-88480899I0J-203199D01*
G01*
X131826000Y-89319101D01*
G75*
G02*
X131622801Y-89522300I-203199J0D01*
G01*
X130784599Y-89522300D01*
G75*
G02*
X130581400Y-89319101I0J203199D01*
G01*
G37*
%TD*%
D10*
%TO.C,SW4:9*%
X113030000Y-77797660D03*
X106680000Y-80337660D03*
D13*
X110490000Y-82877660D03*
D14*
X105410000Y-82877660D03*
X115570000Y-82877660D03*
D10*
X114300000Y-80337660D03*
X107950000Y-77797660D03*
D15*
X106680000Y-87957660D03*
G36*
G01*
X113271300Y-88783160D02*
X113271300Y-87132160D01*
G75*
G02*
X113474500Y-86928960I203200J0D01*
G01*
X115125500Y-86928960D01*
G75*
G02*
X115328700Y-87132160I0J-203200D01*
G01*
X115328700Y-88783160D01*
G75*
G02*
X115125500Y-88986360I-203200J0D01*
G01*
X113474500Y-88986360D01*
G75*
G02*
X113271300Y-88783160I0J203200D01*
G01*
G37*
X106680000Y-90497660D03*
G36*
G01*
X113271300Y-91323160D02*
X113271300Y-89672160D01*
G75*
G02*
X113474500Y-89468960I203200J0D01*
G01*
X115125500Y-89468960D01*
G75*
G02*
X115328700Y-89672160I0J-203200D01*
G01*
X115328700Y-91323160D01*
G75*
G02*
X115125500Y-91526360I-203200J0D01*
G01*
X113474500Y-91526360D01*
G75*
G02*
X113271300Y-91323160I0J203200D01*
G01*
G37*
G36*
G01*
X108204000Y-90916761D02*
X108204000Y-90078559D01*
G75*
G02*
X108407199Y-89875360I203199J0D01*
G01*
X109245401Y-89875360D01*
G75*
G02*
X109448600Y-90078559I0J-203199D01*
G01*
X109448600Y-90916761D01*
G75*
G02*
X109245401Y-91119960I-203199J0D01*
G01*
X108407199Y-91119960D01*
G75*
G02*
X108204000Y-90916761I0J203199D01*
G01*
G37*
G36*
G01*
X111531400Y-90916761D02*
X111531400Y-90078559D01*
G75*
G02*
X111734599Y-89875360I203199J0D01*
G01*
X112572801Y-89875360D01*
G75*
G02*
X112776000Y-90078559I0J-203199D01*
G01*
X112776000Y-90916761D01*
G75*
G02*
X112572801Y-91119960I-203199J0D01*
G01*
X111734599Y-91119960D01*
G75*
G02*
X111531400Y-90916761I0J203199D01*
G01*
G37*
%TD*%
D10*
%TO.C,SW4:8*%
X93980000Y-79067660D03*
X87630000Y-81607660D03*
D13*
X91440000Y-84147660D03*
D14*
X86360000Y-84147660D03*
X96520000Y-84147660D03*
D10*
X95250000Y-81607660D03*
X88900000Y-79067660D03*
D15*
X87630000Y-89227660D03*
G36*
G01*
X94221300Y-90053160D02*
X94221300Y-88402160D01*
G75*
G02*
X94424500Y-88198960I203200J0D01*
G01*
X96075500Y-88198960D01*
G75*
G02*
X96278700Y-88402160I0J-203200D01*
G01*
X96278700Y-90053160D01*
G75*
G02*
X96075500Y-90256360I-203200J0D01*
G01*
X94424500Y-90256360D01*
G75*
G02*
X94221300Y-90053160I0J203200D01*
G01*
G37*
X87630000Y-91767660D03*
G36*
G01*
X94221300Y-92593160D02*
X94221300Y-90942160D01*
G75*
G02*
X94424500Y-90738960I203200J0D01*
G01*
X96075500Y-90738960D01*
G75*
G02*
X96278700Y-90942160I0J-203200D01*
G01*
X96278700Y-92593160D01*
G75*
G02*
X96075500Y-92796360I-203200J0D01*
G01*
X94424500Y-92796360D01*
G75*
G02*
X94221300Y-92593160I0J203200D01*
G01*
G37*
G36*
G01*
X89154000Y-92186761D02*
X89154000Y-91348559D01*
G75*
G02*
X89357199Y-91145360I203199J0D01*
G01*
X90195401Y-91145360D01*
G75*
G02*
X90398600Y-91348559I0J-203199D01*
G01*
X90398600Y-92186761D01*
G75*
G02*
X90195401Y-92389960I-203199J0D01*
G01*
X89357199Y-92389960D01*
G75*
G02*
X89154000Y-92186761I0J203199D01*
G01*
G37*
G36*
G01*
X92481400Y-92186761D02*
X92481400Y-91348559D01*
G75*
G02*
X92684599Y-91145360I203199J0D01*
G01*
X93522801Y-91145360D01*
G75*
G02*
X93726000Y-91348559I0J-203199D01*
G01*
X93726000Y-92186761D01*
G75*
G02*
X93522801Y-92389960I-203199J0D01*
G01*
X92684599Y-92389960D01*
G75*
G02*
X92481400Y-92186761I0J203199D01*
G01*
G37*
%TD*%
D10*
%TO.C,SW4:7*%
X67310000Y-86370160D03*
X69850000Y-92720160D03*
D13*
X72390000Y-88910160D03*
D14*
X72390000Y-93990160D03*
X72390000Y-83830160D03*
D10*
X69850000Y-85100160D03*
X67310000Y-91450160D03*
D15*
X77470000Y-92720160D03*
G36*
G01*
X78295500Y-86128860D02*
X76644500Y-86128860D01*
G75*
G02*
X76441300Y-85925660I0J203200D01*
G01*
X76441300Y-84274660D01*
G75*
G02*
X76644500Y-84071460I203200J0D01*
G01*
X78295500Y-84071460D01*
G75*
G02*
X78498700Y-84274660I0J-203200D01*
G01*
X78498700Y-85925660D01*
G75*
G02*
X78295500Y-86128860I-203200J0D01*
G01*
G37*
X80010000Y-92720160D03*
G36*
G01*
X80835500Y-86128860D02*
X79184500Y-86128860D01*
G75*
G02*
X78981300Y-85925660I0J203200D01*
G01*
X78981300Y-84274660D01*
G75*
G02*
X79184500Y-84071460I203200J0D01*
G01*
X80835500Y-84071460D01*
G75*
G02*
X81038700Y-84274660I0J-203200D01*
G01*
X81038700Y-85925660D01*
G75*
G02*
X80835500Y-86128860I-203200J0D01*
G01*
G37*
G36*
G01*
X80429101Y-91196160D02*
X79590899Y-91196160D01*
G75*
G02*
X79387700Y-90992961I0J203199D01*
G01*
X79387700Y-90154759D01*
G75*
G02*
X79590899Y-89951560I203199J0D01*
G01*
X80429101Y-89951560D01*
G75*
G02*
X80632300Y-90154759I0J-203199D01*
G01*
X80632300Y-90992961D01*
G75*
G02*
X80429101Y-91196160I-203199J0D01*
G01*
G37*
G36*
G01*
X80429101Y-87868760D02*
X79590899Y-87868760D01*
G75*
G02*
X79387700Y-87665561I0J203199D01*
G01*
X79387700Y-86827359D01*
G75*
G02*
X79590899Y-86624160I203199J0D01*
G01*
X80429101Y-86624160D01*
G75*
G02*
X80632300Y-86827359I0J-203199D01*
G01*
X80632300Y-87665561D01*
G75*
G02*
X80429101Y-87868760I-203199J0D01*
G01*
G37*
%TD*%
D10*
%TO.C,SW3:13*%
X193992500Y-100022660D03*
X187642500Y-102562660D03*
D13*
X191452500Y-105102660D03*
D14*
X186372500Y-105102660D03*
X196532500Y-105102660D03*
D10*
X195262500Y-102562660D03*
X188912500Y-100022660D03*
D15*
X187642500Y-110182660D03*
G36*
G01*
X194233800Y-111008160D02*
X194233800Y-109357160D01*
G75*
G02*
X194437000Y-109153960I203200J0D01*
G01*
X196088000Y-109153960D01*
G75*
G02*
X196291200Y-109357160I0J-203200D01*
G01*
X196291200Y-111008160D01*
G75*
G02*
X196088000Y-111211360I-203200J0D01*
G01*
X194437000Y-111211360D01*
G75*
G02*
X194233800Y-111008160I0J203200D01*
G01*
G37*
X187642500Y-112722660D03*
G36*
G01*
X194233800Y-113548160D02*
X194233800Y-111897160D01*
G75*
G02*
X194437000Y-111693960I203200J0D01*
G01*
X196088000Y-111693960D01*
G75*
G02*
X196291200Y-111897160I0J-203200D01*
G01*
X196291200Y-113548160D01*
G75*
G02*
X196088000Y-113751360I-203200J0D01*
G01*
X194437000Y-113751360D01*
G75*
G02*
X194233800Y-113548160I0J203200D01*
G01*
G37*
G36*
G01*
X189166500Y-113141761D02*
X189166500Y-112303559D01*
G75*
G02*
X189369699Y-112100360I203199J0D01*
G01*
X190207901Y-112100360D01*
G75*
G02*
X190411100Y-112303559I0J-203199D01*
G01*
X190411100Y-113141761D01*
G75*
G02*
X190207901Y-113344960I-203199J0D01*
G01*
X189369699Y-113344960D01*
G75*
G02*
X189166500Y-113141761I0J203199D01*
G01*
G37*
G36*
G01*
X192493900Y-113141761D02*
X192493900Y-112303559D01*
G75*
G02*
X192697099Y-112100360I203199J0D01*
G01*
X193535301Y-112100360D01*
G75*
G02*
X193738500Y-112303559I0J-203199D01*
G01*
X193738500Y-113141761D01*
G75*
G02*
X193535301Y-113344960I-203199J0D01*
G01*
X192697099Y-113344960D01*
G75*
G02*
X192493900Y-113141761I0J203199D01*
G01*
G37*
%TD*%
D10*
%TO.C,SW3:12*%
X170180000Y-100022660D03*
X163830000Y-102562660D03*
D13*
X167640000Y-105102660D03*
D14*
X162560000Y-105102660D03*
X172720000Y-105102660D03*
D10*
X171450000Y-102562660D03*
X165100000Y-100022660D03*
D15*
X163830000Y-110182660D03*
G36*
G01*
X170421300Y-111008160D02*
X170421300Y-109357160D01*
G75*
G02*
X170624500Y-109153960I203200J0D01*
G01*
X172275500Y-109153960D01*
G75*
G02*
X172478700Y-109357160I0J-203200D01*
G01*
X172478700Y-111008160D01*
G75*
G02*
X172275500Y-111211360I-203200J0D01*
G01*
X170624500Y-111211360D01*
G75*
G02*
X170421300Y-111008160I0J203200D01*
G01*
G37*
X163830000Y-112722660D03*
G36*
G01*
X170421300Y-113548160D02*
X170421300Y-111897160D01*
G75*
G02*
X170624500Y-111693960I203200J0D01*
G01*
X172275500Y-111693960D01*
G75*
G02*
X172478700Y-111897160I0J-203200D01*
G01*
X172478700Y-113548160D01*
G75*
G02*
X172275500Y-113751360I-203200J0D01*
G01*
X170624500Y-113751360D01*
G75*
G02*
X170421300Y-113548160I0J203200D01*
G01*
G37*
G36*
G01*
X165354000Y-113141761D02*
X165354000Y-112303559D01*
G75*
G02*
X165557199Y-112100360I203199J0D01*
G01*
X166395401Y-112100360D01*
G75*
G02*
X166598600Y-112303559I0J-203199D01*
G01*
X166598600Y-113141761D01*
G75*
G02*
X166395401Y-113344960I-203199J0D01*
G01*
X165557199Y-113344960D01*
G75*
G02*
X165354000Y-113141761I0J203199D01*
G01*
G37*
G36*
G01*
X168681400Y-113141761D02*
X168681400Y-112303559D01*
G75*
G02*
X168884599Y-112100360I203199J0D01*
G01*
X169722801Y-112100360D01*
G75*
G02*
X169926000Y-112303559I0J-203199D01*
G01*
X169926000Y-113141761D01*
G75*
G02*
X169722801Y-113344960I-203199J0D01*
G01*
X168884599Y-113344960D01*
G75*
G02*
X168681400Y-113141761I0J203199D01*
G01*
G37*
%TD*%
D10*
%TO.C,SW3:11*%
X151130000Y-96847660D03*
X144780000Y-99387660D03*
D13*
X148590000Y-101927660D03*
D14*
X143510000Y-101927660D03*
X153670000Y-101927660D03*
D10*
X152400000Y-99387660D03*
X146050000Y-96847660D03*
D15*
X144780000Y-107007660D03*
G36*
G01*
X151371300Y-107833160D02*
X151371300Y-106182160D01*
G75*
G02*
X151574500Y-105978960I203200J0D01*
G01*
X153225500Y-105978960D01*
G75*
G02*
X153428700Y-106182160I0J-203200D01*
G01*
X153428700Y-107833160D01*
G75*
G02*
X153225500Y-108036360I-203200J0D01*
G01*
X151574500Y-108036360D01*
G75*
G02*
X151371300Y-107833160I0J203200D01*
G01*
G37*
X144780000Y-109547660D03*
G36*
G01*
X151371300Y-110373160D02*
X151371300Y-108722160D01*
G75*
G02*
X151574500Y-108518960I203200J0D01*
G01*
X153225500Y-108518960D01*
G75*
G02*
X153428700Y-108722160I0J-203200D01*
G01*
X153428700Y-110373160D01*
G75*
G02*
X153225500Y-110576360I-203200J0D01*
G01*
X151574500Y-110576360D01*
G75*
G02*
X151371300Y-110373160I0J203200D01*
G01*
G37*
G36*
G01*
X146304000Y-109966761D02*
X146304000Y-109128559D01*
G75*
G02*
X146507199Y-108925360I203199J0D01*
G01*
X147345401Y-108925360D01*
G75*
G02*
X147548600Y-109128559I0J-203199D01*
G01*
X147548600Y-109966761D01*
G75*
G02*
X147345401Y-110169960I-203199J0D01*
G01*
X146507199Y-110169960D01*
G75*
G02*
X146304000Y-109966761I0J203199D01*
G01*
G37*
G36*
G01*
X149631400Y-109966761D02*
X149631400Y-109128559D01*
G75*
G02*
X149834599Y-108925360I203199J0D01*
G01*
X150672801Y-108925360D01*
G75*
G02*
X150876000Y-109128559I0J-203199D01*
G01*
X150876000Y-109966761D01*
G75*
G02*
X150672801Y-110169960I-203199J0D01*
G01*
X149834599Y-110169960D01*
G75*
G02*
X149631400Y-109966761I0J203199D01*
G01*
G37*
%TD*%
D10*
%TO.C,SW3:10*%
X132080000Y-95250000D03*
X125730000Y-97790000D03*
D13*
X129540000Y-100330000D03*
D14*
X124460000Y-100330000D03*
X134620000Y-100330000D03*
D10*
X133350000Y-97790000D03*
X127000000Y-95250000D03*
D15*
X125730000Y-105410000D03*
G36*
G01*
X132321300Y-106235500D02*
X132321300Y-104584500D01*
G75*
G02*
X132524500Y-104381300I203200J0D01*
G01*
X134175500Y-104381300D01*
G75*
G02*
X134378700Y-104584500I0J-203200D01*
G01*
X134378700Y-106235500D01*
G75*
G02*
X134175500Y-106438700I-203200J0D01*
G01*
X132524500Y-106438700D01*
G75*
G02*
X132321300Y-106235500I0J203200D01*
G01*
G37*
X125730000Y-107950000D03*
G36*
G01*
X132321300Y-108775500D02*
X132321300Y-107124500D01*
G75*
G02*
X132524500Y-106921300I203200J0D01*
G01*
X134175500Y-106921300D01*
G75*
G02*
X134378700Y-107124500I0J-203200D01*
G01*
X134378700Y-108775500D01*
G75*
G02*
X134175500Y-108978700I-203200J0D01*
G01*
X132524500Y-108978700D01*
G75*
G02*
X132321300Y-108775500I0J203200D01*
G01*
G37*
G36*
G01*
X127254000Y-108369101D02*
X127254000Y-107530899D01*
G75*
G02*
X127457199Y-107327700I203199J0D01*
G01*
X128295401Y-107327700D01*
G75*
G02*
X128498600Y-107530899I0J-203199D01*
G01*
X128498600Y-108369101D01*
G75*
G02*
X128295401Y-108572300I-203199J0D01*
G01*
X127457199Y-108572300D01*
G75*
G02*
X127254000Y-108369101I0J203199D01*
G01*
G37*
G36*
G01*
X130581400Y-108369101D02*
X130581400Y-107530899D01*
G75*
G02*
X130784599Y-107327700I203199J0D01*
G01*
X131622801Y-107327700D01*
G75*
G02*
X131826000Y-107530899I0J-203199D01*
G01*
X131826000Y-108369101D01*
G75*
G02*
X131622801Y-108572300I-203199J0D01*
G01*
X130784599Y-108572300D01*
G75*
G02*
X130581400Y-108369101I0J203199D01*
G01*
G37*
%TD*%
D10*
%TO.C,SW3:9*%
X113030000Y-96847660D03*
X106680000Y-99387660D03*
D13*
X110490000Y-101927660D03*
D14*
X105410000Y-101927660D03*
X115570000Y-101927660D03*
D10*
X114300000Y-99387660D03*
X107950000Y-96847660D03*
D15*
X106680000Y-107007660D03*
G36*
G01*
X113271300Y-107833160D02*
X113271300Y-106182160D01*
G75*
G02*
X113474500Y-105978960I203200J0D01*
G01*
X115125500Y-105978960D01*
G75*
G02*
X115328700Y-106182160I0J-203200D01*
G01*
X115328700Y-107833160D01*
G75*
G02*
X115125500Y-108036360I-203200J0D01*
G01*
X113474500Y-108036360D01*
G75*
G02*
X113271300Y-107833160I0J203200D01*
G01*
G37*
X106680000Y-109547660D03*
G36*
G01*
X113271300Y-110373160D02*
X113271300Y-108722160D01*
G75*
G02*
X113474500Y-108518960I203200J0D01*
G01*
X115125500Y-108518960D01*
G75*
G02*
X115328700Y-108722160I0J-203200D01*
G01*
X115328700Y-110373160D01*
G75*
G02*
X115125500Y-110576360I-203200J0D01*
G01*
X113474500Y-110576360D01*
G75*
G02*
X113271300Y-110373160I0J203200D01*
G01*
G37*
G36*
G01*
X108204000Y-109966761D02*
X108204000Y-109128559D01*
G75*
G02*
X108407199Y-108925360I203199J0D01*
G01*
X109245401Y-108925360D01*
G75*
G02*
X109448600Y-109128559I0J-203199D01*
G01*
X109448600Y-109966761D01*
G75*
G02*
X109245401Y-110169960I-203199J0D01*
G01*
X108407199Y-110169960D01*
G75*
G02*
X108204000Y-109966761I0J203199D01*
G01*
G37*
G36*
G01*
X111531400Y-109966761D02*
X111531400Y-109128559D01*
G75*
G02*
X111734599Y-108925360I203199J0D01*
G01*
X112572801Y-108925360D01*
G75*
G02*
X112776000Y-109128559I0J-203199D01*
G01*
X112776000Y-109966761D01*
G75*
G02*
X112572801Y-110169960I-203199J0D01*
G01*
X111734599Y-110169960D01*
G75*
G02*
X111531400Y-109966761I0J203199D01*
G01*
G37*
%TD*%
D10*
%TO.C,SW3:8*%
X93980000Y-98117660D03*
X87630000Y-100657660D03*
D13*
X91440000Y-103197660D03*
D14*
X86360000Y-103197660D03*
X96520000Y-103197660D03*
D10*
X95250000Y-100657660D03*
X88900000Y-98117660D03*
D15*
X87630000Y-108277660D03*
G36*
G01*
X94221300Y-109103160D02*
X94221300Y-107452160D01*
G75*
G02*
X94424500Y-107248960I203200J0D01*
G01*
X96075500Y-107248960D01*
G75*
G02*
X96278700Y-107452160I0J-203200D01*
G01*
X96278700Y-109103160D01*
G75*
G02*
X96075500Y-109306360I-203200J0D01*
G01*
X94424500Y-109306360D01*
G75*
G02*
X94221300Y-109103160I0J203200D01*
G01*
G37*
X87630000Y-110817660D03*
G36*
G01*
X94221300Y-111643160D02*
X94221300Y-109992160D01*
G75*
G02*
X94424500Y-109788960I203200J0D01*
G01*
X96075500Y-109788960D01*
G75*
G02*
X96278700Y-109992160I0J-203200D01*
G01*
X96278700Y-111643160D01*
G75*
G02*
X96075500Y-111846360I-203200J0D01*
G01*
X94424500Y-111846360D01*
G75*
G02*
X94221300Y-111643160I0J203200D01*
G01*
G37*
G36*
G01*
X89154000Y-111236761D02*
X89154000Y-110398559D01*
G75*
G02*
X89357199Y-110195360I203199J0D01*
G01*
X90195401Y-110195360D01*
G75*
G02*
X90398600Y-110398559I0J-203199D01*
G01*
X90398600Y-111236761D01*
G75*
G02*
X90195401Y-111439960I-203199J0D01*
G01*
X89357199Y-111439960D01*
G75*
G02*
X89154000Y-111236761I0J203199D01*
G01*
G37*
G36*
G01*
X92481400Y-111236761D02*
X92481400Y-110398559D01*
G75*
G02*
X92684599Y-110195360I203199J0D01*
G01*
X93522801Y-110195360D01*
G75*
G02*
X93726000Y-110398559I0J-203199D01*
G01*
X93726000Y-111236761D01*
G75*
G02*
X93522801Y-111439960I-203199J0D01*
G01*
X92684599Y-111439960D01*
G75*
G02*
X92481400Y-111236761I0J203199D01*
G01*
G37*
%TD*%
D10*
%TO.C,SW2:13*%
X193992500Y-119072660D03*
X187642500Y-121612660D03*
D13*
X191452500Y-124152660D03*
D14*
X186372500Y-124152660D03*
X196532500Y-124152660D03*
D10*
X195262500Y-121612660D03*
X188912500Y-119072660D03*
D15*
X187642500Y-129232660D03*
G36*
G01*
X194233800Y-130058160D02*
X194233800Y-128407160D01*
G75*
G02*
X194437000Y-128203960I203200J0D01*
G01*
X196088000Y-128203960D01*
G75*
G02*
X196291200Y-128407160I0J-203200D01*
G01*
X196291200Y-130058160D01*
G75*
G02*
X196088000Y-130261360I-203200J0D01*
G01*
X194437000Y-130261360D01*
G75*
G02*
X194233800Y-130058160I0J203200D01*
G01*
G37*
X187642500Y-131772660D03*
G36*
G01*
X194233800Y-132598160D02*
X194233800Y-130947160D01*
G75*
G02*
X194437000Y-130743960I203200J0D01*
G01*
X196088000Y-130743960D01*
G75*
G02*
X196291200Y-130947160I0J-203200D01*
G01*
X196291200Y-132598160D01*
G75*
G02*
X196088000Y-132801360I-203200J0D01*
G01*
X194437000Y-132801360D01*
G75*
G02*
X194233800Y-132598160I0J203200D01*
G01*
G37*
G36*
G01*
X189166500Y-132191761D02*
X189166500Y-131353559D01*
G75*
G02*
X189369699Y-131150360I203199J0D01*
G01*
X190207901Y-131150360D01*
G75*
G02*
X190411100Y-131353559I0J-203199D01*
G01*
X190411100Y-132191761D01*
G75*
G02*
X190207901Y-132394960I-203199J0D01*
G01*
X189369699Y-132394960D01*
G75*
G02*
X189166500Y-132191761I0J203199D01*
G01*
G37*
G36*
G01*
X192493900Y-132191761D02*
X192493900Y-131353559D01*
G75*
G02*
X192697099Y-131150360I203199J0D01*
G01*
X193535301Y-131150360D01*
G75*
G02*
X193738500Y-131353559I0J-203199D01*
G01*
X193738500Y-132191761D01*
G75*
G02*
X193535301Y-132394960I-203199J0D01*
G01*
X192697099Y-132394960D01*
G75*
G02*
X192493900Y-132191761I0J203199D01*
G01*
G37*
%TD*%
D10*
%TO.C,SW2:12*%
X170180000Y-119072660D03*
X163830000Y-121612660D03*
D13*
X167640000Y-124152660D03*
D14*
X162560000Y-124152660D03*
X172720000Y-124152660D03*
D10*
X171450000Y-121612660D03*
X165100000Y-119072660D03*
D15*
X163830000Y-129232660D03*
G36*
G01*
X170421300Y-130058160D02*
X170421300Y-128407160D01*
G75*
G02*
X170624500Y-128203960I203200J0D01*
G01*
X172275500Y-128203960D01*
G75*
G02*
X172478700Y-128407160I0J-203200D01*
G01*
X172478700Y-130058160D01*
G75*
G02*
X172275500Y-130261360I-203200J0D01*
G01*
X170624500Y-130261360D01*
G75*
G02*
X170421300Y-130058160I0J203200D01*
G01*
G37*
X163830000Y-131772660D03*
G36*
G01*
X170421300Y-132598160D02*
X170421300Y-130947160D01*
G75*
G02*
X170624500Y-130743960I203200J0D01*
G01*
X172275500Y-130743960D01*
G75*
G02*
X172478700Y-130947160I0J-203200D01*
G01*
X172478700Y-132598160D01*
G75*
G02*
X172275500Y-132801360I-203200J0D01*
G01*
X170624500Y-132801360D01*
G75*
G02*
X170421300Y-132598160I0J203200D01*
G01*
G37*
G36*
G01*
X165354000Y-132191761D02*
X165354000Y-131353559D01*
G75*
G02*
X165557199Y-131150360I203199J0D01*
G01*
X166395401Y-131150360D01*
G75*
G02*
X166598600Y-131353559I0J-203199D01*
G01*
X166598600Y-132191761D01*
G75*
G02*
X166395401Y-132394960I-203199J0D01*
G01*
X165557199Y-132394960D01*
G75*
G02*
X165354000Y-132191761I0J203199D01*
G01*
G37*
G36*
G01*
X168681400Y-132191761D02*
X168681400Y-131353559D01*
G75*
G02*
X168884599Y-131150360I203199J0D01*
G01*
X169722801Y-131150360D01*
G75*
G02*
X169926000Y-131353559I0J-203199D01*
G01*
X169926000Y-132191761D01*
G75*
G02*
X169722801Y-132394960I-203199J0D01*
G01*
X168884599Y-132394960D01*
G75*
G02*
X168681400Y-132191761I0J203199D01*
G01*
G37*
%TD*%
D10*
%TO.C,SW2:11*%
X151130000Y-115897660D03*
X144780000Y-118437660D03*
D13*
X148590000Y-120977660D03*
D14*
X143510000Y-120977660D03*
X153670000Y-120977660D03*
D10*
X152400000Y-118437660D03*
X146050000Y-115897660D03*
D15*
X144780000Y-126057660D03*
G36*
G01*
X151371300Y-126883160D02*
X151371300Y-125232160D01*
G75*
G02*
X151574500Y-125028960I203200J0D01*
G01*
X153225500Y-125028960D01*
G75*
G02*
X153428700Y-125232160I0J-203200D01*
G01*
X153428700Y-126883160D01*
G75*
G02*
X153225500Y-127086360I-203200J0D01*
G01*
X151574500Y-127086360D01*
G75*
G02*
X151371300Y-126883160I0J203200D01*
G01*
G37*
X144780000Y-128597660D03*
G36*
G01*
X151371300Y-129423160D02*
X151371300Y-127772160D01*
G75*
G02*
X151574500Y-127568960I203200J0D01*
G01*
X153225500Y-127568960D01*
G75*
G02*
X153428700Y-127772160I0J-203200D01*
G01*
X153428700Y-129423160D01*
G75*
G02*
X153225500Y-129626360I-203200J0D01*
G01*
X151574500Y-129626360D01*
G75*
G02*
X151371300Y-129423160I0J203200D01*
G01*
G37*
G36*
G01*
X146304000Y-129016761D02*
X146304000Y-128178559D01*
G75*
G02*
X146507199Y-127975360I203199J0D01*
G01*
X147345401Y-127975360D01*
G75*
G02*
X147548600Y-128178559I0J-203199D01*
G01*
X147548600Y-129016761D01*
G75*
G02*
X147345401Y-129219960I-203199J0D01*
G01*
X146507199Y-129219960D01*
G75*
G02*
X146304000Y-129016761I0J203199D01*
G01*
G37*
G36*
G01*
X149631400Y-129016761D02*
X149631400Y-128178559D01*
G75*
G02*
X149834599Y-127975360I203199J0D01*
G01*
X150672801Y-127975360D01*
G75*
G02*
X150876000Y-128178559I0J-203199D01*
G01*
X150876000Y-129016761D01*
G75*
G02*
X150672801Y-129219960I-203199J0D01*
G01*
X149834599Y-129219960D01*
G75*
G02*
X149631400Y-129016761I0J203199D01*
G01*
G37*
%TD*%
D10*
%TO.C,SW2:10*%
X132080000Y-114300000D03*
X125730000Y-116840000D03*
D13*
X129540000Y-119380000D03*
D14*
X124460000Y-119380000D03*
X134620000Y-119380000D03*
D10*
X133350000Y-116840000D03*
X127000000Y-114300000D03*
D15*
X125730000Y-124460000D03*
G36*
G01*
X132321300Y-125285500D02*
X132321300Y-123634500D01*
G75*
G02*
X132524500Y-123431300I203200J0D01*
G01*
X134175500Y-123431300D01*
G75*
G02*
X134378700Y-123634500I0J-203200D01*
G01*
X134378700Y-125285500D01*
G75*
G02*
X134175500Y-125488700I-203200J0D01*
G01*
X132524500Y-125488700D01*
G75*
G02*
X132321300Y-125285500I0J203200D01*
G01*
G37*
X125730000Y-127000000D03*
G36*
G01*
X132321300Y-127825500D02*
X132321300Y-126174500D01*
G75*
G02*
X132524500Y-125971300I203200J0D01*
G01*
X134175500Y-125971300D01*
G75*
G02*
X134378700Y-126174500I0J-203200D01*
G01*
X134378700Y-127825500D01*
G75*
G02*
X134175500Y-128028700I-203200J0D01*
G01*
X132524500Y-128028700D01*
G75*
G02*
X132321300Y-127825500I0J203200D01*
G01*
G37*
G36*
G01*
X127254000Y-127419101D02*
X127254000Y-126580899D01*
G75*
G02*
X127457199Y-126377700I203199J0D01*
G01*
X128295401Y-126377700D01*
G75*
G02*
X128498600Y-126580899I0J-203199D01*
G01*
X128498600Y-127419101D01*
G75*
G02*
X128295401Y-127622300I-203199J0D01*
G01*
X127457199Y-127622300D01*
G75*
G02*
X127254000Y-127419101I0J203199D01*
G01*
G37*
G36*
G01*
X130581400Y-127419101D02*
X130581400Y-126580899D01*
G75*
G02*
X130784599Y-126377700I203199J0D01*
G01*
X131622801Y-126377700D01*
G75*
G02*
X131826000Y-126580899I0J-203199D01*
G01*
X131826000Y-127419101D01*
G75*
G02*
X131622801Y-127622300I-203199J0D01*
G01*
X130784599Y-127622300D01*
G75*
G02*
X130581400Y-127419101I0J203199D01*
G01*
G37*
%TD*%
D10*
%TO.C,SW2:9*%
X113030000Y-115897660D03*
X106680000Y-118437660D03*
D13*
X110490000Y-120977660D03*
D14*
X105410000Y-120977660D03*
X115570000Y-120977660D03*
D10*
X114300000Y-118437660D03*
X107950000Y-115897660D03*
D15*
X106680000Y-126057660D03*
G36*
G01*
X113271300Y-126883160D02*
X113271300Y-125232160D01*
G75*
G02*
X113474500Y-125028960I203200J0D01*
G01*
X115125500Y-125028960D01*
G75*
G02*
X115328700Y-125232160I0J-203200D01*
G01*
X115328700Y-126883160D01*
G75*
G02*
X115125500Y-127086360I-203200J0D01*
G01*
X113474500Y-127086360D01*
G75*
G02*
X113271300Y-126883160I0J203200D01*
G01*
G37*
X106680000Y-128597660D03*
G36*
G01*
X113271300Y-129423160D02*
X113271300Y-127772160D01*
G75*
G02*
X113474500Y-127568960I203200J0D01*
G01*
X115125500Y-127568960D01*
G75*
G02*
X115328700Y-127772160I0J-203200D01*
G01*
X115328700Y-129423160D01*
G75*
G02*
X115125500Y-129626360I-203200J0D01*
G01*
X113474500Y-129626360D01*
G75*
G02*
X113271300Y-129423160I0J203200D01*
G01*
G37*
G36*
G01*
X108204000Y-129016761D02*
X108204000Y-128178559D01*
G75*
G02*
X108407199Y-127975360I203199J0D01*
G01*
X109245401Y-127975360D01*
G75*
G02*
X109448600Y-128178559I0J-203199D01*
G01*
X109448600Y-129016761D01*
G75*
G02*
X109245401Y-129219960I-203199J0D01*
G01*
X108407199Y-129219960D01*
G75*
G02*
X108204000Y-129016761I0J203199D01*
G01*
G37*
G36*
G01*
X111531400Y-129016761D02*
X111531400Y-128178559D01*
G75*
G02*
X111734599Y-127975360I203199J0D01*
G01*
X112572801Y-127975360D01*
G75*
G02*
X112776000Y-128178559I0J-203199D01*
G01*
X112776000Y-129016761D01*
G75*
G02*
X112572801Y-129219960I-203199J0D01*
G01*
X111734599Y-129219960D01*
G75*
G02*
X111531400Y-129016761I0J203199D01*
G01*
G37*
%TD*%
D10*
%TO.C,SW2:8*%
X93980000Y-117167660D03*
X87630000Y-119707660D03*
D13*
X91440000Y-122247660D03*
D14*
X86360000Y-122247660D03*
X96520000Y-122247660D03*
D10*
X95250000Y-119707660D03*
X88900000Y-117167660D03*
D15*
X87630000Y-127327660D03*
G36*
G01*
X94221300Y-128153160D02*
X94221300Y-126502160D01*
G75*
G02*
X94424500Y-126298960I203200J0D01*
G01*
X96075500Y-126298960D01*
G75*
G02*
X96278700Y-126502160I0J-203200D01*
G01*
X96278700Y-128153160D01*
G75*
G02*
X96075500Y-128356360I-203200J0D01*
G01*
X94424500Y-128356360D01*
G75*
G02*
X94221300Y-128153160I0J203200D01*
G01*
G37*
X87630000Y-129867660D03*
G36*
G01*
X94221300Y-130693160D02*
X94221300Y-129042160D01*
G75*
G02*
X94424500Y-128838960I203200J0D01*
G01*
X96075500Y-128838960D01*
G75*
G02*
X96278700Y-129042160I0J-203200D01*
G01*
X96278700Y-130693160D01*
G75*
G02*
X96075500Y-130896360I-203200J0D01*
G01*
X94424500Y-130896360D01*
G75*
G02*
X94221300Y-130693160I0J203200D01*
G01*
G37*
G36*
G01*
X89154000Y-130286761D02*
X89154000Y-129448559D01*
G75*
G02*
X89357199Y-129245360I203199J0D01*
G01*
X90195401Y-129245360D01*
G75*
G02*
X90398600Y-129448559I0J-203199D01*
G01*
X90398600Y-130286761D01*
G75*
G02*
X90195401Y-130489960I-203199J0D01*
G01*
X89357199Y-130489960D01*
G75*
G02*
X89154000Y-130286761I0J203199D01*
G01*
G37*
G36*
G01*
X92481400Y-130286761D02*
X92481400Y-129448559D01*
G75*
G02*
X92684599Y-129245360I203199J0D01*
G01*
X93522801Y-129245360D01*
G75*
G02*
X93726000Y-129448559I0J-203199D01*
G01*
X93726000Y-130286761D01*
G75*
G02*
X93522801Y-130489960I-203199J0D01*
G01*
X92684599Y-130489960D01*
G75*
G02*
X92481400Y-130286761I0J203199D01*
G01*
G37*
%TD*%
D10*
%TO.C,SW2:7*%
X67310000Y-114945160D03*
X69850000Y-121295160D03*
D13*
X72390000Y-117485160D03*
D14*
X72390000Y-122565160D03*
X72390000Y-112405160D03*
D10*
X69850000Y-113675160D03*
X67310000Y-120025160D03*
D15*
X77470000Y-121295160D03*
G36*
G01*
X78295500Y-114703860D02*
X76644500Y-114703860D01*
G75*
G02*
X76441300Y-114500660I0J203200D01*
G01*
X76441300Y-112849660D01*
G75*
G02*
X76644500Y-112646460I203200J0D01*
G01*
X78295500Y-112646460D01*
G75*
G02*
X78498700Y-112849660I0J-203200D01*
G01*
X78498700Y-114500660D01*
G75*
G02*
X78295500Y-114703860I-203200J0D01*
G01*
G37*
X80010000Y-121295160D03*
G36*
G01*
X80835500Y-114703860D02*
X79184500Y-114703860D01*
G75*
G02*
X78981300Y-114500660I0J203200D01*
G01*
X78981300Y-112849660D01*
G75*
G02*
X79184500Y-112646460I203200J0D01*
G01*
X80835500Y-112646460D01*
G75*
G02*
X81038700Y-112849660I0J-203200D01*
G01*
X81038700Y-114500660D01*
G75*
G02*
X80835500Y-114703860I-203200J0D01*
G01*
G37*
G36*
G01*
X80429101Y-119771160D02*
X79590899Y-119771160D01*
G75*
G02*
X79387700Y-119567961I0J203199D01*
G01*
X79387700Y-118729759D01*
G75*
G02*
X79590899Y-118526560I203199J0D01*
G01*
X80429101Y-118526560D01*
G75*
G02*
X80632300Y-118729759I0J-203199D01*
G01*
X80632300Y-119567961D01*
G75*
G02*
X80429101Y-119771160I-203199J0D01*
G01*
G37*
G36*
G01*
X80429101Y-116443760D02*
X79590899Y-116443760D01*
G75*
G02*
X79387700Y-116240561I0J203199D01*
G01*
X79387700Y-115402359D01*
G75*
G02*
X79590899Y-115199160I203199J0D01*
G01*
X80429101Y-115199160D01*
G75*
G02*
X80632300Y-115402359I0J-203199D01*
G01*
X80632300Y-116240561D01*
G75*
G02*
X80429101Y-116443760I-203199J0D01*
G01*
G37*
%TD*%
D10*
%TO.C,SW1:13*%
X189230000Y-138122660D03*
X182880000Y-140662660D03*
D13*
X186690000Y-143202660D03*
D14*
X181610000Y-143202660D03*
X191770000Y-143202660D03*
D10*
X190500000Y-140662660D03*
X184150000Y-138122660D03*
D15*
X182880000Y-148282660D03*
G36*
G01*
X189471300Y-149108160D02*
X189471300Y-147457160D01*
G75*
G02*
X189674500Y-147253960I203200J0D01*
G01*
X191325500Y-147253960D01*
G75*
G02*
X191528700Y-147457160I0J-203200D01*
G01*
X191528700Y-149108160D01*
G75*
G02*
X191325500Y-149311360I-203200J0D01*
G01*
X189674500Y-149311360D01*
G75*
G02*
X189471300Y-149108160I0J203200D01*
G01*
G37*
X182880000Y-150822660D03*
G36*
G01*
X189471300Y-151648160D02*
X189471300Y-149997160D01*
G75*
G02*
X189674500Y-149793960I203200J0D01*
G01*
X191325500Y-149793960D01*
G75*
G02*
X191528700Y-149997160I0J-203200D01*
G01*
X191528700Y-151648160D01*
G75*
G02*
X191325500Y-151851360I-203200J0D01*
G01*
X189674500Y-151851360D01*
G75*
G02*
X189471300Y-151648160I0J203200D01*
G01*
G37*
G36*
G01*
X184404000Y-151241761D02*
X184404000Y-150403559D01*
G75*
G02*
X184607199Y-150200360I203199J0D01*
G01*
X185445401Y-150200360D01*
G75*
G02*
X185648600Y-150403559I0J-203199D01*
G01*
X185648600Y-151241761D01*
G75*
G02*
X185445401Y-151444960I-203199J0D01*
G01*
X184607199Y-151444960D01*
G75*
G02*
X184404000Y-151241761I0J203199D01*
G01*
G37*
G36*
G01*
X187731400Y-151241761D02*
X187731400Y-150403559D01*
G75*
G02*
X187934599Y-150200360I203199J0D01*
G01*
X188772801Y-150200360D01*
G75*
G02*
X188976000Y-150403559I0J-203199D01*
G01*
X188976000Y-151241761D01*
G75*
G02*
X188772801Y-151444960I-203199J0D01*
G01*
X187934599Y-151444960D01*
G75*
G02*
X187731400Y-151241761I0J203199D01*
G01*
G37*
%TD*%
D10*
%TO.C,SW1:12*%
X170180000Y-138122660D03*
X163830000Y-140662660D03*
D13*
X167640000Y-143202660D03*
D14*
X162560000Y-143202660D03*
X172720000Y-143202660D03*
D10*
X171450000Y-140662660D03*
X165100000Y-138122660D03*
D15*
X163830000Y-148282660D03*
G36*
G01*
X170421300Y-149108160D02*
X170421300Y-147457160D01*
G75*
G02*
X170624500Y-147253960I203200J0D01*
G01*
X172275500Y-147253960D01*
G75*
G02*
X172478700Y-147457160I0J-203200D01*
G01*
X172478700Y-149108160D01*
G75*
G02*
X172275500Y-149311360I-203200J0D01*
G01*
X170624500Y-149311360D01*
G75*
G02*
X170421300Y-149108160I0J203200D01*
G01*
G37*
X163830000Y-150822660D03*
G36*
G01*
X170421300Y-151648160D02*
X170421300Y-149997160D01*
G75*
G02*
X170624500Y-149793960I203200J0D01*
G01*
X172275500Y-149793960D01*
G75*
G02*
X172478700Y-149997160I0J-203200D01*
G01*
X172478700Y-151648160D01*
G75*
G02*
X172275500Y-151851360I-203200J0D01*
G01*
X170624500Y-151851360D01*
G75*
G02*
X170421300Y-151648160I0J203200D01*
G01*
G37*
G36*
G01*
X165354000Y-151241761D02*
X165354000Y-150403559D01*
G75*
G02*
X165557199Y-150200360I203199J0D01*
G01*
X166395401Y-150200360D01*
G75*
G02*
X166598600Y-150403559I0J-203199D01*
G01*
X166598600Y-151241761D01*
G75*
G02*
X166395401Y-151444960I-203199J0D01*
G01*
X165557199Y-151444960D01*
G75*
G02*
X165354000Y-151241761I0J203199D01*
G01*
G37*
G36*
G01*
X168681400Y-151241761D02*
X168681400Y-150403559D01*
G75*
G02*
X168884599Y-150200360I203199J0D01*
G01*
X169722801Y-150200360D01*
G75*
G02*
X169926000Y-150403559I0J-203199D01*
G01*
X169926000Y-151241761D01*
G75*
G02*
X169722801Y-151444960I-203199J0D01*
G01*
X168884599Y-151444960D01*
G75*
G02*
X168681400Y-151241761I0J203199D01*
G01*
G37*
%TD*%
D10*
%TO.C,SW1:11*%
X151130000Y-134947660D03*
X144780000Y-137487660D03*
D13*
X148590000Y-140027660D03*
D14*
X143510000Y-140027660D03*
X153670000Y-140027660D03*
D10*
X152400000Y-137487660D03*
X146050000Y-134947660D03*
D15*
X144780000Y-145107660D03*
G36*
G01*
X151371300Y-145933160D02*
X151371300Y-144282160D01*
G75*
G02*
X151574500Y-144078960I203200J0D01*
G01*
X153225500Y-144078960D01*
G75*
G02*
X153428700Y-144282160I0J-203200D01*
G01*
X153428700Y-145933160D01*
G75*
G02*
X153225500Y-146136360I-203200J0D01*
G01*
X151574500Y-146136360D01*
G75*
G02*
X151371300Y-145933160I0J203200D01*
G01*
G37*
X144780000Y-147647660D03*
G36*
G01*
X151371300Y-148473160D02*
X151371300Y-146822160D01*
G75*
G02*
X151574500Y-146618960I203200J0D01*
G01*
X153225500Y-146618960D01*
G75*
G02*
X153428700Y-146822160I0J-203200D01*
G01*
X153428700Y-148473160D01*
G75*
G02*
X153225500Y-148676360I-203200J0D01*
G01*
X151574500Y-148676360D01*
G75*
G02*
X151371300Y-148473160I0J203200D01*
G01*
G37*
G36*
G01*
X146304000Y-148066761D02*
X146304000Y-147228559D01*
G75*
G02*
X146507199Y-147025360I203199J0D01*
G01*
X147345401Y-147025360D01*
G75*
G02*
X147548600Y-147228559I0J-203199D01*
G01*
X147548600Y-148066761D01*
G75*
G02*
X147345401Y-148269960I-203199J0D01*
G01*
X146507199Y-148269960D01*
G75*
G02*
X146304000Y-148066761I0J203199D01*
G01*
G37*
G36*
G01*
X149631400Y-148066761D02*
X149631400Y-147228559D01*
G75*
G02*
X149834599Y-147025360I203199J0D01*
G01*
X150672801Y-147025360D01*
G75*
G02*
X150876000Y-147228559I0J-203199D01*
G01*
X150876000Y-148066761D01*
G75*
G02*
X150672801Y-148269960I-203199J0D01*
G01*
X149834599Y-148269960D01*
G75*
G02*
X149631400Y-148066761I0J203199D01*
G01*
G37*
%TD*%
D10*
%TO.C,SW1:10*%
X132080000Y-133350000D03*
X125730000Y-135890000D03*
D13*
X129540000Y-138430000D03*
D14*
X124460000Y-138430000D03*
X134620000Y-138430000D03*
D10*
X133350000Y-135890000D03*
X127000000Y-133350000D03*
D15*
X125730000Y-143510000D03*
G36*
G01*
X132321300Y-144335500D02*
X132321300Y-142684500D01*
G75*
G02*
X132524500Y-142481300I203200J0D01*
G01*
X134175500Y-142481300D01*
G75*
G02*
X134378700Y-142684500I0J-203200D01*
G01*
X134378700Y-144335500D01*
G75*
G02*
X134175500Y-144538700I-203200J0D01*
G01*
X132524500Y-144538700D01*
G75*
G02*
X132321300Y-144335500I0J203200D01*
G01*
G37*
X125730000Y-146050000D03*
G36*
G01*
X132321300Y-146875500D02*
X132321300Y-145224500D01*
G75*
G02*
X132524500Y-145021300I203200J0D01*
G01*
X134175500Y-145021300D01*
G75*
G02*
X134378700Y-145224500I0J-203200D01*
G01*
X134378700Y-146875500D01*
G75*
G02*
X134175500Y-147078700I-203200J0D01*
G01*
X132524500Y-147078700D01*
G75*
G02*
X132321300Y-146875500I0J203200D01*
G01*
G37*
G36*
G01*
X127254000Y-146469101D02*
X127254000Y-145630899D01*
G75*
G02*
X127457199Y-145427700I203199J0D01*
G01*
X128295401Y-145427700D01*
G75*
G02*
X128498600Y-145630899I0J-203199D01*
G01*
X128498600Y-146469101D01*
G75*
G02*
X128295401Y-146672300I-203199J0D01*
G01*
X127457199Y-146672300D01*
G75*
G02*
X127254000Y-146469101I0J203199D01*
G01*
G37*
G36*
G01*
X130581400Y-146469101D02*
X130581400Y-145630899D01*
G75*
G02*
X130784599Y-145427700I203199J0D01*
G01*
X131622801Y-145427700D01*
G75*
G02*
X131826000Y-145630899I0J-203199D01*
G01*
X131826000Y-146469101D01*
G75*
G02*
X131622801Y-146672300I-203199J0D01*
G01*
X130784599Y-146672300D01*
G75*
G02*
X130581400Y-146469101I0J203199D01*
G01*
G37*
%TD*%
D10*
%TO.C,SW1:9*%
X113030000Y-134947660D03*
X106680000Y-137487660D03*
D13*
X110490000Y-140027660D03*
D14*
X105410000Y-140027660D03*
X115570000Y-140027660D03*
D10*
X114300000Y-137487660D03*
X107950000Y-134947660D03*
D15*
X106680000Y-145107660D03*
G36*
G01*
X113271300Y-145933160D02*
X113271300Y-144282160D01*
G75*
G02*
X113474500Y-144078960I203200J0D01*
G01*
X115125500Y-144078960D01*
G75*
G02*
X115328700Y-144282160I0J-203200D01*
G01*
X115328700Y-145933160D01*
G75*
G02*
X115125500Y-146136360I-203200J0D01*
G01*
X113474500Y-146136360D01*
G75*
G02*
X113271300Y-145933160I0J203200D01*
G01*
G37*
X106680000Y-147647660D03*
G36*
G01*
X113271300Y-148473160D02*
X113271300Y-146822160D01*
G75*
G02*
X113474500Y-146618960I203200J0D01*
G01*
X115125500Y-146618960D01*
G75*
G02*
X115328700Y-146822160I0J-203200D01*
G01*
X115328700Y-148473160D01*
G75*
G02*
X115125500Y-148676360I-203200J0D01*
G01*
X113474500Y-148676360D01*
G75*
G02*
X113271300Y-148473160I0J203200D01*
G01*
G37*
G36*
G01*
X108204000Y-148066761D02*
X108204000Y-147228559D01*
G75*
G02*
X108407199Y-147025360I203199J0D01*
G01*
X109245401Y-147025360D01*
G75*
G02*
X109448600Y-147228559I0J-203199D01*
G01*
X109448600Y-148066761D01*
G75*
G02*
X109245401Y-148269960I-203199J0D01*
G01*
X108407199Y-148269960D01*
G75*
G02*
X108204000Y-148066761I0J203199D01*
G01*
G37*
G36*
G01*
X111531400Y-148066761D02*
X111531400Y-147228559D01*
G75*
G02*
X111734599Y-147025360I203199J0D01*
G01*
X112572801Y-147025360D01*
G75*
G02*
X112776000Y-147228559I0J-203199D01*
G01*
X112776000Y-148066761D01*
G75*
G02*
X112572801Y-148269960I-203199J0D01*
G01*
X111734599Y-148269960D01*
G75*
G02*
X111531400Y-148066761I0J203199D01*
G01*
G37*
%TD*%
D10*
%TO.C,SW0:12*%
X50955121Y-172122506D03*
X46273517Y-177108154D03*
D13*
X50800000Y-177800000D03*
D14*
X46195956Y-179946901D03*
X55404044Y-175653099D03*
D10*
X53179582Y-173887803D03*
X46351077Y-174269407D03*
D15*
X49493868Y-184014219D03*
G36*
G01*
X55816485Y-181976772D02*
X55118743Y-180480458D01*
G75*
G02*
X55217029Y-180210420I184162J85876D01*
G01*
X56713343Y-179512678D01*
G75*
G02*
X56983381Y-179610964I85876J-184162D01*
G01*
X57681123Y-181107278D01*
G75*
G02*
X57582837Y-181377316I-184162J-85876D01*
G01*
X56086523Y-182075058D01*
G75*
G02*
X55816485Y-181976772I-85876J184162D01*
G01*
G37*
X50567318Y-186316241D03*
G36*
G01*
X56889936Y-184278794D02*
X56192194Y-182782480D01*
G75*
G02*
X56290480Y-182512442I184162J85876D01*
G01*
X57786794Y-181814700D01*
G75*
G02*
X58056832Y-181912986I85876J-184162D01*
G01*
X58754574Y-183409300D01*
G75*
G02*
X58656288Y-183679338I-184162J-85876D01*
G01*
X57159974Y-184377080D01*
G75*
G02*
X56889936Y-184278794I-85876J184162D01*
G01*
G37*
G36*
G01*
X52125651Y-186052005D02*
X51771412Y-185292336D01*
G75*
G02*
X51869697Y-185022299I184161J85876D01*
G01*
X52629366Y-184668060D01*
G75*
G02*
X52899403Y-184766345I85876J-184161D01*
G01*
X53253642Y-185526014D01*
G75*
G02*
X53155357Y-185796051I-184161J-85876D01*
G01*
X52395688Y-186150290D01*
G75*
G02*
X52125651Y-186052005I-85876J184161D01*
G01*
G37*
G36*
G01*
X55141299Y-184645785D02*
X54787060Y-183886116D01*
G75*
G02*
X54885345Y-183616079I184161J85876D01*
G01*
X55645014Y-183261840D01*
G75*
G02*
X55915051Y-183360125I85876J-184161D01*
G01*
X56269290Y-184119794D01*
G75*
G02*
X56171005Y-184389831I-184161J-85876D01*
G01*
X55411336Y-184744070D01*
G75*
G02*
X55141299Y-184645785I-85876J184161D01*
G01*
G37*
%TD*%
D10*
%TO.C,SW0:9*%
X42903321Y-154855586D03*
X38221717Y-159841234D03*
D13*
X42748200Y-160533080D03*
D14*
X38144156Y-162679981D03*
X47352244Y-158386179D03*
D10*
X45127782Y-156620883D03*
X38299277Y-157002487D03*
D15*
X41442068Y-166747299D03*
G36*
G01*
X47764685Y-164709852D02*
X47066943Y-163213538D01*
G75*
G02*
X47165229Y-162943500I184162J85876D01*
G01*
X48661543Y-162245758D01*
G75*
G02*
X48931581Y-162344044I85876J-184162D01*
G01*
X49629323Y-163840358D01*
G75*
G02*
X49531037Y-164110396I-184162J-85876D01*
G01*
X48034723Y-164808138D01*
G75*
G02*
X47764685Y-164709852I-85876J184162D01*
G01*
G37*
X42515518Y-169049321D03*
G36*
G01*
X48838136Y-167011874D02*
X48140394Y-165515560D01*
G75*
G02*
X48238680Y-165245522I184162J85876D01*
G01*
X49734994Y-164547780D01*
G75*
G02*
X50005032Y-164646066I85876J-184162D01*
G01*
X50702774Y-166142380D01*
G75*
G02*
X50604488Y-166412418I-184162J-85876D01*
G01*
X49108174Y-167110160D01*
G75*
G02*
X48838136Y-167011874I-85876J184162D01*
G01*
G37*
G36*
G01*
X44073851Y-168785085D02*
X43719612Y-168025416D01*
G75*
G02*
X43817897Y-167755379I184161J85876D01*
G01*
X44577566Y-167401140D01*
G75*
G02*
X44847603Y-167499425I85876J-184161D01*
G01*
X45201842Y-168259094D01*
G75*
G02*
X45103557Y-168529131I-184161J-85876D01*
G01*
X44343888Y-168883370D01*
G75*
G02*
X44073851Y-168785085I-85876J184161D01*
G01*
G37*
G36*
G01*
X47089499Y-167378865D02*
X46735260Y-166619196D01*
G75*
G02*
X46833545Y-166349159I184161J85876D01*
G01*
X47593214Y-165994920D01*
G75*
G02*
X47863251Y-166093205I85876J-184161D01*
G01*
X48217490Y-166852874D01*
G75*
G02*
X48119205Y-167122911I-184161J-85876D01*
G01*
X47359536Y-167477150D01*
G75*
G02*
X47089499Y-167378865I-85876J184161D01*
G01*
G37*
%TD*%
D10*
%TO.C,SW0:8*%
X52118441Y-129541946D03*
X47436837Y-134527594D03*
D13*
X51963320Y-135219440D03*
D14*
X47359276Y-137366341D03*
X56567364Y-133072539D03*
D10*
X54342902Y-131307243D03*
X47514397Y-131688847D03*
D15*
X50657188Y-141433659D03*
G36*
G01*
X56979805Y-139396212D02*
X56282063Y-137899898D01*
G75*
G02*
X56380349Y-137629860I184162J85876D01*
G01*
X57876663Y-136932118D01*
G75*
G02*
X58146701Y-137030404I85876J-184162D01*
G01*
X58844443Y-138526718D01*
G75*
G02*
X58746157Y-138796756I-184162J-85876D01*
G01*
X57249843Y-139494498D01*
G75*
G02*
X56979805Y-139396212I-85876J184162D01*
G01*
G37*
X51730638Y-143735681D03*
G36*
G01*
X58053256Y-141698234D02*
X57355514Y-140201920D01*
G75*
G02*
X57453800Y-139931882I184162J85876D01*
G01*
X58950114Y-139234140D01*
G75*
G02*
X59220152Y-139332426I85876J-184162D01*
G01*
X59917894Y-140828740D01*
G75*
G02*
X59819608Y-141098778I-184162J-85876D01*
G01*
X58323294Y-141796520D01*
G75*
G02*
X58053256Y-141698234I-85876J184162D01*
G01*
G37*
G36*
G01*
X53288971Y-143471445D02*
X52934732Y-142711776D01*
G75*
G02*
X53033017Y-142441739I184161J85876D01*
G01*
X53792686Y-142087500D01*
G75*
G02*
X54062723Y-142185785I85876J-184161D01*
G01*
X54416962Y-142945454D01*
G75*
G02*
X54318677Y-143215491I-184161J-85876D01*
G01*
X53559008Y-143569730D01*
G75*
G02*
X53288971Y-143471445I-85876J184161D01*
G01*
G37*
G36*
G01*
X56304619Y-142065225D02*
X55950380Y-141305556D01*
G75*
G02*
X56048665Y-141035519I184161J85876D01*
G01*
X56808334Y-140681280D01*
G75*
G02*
X57078371Y-140779565I85876J-184161D01*
G01*
X57432610Y-141539234D01*
G75*
G02*
X57334325Y-141809271I-184161J-85876D01*
G01*
X56574656Y-142163510D01*
G75*
G02*
X56304619Y-142065225I-85876J184161D01*
G01*
G37*
%TD*%
D10*
%TO.C,SW0:7*%
X34854061Y-137591206D03*
X30172457Y-142576854D03*
D13*
X34698940Y-143268700D03*
D14*
X30094896Y-145415601D03*
X39302984Y-141121799D03*
D10*
X37078522Y-139356503D03*
X30250017Y-139738107D03*
D15*
X33392808Y-149482919D03*
G36*
G01*
X39715425Y-147445472D02*
X39017683Y-145949158D01*
G75*
G02*
X39115969Y-145679120I184162J85876D01*
G01*
X40612283Y-144981378D01*
G75*
G02*
X40882321Y-145079664I85876J-184162D01*
G01*
X41580063Y-146575978D01*
G75*
G02*
X41481777Y-146846016I-184162J-85876D01*
G01*
X39985463Y-147543758D01*
G75*
G02*
X39715425Y-147445472I-85876J184162D01*
G01*
G37*
X34466258Y-151784941D03*
G36*
G01*
X40788876Y-149747494D02*
X40091134Y-148251180D01*
G75*
G02*
X40189420Y-147981142I184162J85876D01*
G01*
X41685734Y-147283400D01*
G75*
G02*
X41955772Y-147381686I85876J-184162D01*
G01*
X42653514Y-148878000D01*
G75*
G02*
X42555228Y-149148038I-184162J-85876D01*
G01*
X41058914Y-149845780D01*
G75*
G02*
X40788876Y-149747494I-85876J184162D01*
G01*
G37*
G36*
G01*
X36024591Y-151520705D02*
X35670352Y-150761036D01*
G75*
G02*
X35768637Y-150490999I184161J85876D01*
G01*
X36528306Y-150136760D01*
G75*
G02*
X36798343Y-150235045I85876J-184161D01*
G01*
X37152582Y-150994714D01*
G75*
G02*
X37054297Y-151264751I-184161J-85876D01*
G01*
X36294628Y-151618990D01*
G75*
G02*
X36024591Y-151520705I-85876J184161D01*
G01*
G37*
G36*
G01*
X39040239Y-150114485D02*
X38686000Y-149354816D01*
G75*
G02*
X38784285Y-149084779I184161J85876D01*
G01*
X39543954Y-148730540D01*
G75*
G02*
X39813991Y-148828825I85876J-184161D01*
G01*
X40168230Y-149588494D01*
G75*
G02*
X40069945Y-149858531I-184161J-85876D01*
G01*
X39310276Y-150212770D01*
G75*
G02*
X39040239Y-150114485I-85876J184161D01*
G01*
G37*
%TD*%
D12*
%TO.C,S2*%
X93829648Y-160396270D03*
D16*
X69927083Y-145197966D03*
%TD*%
D12*
%TO.C,S1*%
X51511692Y-153786490D03*
D16*
X75414257Y-168984794D03*
%TD*%
D17*
%TO.C,H99*%
X67411600Y-54134800D03*
X201142600Y-54134800D03*
X139039600Y-91592400D03*
X201777600Y-140055600D03*
X105435400Y-157759400D03*
X59664600Y-121666000D03*
X53898800Y-165836600D03*
%TD*%
%TO.C,D1:8*%
G36*
G01*
X75179728Y-137465480D02*
X74825489Y-136705811D01*
G75*
G02*
X74923774Y-136435774I184161J85876D01*
G01*
X75683443Y-136081535D01*
G75*
G02*
X75953480Y-136179820I85876J-184161D01*
G01*
X76307719Y-136939489D01*
G75*
G02*
X76209434Y-137209526I-184161J-85876D01*
G01*
X75449765Y-137563765D01*
G75*
G02*
X75179728Y-137465480I-85876J184161D01*
G01*
G37*
G36*
G01*
X76928365Y-137098488D02*
X76230623Y-135602174D01*
G75*
G02*
X76328909Y-135332136I184162J85876D01*
G01*
X77825223Y-134634394D01*
G75*
G02*
X78095261Y-134732680I85876J-184162D01*
G01*
X78793003Y-136228994D01*
G75*
G02*
X78694717Y-136499032I-184162J-85876D01*
G01*
X77198403Y-137196774D01*
G75*
G02*
X76928365Y-137098488I-85876J184162D01*
G01*
G37*
G36*
G01*
X72164080Y-138871700D02*
X71809841Y-138112031D01*
G75*
G02*
X71908126Y-137841994I184161J85876D01*
G01*
X72667795Y-137487755D01*
G75*
G02*
X72937832Y-137586040I85876J-184161D01*
G01*
X73292071Y-138345709D01*
G75*
G02*
X73193786Y-138615746I-184161J-85876D01*
G01*
X72434117Y-138969985D01*
G75*
G02*
X72164080Y-138871700I-85876J184161D01*
G01*
G37*
D15*
X70605747Y-139135936D03*
%TD*%
%TO.C,D1:7*%
G36*
G01*
X57915348Y-145517280D02*
X57561109Y-144757611D01*
G75*
G02*
X57659394Y-144487574I184161J85876D01*
G01*
X58419063Y-144133335D01*
G75*
G02*
X58689100Y-144231620I85876J-184161D01*
G01*
X59043339Y-144991289D01*
G75*
G02*
X58945054Y-145261326I-184161J-85876D01*
G01*
X58185385Y-145615565D01*
G75*
G02*
X57915348Y-145517280I-85876J184161D01*
G01*
G37*
G36*
G01*
X59663985Y-145150288D02*
X58966243Y-143653974D01*
G75*
G02*
X59064529Y-143383936I184162J85876D01*
G01*
X60560843Y-142686194D01*
G75*
G02*
X60830881Y-142784480I85876J-184162D01*
G01*
X61528623Y-144280794D01*
G75*
G02*
X61430337Y-144550832I-184162J-85876D01*
G01*
X59934023Y-145248574D01*
G75*
G02*
X59663985Y-145150288I-85876J184162D01*
G01*
G37*
G36*
G01*
X54899700Y-146923500D02*
X54545461Y-146163831D01*
G75*
G02*
X54643746Y-145893794I184161J85876D01*
G01*
X55403415Y-145539555D01*
G75*
G02*
X55673452Y-145637840I85876J-184161D01*
G01*
X56027691Y-146397509D01*
G75*
G02*
X55929406Y-146667546I-184161J-85876D01*
G01*
X55169737Y-147021785D01*
G75*
G02*
X54899700Y-146923500I-85876J184161D01*
G01*
G37*
X53341367Y-147187736D03*
%TD*%
M02*
