M48
; DRILL file {KiCad 5.1.9} date Sun Apr 18 19:29:24 2021
; FORMAT={-:-/ absolute / inch / decimal}
; #@! TF.CreationDate,2021-04-18T19:29:24+02:00
; #@! TF.GenerationSoftware,Kicad,Pcbnew,5.1.9
; #@! TF.FileFunction,NonPlated,1,2,NPTH
FMAT,2
INCH
T1C0.0670
T2C0.1200
T3C0.1570
T4C0.2510
%
G90
G05
T1
X2.1815Y-6.0878
X2.4984Y-6.7675
X2.5441Y-5.9188
X2.861Y-6.5985
X2.8612Y-5.7708
X3.1782Y-6.4506
X3.2238Y-5.6018
X3.5408Y-6.2816
T2
X2.5718Y-5.801
X2.753Y-5.7165
X2.9691Y-6.6529
X3.1503Y-6.5684
T3
X2.028Y-6.0546
X2.3628Y-6.0033
X2.4253Y-6.9065
X2.6797Y-6.683
X3.0425Y-5.6863
X3.2968Y-5.4629
X3.3595Y-6.3661
X3.6941Y-6.3148
T4
X2.122Y-6.529
X2.349Y-4.79
X2.654Y-2.1313
X4.151Y-6.211
X5.474Y-3.606
X7.919Y-2.1313
X7.944Y-5.514
T0
M30
