%TF.GenerationSoftware,KiCad,Pcbnew,5.1.9*%
%TF.CreationDate,2021-04-18T19:33:57+02:00*%
%TF.ProjectId,protoMxCog,70726f74-6f4d-4784-936f-672e6b696361,rev?*%
%TF.SameCoordinates,Original*%
%TF.FileFunction,Profile,NP*%
%FSLAX46Y46*%
G04 Gerber Fmt 4.6, Leading zero omitted, Abs format (unit mm)*
G04 Created by KiCad (PCBNEW 5.1.9) date 2021-04-18 19:33:57*
%MOMM*%
%LPD*%
G01*
G04 APERTURE LIST*
%TA.AperFunction,Profile*%
%ADD10C,0.381000*%
%TD*%
G04 APERTURE END LIST*
D10*
X72111000Y-72000000D02*
X72111000Y-81500000D01*
X72111000Y-95750000D02*
X72111000Y-110500000D01*
X65611000Y-72000000D02*
X72111000Y-72000000D01*
X72111000Y-110500000D02*
X65611000Y-110500000D01*
X62611000Y-113500000D02*
X62611000Y-119250000D01*
X62611000Y-92750000D02*
X65611000Y-95750000D01*
X65611000Y-95750000D02*
X72111000Y-95750000D01*
X62611000Y-113500000D02*
X65611000Y-110500000D01*
X62611000Y-84500000D02*
X62611000Y-92750000D01*
X62611000Y-84500000D02*
X65611000Y-81500000D01*
X72111000Y-81500000D02*
X65611000Y-81500000D01*
X62611000Y-69000000D02*
X65611000Y-72000000D01*
X62611000Y-52433000D02*
X62611000Y-69000000D01*
X202742800Y-49258000D02*
X65811400Y-49258000D01*
X127152400Y-152908000D02*
X196392800Y-152908000D01*
X196392800Y-152908000D02*
X205917800Y-143383000D01*
X205917800Y-143383000D02*
X205917800Y-52433000D01*
X205917800Y-52433000D02*
X202742800Y-49258000D01*
X65811400Y-49258000D02*
X62611000Y-52433000D01*
X62611000Y-119250000D02*
X24617680Y-137096500D01*
X24617680Y-137096500D02*
X23080980Y-141315440D01*
X23080980Y-141315440D02*
X44764960Y-187817760D01*
X44764960Y-187817760D02*
X48983900Y-189351920D01*
X48983900Y-189351920D02*
X127152400Y-152908000D01*
M02*
