  0
SECTION
  2
HEADER
  9
$ANGBASE
  50
0.0
  9
$ANGDIR
  70
1
  9
$MEASUREMENT
  70
1
  0
ENDSEC
  0
SECTION
  2
TABLES
  0
TABLE
  2
LTYPE
  70
4
  0
LTYPE
  5
40F
  2
CONTINUOUS
  70
0
  3
Solid line
  72
65
  73
0
  40
0.0
  0
LTYPE
  5
410
  2
DASHDOT
 70
0
  3
Dash Dot ____ _ ____ _
 72
65
 73
4
 40
2.0
 49
1.25
 49
-0.25
 49
0.25
 49
-0.25
  0
LTYPE
  5
411
  2
DASHED
 70
0
  3
Dashed __ __ __ __ __
 72
65
 73
2
 40
0.75
 49
0.5
 49
-0.25
  0
LTYPE
  5
43B
  2
DOTTED
 70
0
  3
Dotted .  .  .  .
 72
65
 73
2
 40
0.2
 49
0.0
 49
-0.2
  0
ENDTAB
  0
TABLE
  2
STYLE
  70
4
  0
STYLE
  2
KICAD
  70
0
  40
0
  41
1
  42
1
  50
0
  71
0
  3
isocp.shx
  0
STYLE
  2
KICADB
  70
0
  40
0
  41
1
  42
1
  50
0
  71
0
  3
isocp.shx
  0
STYLE
  2
KICADI
  70
0
  40
0
  41
1
  42
1
  50
15
  71
0
  3
isocp.shx
  0
STYLE
  2
KICADBI
  70
0
  40
0
  41
1
  42
1
  50
15
  71
0
  3
isocp.shx
  0
ENDTAB
  0
TABLE
  2
LAYER
  70
1
  0
LAYER
  2
BLACK
  70
0
  62
7
  6
CONTINUOUS
  0
ENDTAB
  0
ENDSEC
  0
SECTION
  2
ENTITIES
0
LINE
8
BLACK
6
CONTINUOUS
10
60.6599
20
-170.4
11
54.7559
21
-157.739
0
LINE
8
BLACK
6
CONTINUOUS
10
54.7559
20
-157.739
11
55.6445
21
-157.324
0
LINE
8
BLACK
6
CONTINUOUS
10
55.6445
20
-157.324
11
55.301
21
-156.588
0
LINE
8
BLACK
6
CONTINUOUS
10
55.301
20
-156.588
11
58.4732
21
-155.108
0
LINE
8
BLACK
6
CONTINUOUS
10
58.4732
20
-155.108
11
58.8167
21
-155.845
0
LINE
8
BLACK
6
CONTINUOUS
10
58.8167
20
-155.845
11
63.3563
21
-153.728
0
LINE
8
BLACK
6
CONTINUOUS
10
63.3563
20
-153.728
11
63.0128
21
-152.992
0
LINE
8
BLACK
6
CONTINUOUS
10
63.0128
20
-152.992
11
66.185
21
-151.512
0
LINE
8
BLACK
6
CONTINUOUS
10
66.185
20
-151.512
11
66.5285
21
-152.249
0
LINE
8
BLACK
6
CONTINUOUS
10
66.5285
20
-152.249
11
67.4171
21
-151.835
0
LINE
8
BLACK
6
CONTINUOUS
10
67.4171
20
-151.835
11
73.321
21
-164.496
0
LINE
8
BLACK
6
CONTINUOUS
10
73.321
20
-164.496
11
72.4324
21
-164.91
0
LINE
8
BLACK
6
CONTINUOUS
10
72.4324
20
-164.91
11
72.776
21
-165.647
0
LINE
8
BLACK
6
CONTINUOUS
10
72.776
20
-165.647
11
69.6038
21
-167.126
0
LINE
8
BLACK
6
CONTINUOUS
10
69.6038
20
-167.126
11
69.2603
21
-166.389
0
LINE
8
BLACK
6
CONTINUOUS
10
69.2603
20
-166.389
11
64.7207
21
-168.506
0
LINE
8
BLACK
6
CONTINUOUS
10
64.7207
20
-168.506
11
65.0642
21
-169.243
0
LINE
8
BLACK
6
CONTINUOUS
10
65.0642
20
-169.243
11
61.892
21
-170.722
0
LINE
8
BLACK
6
CONTINUOUS
10
61.892
20
-170.722
11
61.5485
21
-169.985
0
LINE
8
BLACK
6
CONTINUOUS
10
61.5485
20
-169.985
11
60.6599
21
-170.4
0
LINE
8
BLACK
6
CONTINUOUS
10
77.9243
20
-162.348
11
72.0203
21
-149.687
0
LINE
8
BLACK
6
CONTINUOUS
10
72.0203
20
-149.687
11
72.9089
21
-149.273
0
LINE
8
BLACK
6
CONTINUOUS
10
72.9089
20
-149.273
11
72.5654
21
-148.536
0
LINE
8
BLACK
6
CONTINUOUS
10
72.5654
20
-148.536
11
75.7376
21
-147.057
0
LINE
8
BLACK
6
CONTINUOUS
10
75.7376
20
-147.057
11
76.0811
21
-147.793
0
LINE
8
BLACK
6
CONTINUOUS
10
76.0811
20
-147.793
11
80.6207
21
-145.676
0
LINE
8
BLACK
6
CONTINUOUS
10
80.6207
20
-145.676
11
80.2772
21
-144.94
0
LINE
8
BLACK
6
CONTINUOUS
10
80.2772
20
-144.94
11
83.4493
21
-143.461
0
LINE
8
BLACK
6
CONTINUOUS
10
83.4493
20
-143.461
11
83.7929
21
-144.197
0
LINE
8
BLACK
6
CONTINUOUS
10
83.7929
20
-144.197
11
84.6814
21
-143.783
0
LINE
8
BLACK
6
CONTINUOUS
10
84.6814
20
-143.783
11
90.5854
21
-156.444
0
LINE
8
BLACK
6
CONTINUOUS
10
90.5854
20
-156.444
11
89.6968
21
-156.858
0
LINE
8
BLACK
6
CONTINUOUS
10
89.6968
20
-156.858
11
90.0403
21
-157.595
0
LINE
8
BLACK
6
CONTINUOUS
10
90.0403
20
-157.595
11
86.8681
21
-159.074
0
LINE
8
BLACK
6
CONTINUOUS
10
86.8681
20
-159.074
11
86.5246
21
-158.338
0
LINE
8
BLACK
6
CONTINUOUS
10
86.5246
20
-158.338
11
81.9851
21
-160.454
0
LINE
8
BLACK
6
CONTINUOUS
10
81.9851
20
-160.454
11
82.3286
21
-161.191
0
LINE
8
BLACK
6
CONTINUOUS
10
82.3286
20
-161.191
11
79.1564
21
-162.67
0
LINE
8
BLACK
6
CONTINUOUS
10
79.1564
20
-162.67
11
78.8129
21
-161.934
0
LINE
8
BLACK
6
CONTINUOUS
10
78.8129
20
-161.934
11
77.9243
21
-162.348
0
LINE
8
BLACK
6
CONTINUOUS
10
184.468
20
-60.0202
11
198.438
21
-60.0202
0
LINE
8
BLACK
6
CONTINUOUS
10
198.438
20
-60.0202
11
198.438
21
-61.0006
0
LINE
8
BLACK
6
CONTINUOUS
10
198.438
20
-61.0006
11
199.25
21
-61.0006
0
LINE
8
BLACK
6
CONTINUOUS
10
199.25
20
-61.0006
11
199.25
21
-64.5008
0
LINE
8
BLACK
6
CONTINUOUS
10
199.25
20
-64.5008
11
198.438
21
-64.5008
0
LINE
8
BLACK
6
CONTINUOUS
10
198.438
20
-64.5008
11
198.438
21
-69.5096
0
LINE
8
BLACK
6
CONTINUOUS
10
198.438
20
-69.5096
11
199.25
21
-69.5096
0
LINE
8
BLACK
6
CONTINUOUS
10
199.25
20
-69.5096
11
199.25
21
-73.0098
0
LINE
8
BLACK
6
CONTINUOUS
10
199.25
20
-73.0098
11
198.438
21
-73.0098
0
LINE
8
BLACK
6
CONTINUOUS
10
198.438
20
-73.0098
11
198.438
21
-73.9902
0
LINE
8
BLACK
6
CONTINUOUS
10
198.438
20
-73.9902
11
184.468
21
-73.9902
0
LINE
8
BLACK
6
CONTINUOUS
10
184.468
20
-73.9902
11
184.468
21
-73.0098
0
LINE
8
BLACK
6
CONTINUOUS
10
184.468
20
-73.0098
11
183.655
21
-73.0098
0
LINE
8
BLACK
6
CONTINUOUS
10
183.655
20
-73.0098
11
183.655
21
-69.5096
0
LINE
8
BLACK
6
CONTINUOUS
10
183.655
20
-69.5096
11
184.468
21
-69.5096
0
LINE
8
BLACK
6
CONTINUOUS
10
184.468
20
-69.5096
11
184.468
21
-64.5008
0
LINE
8
BLACK
6
CONTINUOUS
10
184.468
20
-64.5008
11
183.655
21
-64.5008
0
LINE
8
BLACK
6
CONTINUOUS
10
183.655
20
-64.5008
11
183.655
21
-61.0006
0
LINE
8
BLACK
6
CONTINUOUS
10
183.655
20
-61.0006
11
184.468
21
-61.0006
0
LINE
8
BLACK
6
CONTINUOUS
10
184.468
20
-61.0006
11
184.468
21
-60.0202
0
LINE
8
BLACK
6
CONTINUOUS
10
160.655
20
-60.0202
11
174.625
21
-60.0202
0
LINE
8
BLACK
6
CONTINUOUS
10
174.625
20
-60.0202
11
174.625
21
-61.0006
0
LINE
8
BLACK
6
CONTINUOUS
10
174.625
20
-61.0006
11
175.438
21
-61.0006
0
LINE
8
BLACK
6
CONTINUOUS
10
175.438
20
-61.0006
11
175.438
21
-64.5008
0
LINE
8
BLACK
6
CONTINUOUS
10
175.438
20
-64.5008
11
174.625
21
-64.5008
0
LINE
8
BLACK
6
CONTINUOUS
10
174.625
20
-64.5008
11
174.625
21
-69.5096
0
LINE
8
BLACK
6
CONTINUOUS
10
174.625
20
-69.5096
11
175.438
21
-69.5096
0
LINE
8
BLACK
6
CONTINUOUS
10
175.438
20
-69.5096
11
175.438
21
-73.0098
0
LINE
8
BLACK
6
CONTINUOUS
10
175.438
20
-73.0098
11
174.625
21
-73.0098
0
LINE
8
BLACK
6
CONTINUOUS
10
174.625
20
-73.0098
11
174.625
21
-73.9902
0
LINE
8
BLACK
6
CONTINUOUS
10
174.625
20
-73.9902
11
160.655
21
-73.9902
0
LINE
8
BLACK
6
CONTINUOUS
10
160.655
20
-73.9902
11
160.655
21
-73.0098
0
LINE
8
BLACK
6
CONTINUOUS
10
160.655
20
-73.0098
11
159.842
21
-73.0098
0
LINE
8
BLACK
6
CONTINUOUS
10
159.842
20
-73.0098
11
159.842
21
-69.5096
0
LINE
8
BLACK
6
CONTINUOUS
10
159.842
20
-69.5096
11
160.655
21
-69.5096
0
LINE
8
BLACK
6
CONTINUOUS
10
160.655
20
-69.5096
11
160.655
21
-64.5008
0
LINE
8
BLACK
6
CONTINUOUS
10
160.655
20
-64.5008
11
159.842
21
-64.5008
0
LINE
8
BLACK
6
CONTINUOUS
10
159.842
20
-64.5008
11
159.842
21
-61.0006
0
LINE
8
BLACK
6
CONTINUOUS
10
159.842
20
-61.0006
11
160.655
21
-61.0006
0
LINE
8
BLACK
6
CONTINUOUS
10
160.655
20
-61.0006
11
160.655
21
-60.0202
0
LINE
8
BLACK
6
CONTINUOUS
10
141.605
20
-56.8427
11
155.575
21
-56.8427
0
LINE
8
BLACK
6
CONTINUOUS
10
155.575
20
-56.8427
11
155.575
21
-57.8231
0
LINE
8
BLACK
6
CONTINUOUS
10
155.575
20
-57.8231
11
156.388
21
-57.8231
0
LINE
8
BLACK
6
CONTINUOUS
10
156.388
20
-57.8231
11
156.388
21
-61.3232
0
LINE
8
BLACK
6
CONTINUOUS
10
156.388
20
-61.3232
11
155.575
21
-61.3232
0
LINE
8
BLACK
6
CONTINUOUS
10
155.575
20
-61.3232
11
155.575
21
-66.3321
0
LINE
8
BLACK
6
CONTINUOUS
10
155.575
20
-66.3321
11
156.388
21
-66.3321
0
LINE
8
BLACK
6
CONTINUOUS
10
156.388
20
-66.3321
11
156.388
21
-69.8322
0
LINE
8
BLACK
6
CONTINUOUS
10
156.388
20
-69.8322
11
155.575
21
-69.8322
0
LINE
8
BLACK
6
CONTINUOUS
10
155.575
20
-69.8322
11
155.575
21
-70.8127
0
LINE
8
BLACK
6
CONTINUOUS
10
155.575
20
-70.8127
11
141.605
21
-70.8127
0
LINE
8
BLACK
6
CONTINUOUS
10
141.605
20
-70.8127
11
141.605
21
-69.8322
0
LINE
8
BLACK
6
CONTINUOUS
10
141.605
20
-69.8322
11
140.792
21
-69.8322
0
LINE
8
BLACK
6
CONTINUOUS
10
140.792
20
-69.8322
11
140.792
21
-66.3321
0
LINE
8
BLACK
6
CONTINUOUS
10
140.792
20
-66.3321
11
141.605
21
-66.3321
0
LINE
8
BLACK
6
CONTINUOUS
10
141.605
20
-66.3321
11
141.605
21
-61.3232
0
LINE
8
BLACK
6
CONTINUOUS
10
141.605
20
-61.3232
11
140.792
21
-61.3232
0
LINE
8
BLACK
6
CONTINUOUS
10
140.792
20
-61.3232
11
140.792
21
-57.8231
0
LINE
8
BLACK
6
CONTINUOUS
10
140.792
20
-57.8231
11
141.605
21
-57.8231
0
LINE
8
BLACK
6
CONTINUOUS
10
141.605
20
-57.8231
11
141.605
21
-56.8427
0
LINE
8
BLACK
6
CONTINUOUS
10
122.555
20
-55.245
11
136.525
21
-55.245
0
LINE
8
BLACK
6
CONTINUOUS
10
136.525
20
-55.245
11
136.525
21
-56.2254
0
LINE
8
BLACK
6
CONTINUOUS
10
136.525
20
-56.2254
11
137.338
21
-56.2254
0
LINE
8
BLACK
6
CONTINUOUS
10
137.338
20
-56.2254
11
137.338
21
-59.7256
0
LINE
8
BLACK
6
CONTINUOUS
10
137.338
20
-59.7256
11
136.525
21
-59.7256
0
LINE
8
BLACK
6
CONTINUOUS
10
136.525
20
-59.7256
11
136.525
21
-64.7344
0
LINE
8
BLACK
6
CONTINUOUS
10
136.525
20
-64.7344
11
137.338
21
-64.7344
0
LINE
8
BLACK
6
CONTINUOUS
10
137.338
20
-64.7344
11
137.338
21
-68.2346
0
LINE
8
BLACK
6
CONTINUOUS
10
137.338
20
-68.2346
11
136.525
21
-68.2346
0
LINE
8
BLACK
6
CONTINUOUS
10
136.525
20
-68.2346
11
136.525
21
-69.215
0
LINE
8
BLACK
6
CONTINUOUS
10
136.525
20
-69.215
11
122.555
21
-69.215
0
LINE
8
BLACK
6
CONTINUOUS
10
122.555
20
-69.215
11
122.555
21
-68.2346
0
LINE
8
BLACK
6
CONTINUOUS
10
122.555
20
-68.2346
11
121.742
21
-68.2346
0
LINE
8
BLACK
6
CONTINUOUS
10
121.742
20
-68.2346
11
121.742
21
-64.7344
0
LINE
8
BLACK
6
CONTINUOUS
10
121.742
20
-64.7344
11
122.555
21
-64.7344
0
LINE
8
BLACK
6
CONTINUOUS
10
122.555
20
-64.7344
11
122.555
21
-59.7256
0
LINE
8
BLACK
6
CONTINUOUS
10
122.555
20
-59.7256
11
121.742
21
-59.7256
0
LINE
8
BLACK
6
CONTINUOUS
10
121.742
20
-59.7256
11
121.742
21
-56.2254
0
LINE
8
BLACK
6
CONTINUOUS
10
121.742
20
-56.2254
11
122.555
21
-56.2254
0
LINE
8
BLACK
6
CONTINUOUS
10
122.555
20
-56.2254
11
122.555
21
-55.245
0
LINE
8
BLACK
6
CONTINUOUS
10
103.505
20
-56.8427
11
117.475
21
-56.8427
0
LINE
8
BLACK
6
CONTINUOUS
10
117.475
20
-56.8427
11
117.475
21
-57.8231
0
LINE
8
BLACK
6
CONTINUOUS
10
117.475
20
-57.8231
11
118.288
21
-57.8231
0
LINE
8
BLACK
6
CONTINUOUS
10
118.288
20
-57.8231
11
118.288
21
-61.3232
0
LINE
8
BLACK
6
CONTINUOUS
10
118.288
20
-61.3232
11
117.475
21
-61.3232
0
LINE
8
BLACK
6
CONTINUOUS
10
117.475
20
-61.3232
11
117.475
21
-66.3321
0
LINE
8
BLACK
6
CONTINUOUS
10
117.475
20
-66.3321
11
118.288
21
-66.3321
0
LINE
8
BLACK
6
CONTINUOUS
10
118.288
20
-66.3321
11
118.288
21
-69.8322
0
LINE
8
BLACK
6
CONTINUOUS
10
118.288
20
-69.8322
11
117.475
21
-69.8322
0
LINE
8
BLACK
6
CONTINUOUS
10
117.475
20
-69.8322
11
117.475
21
-70.8127
0
LINE
8
BLACK
6
CONTINUOUS
10
117.475
20
-70.8127
11
103.505
21
-70.8127
0
LINE
8
BLACK
6
CONTINUOUS
10
103.505
20
-70.8127
11
103.505
21
-69.8322
0
LINE
8
BLACK
6
CONTINUOUS
10
103.505
20
-69.8322
11
102.692
21
-69.8322
0
LINE
8
BLACK
6
CONTINUOUS
10
102.692
20
-69.8322
11
102.692
21
-66.3321
0
LINE
8
BLACK
6
CONTINUOUS
10
102.692
20
-66.3321
11
103.505
21
-66.3321
0
LINE
8
BLACK
6
CONTINUOUS
10
103.505
20
-66.3321
11
103.505
21
-61.3232
0
LINE
8
BLACK
6
CONTINUOUS
10
103.505
20
-61.3232
11
102.692
21
-61.3232
0
LINE
8
BLACK
6
CONTINUOUS
10
102.692
20
-61.3232
11
102.692
21
-57.8231
0
LINE
8
BLACK
6
CONTINUOUS
10
102.692
20
-57.8231
11
103.505
21
-57.8231
0
LINE
8
BLACK
6
CONTINUOUS
10
103.505
20
-57.8231
11
103.505
21
-56.8427
0
LINE
8
BLACK
6
CONTINUOUS
10
84.455
20
-58.1152
11
98.425
21
-58.1152
0
LINE
8
BLACK
6
CONTINUOUS
10
98.425
20
-58.1152
11
98.425
21
-59.0956
0
LINE
8
BLACK
6
CONTINUOUS
10
98.425
20
-59.0956
11
99.2378
21
-59.0956
0
LINE
8
BLACK
6
CONTINUOUS
10
99.2378
20
-59.0956
11
99.2378
21
-62.5958
0
LINE
8
BLACK
6
CONTINUOUS
10
99.2378
20
-62.5958
11
98.425
21
-62.5958
0
LINE
8
BLACK
6
CONTINUOUS
10
98.425
20
-62.5958
11
98.425
21
-67.6046
0
LINE
8
BLACK
6
CONTINUOUS
10
98.425
20
-67.6046
11
99.2378
21
-67.6046
0
LINE
8
BLACK
6
CONTINUOUS
10
99.2378
20
-67.6046
11
99.2378
21
-71.1048
0
LINE
8
BLACK
6
CONTINUOUS
10
99.2378
20
-71.1048
11
98.425
21
-71.1048
0
LINE
8
BLACK
6
CONTINUOUS
10
98.425
20
-71.1048
11
98.425
21
-72.0852
0
LINE
8
BLACK
6
CONTINUOUS
10
98.425
20
-72.0852
11
84.455
21
-72.0852
0
LINE
8
BLACK
6
CONTINUOUS
10
84.455
20
-72.0852
11
84.455
21
-71.1048
0
LINE
8
BLACK
6
CONTINUOUS
10
84.455
20
-71.1048
11
83.6422
21
-71.1048
0
LINE
8
BLACK
6
CONTINUOUS
10
83.6422
20
-71.1048
11
83.6422
21
-67.6046
0
LINE
8
BLACK
6
CONTINUOUS
10
83.6422
20
-67.6046
11
84.455
21
-67.6046
0
LINE
8
BLACK
6
CONTINUOUS
10
84.455
20
-67.6046
11
84.455
21
-62.5958
0
LINE
8
BLACK
6
CONTINUOUS
10
84.455
20
-62.5958
11
83.6422
21
-62.5958
0
LINE
8
BLACK
6
CONTINUOUS
10
83.6422
20
-62.5958
11
83.6422
21
-59.0956
0
LINE
8
BLACK
6
CONTINUOUS
10
83.6422
20
-59.0956
11
84.455
21
-59.0956
0
LINE
8
BLACK
6
CONTINUOUS
10
84.455
20
-59.0956
11
84.455
21
-58.1152
0
LINE
8
BLACK
6
CONTINUOUS
10
65.405
20
-72.0852
11
65.405
21
-58.1152
0
LINE
8
BLACK
6
CONTINUOUS
10
65.405
20
-58.1152
11
66.3854
21
-58.1152
0
LINE
8
BLACK
6
CONTINUOUS
10
66.3854
20
-58.1152
11
66.3854
21
-57.3024
0
LINE
8
BLACK
6
CONTINUOUS
10
66.3854
20
-57.3024
11
69.8856
21
-57.3024
0
LINE
8
BLACK
6
CONTINUOUS
10
69.8856
20
-57.3024
11
69.8856
21
-58.1152
0
LINE
8
BLACK
6
CONTINUOUS
10
69.8856
20
-58.1152
11
74.8944
21
-58.1152
0
LINE
8
BLACK
6
CONTINUOUS
10
74.8944
20
-58.1152
11
74.8944
21
-57.3024
0
LINE
8
BLACK
6
CONTINUOUS
10
74.8944
20
-57.3024
11
78.3946
21
-57.3024
0
LINE
8
BLACK
6
CONTINUOUS
10
78.3946
20
-57.3024
11
78.3946
21
-58.1152
0
LINE
8
BLACK
6
CONTINUOUS
10
78.3946
20
-58.1152
11
79.375
21
-58.1152
0
LINE
8
BLACK
6
CONTINUOUS
10
79.375
20
-58.1152
11
79.375
21
-72.0852
0
LINE
8
BLACK
6
CONTINUOUS
10
79.375
20
-72.0852
11
78.3946
21
-72.0852
0
LINE
8
BLACK
6
CONTINUOUS
10
78.3946
20
-72.0852
11
78.3946
21
-72.898
0
LINE
8
BLACK
6
CONTINUOUS
10
78.3946
20
-72.898
11
74.8944
21
-72.898
0
LINE
8
BLACK
6
CONTINUOUS
10
74.8944
20
-72.898
11
74.8944
21
-72.0852
0
LINE
8
BLACK
6
CONTINUOUS
10
74.8944
20
-72.0852
11
69.8856
21
-72.0852
0
LINE
8
BLACK
6
CONTINUOUS
10
69.8856
20
-72.0852
11
69.8856
21
-72.898
0
LINE
8
BLACK
6
CONTINUOUS
10
69.8856
20
-72.898
11
66.3854
21
-72.898
0
LINE
8
BLACK
6
CONTINUOUS
10
66.3854
20
-72.898
11
66.3854
21
-72.0852
0
LINE
8
BLACK
6
CONTINUOUS
10
66.3854
20
-72.0852
11
65.405
21
-72.0852
0
LINE
8
BLACK
6
CONTINUOUS
10
184.468
20
-79.0677
11
198.438
21
-79.0677
0
LINE
8
BLACK
6
CONTINUOUS
10
198.438
20
-79.0677
11
198.438
21
-80.0481
0
LINE
8
BLACK
6
CONTINUOUS
10
198.438
20
-80.0481
11
199.25
21
-80.0481
0
LINE
8
BLACK
6
CONTINUOUS
10
199.25
20
-80.0481
11
199.25
21
-83.5482
0
LINE
8
BLACK
6
CONTINUOUS
10
199.25
20
-83.5482
11
198.438
21
-83.5482
0
LINE
8
BLACK
6
CONTINUOUS
10
198.438
20
-83.5482
11
198.438
21
-88.5571
0
LINE
8
BLACK
6
CONTINUOUS
10
198.438
20
-88.5571
11
199.25
21
-88.5571
0
LINE
8
BLACK
6
CONTINUOUS
10
199.25
20
-88.5571
11
199.25
21
-92.0572
0
LINE
8
BLACK
6
CONTINUOUS
10
199.25
20
-92.0572
11
198.438
21
-92.0572
0
LINE
8
BLACK
6
CONTINUOUS
10
198.438
20
-92.0572
11
198.438
21
-93.0377
0
LINE
8
BLACK
6
CONTINUOUS
10
198.438
20
-93.0377
11
184.468
21
-93.0377
0
LINE
8
BLACK
6
CONTINUOUS
10
184.468
20
-93.0377
11
184.468
21
-92.0572
0
LINE
8
BLACK
6
CONTINUOUS
10
184.468
20
-92.0572
11
183.655
21
-92.0572
0
LINE
8
BLACK
6
CONTINUOUS
10
183.655
20
-92.0572
11
183.655
21
-88.5571
0
LINE
8
BLACK
6
CONTINUOUS
10
183.655
20
-88.5571
11
184.468
21
-88.5571
0
LINE
8
BLACK
6
CONTINUOUS
10
184.468
20
-88.5571
11
184.468
21
-83.5482
0
LINE
8
BLACK
6
CONTINUOUS
10
184.468
20
-83.5482
11
183.655
21
-83.5482
0
LINE
8
BLACK
6
CONTINUOUS
10
183.655
20
-83.5482
11
183.655
21
-80.0481
0
LINE
8
BLACK
6
CONTINUOUS
10
183.655
20
-80.0481
11
184.468
21
-80.0481
0
LINE
8
BLACK
6
CONTINUOUS
10
184.468
20
-80.0481
11
184.468
21
-79.0677
0
LINE
8
BLACK
6
CONTINUOUS
10
160.655
20
-79.0677
11
174.625
21
-79.0677
0
LINE
8
BLACK
6
CONTINUOUS
10
174.625
20
-79.0677
11
174.625
21
-80.0481
0
LINE
8
BLACK
6
CONTINUOUS
10
174.625
20
-80.0481
11
175.438
21
-80.0481
0
LINE
8
BLACK
6
CONTINUOUS
10
175.438
20
-80.0481
11
175.438
21
-83.5482
0
LINE
8
BLACK
6
CONTINUOUS
10
175.438
20
-83.5482
11
174.625
21
-83.5482
0
LINE
8
BLACK
6
CONTINUOUS
10
174.625
20
-83.5482
11
174.625
21
-88.5571
0
LINE
8
BLACK
6
CONTINUOUS
10
174.625
20
-88.5571
11
175.438
21
-88.5571
0
LINE
8
BLACK
6
CONTINUOUS
10
175.438
20
-88.5571
11
175.438
21
-92.0572
0
LINE
8
BLACK
6
CONTINUOUS
10
175.438
20
-92.0572
11
174.625
21
-92.0572
0
LINE
8
BLACK
6
CONTINUOUS
10
174.625
20
-92.0572
11
174.625
21
-93.0377
0
LINE
8
BLACK
6
CONTINUOUS
10
174.625
20
-93.0377
11
160.655
21
-93.0377
0
LINE
8
BLACK
6
CONTINUOUS
10
160.655
20
-93.0377
11
160.655
21
-92.0572
0
LINE
8
BLACK
6
CONTINUOUS
10
160.655
20
-92.0572
11
159.842
21
-92.0572
0
LINE
8
BLACK
6
CONTINUOUS
10
159.842
20
-92.0572
11
159.842
21
-88.5571
0
LINE
8
BLACK
6
CONTINUOUS
10
159.842
20
-88.5571
11
160.655
21
-88.5571
0
LINE
8
BLACK
6
CONTINUOUS
10
160.655
20
-88.5571
11
160.655
21
-83.5482
0
LINE
8
BLACK
6
CONTINUOUS
10
160.655
20
-83.5482
11
159.842
21
-83.5482
0
LINE
8
BLACK
6
CONTINUOUS
10
159.842
20
-83.5482
11
159.842
21
-80.0481
0
LINE
8
BLACK
6
CONTINUOUS
10
159.842
20
-80.0481
11
160.655
21
-80.0481
0
LINE
8
BLACK
6
CONTINUOUS
10
160.655
20
-80.0481
11
160.655
21
-79.0677
0
LINE
8
BLACK
6
CONTINUOUS
10
141.605
20
-75.8927
11
155.575
21
-75.8927
0
LINE
8
BLACK
6
CONTINUOUS
10
155.575
20
-75.8927
11
155.575
21
-76.8731
0
LINE
8
BLACK
6
CONTINUOUS
10
155.575
20
-76.8731
11
156.388
21
-76.8731
0
LINE
8
BLACK
6
CONTINUOUS
10
156.388
20
-76.8731
11
156.388
21
-80.3732
0
LINE
8
BLACK
6
CONTINUOUS
10
156.388
20
-80.3732
11
155.575
21
-80.3732
0
LINE
8
BLACK
6
CONTINUOUS
10
155.575
20
-80.3732
11
155.575
21
-85.3821
0
LINE
8
BLACK
6
CONTINUOUS
10
155.575
20
-85.3821
11
156.388
21
-85.3821
0
LINE
8
BLACK
6
CONTINUOUS
10
156.388
20
-85.3821
11
156.388
21
-88.8822
0
LINE
8
BLACK
6
CONTINUOUS
10
156.388
20
-88.8822
11
155.575
21
-88.8822
0
LINE
8
BLACK
6
CONTINUOUS
10
155.575
20
-88.8822
11
155.575
21
-89.8627
0
LINE
8
BLACK
6
CONTINUOUS
10
155.575
20
-89.8627
11
141.605
21
-89.8627
0
LINE
8
BLACK
6
CONTINUOUS
10
141.605
20
-89.8627
11
141.605
21
-88.8822
0
LINE
8
BLACK
6
CONTINUOUS
10
141.605
20
-88.8822
11
140.792
21
-88.8822
0
LINE
8
BLACK
6
CONTINUOUS
10
140.792
20
-88.8822
11
140.792
21
-85.3821
0
LINE
8
BLACK
6
CONTINUOUS
10
140.792
20
-85.3821
11
141.605
21
-85.3821
0
LINE
8
BLACK
6
CONTINUOUS
10
141.605
20
-85.3821
11
141.605
21
-80.3732
0
LINE
8
BLACK
6
CONTINUOUS
10
141.605
20
-80.3732
11
140.792
21
-80.3732
0
LINE
8
BLACK
6
CONTINUOUS
10
140.792
20
-80.3732
11
140.792
21
-76.8731
0
LINE
8
BLACK
6
CONTINUOUS
10
140.792
20
-76.8731
11
141.605
21
-76.8731
0
LINE
8
BLACK
6
CONTINUOUS
10
141.605
20
-76.8731
11
141.605
21
-75.8927
0
LINE
8
BLACK
6
CONTINUOUS
10
122.555
20
-74.295
11
136.525
21
-74.295
0
LINE
8
BLACK
6
CONTINUOUS
10
136.525
20
-74.295
11
136.525
21
-75.2754
0
LINE
8
BLACK
6
CONTINUOUS
10
136.525
20
-75.2754
11
137.338
21
-75.2754
0
LINE
8
BLACK
6
CONTINUOUS
10
137.338
20
-75.2754
11
137.338
21
-78.7756
0
LINE
8
BLACK
6
CONTINUOUS
10
137.338
20
-78.7756
11
136.525
21
-78.7756
0
LINE
8
BLACK
6
CONTINUOUS
10
136.525
20
-78.7756
11
136.525
21
-83.7844
0
LINE
8
BLACK
6
CONTINUOUS
10
136.525
20
-83.7844
11
137.338
21
-83.7844
0
LINE
8
BLACK
6
CONTINUOUS
10
137.338
20
-83.7844
11
137.338
21
-87.2846
0
LINE
8
BLACK
6
CONTINUOUS
10
137.338
20
-87.2846
11
136.525
21
-87.2846
0
LINE
8
BLACK
6
CONTINUOUS
10
136.525
20
-87.2846
11
136.525
21
-88.265
0
LINE
8
BLACK
6
CONTINUOUS
10
136.525
20
-88.265
11
122.555
21
-88.265
0
LINE
8
BLACK
6
CONTINUOUS
10
122.555
20
-88.265
11
122.555
21
-87.2846
0
LINE
8
BLACK
6
CONTINUOUS
10
122.555
20
-87.2846
11
121.742
21
-87.2846
0
LINE
8
BLACK
6
CONTINUOUS
10
121.742
20
-87.2846
11
121.742
21
-83.7844
0
LINE
8
BLACK
6
CONTINUOUS
10
121.742
20
-83.7844
11
122.555
21
-83.7844
0
LINE
8
BLACK
6
CONTINUOUS
10
122.555
20
-83.7844
11
122.555
21
-78.7756
0
LINE
8
BLACK
6
CONTINUOUS
10
122.555
20
-78.7756
11
121.742
21
-78.7756
0
LINE
8
BLACK
6
CONTINUOUS
10
121.742
20
-78.7756
11
121.742
21
-75.2754
0
LINE
8
BLACK
6
CONTINUOUS
10
121.742
20
-75.2754
11
122.555
21
-75.2754
0
LINE
8
BLACK
6
CONTINUOUS
10
122.555
20
-75.2754
11
122.555
21
-74.295
0
LINE
8
BLACK
6
CONTINUOUS
10
103.505
20
-75.8927
11
117.475
21
-75.8927
0
LINE
8
BLACK
6
CONTINUOUS
10
117.475
20
-75.8927
11
117.475
21
-76.8731
0
LINE
8
BLACK
6
CONTINUOUS
10
117.475
20
-76.8731
11
118.288
21
-76.8731
0
LINE
8
BLACK
6
CONTINUOUS
10
118.288
20
-76.8731
11
118.288
21
-80.3732
0
LINE
8
BLACK
6
CONTINUOUS
10
118.288
20
-80.3732
11
117.475
21
-80.3732
0
LINE
8
BLACK
6
CONTINUOUS
10
117.475
20
-80.3732
11
117.475
21
-85.3821
0
LINE
8
BLACK
6
CONTINUOUS
10
117.475
20
-85.3821
11
118.288
21
-85.3821
0
LINE
8
BLACK
6
CONTINUOUS
10
118.288
20
-85.3821
11
118.288
21
-88.8822
0
LINE
8
BLACK
6
CONTINUOUS
10
118.288
20
-88.8822
11
117.475
21
-88.8822
0
LINE
8
BLACK
6
CONTINUOUS
10
117.475
20
-88.8822
11
117.475
21
-89.8627
0
LINE
8
BLACK
6
CONTINUOUS
10
117.475
20
-89.8627
11
103.505
21
-89.8627
0
LINE
8
BLACK
6
CONTINUOUS
10
103.505
20
-89.8627
11
103.505
21
-88.8822
0
LINE
8
BLACK
6
CONTINUOUS
10
103.505
20
-88.8822
11
102.692
21
-88.8822
0
LINE
8
BLACK
6
CONTINUOUS
10
102.692
20
-88.8822
11
102.692
21
-85.3821
0
LINE
8
BLACK
6
CONTINUOUS
10
102.692
20
-85.3821
11
103.505
21
-85.3821
0
LINE
8
BLACK
6
CONTINUOUS
10
103.505
20
-85.3821
11
103.505
21
-80.3732
0
LINE
8
BLACK
6
CONTINUOUS
10
103.505
20
-80.3732
11
102.692
21
-80.3732
0
LINE
8
BLACK
6
CONTINUOUS
10
102.692
20
-80.3732
11
102.692
21
-76.8731
0
LINE
8
BLACK
6
CONTINUOUS
10
102.692
20
-76.8731
11
103.505
21
-76.8731
0
LINE
8
BLACK
6
CONTINUOUS
10
103.505
20
-76.8731
11
103.505
21
-75.8927
0
LINE
8
BLACK
6
CONTINUOUS
10
84.455
20
-77.1627
11
98.425
21
-77.1627
0
LINE
8
BLACK
6
CONTINUOUS
10
98.425
20
-77.1627
11
98.425
21
-78.1431
0
LINE
8
BLACK
6
CONTINUOUS
10
98.425
20
-78.1431
11
99.2378
21
-78.1431
0
LINE
8
BLACK
6
CONTINUOUS
10
99.2378
20
-78.1431
11
99.2378
21
-81.6432
0
LINE
8
BLACK
6
CONTINUOUS
10
99.2378
20
-81.6432
11
98.425
21
-81.6432
0
LINE
8
BLACK
6
CONTINUOUS
10
98.425
20
-81.6432
11
98.425
21
-86.6521
0
LINE
8
BLACK
6
CONTINUOUS
10
98.425
20
-86.6521
11
99.2378
21
-86.6521
0
LINE
8
BLACK
6
CONTINUOUS
10
99.2378
20
-86.6521
11
99.2378
21
-90.1522
0
LINE
8
BLACK
6
CONTINUOUS
10
99.2378
20
-90.1522
11
98.425
21
-90.1522
0
LINE
8
BLACK
6
CONTINUOUS
10
98.425
20
-90.1522
11
98.425
21
-91.1327
0
LINE
8
BLACK
6
CONTINUOUS
10
98.425
20
-91.1327
11
84.455
21
-91.1327
0
LINE
8
BLACK
6
CONTINUOUS
10
84.455
20
-91.1327
11
84.455
21
-90.1522
0
LINE
8
BLACK
6
CONTINUOUS
10
84.455
20
-90.1522
11
83.6422
21
-90.1522
0
LINE
8
BLACK
6
CONTINUOUS
10
83.6422
20
-90.1522
11
83.6422
21
-86.6521
0
LINE
8
BLACK
6
CONTINUOUS
10
83.6422
20
-86.6521
11
84.455
21
-86.6521
0
LINE
8
BLACK
6
CONTINUOUS
10
84.455
20
-86.6521
11
84.455
21
-81.6432
0
LINE
8
BLACK
6
CONTINUOUS
10
84.455
20
-81.6432
11
83.6422
21
-81.6432
0
LINE
8
BLACK
6
CONTINUOUS
10
83.6422
20
-81.6432
11
83.6422
21
-78.1431
0
LINE
8
BLACK
6
CONTINUOUS
10
83.6422
20
-78.1431
11
84.455
21
-78.1431
0
LINE
8
BLACK
6
CONTINUOUS
10
84.455
20
-78.1431
11
84.455
21
-77.1627
0
LINE
8
BLACK
6
CONTINUOUS
10
65.405
20
-95.8952
11
65.405
21
-81.9252
0
LINE
8
BLACK
6
CONTINUOUS
10
65.405
20
-81.9252
11
66.3854
21
-81.9252
0
LINE
8
BLACK
6
CONTINUOUS
10
66.3854
20
-81.9252
11
66.3854
21
-81.1124
0
LINE
8
BLACK
6
CONTINUOUS
10
66.3854
20
-81.1124
11
69.8856
21
-81.1124
0
LINE
8
BLACK
6
CONTINUOUS
10
69.8856
20
-81.1124
11
69.8856
21
-81.9252
0
LINE
8
BLACK
6
CONTINUOUS
10
69.8856
20
-81.9252
11
74.8944
21
-81.9252
0
LINE
8
BLACK
6
CONTINUOUS
10
74.8944
20
-81.9252
11
74.8944
21
-81.1124
0
LINE
8
BLACK
6
CONTINUOUS
10
74.8944
20
-81.1124
11
78.3946
21
-81.1124
0
LINE
8
BLACK
6
CONTINUOUS
10
78.3946
20
-81.1124
11
78.3946
21
-81.9252
0
LINE
8
BLACK
6
CONTINUOUS
10
78.3946
20
-81.9252
11
79.375
21
-81.9252
0
LINE
8
BLACK
6
CONTINUOUS
10
79.375
20
-81.9252
11
79.375
21
-95.8952
0
LINE
8
BLACK
6
CONTINUOUS
10
79.375
20
-95.8952
11
78.3946
21
-95.8952
0
LINE
8
BLACK
6
CONTINUOUS
10
78.3946
20
-95.8952
11
78.3946
21
-96.708
0
LINE
8
BLACK
6
CONTINUOUS
10
78.3946
20
-96.708
11
74.8944
21
-96.708
0
LINE
8
BLACK
6
CONTINUOUS
10
74.8944
20
-96.708
11
74.8944
21
-95.8952
0
LINE
8
BLACK
6
CONTINUOUS
10
74.8944
20
-95.8952
11
69.8856
21
-95.8952
0
LINE
8
BLACK
6
CONTINUOUS
10
69.8856
20
-95.8952
11
69.8856
21
-96.708
0
LINE
8
BLACK
6
CONTINUOUS
10
69.8856
20
-96.708
11
66.3854
21
-96.708
0
LINE
8
BLACK
6
CONTINUOUS
10
66.3854
20
-96.708
11
66.3854
21
-95.8952
0
LINE
8
BLACK
6
CONTINUOUS
10
66.3854
20
-95.8952
11
65.405
21
-95.8952
0
LINE
8
BLACK
6
CONTINUOUS
10
184.468
20
-98.1177
11
198.438
21
-98.1177
0
LINE
8
BLACK
6
CONTINUOUS
10
198.438
20
-98.1177
11
198.438
21
-99.0981
0
LINE
8
BLACK
6
CONTINUOUS
10
198.438
20
-99.0981
11
199.25
21
-99.0981
0
LINE
8
BLACK
6
CONTINUOUS
10
199.25
20
-99.0981
11
199.25
21
-102.598
0
LINE
8
BLACK
6
CONTINUOUS
10
199.25
20
-102.598
11
198.438
21
-102.598
0
LINE
8
BLACK
6
CONTINUOUS
10
198.438
20
-102.598
11
198.438
21
-107.607
0
LINE
8
BLACK
6
CONTINUOUS
10
198.438
20
-107.607
11
199.25
21
-107.607
0
LINE
8
BLACK
6
CONTINUOUS
10
199.25
20
-107.607
11
199.25
21
-111.107
0
LINE
8
BLACK
6
CONTINUOUS
10
199.25
20
-111.107
11
198.438
21
-111.107
0
LINE
8
BLACK
6
CONTINUOUS
10
198.438
20
-111.107
11
198.438
21
-112.088
0
LINE
8
BLACK
6
CONTINUOUS
10
198.438
20
-112.088
11
184.468
21
-112.088
0
LINE
8
BLACK
6
CONTINUOUS
10
184.468
20
-112.088
11
184.468
21
-111.107
0
LINE
8
BLACK
6
CONTINUOUS
10
184.468
20
-111.107
11
183.655
21
-111.107
0
LINE
8
BLACK
6
CONTINUOUS
10
183.655
20
-111.107
11
183.655
21
-107.607
0
LINE
8
BLACK
6
CONTINUOUS
10
183.655
20
-107.607
11
184.468
21
-107.607
0
LINE
8
BLACK
6
CONTINUOUS
10
184.468
20
-107.607
11
184.468
21
-102.598
0
LINE
8
BLACK
6
CONTINUOUS
10
184.468
20
-102.598
11
183.655
21
-102.598
0
LINE
8
BLACK
6
CONTINUOUS
10
183.655
20
-102.598
11
183.655
21
-99.0981
0
LINE
8
BLACK
6
CONTINUOUS
10
183.655
20
-99.0981
11
184.468
21
-99.0981
0
LINE
8
BLACK
6
CONTINUOUS
10
184.468
20
-99.0981
11
184.468
21
-98.1177
0
LINE
8
BLACK
6
CONTINUOUS
10
160.655
20
-98.1177
11
174.625
21
-98.1177
0
LINE
8
BLACK
6
CONTINUOUS
10
174.625
20
-98.1177
11
174.625
21
-99.0981
0
LINE
8
BLACK
6
CONTINUOUS
10
174.625
20
-99.0981
11
175.438
21
-99.0981
0
LINE
8
BLACK
6
CONTINUOUS
10
175.438
20
-99.0981
11
175.438
21
-102.598
0
LINE
8
BLACK
6
CONTINUOUS
10
175.438
20
-102.598
11
174.625
21
-102.598
0
LINE
8
BLACK
6
CONTINUOUS
10
174.625
20
-102.598
11
174.625
21
-107.607
0
LINE
8
BLACK
6
CONTINUOUS
10
174.625
20
-107.607
11
175.438
21
-107.607
0
LINE
8
BLACK
6
CONTINUOUS
10
175.438
20
-107.607
11
175.438
21
-111.107
0
LINE
8
BLACK
6
CONTINUOUS
10
175.438
20
-111.107
11
174.625
21
-111.107
0
LINE
8
BLACK
6
CONTINUOUS
10
174.625
20
-111.107
11
174.625
21
-112.088
0
LINE
8
BLACK
6
CONTINUOUS
10
174.625
20
-112.088
11
160.655
21
-112.088
0
LINE
8
BLACK
6
CONTINUOUS
10
160.655
20
-112.088
11
160.655
21
-111.107
0
LINE
8
BLACK
6
CONTINUOUS
10
160.655
20
-111.107
11
159.842
21
-111.107
0
LINE
8
BLACK
6
CONTINUOUS
10
159.842
20
-111.107
11
159.842
21
-107.607
0
LINE
8
BLACK
6
CONTINUOUS
10
159.842
20
-107.607
11
160.655
21
-107.607
0
LINE
8
BLACK
6
CONTINUOUS
10
160.655
20
-107.607
11
160.655
21
-102.598
0
LINE
8
BLACK
6
CONTINUOUS
10
160.655
20
-102.598
11
159.842
21
-102.598
0
LINE
8
BLACK
6
CONTINUOUS
10
159.842
20
-102.598
11
159.842
21
-99.0981
0
LINE
8
BLACK
6
CONTINUOUS
10
159.842
20
-99.0981
11
160.655
21
-99.0981
0
LINE
8
BLACK
6
CONTINUOUS
10
160.655
20
-99.0981
11
160.655
21
-98.1177
0
LINE
8
BLACK
6
CONTINUOUS
10
141.605
20
-94.9427
11
155.575
21
-94.9427
0
LINE
8
BLACK
6
CONTINUOUS
10
155.575
20
-94.9427
11
155.575
21
-95.9231
0
LINE
8
BLACK
6
CONTINUOUS
10
155.575
20
-95.9231
11
156.388
21
-95.9231
0
LINE
8
BLACK
6
CONTINUOUS
10
156.388
20
-95.9231
11
156.388
21
-99.4232
0
LINE
8
BLACK
6
CONTINUOUS
10
156.388
20
-99.4232
11
155.575
21
-99.4232
0
LINE
8
BLACK
6
CONTINUOUS
10
155.575
20
-99.4232
11
155.575
21
-104.432
0
LINE
8
BLACK
6
CONTINUOUS
10
155.575
20
-104.432
11
156.388
21
-104.432
0
LINE
8
BLACK
6
CONTINUOUS
10
156.388
20
-104.432
11
156.388
21
-107.932
0
LINE
8
BLACK
6
CONTINUOUS
10
156.388
20
-107.932
11
155.575
21
-107.932
0
LINE
8
BLACK
6
CONTINUOUS
10
155.575
20
-107.932
11
155.575
21
-108.913
0
LINE
8
BLACK
6
CONTINUOUS
10
155.575
20
-108.913
11
141.605
21
-108.913
0
LINE
8
BLACK
6
CONTINUOUS
10
141.605
20
-108.913
11
141.605
21
-107.932
0
LINE
8
BLACK
6
CONTINUOUS
10
141.605
20
-107.932
11
140.792
21
-107.932
0
LINE
8
BLACK
6
CONTINUOUS
10
140.792
20
-107.932
11
140.792
21
-104.432
0
LINE
8
BLACK
6
CONTINUOUS
10
140.792
20
-104.432
11
141.605
21
-104.432
0
LINE
8
BLACK
6
CONTINUOUS
10
141.605
20
-104.432
11
141.605
21
-99.4232
0
LINE
8
BLACK
6
CONTINUOUS
10
141.605
20
-99.4232
11
140.792
21
-99.4232
0
LINE
8
BLACK
6
CONTINUOUS
10
140.792
20
-99.4232
11
140.792
21
-95.9231
0
LINE
8
BLACK
6
CONTINUOUS
10
140.792
20
-95.9231
11
141.605
21
-95.9231
0
LINE
8
BLACK
6
CONTINUOUS
10
141.605
20
-95.9231
11
141.605
21
-94.9427
0
LINE
8
BLACK
6
CONTINUOUS
10
122.555
20
-93.345
11
136.525
21
-93.345
0
LINE
8
BLACK
6
CONTINUOUS
10
136.525
20
-93.345
11
136.525
21
-94.3254
0
LINE
8
BLACK
6
CONTINUOUS
10
136.525
20
-94.3254
11
137.338
21
-94.3254
0
LINE
8
BLACK
6
CONTINUOUS
10
137.338
20
-94.3254
11
137.338
21
-97.8256
0
LINE
8
BLACK
6
CONTINUOUS
10
137.338
20
-97.8256
11
136.525
21
-97.8256
0
LINE
8
BLACK
6
CONTINUOUS
10
136.525
20
-97.8256
11
136.525
21
-102.834
0
LINE
8
BLACK
6
CONTINUOUS
10
136.525
20
-102.834
11
137.338
21
-102.834
0
LINE
8
BLACK
6
CONTINUOUS
10
137.338
20
-102.834
11
137.338
21
-106.335
0
LINE
8
BLACK
6
CONTINUOUS
10
137.338
20
-106.335
11
136.525
21
-106.335
0
LINE
8
BLACK
6
CONTINUOUS
10
136.525
20
-106.335
11
136.525
21
-107.315
0
LINE
8
BLACK
6
CONTINUOUS
10
136.525
20
-107.315
11
122.555
21
-107.315
0
LINE
8
BLACK
6
CONTINUOUS
10
122.555
20
-107.315
11
122.555
21
-106.335
0
LINE
8
BLACK
6
CONTINUOUS
10
122.555
20
-106.335
11
121.742
21
-106.335
0
LINE
8
BLACK
6
CONTINUOUS
10
121.742
20
-106.335
11
121.742
21
-102.834
0
LINE
8
BLACK
6
CONTINUOUS
10
121.742
20
-102.834
11
122.555
21
-102.834
0
LINE
8
BLACK
6
CONTINUOUS
10
122.555
20
-102.834
11
122.555
21
-97.8256
0
LINE
8
BLACK
6
CONTINUOUS
10
122.555
20
-97.8256
11
121.742
21
-97.8256
0
LINE
8
BLACK
6
CONTINUOUS
10
121.742
20
-97.8256
11
121.742
21
-94.3254
0
LINE
8
BLACK
6
CONTINUOUS
10
121.742
20
-94.3254
11
122.555
21
-94.3254
0
LINE
8
BLACK
6
CONTINUOUS
10
122.555
20
-94.3254
11
122.555
21
-93.345
0
LINE
8
BLACK
6
CONTINUOUS
10
103.505
20
-94.9427
11
117.475
21
-94.9427
0
LINE
8
BLACK
6
CONTINUOUS
10
117.475
20
-94.9427
11
117.475
21
-95.9231
0
LINE
8
BLACK
6
CONTINUOUS
10
117.475
20
-95.9231
11
118.288
21
-95.9231
0
LINE
8
BLACK
6
CONTINUOUS
10
118.288
20
-95.9231
11
118.288
21
-99.4232
0
LINE
8
BLACK
6
CONTINUOUS
10
118.288
20
-99.4232
11
117.475
21
-99.4232
0
LINE
8
BLACK
6
CONTINUOUS
10
117.475
20
-99.4232
11
117.475
21
-104.432
0
LINE
8
BLACK
6
CONTINUOUS
10
117.475
20
-104.432
11
118.288
21
-104.432
0
LINE
8
BLACK
6
CONTINUOUS
10
118.288
20
-104.432
11
118.288
21
-107.932
0
LINE
8
BLACK
6
CONTINUOUS
10
118.288
20
-107.932
11
117.475
21
-107.932
0
LINE
8
BLACK
6
CONTINUOUS
10
117.475
20
-107.932
11
117.475
21
-108.913
0
LINE
8
BLACK
6
CONTINUOUS
10
117.475
20
-108.913
11
103.505
21
-108.913
0
LINE
8
BLACK
6
CONTINUOUS
10
103.505
20
-108.913
11
103.505
21
-107.932
0
LINE
8
BLACK
6
CONTINUOUS
10
103.505
20
-107.932
11
102.692
21
-107.932
0
LINE
8
BLACK
6
CONTINUOUS
10
102.692
20
-107.932
11
102.692
21
-104.432
0
LINE
8
BLACK
6
CONTINUOUS
10
102.692
20
-104.432
11
103.505
21
-104.432
0
LINE
8
BLACK
6
CONTINUOUS
10
103.505
20
-104.432
11
103.505
21
-99.4232
0
LINE
8
BLACK
6
CONTINUOUS
10
103.505
20
-99.4232
11
102.692
21
-99.4232
0
LINE
8
BLACK
6
CONTINUOUS
10
102.692
20
-99.4232
11
102.692
21
-95.9231
0
LINE
8
BLACK
6
CONTINUOUS
10
102.692
20
-95.9231
11
103.505
21
-95.9231
0
LINE
8
BLACK
6
CONTINUOUS
10
103.505
20
-95.9231
11
103.505
21
-94.9427
0
LINE
8
BLACK
6
CONTINUOUS
10
84.455
20
-96.2127
11
98.425
21
-96.2127
0
LINE
8
BLACK
6
CONTINUOUS
10
98.425
20
-96.2127
11
98.425
21
-97.1931
0
LINE
8
BLACK
6
CONTINUOUS
10
98.425
20
-97.1931
11
99.2378
21
-97.1931
0
LINE
8
BLACK
6
CONTINUOUS
10
99.2378
20
-97.1931
11
99.2378
21
-100.693
0
LINE
8
BLACK
6
CONTINUOUS
10
99.2378
20
-100.693
11
98.425
21
-100.693
0
LINE
8
BLACK
6
CONTINUOUS
10
98.425
20
-100.693
11
98.425
21
-105.702
0
LINE
8
BLACK
6
CONTINUOUS
10
98.425
20
-105.702
11
99.2378
21
-105.702
0
LINE
8
BLACK
6
CONTINUOUS
10
99.2378
20
-105.702
11
99.2378
21
-109.202
0
LINE
8
BLACK
6
CONTINUOUS
10
99.2378
20
-109.202
11
98.425
21
-109.202
0
LINE
8
BLACK
6
CONTINUOUS
10
98.425
20
-109.202
11
98.425
21
-110.183
0
LINE
8
BLACK
6
CONTINUOUS
10
98.425
20
-110.183
11
84.455
21
-110.183
0
LINE
8
BLACK
6
CONTINUOUS
10
84.455
20
-110.183
11
84.455
21
-109.202
0
LINE
8
BLACK
6
CONTINUOUS
10
84.455
20
-109.202
11
83.6422
21
-109.202
0
LINE
8
BLACK
6
CONTINUOUS
10
83.6422
20
-109.202
11
83.6422
21
-105.702
0
LINE
8
BLACK
6
CONTINUOUS
10
83.6422
20
-105.702
11
84.455
21
-105.702
0
LINE
8
BLACK
6
CONTINUOUS
10
84.455
20
-105.702
11
84.455
21
-100.693
0
LINE
8
BLACK
6
CONTINUOUS
10
84.455
20
-100.693
11
83.6422
21
-100.693
0
LINE
8
BLACK
6
CONTINUOUS
10
83.6422
20
-100.693
11
83.6422
21
-97.1931
0
LINE
8
BLACK
6
CONTINUOUS
10
83.6422
20
-97.1931
11
84.455
21
-97.1931
0
LINE
8
BLACK
6
CONTINUOUS
10
84.455
20
-97.1931
11
84.455
21
-96.2127
0
LINE
8
BLACK
6
CONTINUOUS
10
184.468
20
-117.168
11
198.438
21
-117.168
0
LINE
8
BLACK
6
CONTINUOUS
10
198.438
20
-117.168
11
198.438
21
-118.148
0
LINE
8
BLACK
6
CONTINUOUS
10
198.438
20
-118.148
11
199.25
21
-118.148
0
LINE
8
BLACK
6
CONTINUOUS
10
199.25
20
-118.148
11
199.25
21
-121.648
0
LINE
8
BLACK
6
CONTINUOUS
10
199.25
20
-121.648
11
198.438
21
-121.648
0
LINE
8
BLACK
6
CONTINUOUS
10
198.438
20
-121.648
11
198.438
21
-126.657
0
LINE
8
BLACK
6
CONTINUOUS
10
198.438
20
-126.657
11
199.25
21
-126.657
0
LINE
8
BLACK
6
CONTINUOUS
10
199.25
20
-126.657
11
199.25
21
-130.157
0
LINE
8
BLACK
6
CONTINUOUS
10
199.25
20
-130.157
11
198.438
21
-130.157
0
LINE
8
BLACK
6
CONTINUOUS
10
198.438
20
-130.157
11
198.438
21
-131.138
0
LINE
8
BLACK
6
CONTINUOUS
10
198.438
20
-131.138
11
184.468
21
-131.138
0
LINE
8
BLACK
6
CONTINUOUS
10
184.468
20
-131.138
11
184.468
21
-130.157
0
LINE
8
BLACK
6
CONTINUOUS
10
184.468
20
-130.157
11
183.655
21
-130.157
0
LINE
8
BLACK
6
CONTINUOUS
10
183.655
20
-130.157
11
183.655
21
-126.657
0
LINE
8
BLACK
6
CONTINUOUS
10
183.655
20
-126.657
11
184.468
21
-126.657
0
LINE
8
BLACK
6
CONTINUOUS
10
184.468
20
-126.657
11
184.468
21
-121.648
0
LINE
8
BLACK
6
CONTINUOUS
10
184.468
20
-121.648
11
183.655
21
-121.648
0
LINE
8
BLACK
6
CONTINUOUS
10
183.655
20
-121.648
11
183.655
21
-118.148
0
LINE
8
BLACK
6
CONTINUOUS
10
183.655
20
-118.148
11
184.468
21
-118.148
0
LINE
8
BLACK
6
CONTINUOUS
10
184.468
20
-118.148
11
184.468
21
-117.168
0
LINE
8
BLACK
6
CONTINUOUS
10
160.655
20
-117.168
11
174.625
21
-117.168
0
LINE
8
BLACK
6
CONTINUOUS
10
174.625
20
-117.168
11
174.625
21
-118.148
0
LINE
8
BLACK
6
CONTINUOUS
10
174.625
20
-118.148
11
175.438
21
-118.148
0
LINE
8
BLACK
6
CONTINUOUS
10
175.438
20
-118.148
11
175.438
21
-121.648
0
LINE
8
BLACK
6
CONTINUOUS
10
175.438
20
-121.648
11
174.625
21
-121.648
0
LINE
8
BLACK
6
CONTINUOUS
10
174.625
20
-121.648
11
174.625
21
-126.657
0
LINE
8
BLACK
6
CONTINUOUS
10
174.625
20
-126.657
11
175.438
21
-126.657
0
LINE
8
BLACK
6
CONTINUOUS
10
175.438
20
-126.657
11
175.438
21
-130.157
0
LINE
8
BLACK
6
CONTINUOUS
10
175.438
20
-130.157
11
174.625
21
-130.157
0
LINE
8
BLACK
6
CONTINUOUS
10
174.625
20
-130.157
11
174.625
21
-131.138
0
LINE
8
BLACK
6
CONTINUOUS
10
174.625
20
-131.138
11
160.655
21
-131.138
0
LINE
8
BLACK
6
CONTINUOUS
10
160.655
20
-131.138
11
160.655
21
-130.157
0
LINE
8
BLACK
6
CONTINUOUS
10
160.655
20
-130.157
11
159.842
21
-130.157
0
LINE
8
BLACK
6
CONTINUOUS
10
159.842
20
-130.157
11
159.842
21
-126.657
0
LINE
8
BLACK
6
CONTINUOUS
10
159.842
20
-126.657
11
160.655
21
-126.657
0
LINE
8
BLACK
6
CONTINUOUS
10
160.655
20
-126.657
11
160.655
21
-121.648
0
LINE
8
BLACK
6
CONTINUOUS
10
160.655
20
-121.648
11
159.842
21
-121.648
0
LINE
8
BLACK
6
CONTINUOUS
10
159.842
20
-121.648
11
159.842
21
-118.148
0
LINE
8
BLACK
6
CONTINUOUS
10
159.842
20
-118.148
11
160.655
21
-118.148
0
LINE
8
BLACK
6
CONTINUOUS
10
160.655
20
-118.148
11
160.655
21
-117.168
0
LINE
8
BLACK
6
CONTINUOUS
10
141.605
20
-113.993
11
155.575
21
-113.993
0
LINE
8
BLACK
6
CONTINUOUS
10
155.575
20
-113.993
11
155.575
21
-114.973
0
LINE
8
BLACK
6
CONTINUOUS
10
155.575
20
-114.973
11
156.388
21
-114.973
0
LINE
8
BLACK
6
CONTINUOUS
10
156.388
20
-114.973
11
156.388
21
-118.473
0
LINE
8
BLACK
6
CONTINUOUS
10
156.388
20
-118.473
11
155.575
21
-118.473
0
LINE
8
BLACK
6
CONTINUOUS
10
155.575
20
-118.473
11
155.575
21
-123.482
0
LINE
8
BLACK
6
CONTINUOUS
10
155.575
20
-123.482
11
156.388
21
-123.482
0
LINE
8
BLACK
6
CONTINUOUS
10
156.388
20
-123.482
11
156.388
21
-126.982
0
LINE
8
BLACK
6
CONTINUOUS
10
156.388
20
-126.982
11
155.575
21
-126.982
0
LINE
8
BLACK
6
CONTINUOUS
10
155.575
20
-126.982
11
155.575
21
-127.963
0
LINE
8
BLACK
6
CONTINUOUS
10
155.575
20
-127.963
11
141.605
21
-127.963
0
LINE
8
BLACK
6
CONTINUOUS
10
141.605
20
-127.963
11
141.605
21
-126.982
0
LINE
8
BLACK
6
CONTINUOUS
10
141.605
20
-126.982
11
140.792
21
-126.982
0
LINE
8
BLACK
6
CONTINUOUS
10
140.792
20
-126.982
11
140.792
21
-123.482
0
LINE
8
BLACK
6
CONTINUOUS
10
140.792
20
-123.482
11
141.605
21
-123.482
0
LINE
8
BLACK
6
CONTINUOUS
10
141.605
20
-123.482
11
141.605
21
-118.473
0
LINE
8
BLACK
6
CONTINUOUS
10
141.605
20
-118.473
11
140.792
21
-118.473
0
LINE
8
BLACK
6
CONTINUOUS
10
140.792
20
-118.473
11
140.792
21
-114.973
0
LINE
8
BLACK
6
CONTINUOUS
10
140.792
20
-114.973
11
141.605
21
-114.973
0
LINE
8
BLACK
6
CONTINUOUS
10
141.605
20
-114.973
11
141.605
21
-113.993
0
LINE
8
BLACK
6
CONTINUOUS
10
122.555
20
-112.395
11
136.525
21
-112.395
0
LINE
8
BLACK
6
CONTINUOUS
10
136.525
20
-112.395
11
136.525
21
-113.375
0
LINE
8
BLACK
6
CONTINUOUS
10
136.525
20
-113.375
11
137.338
21
-113.375
0
LINE
8
BLACK
6
CONTINUOUS
10
137.338
20
-113.375
11
137.338
21
-116.876
0
LINE
8
BLACK
6
CONTINUOUS
10
137.338
20
-116.876
11
136.525
21
-116.876
0
LINE
8
BLACK
6
CONTINUOUS
10
136.525
20
-116.876
11
136.525
21
-121.884
0
LINE
8
BLACK
6
CONTINUOUS
10
136.525
20
-121.884
11
137.338
21
-121.884
0
LINE
8
BLACK
6
CONTINUOUS
10
137.338
20
-121.884
11
137.338
21
-125.385
0
LINE
8
BLACK
6
CONTINUOUS
10
137.338
20
-125.385
11
136.525
21
-125.385
0
LINE
8
BLACK
6
CONTINUOUS
10
136.525
20
-125.385
11
136.525
21
-126.365
0
LINE
8
BLACK
6
CONTINUOUS
10
136.525
20
-126.365
11
122.555
21
-126.365
0
LINE
8
BLACK
6
CONTINUOUS
10
122.555
20
-126.365
11
122.555
21
-125.385
0
LINE
8
BLACK
6
CONTINUOUS
10
122.555
20
-125.385
11
121.742
21
-125.385
0
LINE
8
BLACK
6
CONTINUOUS
10
121.742
20
-125.385
11
121.742
21
-121.884
0
LINE
8
BLACK
6
CONTINUOUS
10
121.742
20
-121.884
11
122.555
21
-121.884
0
LINE
8
BLACK
6
CONTINUOUS
10
122.555
20
-121.884
11
122.555
21
-116.876
0
LINE
8
BLACK
6
CONTINUOUS
10
122.555
20
-116.876
11
121.742
21
-116.876
0
LINE
8
BLACK
6
CONTINUOUS
10
121.742
20
-116.876
11
121.742
21
-113.375
0
LINE
8
BLACK
6
CONTINUOUS
10
121.742
20
-113.375
11
122.555
21
-113.375
0
LINE
8
BLACK
6
CONTINUOUS
10
122.555
20
-113.375
11
122.555
21
-112.395
0
LINE
8
BLACK
6
CONTINUOUS
10
103.505
20
-113.993
11
117.475
21
-113.993
0
LINE
8
BLACK
6
CONTINUOUS
10
117.475
20
-113.993
11
117.475
21
-114.973
0
LINE
8
BLACK
6
CONTINUOUS
10
117.475
20
-114.973
11
118.288
21
-114.973
0
LINE
8
BLACK
6
CONTINUOUS
10
118.288
20
-114.973
11
118.288
21
-118.473
0
LINE
8
BLACK
6
CONTINUOUS
10
118.288
20
-118.473
11
117.475
21
-118.473
0
LINE
8
BLACK
6
CONTINUOUS
10
117.475
20
-118.473
11
117.475
21
-123.482
0
LINE
8
BLACK
6
CONTINUOUS
10
117.475
20
-123.482
11
118.288
21
-123.482
0
LINE
8
BLACK
6
CONTINUOUS
10
118.288
20
-123.482
11
118.288
21
-126.982
0
LINE
8
BLACK
6
CONTINUOUS
10
118.288
20
-126.982
11
117.475
21
-126.982
0
LINE
8
BLACK
6
CONTINUOUS
10
117.475
20
-126.982
11
117.475
21
-127.963
0
LINE
8
BLACK
6
CONTINUOUS
10
117.475
20
-127.963
11
103.505
21
-127.963
0
LINE
8
BLACK
6
CONTINUOUS
10
103.505
20
-127.963
11
103.505
21
-126.982
0
LINE
8
BLACK
6
CONTINUOUS
10
103.505
20
-126.982
11
102.692
21
-126.982
0
LINE
8
BLACK
6
CONTINUOUS
10
102.692
20
-126.982
11
102.692
21
-123.482
0
LINE
8
BLACK
6
CONTINUOUS
10
102.692
20
-123.482
11
103.505
21
-123.482
0
LINE
8
BLACK
6
CONTINUOUS
10
103.505
20
-123.482
11
103.505
21
-118.473
0
LINE
8
BLACK
6
CONTINUOUS
10
103.505
20
-118.473
11
102.692
21
-118.473
0
LINE
8
BLACK
6
CONTINUOUS
10
102.692
20
-118.473
11
102.692
21
-114.973
0
LINE
8
BLACK
6
CONTINUOUS
10
102.692
20
-114.973
11
103.505
21
-114.973
0
LINE
8
BLACK
6
CONTINUOUS
10
103.505
20
-114.973
11
103.505
21
-113.993
0
LINE
8
BLACK
6
CONTINUOUS
10
84.455
20
-115.263
11
98.425
21
-115.263
0
LINE
8
BLACK
6
CONTINUOUS
10
98.425
20
-115.263
11
98.425
21
-116.243
0
LINE
8
BLACK
6
CONTINUOUS
10
98.425
20
-116.243
11
99.2378
21
-116.243
0
LINE
8
BLACK
6
CONTINUOUS
10
99.2378
20
-116.243
11
99.2378
21
-119.743
0
LINE
8
BLACK
6
CONTINUOUS
10
99.2378
20
-119.743
11
98.425
21
-119.743
0
LINE
8
BLACK
6
CONTINUOUS
10
98.425
20
-119.743
11
98.425
21
-124.752
0
LINE
8
BLACK
6
CONTINUOUS
10
98.425
20
-124.752
11
99.2378
21
-124.752
0
LINE
8
BLACK
6
CONTINUOUS
10
99.2378
20
-124.752
11
99.2378
21
-128.252
0
LINE
8
BLACK
6
CONTINUOUS
10
99.2378
20
-128.252
11
98.425
21
-128.252
0
LINE
8
BLACK
6
CONTINUOUS
10
98.425
20
-128.252
11
98.425
21
-129.233
0
LINE
8
BLACK
6
CONTINUOUS
10
98.425
20
-129.233
11
84.455
21
-129.233
0
LINE
8
BLACK
6
CONTINUOUS
10
84.455
20
-129.233
11
84.455
21
-128.252
0
LINE
8
BLACK
6
CONTINUOUS
10
84.455
20
-128.252
11
83.6422
21
-128.252
0
LINE
8
BLACK
6
CONTINUOUS
10
83.6422
20
-128.252
11
83.6422
21
-124.752
0
LINE
8
BLACK
6
CONTINUOUS
10
83.6422
20
-124.752
11
84.455
21
-124.752
0
LINE
8
BLACK
6
CONTINUOUS
10
84.455
20
-124.752
11
84.455
21
-119.743
0
LINE
8
BLACK
6
CONTINUOUS
10
84.455
20
-119.743
11
83.6422
21
-119.743
0
LINE
8
BLACK
6
CONTINUOUS
10
83.6422
20
-119.743
11
83.6422
21
-116.243
0
LINE
8
BLACK
6
CONTINUOUS
10
83.6422
20
-116.243
11
84.455
21
-116.243
0
LINE
8
BLACK
6
CONTINUOUS
10
84.455
20
-116.243
11
84.455
21
-115.263
0
LINE
8
BLACK
6
CONTINUOUS
10
65.405
20
-124.47
11
65.405
21
-110.5
0
LINE
8
BLACK
6
CONTINUOUS
10
65.405
20
-110.5
11
66.3854
21
-110.5
0
LINE
8
BLACK
6
CONTINUOUS
10
66.3854
20
-110.5
11
66.3854
21
-109.687
0
LINE
8
BLACK
6
CONTINUOUS
10
66.3854
20
-109.687
11
69.8856
21
-109.687
0
LINE
8
BLACK
6
CONTINUOUS
10
69.8856
20
-109.687
11
69.8856
21
-110.5
0
LINE
8
BLACK
6
CONTINUOUS
10
69.8856
20
-110.5
11
74.8944
21
-110.5
0
LINE
8
BLACK
6
CONTINUOUS
10
74.8944
20
-110.5
11
74.8944
21
-109.687
0
LINE
8
BLACK
6
CONTINUOUS
10
74.8944
20
-109.687
11
78.3946
21
-109.687
0
LINE
8
BLACK
6
CONTINUOUS
10
78.3946
20
-109.687
11
78.3946
21
-110.5
0
LINE
8
BLACK
6
CONTINUOUS
10
78.3946
20
-110.5
11
79.375
21
-110.5
0
LINE
8
BLACK
6
CONTINUOUS
10
79.375
20
-110.5
11
79.375
21
-124.47
0
LINE
8
BLACK
6
CONTINUOUS
10
79.375
20
-124.47
11
78.3946
21
-124.47
0
LINE
8
BLACK
6
CONTINUOUS
10
78.3946
20
-124.47
11
78.3946
21
-125.283
0
LINE
8
BLACK
6
CONTINUOUS
10
78.3946
20
-125.283
11
74.8944
21
-125.283
0
LINE
8
BLACK
6
CONTINUOUS
10
74.8944
20
-125.283
11
74.8944
21
-124.47
0
LINE
8
BLACK
6
CONTINUOUS
10
74.8944
20
-124.47
11
69.8856
21
-124.47
0
LINE
8
BLACK
6
CONTINUOUS
10
69.8856
20
-124.47
11
69.8856
21
-125.283
0
LINE
8
BLACK
6
CONTINUOUS
10
69.8856
20
-125.283
11
66.3854
21
-125.283
0
LINE
8
BLACK
6
CONTINUOUS
10
66.3854
20
-125.283
11
66.3854
21
-124.47
0
LINE
8
BLACK
6
CONTINUOUS
10
66.3854
20
-124.47
11
65.405
21
-124.47
0
LINE
8
BLACK
6
CONTINUOUS
10
179.705
20
-136.218
11
193.675
21
-136.218
0
LINE
8
BLACK
6
CONTINUOUS
10
193.675
20
-136.218
11
193.675
21
-137.198
0
LINE
8
BLACK
6
CONTINUOUS
10
193.675
20
-137.198
11
194.488
21
-137.198
0
LINE
8
BLACK
6
CONTINUOUS
10
194.488
20
-137.198
11
194.488
21
-140.698
0
LINE
8
BLACK
6
CONTINUOUS
10
194.488
20
-140.698
11
193.675
21
-140.698
0
LINE
8
BLACK
6
CONTINUOUS
10
193.675
20
-140.698
11
193.675
21
-145.707
0
LINE
8
BLACK
6
CONTINUOUS
10
193.675
20
-145.707
11
194.488
21
-145.707
0
LINE
8
BLACK
6
CONTINUOUS
10
194.488
20
-145.707
11
194.488
21
-149.207
0
LINE
8
BLACK
6
CONTINUOUS
10
194.488
20
-149.207
11
193.675
21
-149.207
0
LINE
8
BLACK
6
CONTINUOUS
10
193.675
20
-149.207
11
193.675
21
-150.188
0
LINE
8
BLACK
6
CONTINUOUS
10
193.675
20
-150.188
11
179.705
21
-150.188
0
LINE
8
BLACK
6
CONTINUOUS
10
179.705
20
-150.188
11
179.705
21
-149.207
0
LINE
8
BLACK
6
CONTINUOUS
10
179.705
20
-149.207
11
178.892
21
-149.207
0
LINE
8
BLACK
6
CONTINUOUS
10
178.892
20
-149.207
11
178.892
21
-145.707
0
LINE
8
BLACK
6
CONTINUOUS
10
178.892
20
-145.707
11
179.705
21
-145.707
0
LINE
8
BLACK
6
CONTINUOUS
10
179.705
20
-145.707
11
179.705
21
-140.698
0
LINE
8
BLACK
6
CONTINUOUS
10
179.705
20
-140.698
11
178.892
21
-140.698
0
LINE
8
BLACK
6
CONTINUOUS
10
178.892
20
-140.698
11
178.892
21
-137.198
0
LINE
8
BLACK
6
CONTINUOUS
10
178.892
20
-137.198
11
179.705
21
-137.198
0
LINE
8
BLACK
6
CONTINUOUS
10
179.705
20
-137.198
11
179.705
21
-136.218
0
LINE
8
BLACK
6
CONTINUOUS
10
160.655
20
-136.218
11
174.625
21
-136.218
0
LINE
8
BLACK
6
CONTINUOUS
10
174.625
20
-136.218
11
174.625
21
-137.198
0
LINE
8
BLACK
6
CONTINUOUS
10
174.625
20
-137.198
11
175.438
21
-137.198
0
LINE
8
BLACK
6
CONTINUOUS
10
175.438
20
-137.198
11
175.438
21
-140.698
0
LINE
8
BLACK
6
CONTINUOUS
10
175.438
20
-140.698
11
174.625
21
-140.698
0
LINE
8
BLACK
6
CONTINUOUS
10
174.625
20
-140.698
11
174.625
21
-145.707
0
LINE
8
BLACK
6
CONTINUOUS
10
174.625
20
-145.707
11
175.438
21
-145.707
0
LINE
8
BLACK
6
CONTINUOUS
10
175.438
20
-145.707
11
175.438
21
-149.207
0
LINE
8
BLACK
6
CONTINUOUS
10
175.438
20
-149.207
11
174.625
21
-149.207
0
LINE
8
BLACK
6
CONTINUOUS
10
174.625
20
-149.207
11
174.625
21
-150.188
0
LINE
8
BLACK
6
CONTINUOUS
10
174.625
20
-150.188
11
160.655
21
-150.188
0
LINE
8
BLACK
6
CONTINUOUS
10
160.655
20
-150.188
11
160.655
21
-149.207
0
LINE
8
BLACK
6
CONTINUOUS
10
160.655
20
-149.207
11
159.842
21
-149.207
0
LINE
8
BLACK
6
CONTINUOUS
10
159.842
20
-149.207
11
159.842
21
-145.707
0
LINE
8
BLACK
6
CONTINUOUS
10
159.842
20
-145.707
11
160.655
21
-145.707
0
LINE
8
BLACK
6
CONTINUOUS
10
160.655
20
-145.707
11
160.655
21
-140.698
0
LINE
8
BLACK
6
CONTINUOUS
10
160.655
20
-140.698
11
159.842
21
-140.698
0
LINE
8
BLACK
6
CONTINUOUS
10
159.842
20
-140.698
11
159.842
21
-137.198
0
LINE
8
BLACK
6
CONTINUOUS
10
159.842
20
-137.198
11
160.655
21
-137.198
0
LINE
8
BLACK
6
CONTINUOUS
10
160.655
20
-137.198
11
160.655
21
-136.218
0
LINE
8
BLACK
6
CONTINUOUS
10
141.605
20
-133.043
11
155.575
21
-133.043
0
LINE
8
BLACK
6
CONTINUOUS
10
155.575
20
-133.043
11
155.575
21
-134.023
0
LINE
8
BLACK
6
CONTINUOUS
10
155.575
20
-134.023
11
156.388
21
-134.023
0
LINE
8
BLACK
6
CONTINUOUS
10
156.388
20
-134.023
11
156.388
21
-137.523
0
LINE
8
BLACK
6
CONTINUOUS
10
156.388
20
-137.523
11
155.575
21
-137.523
0
LINE
8
BLACK
6
CONTINUOUS
10
155.575
20
-137.523
11
155.575
21
-142.532
0
LINE
8
BLACK
6
CONTINUOUS
10
155.575
20
-142.532
11
156.388
21
-142.532
0
LINE
8
BLACK
6
CONTINUOUS
10
156.388
20
-142.532
11
156.388
21
-146.032
0
LINE
8
BLACK
6
CONTINUOUS
10
156.388
20
-146.032
11
155.575
21
-146.032
0
LINE
8
BLACK
6
CONTINUOUS
10
155.575
20
-146.032
11
155.575
21
-147.013
0
LINE
8
BLACK
6
CONTINUOUS
10
155.575
20
-147.013
11
141.605
21
-147.013
0
LINE
8
BLACK
6
CONTINUOUS
10
141.605
20
-147.013
11
141.605
21
-146.032
0
LINE
8
BLACK
6
CONTINUOUS
10
141.605
20
-146.032
11
140.792
21
-146.032
0
LINE
8
BLACK
6
CONTINUOUS
10
140.792
20
-146.032
11
140.792
21
-142.532
0
LINE
8
BLACK
6
CONTINUOUS
10
140.792
20
-142.532
11
141.605
21
-142.532
0
LINE
8
BLACK
6
CONTINUOUS
10
141.605
20
-142.532
11
141.605
21
-137.523
0
LINE
8
BLACK
6
CONTINUOUS
10
141.605
20
-137.523
11
140.792
21
-137.523
0
LINE
8
BLACK
6
CONTINUOUS
10
140.792
20
-137.523
11
140.792
21
-134.023
0
LINE
8
BLACK
6
CONTINUOUS
10
140.792
20
-134.023
11
141.605
21
-134.023
0
LINE
8
BLACK
6
CONTINUOUS
10
141.605
20
-134.023
11
141.605
21
-133.043
0
LINE
8
BLACK
6
CONTINUOUS
10
122.555
20
-131.445
11
136.525
21
-131.445
0
LINE
8
BLACK
6
CONTINUOUS
10
136.525
20
-131.445
11
136.525
21
-132.425
0
LINE
8
BLACK
6
CONTINUOUS
10
136.525
20
-132.425
11
137.338
21
-132.425
0
LINE
8
BLACK
6
CONTINUOUS
10
137.338
20
-132.425
11
137.338
21
-135.926
0
LINE
8
BLACK
6
CONTINUOUS
10
137.338
20
-135.926
11
136.525
21
-135.926
0
LINE
8
BLACK
6
CONTINUOUS
10
136.525
20
-135.926
11
136.525
21
-140.934
0
LINE
8
BLACK
6
CONTINUOUS
10
136.525
20
-140.934
11
137.338
21
-140.934
0
LINE
8
BLACK
6
CONTINUOUS
10
137.338
20
-140.934
11
137.338
21
-144.435
0
LINE
8
BLACK
6
CONTINUOUS
10
137.338
20
-144.435
11
136.525
21
-144.435
0
LINE
8
BLACK
6
CONTINUOUS
10
136.525
20
-144.435
11
136.525
21
-145.415
0
LINE
8
BLACK
6
CONTINUOUS
10
136.525
20
-145.415
11
122.555
21
-145.415
0
LINE
8
BLACK
6
CONTINUOUS
10
122.555
20
-145.415
11
122.555
21
-144.435
0
LINE
8
BLACK
6
CONTINUOUS
10
122.555
20
-144.435
11
121.742
21
-144.435
0
LINE
8
BLACK
6
CONTINUOUS
10
121.742
20
-144.435
11
121.742
21
-140.934
0
LINE
8
BLACK
6
CONTINUOUS
10
121.742
20
-140.934
11
122.555
21
-140.934
0
LINE
8
BLACK
6
CONTINUOUS
10
122.555
20
-140.934
11
122.555
21
-135.926
0
LINE
8
BLACK
6
CONTINUOUS
10
122.555
20
-135.926
11
121.742
21
-135.926
0
LINE
8
BLACK
6
CONTINUOUS
10
121.742
20
-135.926
11
121.742
21
-132.425
0
LINE
8
BLACK
6
CONTINUOUS
10
121.742
20
-132.425
11
122.555
21
-132.425
0
LINE
8
BLACK
6
CONTINUOUS
10
122.555
20
-132.425
11
122.555
21
-131.445
0
LINE
8
BLACK
6
CONTINUOUS
10
103.505
20
-133.043
11
117.475
21
-133.043
0
LINE
8
BLACK
6
CONTINUOUS
10
117.475
20
-133.043
11
117.475
21
-134.023
0
LINE
8
BLACK
6
CONTINUOUS
10
117.475
20
-134.023
11
118.288
21
-134.023
0
LINE
8
BLACK
6
CONTINUOUS
10
118.288
20
-134.023
11
118.288
21
-137.523
0
LINE
8
BLACK
6
CONTINUOUS
10
118.288
20
-137.523
11
117.475
21
-137.523
0
LINE
8
BLACK
6
CONTINUOUS
10
117.475
20
-137.523
11
117.475
21
-142.532
0
LINE
8
BLACK
6
CONTINUOUS
10
117.475
20
-142.532
11
118.288
21
-142.532
0
LINE
8
BLACK
6
CONTINUOUS
10
118.288
20
-142.532
11
118.288
21
-146.032
0
LINE
8
BLACK
6
CONTINUOUS
10
118.288
20
-146.032
11
117.475
21
-146.032
0
LINE
8
BLACK
6
CONTINUOUS
10
117.475
20
-146.032
11
117.475
21
-147.013
0
LINE
8
BLACK
6
CONTINUOUS
10
117.475
20
-147.013
11
103.505
21
-147.013
0
LINE
8
BLACK
6
CONTINUOUS
10
103.505
20
-147.013
11
103.505
21
-146.032
0
LINE
8
BLACK
6
CONTINUOUS
10
103.505
20
-146.032
11
102.692
21
-146.032
0
LINE
8
BLACK
6
CONTINUOUS
10
102.692
20
-146.032
11
102.692
21
-142.532
0
LINE
8
BLACK
6
CONTINUOUS
10
102.692
20
-142.532
11
103.505
21
-142.532
0
LINE
8
BLACK
6
CONTINUOUS
10
103.505
20
-142.532
11
103.505
21
-137.523
0
LINE
8
BLACK
6
CONTINUOUS
10
103.505
20
-137.523
11
102.692
21
-137.523
0
LINE
8
BLACK
6
CONTINUOUS
10
102.692
20
-137.523
11
102.692
21
-134.023
0
LINE
8
BLACK
6
CONTINUOUS
10
102.692
20
-134.023
11
103.505
21
-134.023
0
LINE
8
BLACK
6
CONTINUOUS
10
103.505
20
-134.023
11
103.505
21
-133.043
0
LINE
8
BLACK
6
CONTINUOUS
10
41.5175
20
-174.421
11
54.1786
21
-168.517
0
LINE
8
BLACK
6
CONTINUOUS
10
54.1786
20
-168.517
11
54.5929
21
-169.406
0
LINE
8
BLACK
6
CONTINUOUS
10
54.5929
20
-169.406
11
55.3296
21
-169.063
0
LINE
8
BLACK
6
CONTINUOUS
10
55.3296
20
-169.063
11
56.8088
21
-172.235
0
LINE
8
BLACK
6
CONTINUOUS
10
56.8088
20
-172.235
11
56.0721
21
-172.578
0
LINE
8
BLACK
6
CONTINUOUS
10
56.0721
20
-172.578
11
58.189
21
-177.118
0
LINE
8
BLACK
6
CONTINUOUS
10
58.189
20
-177.118
11
58.9256
21
-176.774
0
LINE
8
BLACK
6
CONTINUOUS
10
58.9256
20
-176.774
11
60.4048
21
-179.946
0
LINE
8
BLACK
6
CONTINUOUS
10
60.4048
20
-179.946
11
59.6682
21
-180.29
0
LINE
8
BLACK
6
CONTINUOUS
10
59.6682
20
-180.29
11
60.0825
21
-181.179
0
LINE
8
BLACK
6
CONTINUOUS
10
60.0825
20
-181.179
11
47.4214
21
-187.083
0
LINE
8
BLACK
6
CONTINUOUS
10
47.4214
20
-187.083
11
47.0071
21
-186.194
0
LINE
8
BLACK
6
CONTINUOUS
10
47.0071
20
-186.194
11
46.2704
21
-186.537
0
LINE
8
BLACK
6
CONTINUOUS
10
46.2704
20
-186.537
11
44.7912
21
-183.365
0
LINE
8
BLACK
6
CONTINUOUS
10
44.7912
20
-183.365
11
45.5279
21
-183.022
0
LINE
8
BLACK
6
CONTINUOUS
10
45.5279
20
-183.022
11
43.411
21
-178.482
0
LINE
8
BLACK
6
CONTINUOUS
10
43.411
20
-178.482
11
42.6744
21
-178.826
0
LINE
8
BLACK
6
CONTINUOUS
10
42.6744
20
-178.826
11
41.1952
21
-175.654
0
LINE
8
BLACK
6
CONTINUOUS
10
41.1952
20
-175.654
11
41.9318
21
-175.31
0
LINE
8
BLACK
6
CONTINUOUS
10
41.9318
20
-175.31
11
41.5175
21
-174.421
0
LINE
8
BLACK
6
CONTINUOUS
10
33.4657
20
-157.155
11
46.1268
21
-151.251
0
LINE
8
BLACK
6
CONTINUOUS
10
46.1268
20
-151.251
11
46.5411
21
-152.139
0
LINE
8
BLACK
6
CONTINUOUS
10
46.5411
20
-152.139
11
47.2778
21
-151.796
0
LINE
8
BLACK
6
CONTINUOUS
10
47.2778
20
-151.796
11
48.757
21
-154.968
0
LINE
8
BLACK
6
CONTINUOUS
10
48.757
20
-154.968
11
48.0203
21
-155.311
0
LINE
8
BLACK
6
CONTINUOUS
10
48.0203
20
-155.311
11
50.1372
21
-159.851
0
LINE
8
BLACK
6
CONTINUOUS
10
50.1372
20
-159.851
11
50.8738
21
-159.507
0
LINE
8
BLACK
6
CONTINUOUS
10
50.8738
20
-159.507
11
52.353
21
-162.68
0
LINE
8
BLACK
6
CONTINUOUS
10
52.353
20
-162.68
11
51.6164
21
-163.023
0
LINE
8
BLACK
6
CONTINUOUS
10
51.6164
20
-163.023
11
52.0307
21
-163.912
0
LINE
8
BLACK
6
CONTINUOUS
10
52.0307
20
-163.912
11
39.3696
21
-169.816
0
LINE
8
BLACK
6
CONTINUOUS
10
39.3696
20
-169.816
11
38.9553
21
-168.927
0
LINE
8
BLACK
6
CONTINUOUS
10
38.9553
20
-168.927
11
38.2186
21
-169.271
0
LINE
8
BLACK
6
CONTINUOUS
10
38.2186
20
-169.271
11
36.7394
21
-166.098
0
LINE
8
BLACK
6
CONTINUOUS
10
36.7394
20
-166.098
11
37.4761
21
-165.755
0
LINE
8
BLACK
6
CONTINUOUS
10
37.4761
20
-165.755
11
35.3592
21
-161.215
0
LINE
8
BLACK
6
CONTINUOUS
10
35.3592
20
-161.215
11
34.6226
21
-161.559
0
LINE
8
BLACK
6
CONTINUOUS
10
34.6226
20
-161.559
11
33.1434
21
-158.387
0
LINE
8
BLACK
6
CONTINUOUS
10
33.1434
20
-158.387
11
33.88
21
-158.043
0
LINE
8
BLACK
6
CONTINUOUS
10
33.88
20
-158.043
11
33.4657
21
-157.155
0
LINE
8
BLACK
6
CONTINUOUS
10
42.6808
20
-131.841
11
55.3419
21
-125.937
0
LINE
8
BLACK
6
CONTINUOUS
10
55.3419
20
-125.937
11
55.7562
21
-126.825
0
LINE
8
BLACK
6
CONTINUOUS
10
55.7562
20
-126.825
11
56.4929
21
-126.482
0
LINE
8
BLACK
6
CONTINUOUS
10
56.4929
20
-126.482
11
57.9721
21
-129.654
0
LINE
8
BLACK
6
CONTINUOUS
10
57.9721
20
-129.654
11
57.2355
21
-129.998
0
LINE
8
BLACK
6
CONTINUOUS
10
57.2355
20
-129.998
11
59.3523
21
-134.537
0
LINE
8
BLACK
6
CONTINUOUS
10
59.3523
20
-134.537
11
60.0889
21
-134.194
0
LINE
8
BLACK
6
CONTINUOUS
10
60.0889
20
-134.194
11
61.5682
21
-137.366
0
LINE
8
BLACK
6
CONTINUOUS
10
61.5682
20
-137.366
11
60.8315
21
-137.709
0
LINE
8
BLACK
6
CONTINUOUS
10
60.8315
20
-137.709
11
61.2459
21
-138.598
0
LINE
8
BLACK
6
CONTINUOUS
10
61.2459
20
-138.598
11
48.5847
21
-144.502
0
LINE
8
BLACK
6
CONTINUOUS
10
48.5847
20
-144.502
11
48.1704
21
-143.613
0
LINE
8
BLACK
6
CONTINUOUS
10
48.1704
20
-143.613
11
47.4337
21
-143.957
0
LINE
8
BLACK
6
CONTINUOUS
10
47.4337
20
-143.957
11
45.9545
21
-140.785
0
LINE
8
BLACK
6
CONTINUOUS
10
45.9545
20
-140.785
11
46.6912
21
-140.441
0
LINE
8
BLACK
6
CONTINUOUS
10
46.6912
20
-140.441
11
44.5743
21
-135.902
0
LINE
8
BLACK
6
CONTINUOUS
10
44.5743
20
-135.902
11
43.8377
21
-136.245
0
LINE
8
BLACK
6
CONTINUOUS
10
43.8377
20
-136.245
11
42.3585
21
-133.073
0
LINE
8
BLACK
6
CONTINUOUS
10
42.3585
20
-133.073
11
43.0951
21
-132.729
0
LINE
8
BLACK
6
CONTINUOUS
10
43.0951
20
-132.729
11
42.6808
21
-131.841
0
LINE
8
BLACK
6
CONTINUOUS
10
25.4164
20
-139.89
11
38.0775
21
-133.986
0
LINE
8
BLACK
6
CONTINUOUS
10
38.0775
20
-133.986
11
38.4919
21
-134.875
0
LINE
8
BLACK
6
CONTINUOUS
10
38.4919
20
-134.875
11
39.2285
21
-134.531
0
LINE
8
BLACK
6
CONTINUOUS
10
39.2285
20
-134.531
11
40.7077
21
-137.703
0
LINE
8
BLACK
6
CONTINUOUS
10
40.7077
20
-137.703
11
39.9711
21
-138.047
0
LINE
8
BLACK
6
CONTINUOUS
10
39.9711
20
-138.047
11
42.0879
21
-142.587
0
LINE
8
BLACK
6
CONTINUOUS
10
42.0879
20
-142.587
11
42.8246
21
-142.243
0
LINE
8
BLACK
6
CONTINUOUS
10
42.8246
20
-142.243
11
44.3038
21
-145.415
0
LINE
8
BLACK
6
CONTINUOUS
10
44.3038
20
-145.415
11
43.5671
21
-145.759
0
LINE
8
BLACK
6
CONTINUOUS
10
43.5671
20
-145.759
11
43.9815
21
-146.647
0
LINE
8
BLACK
6
CONTINUOUS
10
43.9815
20
-146.647
11
31.3204
21
-152.551
0
LINE
8
BLACK
6
CONTINUOUS
10
31.3204
20
-152.551
11
30.906
21
-151.663
0
LINE
8
BLACK
6
CONTINUOUS
10
30.906
20
-151.663
11
30.1694
21
-152.006
0
LINE
8
BLACK
6
CONTINUOUS
10
30.1694
20
-152.006
11
28.6902
21
-148.834
0
LINE
8
BLACK
6
CONTINUOUS
10
28.6902
20
-148.834
11
29.4268
21
-148.49
0
LINE
8
BLACK
6
CONTINUOUS
10
29.4268
20
-148.49
11
27.31
21
-143.951
0
LINE
8
BLACK
6
CONTINUOUS
10
27.31
20
-143.951
11
26.5733
21
-144.294
0
LINE
8
BLACK
6
CONTINUOUS
10
26.5733
20
-144.294
11
25.0941
21
-141.122
0
LINE
8
BLACK
6
CONTINUOUS
10
25.0941
20
-141.122
11
25.8307
21
-140.779
0
LINE
8
BLACK
6
CONTINUOUS
10
25.8307
20
-140.779
11
25.4164
21
-139.89
0
LINE
8
BLACK
6
CONTINUOUS
10
78.6292
20
-165.663
11
91.2903
21
-159.759
0
LINE
8
BLACK
6
CONTINUOUS
10
80.0247
20
-168.655
11
78.6292
21
-165.663
0
LINE
8
BLACK
6
CONTINUOUS
10
92.6858
20
-162.751
11
80.0247
21
-168.655
0
LINE
8
BLACK
6
CONTINUOUS
10
91.2903
20
-159.759
11
92.6858
21
-162.751
0
LINE
8
BLACK
6
CONTINUOUS
10
68.5387
20
-144.024
11
81.1999
21
-138.12
0
LINE
8
BLACK
6
CONTINUOUS
10
69.9342
20
-147.016
11
68.5387
21
-144.024
0
LINE
8
BLACK
6
CONTINUOUS
10
82.5953
20
-141.112
11
69.9342
21
-147.016
0
LINE
8
BLACK
6
CONTINUOUS
10
81.1999
20
-138.12
11
82.5953
21
-141.112
0
LINE
8
BLACK
6
CONTINUOUS
10
66.7122
20
-148.52
11
54.0511
21
-154.424
0
LINE
8
BLACK
6
CONTINUOUS
10
65.3167
20
-145.527
11
66.7122
21
-148.52
0
LINE
8
BLACK
6
CONTINUOUS
10
52.6556
20
-151.431
11
65.3167
21
-145.527
0
LINE
8
BLACK
6
CONTINUOUS
10
54.0511
20
-154.424
11
52.6556
21
-151.431
0
LINE
8
BLACK
6
CONTINUOUS
10
76.8026
20
-170.159
11
64.1415
21
-176.063
0
LINE
8
BLACK
6
CONTINUOUS
10
75.4071
20
-167.166
11
76.8026
21
-170.159
0
LINE
8
BLACK
6
CONTINUOUS
10
62.746
20
-173.07
11
75.4071
21
-167.166
0
LINE
8
BLACK
6
CONTINUOUS
10
64.1415
20
-176.063
11
62.746
21
-173.07
  0
ENDSEC
  0
EOF
