M48
; DRILL file {KiCad 5.1.9} date Sun Apr 18 19:29:24 2021
; FORMAT={-:-/ absolute / inch / decimal}
; #@! TF.CreationDate,2021-04-18T19:29:24+02:00
; #@! TF.GenerationSoftware,Kicad,Pcbnew,5.1.9
; #@! TF.FileFunction,Plated,1,2,PTH
FMAT,2
INCH
T1C0.0300
T2C0.0390
T3C0.0590
T4C0.0670
T5C0.1570
%
G90
G05
T1
X2.9252Y-5.2874
X3.1417Y-6.7283
X3.1594Y-3.248
X3.19Y-5.1073
X3.2776Y-3.75
X3.2972Y-5.2264
X3.4252Y-5.2264
X3.4587Y-5.4508
X3.6201Y-5.5925
X3.75Y-5.2756
X3.8386Y-3.7638
X3.8878Y-3.4154
X3.9469Y-4.6063
X3.9685Y-3.2303
X3.9764Y-2.3228
X4.0453Y-2.9921
X4.0453Y-3.6398
X4.0551Y-4.4291
X4.1083Y-3.6614
X4.1575Y-2.1417
X4.6654Y-3.6811
X4.6752Y-3.0118
X4.7146Y-3.7303
X4.7539Y-3.0118
X4.7736Y-5.1083
X4.8228Y-3.6319
X7.1634Y-2.2677
X7.1978Y-2.0502
X7.2736Y-2.0453
X7.3406Y-2.0472
X7.6929Y-2.2165
T2
X1.3147Y-5.8852
X1.3569Y-5.9758
X1.5866Y-5.7584
X1.6288Y-5.849
X1.6316Y-6.5649
X1.6738Y-6.6555
X1.9035Y-6.4381
X1.9457Y-6.5287
X1.9486Y-7.2447
X1.9908Y-7.3353
X1.9944Y-5.5683
X2.0366Y-5.6589
X2.1001Y-5.7948
X2.2205Y-7.1179
X2.2627Y-7.2085
X2.2663Y-5.4415
X2.3085Y-5.5321
X2.3719Y-5.668
X2.6391Y-6.1227
X2.7297Y-6.0805
X2.7659Y-6.3946
X2.7798Y-5.4778
X2.8565Y-6.3524
X3.05Y-2.413
X3.05Y-2.713
X3.05Y-3.3504
X3.05Y-3.6504
X3.05Y-4.4754
X3.05Y-4.7754
X3.0516Y-5.351
X3.15Y-2.413
X3.15Y-2.713
X3.15Y-3.3504
X3.15Y-3.6504
X3.15Y-4.4754
X3.15Y-4.7754
X3.3188Y-5.8057
X3.4094Y-5.7635
X3.4456Y-6.0776
X3.45Y-2.763
X3.45Y-2.863
X3.45Y-3.5129
X3.45Y-3.6129
X3.45Y-4.2629
X3.45Y-4.3629
X3.45Y-5.0129
X3.45Y-5.1129
X3.5362Y-6.0354
X3.75Y-2.763
X3.75Y-2.863
X3.75Y-3.5129
X3.75Y-3.6129
X3.75Y-4.2629
X3.75Y-4.3629
X3.75Y-5.0129
X3.75Y-5.1129
X4.2Y-2.7129
X4.2Y-2.8129
X4.2Y-3.4629
X4.2Y-3.5629
X4.2Y-4.2129
X4.2Y-4.3129
X4.2Y-4.9629
X4.2Y-5.0629
X4.2Y-5.7129
X4.2Y-5.8129
X4.5Y-2.7129
X4.5Y-2.8129
X4.5Y-3.4629
X4.5Y-3.5629
X4.5Y-4.2129
X4.5Y-4.3129
X4.5Y-4.9629
X4.5Y-5.0629
X4.5Y-5.7129
X4.5Y-5.8129
X4.95Y-2.65
X4.95Y-2.75
X4.95Y-3.4
X4.95Y-3.5
X4.95Y-4.15
X4.95Y-4.25
X4.95Y-4.9
X4.95Y-5.0
X4.95Y-5.65
X4.95Y-5.75
X5.25Y-2.65
X5.25Y-2.75
X5.25Y-3.4
X5.25Y-3.5
X5.25Y-4.15
X5.25Y-4.25
X5.25Y-4.9
X5.25Y-5.0
X5.25Y-5.65
X5.25Y-5.75
X5.7Y-2.7129
X5.7Y-2.8129
X5.7Y-3.4629
X5.7Y-3.5629
X5.7Y-4.2129
X5.7Y-4.3129
X5.7Y-4.9629
X5.7Y-5.0629
X5.7Y-5.7129
X5.7Y-5.8129
X6.0Y-2.7129
X6.0Y-2.8129
X6.0Y-3.4629
X6.0Y-3.5629
X6.0Y-4.2129
X6.0Y-4.3129
X6.0Y-4.9629
X6.0Y-5.0629
X6.0Y-5.7129
X6.0Y-5.8129
X6.45Y-2.838
X6.45Y-2.938
X6.45Y-3.5879
X6.45Y-3.6879
X6.45Y-4.3379
X6.45Y-4.4379
X6.45Y-5.0879
X6.45Y-5.1879
X6.45Y-5.8379
X6.45Y-5.9379
X6.75Y-2.838
X6.75Y-2.938
X6.75Y-3.5879
X6.75Y-3.6879
X6.75Y-4.3379
X6.75Y-4.4379
X6.75Y-5.0879
X6.75Y-5.1879
X6.75Y-5.8379
X6.75Y-5.9379
X7.2Y-5.8379
X7.2Y-5.9379
X7.3875Y-2.838
X7.3875Y-2.938
X7.3875Y-3.5879
X7.3875Y-3.6879
X7.3875Y-4.3379
X7.3875Y-4.4379
X7.3875Y-5.0879
X7.3875Y-5.1879
X7.5Y-5.8379
X7.5Y-5.9379
X7.6875Y-2.838
X7.6875Y-2.938
X7.6875Y-3.5879
X7.6875Y-3.6879
X7.6875Y-4.3379
X7.6875Y-4.4379
X7.6875Y-5.0879
X7.6875Y-5.1879
T3
X1.1879Y-5.6133
X1.1909Y-5.5015
X1.3722Y-5.417
X1.4598Y-5.4865
X1.5048Y-6.293
X1.5078Y-6.1812
X1.6891Y-6.0967
X1.7767Y-6.1662
X1.8218Y-6.9728
X1.8248Y-6.861
X1.8676Y-5.2964
X1.8706Y-5.1846
X2.0061Y-6.7765
X2.0519Y-5.1001
X2.0937Y-6.846
X2.1395Y-5.1696
X2.1846Y-5.9761
X2.1876Y-5.8643
X2.2977Y-6.3371
X2.3672Y-6.2495
X2.3689Y-5.7798
X2.3822Y-6.5184
X2.4565Y-5.8493
X2.494Y-6.5214
X2.586Y-6.837
X2.65Y-2.463
X2.65Y-2.663
X2.65Y-3.4004
X2.65Y-3.6004
X2.65Y-4.5254
X2.65Y-4.7254
X2.6736Y-6.9065
X2.75Y-2.413
X2.75Y-2.713
X2.75Y-3.3504
X2.75Y-3.6504
X2.75Y-4.4754
X2.75Y-4.7754
X2.8549Y-6.822
X2.8579Y-6.7102
X2.8643Y-5.6591
X2.8673Y-5.5473
X2.9774Y-6.0201
X3.0469Y-5.9325
X3.0486Y-5.4628
X3.0619Y-6.2014
X3.1362Y-5.5323
X3.1737Y-6.2044
X3.2658Y-6.5201
X3.3534Y-6.5896
X3.45Y-2.463
X3.45Y-3.2129
X3.45Y-3.9629
X3.45Y-4.7129
X3.5Y-2.363
X3.5Y-3.1129
X3.5Y-3.8629
X3.5Y-4.6129
X3.5347Y-6.5051
X3.5377Y-6.3933
X3.7Y-2.363
X3.7Y-3.1129
X3.7Y-3.8629
X3.7Y-4.6129
X3.75Y-2.463
X3.75Y-3.2129
X3.75Y-3.9629
X3.75Y-4.7129
X4.2Y-2.4129
X4.2Y-3.1629
X4.2Y-3.9129
X4.2Y-4.6629
X4.2Y-5.4129
X4.25Y-2.3129
X4.25Y-3.0629
X4.25Y-3.8129
X4.25Y-4.5629
X4.25Y-5.3129
X4.45Y-2.3129
X4.45Y-3.0629
X4.45Y-3.8129
X4.45Y-4.5629
X4.45Y-5.3129
X4.5Y-2.4129
X4.5Y-3.1629
X4.5Y-3.9129
X4.5Y-4.6629
X4.5Y-5.4129
X4.95Y-2.35
X4.95Y-3.1
X4.95Y-3.85
X4.95Y-4.6
X4.95Y-5.35
X5.0Y-2.25
X5.0Y-3.0
X5.0Y-3.75
X5.0Y-4.5
X5.0Y-5.25
X5.2Y-2.25
X5.2Y-3.0
X5.2Y-3.75
X5.2Y-4.5
X5.2Y-5.25
X5.25Y-2.35
X5.25Y-3.1
X5.25Y-3.85
X5.25Y-4.6
X5.25Y-5.35
X5.7Y-2.4129
X5.7Y-3.1629
X5.7Y-3.9129
X5.7Y-4.6629
X5.7Y-5.4129
X5.75Y-2.3129
X5.75Y-3.0629
X5.75Y-3.8129
X5.75Y-4.5629
X5.75Y-5.3129
X5.95Y-2.3129
X5.95Y-3.0629
X5.95Y-3.8129
X5.95Y-4.5629
X5.95Y-5.3129
X6.0Y-2.4129
X6.0Y-3.1629
X6.0Y-3.9129
X6.0Y-4.6629
X6.0Y-5.4129
X6.45Y-2.538
X6.45Y-3.2879
X6.45Y-4.0379
X6.45Y-4.7879
X6.45Y-5.5379
X6.5Y-2.438
X6.5Y-3.1879
X6.5Y-3.9379
X6.5Y-4.6879
X6.5Y-5.4379
X6.7Y-2.438
X6.7Y-3.1879
X6.7Y-3.9379
X6.7Y-4.6879
X6.7Y-5.4379
X6.75Y-2.538
X6.75Y-3.2879
X6.75Y-4.0379
X6.75Y-4.7879
X6.75Y-5.5379
X7.2Y-5.5379
X7.25Y-5.4379
X7.3875Y-2.538
X7.3875Y-3.2879
X7.3875Y-4.0379
X7.3875Y-4.7879
X7.4375Y-2.438
X7.4375Y-3.1879
X7.4375Y-3.9379
X7.4375Y-4.6879
X7.45Y-5.4379
X7.5Y-5.5379
X7.6375Y-2.438
X7.6375Y-3.1879
X7.6375Y-3.9379
X7.6375Y-4.6879
X7.6875Y-2.538
X7.6875Y-3.2879
X7.6875Y-4.0379
X7.6875Y-4.7879
T4
X1.1848Y-5.725
X1.5017Y-6.4047
X1.5474Y-5.556
X1.8187Y-7.0845
X1.8643Y-6.2357
X1.8645Y-5.4081
X2.1813Y-6.9155
X2.2271Y-5.2391
X2.4367Y-6.1619
X2.6057Y-6.5245
X2.85Y-2.363
X2.85Y-2.763
X2.85Y-3.3004
X2.85Y-3.7004
X2.85Y-4.4254
X2.85Y-4.8254
X3.1164Y-5.8449
X3.2854Y-6.2075
X3.4Y-2.563
X3.4Y-3.3129
X3.4Y-4.0629
X3.4Y-4.8129
X3.8Y-2.563
X3.8Y-3.3129
X3.8Y-4.0629
X3.8Y-4.8129
X4.15Y-2.5129
X4.15Y-3.2629
X4.15Y-4.0129
X4.15Y-4.7629
X4.15Y-5.5129
X4.55Y-2.5129
X4.55Y-3.2629
X4.55Y-4.0129
X4.55Y-4.7629
X4.55Y-5.5129
X4.9Y-2.45
X4.9Y-3.2
X4.9Y-3.95
X4.9Y-4.7
X4.9Y-5.45
X5.3Y-2.45
X5.3Y-3.2
X5.3Y-3.95
X5.3Y-4.7
X5.3Y-5.45
X5.65Y-2.5129
X5.65Y-3.2629
X5.65Y-4.0129
X5.65Y-4.7629
X5.65Y-5.5129
X6.05Y-2.5129
X6.05Y-3.2629
X6.05Y-4.0129
X6.05Y-4.7629
X6.05Y-5.5129
X6.4Y-2.638
X6.4Y-3.3879
X6.4Y-4.1379
X6.4Y-4.8879
X6.4Y-5.6379
X6.8Y-2.638
X6.8Y-3.3879
X6.8Y-4.1379
X6.8Y-4.8879
X6.8Y-5.6379
X7.15Y-5.6379
X7.3375Y-2.638
X7.3375Y-3.3879
X7.3375Y-4.1379
X7.3375Y-4.8879
X7.55Y-5.6379
X7.7375Y-2.638
X7.7375Y-3.3879
X7.7375Y-4.1379
X7.7375Y-4.8879
T5
X1.3661Y-5.6405
X1.683Y-6.3202
X2.0Y-7.0
X2.0458Y-5.3236
X2.5212Y-6.3432
X2.85Y-2.563
X2.85Y-3.5004
X2.85Y-4.6254
X3.2009Y-6.0262
X3.6Y-2.563
X3.6Y-3.3129
X3.6Y-4.0629
X3.6Y-4.8129
X4.35Y-2.5129
X4.35Y-3.2629
X4.35Y-4.0129
X4.35Y-4.7629
X4.35Y-5.5129
X5.1Y-2.45
X5.1Y-3.2
X5.1Y-3.95
X5.1Y-4.7
X5.1Y-5.45
X5.85Y-2.5129
X5.85Y-3.2629
X5.85Y-4.0129
X5.85Y-4.7629
X5.85Y-5.5129
X6.6Y-2.638
X6.6Y-3.3879
X6.6Y-4.1379
X6.6Y-4.8879
X6.6Y-5.6379
X7.35Y-5.6379
X7.5375Y-2.638
X7.5375Y-3.3879
X7.5375Y-4.1379
X7.5375Y-4.8879
T0
M30
