<?xml version="1.0" encoding="UTF-8" standalone="no"?>
<svg
   xmlns:dc="http://purl.org/dc/elements/1.1/"
   xmlns:cc="http://creativecommons.org/ns#"
   xmlns:rdf="http://www.w3.org/1999/02/22-rdf-syntax-ns#"
   xmlns:svg="http://www.w3.org/2000/svg"
   xmlns="http://www.w3.org/2000/svg"
   width="60cm"
   height="30cm"
   viewBox="18 44 600.00002 299.99999"
   version="1.1"
   id="svg1716">
  <metadata
     id="metadata1722">
    <rdf:RDF>
      <cc:Work
         rdf:about="">
        <dc:format>image/svg+xml</dc:format>
        <dc:type
           rdf:resource="http://purl.org/dc/dcmitype/StillImage" />
        <dc:title>OpenSCAD Model</dc:title>
      </cc:Work>
    </rdf:RDF>
  </metadata>
  <defs
     id="defs1720">
    <marker
       id="DistanceX"
       orient="auto"
       refX="0.0"
       refY="0.0"
       style="overflow:visible">
      <path
         d="M 3,-3 L -3,3 M 0,-5 L  0,5"
         style="stroke:#000000; stroke-width:0.5"
         id="path1557" />
    </marker>
    <pattern
       id="Hatch"
       patternUnits="userSpaceOnUse"
       width="8"
       height="8"
       x="0"
       y="0">
      <path
         d="M8 4 l-4,4"
         stroke="#000000"
         stroke-width="0.25"
         linecap="square"
         id="path1560" />
      <path
         d="M6 2 l-4,4"
         stroke="#000000"
         stroke-width="0.25"
         linecap="square"
         id="path1562" />
      <path
         d="M4 0 l-4,4"
         stroke="#000000"
         stroke-width="0.25"
         linecap="square"
         id="path1564" />
    </pattern>
    <symbol
       id="*MODEL_SPACE" />
    <symbol
       id="*PAPER_SPACE" />
    <marker
       id="DistanceX-6"
       orient="auto"
       refX="0.0"
       refY="0.0"
       style="overflow:visible">
      <path
         d="M 3,-3 L -3,3 M 0,-5 L  0,5"
         style="stroke:#000000; stroke-width:0.5"
         id="path1647" />
    </marker>
    <pattern
       id="Hatch-7"
       patternUnits="userSpaceOnUse"
       width="8"
       height="8"
       x="0"
       y="0">
      <path
         d="M8 4 l-4,4"
         stroke="#000000"
         stroke-width="0.25"
         linecap="square"
         id="path1650" />
      <path
         d="M6 2 l-4,4"
         stroke="#000000"
         stroke-width="0.25"
         linecap="square"
         id="path1652" />
      <path
         d="M4 0 l-4,4"
         stroke="#000000"
         stroke-width="0.25"
         linecap="square"
         id="path1654" />
    </pattern>
    <symbol
       id="*MODEL_SPACE-5" />
    <symbol
       id="*PAPER_SPACE-3" />
    <marker
       id="DistanceX-5"
       orient="auto"
       refX="0.0"
       refY="0.0"
       style="overflow:visible">
      <path
         d="M 3,-3 L -3,3 M 0,-5 L  0,5"
         style="stroke:#000000; stroke-width:0.5"
         id="path1737" />
    </marker>
    <pattern
       id="Hatch-6"
       patternUnits="userSpaceOnUse"
       width="8"
       height="8"
       x="0"
       y="0">
      <path
         d="M8 4 l-4,4"
         stroke="#000000"
         stroke-width="0.25"
         linecap="square"
         id="path1740" />
      <path
         d="M6 2 l-4,4"
         stroke="#000000"
         stroke-width="0.25"
         linecap="square"
         id="path1742" />
      <path
         d="M4 0 l-4,4"
         stroke="#000000"
         stroke-width="0.25"
         linecap="square"
         id="path1744" />
    </pattern>
    <symbol
       id="*MODEL_SPACE-2" />
    <symbol
       id="*PAPER_SPACE-9" />
  </defs>
  <title
     id="title1712">OpenSCAD Model</title>
  <g
     id="g6209"
     transform="rotate(-60,168.82463,358.78646)">
    <path
       style="fill:none;stroke:#000000;stroke-width:0.264583;stroke-miterlimit:4;stroke-dasharray:none"
       d="m 385.82389,114.94072 -62.39438,36.20003 -0.004,-0.002 -12.68079,7.32126 c -0.68091,0.39312 -1.60016,-0.594 -1.22861,-1.12137 l 5.31355,-7.54188 c 0.32166,-0.45952 0.21006,-1.09279 -0.2493,-1.41469 l -29.96169,-20.97922 c -1.68253,-1.1781 -2.66187,-2.8907 -1.63982,-3.2702 l 85.10163,-31.598559 0.70109,-0.20368 1.03968,-0.10918 1.03938,0.10941 0.99429,0.32278 0.90515,0.52285 0.77683,0.69956 0.54867,0.75492 -0.002,10e-4 0.0661,0.0907 z"
       id="path3304" />
    <path
       style="fill:none;stroke:#000000;stroke-width:0.264583;stroke-miterlimit:4;stroke-dasharray:none"
       d="m 316.60941,149.89695 a 1.524,1.524 0 1 1 1.524,2.63964 1.524,1.524 0 1 1 -1.524,-2.63964 z"
       id="path3302" />
    <path
       style="fill:none;stroke:#000000;stroke-width:0.264583;stroke-miterlimit:4;stroke-dasharray:none"
       d="m 296.54343,128.68609 a 1.524002,1.524002 0 1 1 1.524,2.63965 1.524002,1.524002 0 1 1 -1.524,-2.63965 z"
       id="path3300" />
    <path
       style="fill:none;stroke:#000000;stroke-width:0.264583;stroke-miterlimit:4;stroke-dasharray:none"
       d="m 358.56976,114.11908 a 1.524002,1.524002 0 1 1 1.524,2.63965 1.524002,1.524002 0 1 1 -1.524,-2.63965 z"
       id="path2860" />
  </g>
  <g
     aria-label="NFS.WORKS"
     id="text2882"
     style="font-style:normal;font-variant:normal;font-weight:normal;font-stretch:normal;font-size:5.09909px;line-height:1.25;font-family:Iosevka;-inkscape-font-specification:Iosevka;fill:#ff0000;stroke:none;stroke-width:0.134913" />
</svg>
