<?xml version="1.0" encoding="UTF-8" standalone="no"?>
<svg
   xmlns:dc="http://purl.org/dc/elements/1.1/"
   xmlns:cc="http://creativecommons.org/ns#"
   xmlns:rdf="http://www.w3.org/1999/02/22-rdf-syntax-ns#"
   xmlns:svg="http://www.w3.org/2000/svg"
   xmlns="http://www.w3.org/2000/svg"
   xmlns:sodipodi="http://sodipodi.sourceforge.net/DTD/sodipodi-0.dtd"
   xmlns:inkscape="http://www.inkscape.org/namespaces/inkscape"
   width="193mm"
   height="151mm"
   viewBox="18 44 193 151"
   version="1.1"
   id="svg1716"
   sodipodi:docname="integrated_plate_wip.svg"
   inkscape:version="1.0.2 (e86c870879, 2021-01-15)">
  <metadata
     id="metadata1722">
    <rdf:RDF>
      <cc:Work
         rdf:about="">
        <dc:format>image/svg+xml</dc:format>
        <dc:type
           rdf:resource="http://purl.org/dc/dcmitype/StillImage" />
        <dc:title>OpenSCAD Model</dc:title>
      </cc:Work>
    </rdf:RDF>
  </metadata>
  <defs
     id="defs1720" />
  <sodipodi:namedview
     pagecolor="#ffffff"
     bordercolor="#666666"
     borderopacity="1"
     objecttolerance="10"
     gridtolerance="10"
     guidetolerance="10"
     inkscape:pageopacity="0"
     inkscape:pageshadow="2"
     inkscape:window-width="1500"
     inkscape:window-height="802"
     id="namedview1718"
     showgrid="false"
     inkscape:snap-bbox="true"
     inkscape:snap-bbox-midpoints="true"
     inkscape:snap-object-midpoints="true"
     inkscape:zoom="1.0212273"
     inkscape:cx="284.24543"
     inkscape:cy="253.03064"
     inkscape:window-x="360"
     inkscape:window-y="115"
     inkscape:window-maximized="0"
     inkscape:current-layer="svg1716" />
  <title
     id="title1712">OpenSCAD Model</title>
  <path
     d="m 66.1834,55.366731 a 1.524,1.524 0 1 1 3.048,0 1.524,1.524 0 1 1 -3.048,0 z"
     style="fill:none;stroke:#000000;stroke-width:0.26458333;stroke-miterlimit:4;stroke-dasharray:none"
     id="path955" />
  <path
     d="m 137.8114,92.81458 a 1.524,1.524 0 1 1 3.048,0 1.524,1.524 0 1 1 -3.048,0 z"
     style="fill:none;stroke:#000000;stroke-width:0.26458333;stroke-miterlimit:4;stroke-dasharray:none"
     id="path961" />
  <path
     d="m 200.54939,141.27778 a 1.524,1.524 0 1 1 3.048,0 1.524,1.524 0 1 1 -3.048,0 z"
     style="fill:none;stroke:#000000;stroke-width:0.26458333;stroke-miterlimit:4;stroke-dasharray:none"
     id="path963" />
  <path
     d="m 104.2072,158.98158 a 1.524,1.524 0 1 1 3.048,0 1.524,1.524 0 1 1 -3.048,0 z"
     style="fill:none;stroke:#000000;stroke-width:0.26458333;stroke-miterlimit:4;stroke-dasharray:none"
     id="path965" />
  <path
     d="m 58.4364,122.88818 a 1.524,1.524 0 1 1 3.048,0 1.524,1.524 0 1 1 -3.048,0 z"
     style="fill:none;stroke:#000000;stroke-width:0.26458333;stroke-miterlimit:4;stroke-dasharray:none"
     id="path967" />
  <path
     d="m 52.6706,167.05878 a 1.524,1.524 0 1 1 3.048,0 1.524,1.524 0 1 1 -3.048,0 z"
     style="fill:none;stroke:#000000;stroke-width:0.26458333;stroke-miterlimit:4;stroke-dasharray:none"
     id="path969" />
  <path
     d="m 54.347,155.64656 12.6619,-5.9055 -1.397,-2.99212 -12.65936,5.9055 z"
     style="fill:none;stroke:#000000;stroke-width:0.26458333;stroke-miterlimit:4;stroke-dasharray:none"
     id="path971" />
  <path
     d="m 64.43842,177.28483 12.65936,-5.90297 -1.39446,-2.99212 -12.6619,5.90296 z"
     style="fill:none;stroke:#000000;stroke-width:0.26458333;stroke-miterlimit:4;stroke-dasharray:none"
     id="path973" />
  <path
     d="m 91.58594,160.98056 -12.6619,5.9055 1.397,2.99212 12.65936,-5.9055 z"
     style="fill:none;stroke:#000000;stroke-width:0.26458333;stroke-miterlimit:4;stroke-dasharray:none"
     id="path975" />
  <path
     d="m 81.49452,139.3423 -12.65936,5.90296 1.39446,2.99212 12.6619,-5.90296 z"
     style="fill:none;stroke:#000000;stroke-width:0.26458333;stroke-miterlimit:4;stroke-dasharray:none"
     id="path977" />
  <path
     d="m 184.76329,118.38984 v 0.98044 h -0.8128 v 3.50012 h 0.8128 v 5.00888 h -0.8128 v 3.50012 h 0.8128 v 0.98044 h 13.97 v -0.98044 h 0.8128 v -3.50012 h -0.8128 v -5.00888 h 0.8128 v -3.50012 h -0.8128 v -0.98044 z"
     style="fill:none;stroke:#000000;stroke-width:0.26458333;stroke-miterlimit:4;stroke-dasharray:none"
     id="path979" />
  <path
     d="m 184.76329,99.339843 v 0.980437 h -0.8128 v 3.50012 h 0.8128 v 5.00888 h -0.8128 v 3.50012 h 0.8128 v 0.98044 h 13.97 v -0.98044 h 0.8128 v -3.50012 h -0.8128 v -5.00888 h 0.8128 v -3.50012 h -0.8128 v -0.980437 z"
     style="fill:none;stroke:#000000;stroke-width:0.26458333;stroke-miterlimit:4;stroke-dasharray:none"
     id="path981" />
  <path
     d="m 184.76329,80.289843 v 0.98044 h -0.8128 v 3.50012 h 0.8128 v 5.00888 h -0.8128 V 93.2794 h 0.8128 v 0.98044 h 13.97 V 93.2794 h 0.8128 v -3.500117 h -0.8128 v -5.00888 h 0.8128 v -3.50012 h -0.8128 v -0.98044 z"
     style="fill:none;stroke:#000000;stroke-width:0.26458333;stroke-miterlimit:4;stroke-dasharray:none"
     id="path983" />
  <path
     d="m 184.76329,61.242383 v 0.98044 h -0.8128 v 3.500118 h 0.8128 v 5.00888 h -0.8128 v 3.50012 h 0.8128 v 0.98044 h 13.97 v -0.98044 h 0.8128 v -3.50012 h -0.8128 v -5.00888 h 0.8128 v -3.500118 h -0.8128 v -0.98044 z"
     style="fill:none;stroke:#000000;stroke-width:0.26458333;stroke-miterlimit:4;stroke-dasharray:none"
     id="path985" />
  <path
     d="m 84.7508,59.337381 v 0.98044 H 83.938 v 3.50012 h 0.8128 v 5.00888 H 83.938 v 3.500122 h 0.8128 v 0.98044 h 13.97 v -0.98044 h 0.8128 v -3.500122 h -0.8128 v -5.00888 h 0.8128 v -3.50012 h -0.8128 v -0.98044 z"
     style="fill:none;stroke:#000000;stroke-width:0.26458333;stroke-miterlimit:4;stroke-dasharray:none"
     id="path987" />
  <path
     d="m 141.9008,77.114843 v 0.98044 h -0.8128 v 3.50012 h 0.8128 v 5.00888 H 141.088 V 90.1044 h 0.8128 v 0.98044 h 13.96999 V 90.1044 h 0.8128 v -3.500117 h -0.8128 v -5.00888 h 0.8128 v -3.50012 h -0.8128 v -0.98044 z"
     style="fill:none;stroke:#000000;stroke-width:0.26458333;stroke-miterlimit:4;stroke-dasharray:none"
     id="path989" />
  <path
     d="m 60.95608,171.62316 0.889,-0.41656 0.3429,0.7366 3.17246,-1.47828 -0.3429,-0.7366 4.53898,-2.11582 0.3429,0.7366 3.17246,-1.48082 -0.3429,-0.7366 0.889,-0.41402 -5.9055,-12.6619 -0.889,0.41656 -0.3429,-0.7366 -3.17246,1.47828 0.3429,0.7366 -4.53898,2.11582 -0.3429,-0.7366 -3.17246,1.48082 0.3429,0.7366 -0.889,0.41402 z"
     style="fill:none;stroke:#000000;stroke-width:0.26458333;stroke-miterlimit:4;stroke-dasharray:none"
     id="path991" />
  <path
     d="m 78.22046,163.57136 0.889,-0.41656 0.3429,0.7366 3.17246,-1.47828 -0.3429,-0.7366 4.53898,-2.11582 0.3429,0.7366 3.17246,-1.48082 -0.3429,-0.7366 0.889,-0.41402 -5.9055,-12.6619 -0.889,0.41656 -0.3429,-0.7366 -3.17246,1.47828 0.3429,0.7366 -4.53898,2.11582 -0.3429,-0.7366 -3.17246,1.48082 0.3429,0.7366 -0.889,0.41402 z"
     style="fill:none;stroke:#000000;stroke-width:0.26458333;stroke-miterlimit:4;stroke-dasharray:none"
     id="path993" />
  <path
     d="m 103.8008,134.26484 v 0.98044 h -0.8128 v 3.50012 h 0.8128 v 5.00888 h -0.8128 v 3.50012 h 0.8128 v 0.98044 h 13.97 v -0.98044 h 0.8128 v -3.50012 h -0.8128 v -5.00888 h 0.8128 v -3.50012 h -0.8128 v -0.98044 z"
     style="fill:none;stroke:#000000;stroke-width:0.26458333;stroke-miterlimit:4;stroke-dasharray:none"
     id="path995" />
  <path
     d="m 122.8508,132.66718 v 0.98044 h -0.8128 v 3.50012 h 0.8128 v 5.00888 h -0.8128 v 3.50012 h 0.8128 v 0.98044 h 13.97 v -0.98044 h 0.8128 v -3.50012 h -0.8128 v -5.00888 h 0.8128 v -3.50012 h -0.8128 v -0.98044 z"
     style="fill:none;stroke:#000000;stroke-width:0.26458333;stroke-miterlimit:4;stroke-dasharray:none"
     id="path997" />
  <path
     d="m 160.95079,137.43984 v 0.98044 h -0.8128 v 3.50012 h 0.8128 v 5.00888 h -0.8128 v 3.50012 h 0.8128 v 0.98044 h 13.97 v -0.98044 h 0.8128 v -3.50012 h -0.8128 v -5.00888 h 0.8128 v -3.50012 h -0.8128 v -0.98044 z"
     style="fill:none;stroke:#000000;stroke-width:0.26458333;stroke-miterlimit:4;stroke-dasharray:none"
     id="path999" />
  <path
     d="m 84.7508,116.48484 v 0.98044 H 83.938 v 3.50012 h 0.8128 v 5.00888 H 83.938 v 3.50012 h 0.8128 v 0.98044 h 13.97 v -0.98044 h 0.8128 v -3.50012 h -0.8128 v -5.00888 h 0.8128 v -3.50012 h -0.8128 v -0.98044 z"
     style="fill:none;stroke:#000000;stroke-width:0.26458333;stroke-miterlimit:4;stroke-dasharray:none"
     id="path1001" />
  <path
     d="m 103.8008,115.21484 v 0.98044 h -0.8128 v 3.50012 h 0.8128 v 5.00888 h -0.8128 v 3.50012 h 0.8128 v 0.98044 h 13.97 v -0.98044 h 0.8128 v -3.50012 h -0.8128 v -5.00888 h 0.8128 v -3.50012 h -0.8128 v -0.98044 z"
     style="fill:none;stroke:#000000;stroke-width:0.26458333;stroke-miterlimit:4;stroke-dasharray:none"
     id="path1003" />
  <path
     d="m 122.8508,113.61718 v 0.98044 h -0.8128 v 3.50012 h 0.8128 v 5.00888 h -0.8128 v 3.50012 h 0.8128 v 0.98044 h 13.97 v -0.98044 h 0.8128 v -3.50012 h -0.8128 v -5.00888 h 0.8128 v -3.50012 h -0.8128 v -0.98044 z"
     style="fill:none;stroke:#000000;stroke-width:0.26458333;stroke-miterlimit:4;stroke-dasharray:none"
     id="path1005" />
  <path
     d="m 141.9008,115.21484 v 0.98044 h -0.8128 v 3.50012 h 0.8128 v 5.00888 h -0.8128 v 3.50012 h 0.8128 v 0.98044 h 13.96999 v -0.98044 h 0.8128 v -3.50012 h -0.8128 v -5.00888 h 0.8128 v -3.50012 h -0.8128 v -0.98044 z"
     style="fill:none;stroke:#000000;stroke-width:0.26458333;stroke-miterlimit:4;stroke-dasharray:none"
     id="path1007" />
  <path
     d="m 160.95079,118.38984 v 0.98044 h -0.8128 v 3.50012 h 0.8128 v 5.00888 h -0.8128 v 3.50012 h 0.8128 v 0.98044 h 13.97 v -0.98044 h 0.8128 v -3.50012 h -0.8128 v -5.00888 h 0.8128 v -3.50012 h -0.8128 v -0.98044 z"
     style="fill:none;stroke:#000000;stroke-width:0.26458333;stroke-miterlimit:4;stroke-dasharray:none"
     id="path1009" />
  <path
     d="m 84.7508,97.43484 v 0.98044 H 83.938 v 3.50012 h 0.8128 v 5.00888 H 83.938 v 3.50012 h 0.8128 v 0.98044 h 13.97 v -0.98044 h 0.8128 v -3.50012 h -0.8128 v -5.00888 h 0.8128 v -3.50012 h -0.8128 v -0.98044 z"
     style="fill:none;stroke:#000000;stroke-width:0.26458333;stroke-miterlimit:4;stroke-dasharray:none"
     id="path1011" />
  <path
     d="m 103.8008,96.164843 v 0.98044 h -0.8128 v 3.500117 h 0.8128 v 5.00888 h -0.8128 v 3.50012 h 0.8128 v 0.98044 h 13.97 v -0.98044 h 0.8128 v -3.50012 h -0.8128 v -5.00888 h 0.8128 v -3.500117 h -0.8128 v -0.98044 z"
     style="fill:none;stroke:#000000;stroke-width:0.26458333;stroke-miterlimit:4;stroke-dasharray:none"
     id="path1013" />
  <path
     d="m 122.8508,94.567183 v 0.98044 h -0.8128 v 3.500117 h 0.8128 v 5.00888 h -0.8128 v 3.50012 h 0.8128 v 0.98044 h 13.97 v -0.98044 h 0.8128 v -3.50012 h -0.8128 v -5.00888 h 0.8128 v -3.500117 h -0.8128 v -0.98044 z"
     style="fill:none;stroke:#000000;stroke-width:0.26458333;stroke-miterlimit:4;stroke-dasharray:none"
     id="path1015" />
  <path
     d="m 141.9008,96.164843 v 0.98044 h -0.8128 v 3.500117 h 0.8128 v 5.00888 h -0.8128 v 3.50012 h 0.8128 v 0.98044 h 13.96999 v -0.98044 h 0.8128 v -3.50012 h -0.8128 v -5.00888 h 0.8128 v -3.500117 h -0.8128 v -0.98044 z"
     style="fill:none;stroke:#000000;stroke-width:0.26458333;stroke-miterlimit:4;stroke-dasharray:none"
     id="path1017" />
  <path
     d="m 160.95079,99.339843 v 0.980437 h -0.8128 v 3.50012 h 0.8128 v 5.00888 h -0.8128 v 3.50012 h 0.8128 v 0.98044 h 13.97 v -0.98044 h 0.8128 v -3.50012 h -0.8128 v -5.00888 h 0.8128 v -3.50012 h -0.8128 v -0.980437 z"
     style="fill:none;stroke:#000000;stroke-width:0.26458333;stroke-miterlimit:4;stroke-dasharray:none"
     id="path1019" />
  <path
     d="m 103.8008,77.114843 v 0.98044 h -0.8128 v 3.50012 h 0.8128 v 5.00888 H 102.988 V 90.1044 h 0.8128 v 0.98044 h 13.97 V 90.1044 h 0.8128 v -3.500117 h -0.8128 v -5.00888 h 0.8128 v -3.50012 h -0.8128 v -0.98044 z"
     style="fill:none;stroke:#000000;stroke-width:0.26458333;stroke-miterlimit:4;stroke-dasharray:none"
     id="path1021" />
  <path
     d="m 122.8508,75.517183 v 0.98044 h -0.8128 v 3.500118 h 0.8128 v 5.00888 h -0.8128 v 3.500119 h 0.8128 v 0.98044 h 13.97 v -0.98044 h 0.8128 v -3.500119 h -0.8128 v -5.00888 h 0.8128 v -3.500118 h -0.8128 v -0.98044 z"
     style="fill:none;stroke:#000000;stroke-width:0.26458333;stroke-miterlimit:4;stroke-dasharray:none"
     id="path1023" />
  <path
     d="m 160.95079,80.289843 v 0.98044 h -0.8128 v 3.50012 h 0.8128 v 5.00888 h -0.8128 V 93.2794 h 0.8128 v 0.98044 h 13.97 V 93.2794 h 0.8128 v -3.500117 h -0.8128 v -5.00888 h 0.8128 v -3.50012 h -0.8128 v -0.98044 z"
     style="fill:none;stroke:#000000;stroke-width:0.26458333;stroke-miterlimit:4;stroke-dasharray:none"
     id="path1025" />
  <path
     d="m 141.9008,134.26484 v 0.98044 h -0.8128 v 3.50012 h 0.8128 v 5.00888 h -0.8128 v 3.50012 h 0.8128 v 0.98044 h 13.96999 v -0.98044 h 0.8128 v -3.50012 h -0.8128 v -5.00888 h 0.8128 v -3.50012 h -0.8128 v -0.98044 z"
     style="fill:none;stroke:#000000;stroke-width:0.26458333;stroke-miterlimit:4;stroke-dasharray:none"
     id="path1027" />
  <path
     d="m 103.8008,58.064844 v 0.980439 h -0.8128 v 3.50012 h 0.8128 v 5.00888 h -0.8128 v 3.500118 h 0.8128 v 0.98044 h 13.97 v -0.98044 h 0.8128 v -3.500118 h -0.8128 v -5.00888 h 0.8128 v -3.50012 h -0.8128 v -0.980439 z"
     style="fill:none;stroke:#000000;stroke-width:0.26458333;stroke-miterlimit:4;stroke-dasharray:none"
     id="path1029" />
  <path
     d="m 122.8508,56.467184 v 0.98044 h -0.8128 v 3.500117 h 0.8128 v 5.00888 h -0.8128 v 3.50012 h 0.8128 v 0.98044 h 13.97 v -0.98044 h 0.8128 v -3.50012 h -0.8128 v -5.00888 h 0.8128 v -3.500117 h -0.8128 v -0.98044 z"
     style="fill:none;stroke:#000000;stroke-width:0.26458333;stroke-miterlimit:4;stroke-dasharray:none"
     id="path1031" />
  <path
     d="m 141.9008,58.064844 v 0.980439 h -0.8128 v 3.50012 h 0.8128 v 5.00888 h -0.8128 v 3.500118 h 0.8128 v 0.98044 h 13.96999 v -0.98044 h 0.8128 v -3.500118 h -0.8128 v -5.00888 h 0.8128 v -3.50012 h -0.8128 v -0.980439 z"
     style="fill:none;stroke:#000000;stroke-width:0.26458333;stroke-miterlimit:4;stroke-dasharray:none"
     id="path1033" />
  <path
     d="m 160.95079,61.242383 v 0.98044 h -0.8128 v 3.500118 h 0.8128 v 5.00888 h -0.8128 v 3.50012 h 0.8128 v 0.98044 h 13.97 v -0.98044 h 0.8128 v -3.50012 h -0.8128 v -5.00888 h 0.8128 v -3.500118 h -0.8128 v -0.98044 z"
     style="fill:none;stroke:#000000;stroke-width:0.26458333;stroke-miterlimit:4;stroke-dasharray:none"
     id="path1035" />
  <path
     d="m 42.97542,133.06342 0.41656,0.889 -0.7366,0.3429 1.47828,3.17246 0.7366,-0.3429 2.11582,4.53898 -0.7366,0.3429 1.48082,3.17246 0.7366,-0.3429 0.41402,0.889 12.6619,-5.9055 -0.41656,-0.889 0.7366,-0.3429 -1.47828,-3.17246 -0.7366,0.3429 -2.11582,-4.53898 0.7366,-0.3429 -1.48082,-3.17246 -0.7366,0.3429 -0.41402,-0.889 z"
     style="fill:none;stroke:#000000;stroke-width:0.26458333;stroke-miterlimit:4;stroke-dasharray:none"
     id="path1037" />
  <path
     d="m 25.71104,141.11268 0.41656,0.889 -0.7366,0.3429 1.47828,3.17246 0.7366,-0.3429 2.11582,4.53898 -0.7366,0.3429 1.48082,3.17246 0.7366,-0.3429 0.41402,0.889 12.6619,-5.9055 -0.41656,-0.889 0.7366,-0.3429 -1.47828,-3.17246 -0.7366,0.3429 -2.11582,-4.53898 0.7366,-0.3429 -1.48082,-3.17246 -0.7366,0.3429 -0.41402,-0.889 z"
     style="fill:none;stroke:#000000;stroke-width:0.26458333;stroke-miterlimit:4;stroke-dasharray:none"
     id="path1039" />
  <path
     d="m 41.8121,175.64398 0.41656,0.88901 -0.7366,0.3429 1.47828,3.17246 0.7366,-0.3429 2.11582,4.53898 -0.7366,0.3429 1.48082,3.17246 0.7366,-0.3429 0.41402,0.889 12.6619,-5.9055 -0.41656,-0.889 0.7366,-0.3429 -1.47828,-3.17246 -0.7366,0.3429 -2.11582,-4.53899 0.7366,-0.3429 -1.48082,-3.17246 -0.7366,0.3429 -0.41402,-0.889 z"
     style="fill:none;stroke:#000000;stroke-width:0.26458333;stroke-miterlimit:4;stroke-dasharray:none"
     id="path1041" />
  <path
     d="m 33.7603,158.37706 0.41656,0.889 -0.7366,0.3429 1.47828,3.17246 0.7366,-0.3429 2.11582,4.53898 -0.7366,0.3429 1.48082,3.17246 0.7366,-0.3429 0.41402,0.889 12.6619,-5.9055 -0.41656,-0.889 0.7366,-0.3429 -1.47828,-3.17246 -0.7366,0.3429 -2.11582,-4.53898 0.7366,-0.3429 -1.48082,-3.17246 -0.7366,0.3429 -0.41402,-0.889 z"
     style="fill:none;stroke:#000000;stroke-width:0.26458333;stroke-miterlimit:4;stroke-dasharray:none"
     id="path1043" />
  <path
     d="m 84.7508,78.384841 v 0.98044 H 83.938 v 3.50012 h 0.8128 V 87.87428 H 83.938 v 3.50012 h 0.8128 v 0.98044 h 13.97 V 91.3744 h 0.8128 v -3.50012 h -0.8128 v -5.008879 h 0.8128 v -3.50012 h -0.8128 v -0.98044 z"
     style="fill:none;stroke:#000000;stroke-width:0.26458333;stroke-miterlimit:4;stroke-dasharray:none"
     id="path1045" />
  <path
     d="m 180.00079,137.43984 v 0.98044 h -0.8128 v 3.50012 h 0.8128 v 5.00888 h -0.8128 v 3.50012 h 0.8128 v 0.98044 h 13.97 v -0.98044 h 0.8128 v -3.50012 h -0.8128 v -5.00888 h 0.8128 v -3.50012 h -0.8128 v -0.98044 z"
     style="fill:none;stroke:#000000;stroke-width:0.26458333;stroke-miterlimit:4;stroke-dasharray:none"
     id="path1047" />
  <path
     id="path2638"
     style="fill:none;stroke:#000000;stroke-width:1;stroke-miterlimit:4;stroke-dasharray:none"
     d="M 163.70312 5.546875 L 163.70312 109.70312 L 180.28711 109.70312 L 180.28711 107.0625 L 177.21484 107.0625 L 177.21484 93.833984 L 180.28711 93.833984 L 180.28711 74.902344 L 177.21484 74.902344 L 177.21484 61.673828 L 180.28711 61.673828 L 180.28711 57.96875 L 233.08594 57.96875 L 233.08594 61.673828 L 236.1582 61.673828 L 236.1582 74.902344 L 233.08594 74.902344 L 233.08594 93.833984 L 236.1582 93.833984 L 236.1582 107.0625 L 233.08594 107.0625 L 233.08594 110.76758 L 191.82617 110.76758 L 202.97852 121.92188 L 203.05859 122.01367 L 203.13672 122.15039 L 203.18555 122.29883 L 203.20117 122.45703 L 203.20117 147.95898 L 216.15234 147.95898 L 216.15234 144.88672 L 229.38086 144.88672 L 229.38086 147.95898 L 233.08594 147.95898 L 233.08594 200.75781 L 229.38086 200.75781 L 229.38086 203.83008 L 216.15234 203.83008 L 216.15234 200.75781 L 203.20117 200.75781 L 203.20117 255.95898 L 216.15234 255.95898 L 216.15234 252.88672 L 229.38086 252.88672 L 229.38086 255.95898 L 233.08594 255.95898 L 233.08594 308.75781 L 229.38086 308.75781 L 229.38086 311.83008 L 216.15234 311.83008 L 216.15234 308.75781 L 197.2207 308.75781 L 197.2207 311.83008 L 183.99219 311.83008 L 183.99219 308.75781 L 180.28711 308.75781 L 180.28711 272.64844 C 128.9149 300.3528 79.298682 317.95876 26.480469 347.71484 L 80.228516 24.316406 L 80.253906 24.208984 L 80.318359 24.064453 L 80.412109 23.9375 L 80.529297 23.832031 L 80.552734 23.816406 L 80.552734 5.5878906 L 77.044922 5.9570312 L 73.287109 7.1777344 L 69.865234 9.1523438 L 66.929688 11.796875 L 64.607422 14.992188 L 63 18.601562 L 62.341797 21.28125 L 4.9472656 359.54688 L 2.6289062 365.9082 L 1.6738281 369.74414 L 1.5351562 373.69336 L 2.2207031 377.58594 L 3.2597656 380.36328 L 85.214844 556.12305 L 87.248047 559.50977 L 89.943359 562.40039 L 93.179688 564.66406 L 95.888672 565.90039 L 111.83594 571.69531 L 115.66992 572.64648 L 119.61914 572.7832 L 123.50977 572.0957 L 126.27539 571.06055 L 417.91797 435.0918 L 675.42578 435.0918 L 679.35156 434.67969 L 683.10938 433.45898 L 686.5293 431.48242 L 688.78516 429.55859 L 724.78906 393.55469 L 727.27344 390.48633 L 729.06836 386.9668 L 730.08789 383.14844 L 730.32227 380.19336 L 730.32227 36.443359 L 729.91016 32.515625 L 728.68945 28.757812 L 726.71289 25.335938 L 724.78906 23.082031 L 712.78906 11.082031 L 709.7168 8.5957031 L 706.19727 6.8027344 L 702.38086 5.7792969 L 699.42578 5.546875 L 163.70312 5.546875 z "
     transform="matrix(0.26458333,0,0,0.26458333,18,44)" />
  <path
     d="m 199.93342,55.39963 a 1.524,1.524 0 1 1 3.048,0 1.524,1.524 0 1 1 -3.048,0 z"
     style="fill:none;stroke:#000000;stroke-width:0.26458333;stroke-miterlimit:4;stroke-dasharray:none"
     id="path965-3" />
</svg>
