<?xml version="1.0" standalone="no"?>
<!DOCTYPE svg PUBLIC "-//W3C//DTD SVG 1.1//EN" "http://www.w3.org/Graphics/SVG/1.1/DTD/svg11.dtd">
<svg width="193mm" height="151mm" viewBox="18 44 193 151" xmlns="http://www.w3.org/2000/svg" version="1.1">
<title>OpenSCAD Model</title>
<path d="
M 18.0932,141.663 L 18.2745,142.693 L 18.5495,143.428 L 40.2331,189.931 L 40.7714,190.827 L 41.4843,191.592
 L 42.3405,192.191 L 43.0572,192.518 L 47.2769,194.051 L 48.2913,194.303 L 49.3359,194.339 L 50.3652,194.157
 L 51.0971,193.883 L 128.261,157.908 L 196.393,157.908 L 197.432,157.799 L 198.426,157.476 L 199.331,156.953
 L 199.928,156.444 L 209.454,146.918 L 210.111,146.106 L 210.586,145.175 L 210.856,144.165 L 210.918,143.383
 L 210.918,52.4326 L 210.809,51.3931 L 210.486,50.3989 L 209.963,49.4937 L 209.454,48.8971 L 206.279,45.7223
 L 205.466,45.0645 L 204.535,44.5899 L 203.525,44.3194 L 202.743,44.2578 L 39.1113,44.2578 L 38.0718,44.3671
 L 37.0777,44.6901 L 36.1724,45.2127 L 35.3956,45.9122 L 34.7812,46.7578 L 34.356,47.7127 L 34.1818,48.4214
 L 18.996,137.921 L 18.3829,139.604 L 18.1299,140.619 z
M 28.3183,128.45 L 28.3817,127.849 L 28.5687,127.274 L 28.8705,126.75 L 29.275,126.301 L 29.7636,125.946
 L 30.3168,125.7 L 30.9075,125.574 L 31.5125,125.574 L 32.1032,125.7 L 32.6564,125.946 L 33.145,126.301
 L 33.5495,126.75 L 33.8513,127.274 L 34.0383,127.849 L 34.1017,128.45 L 34.0383,129.051 L 33.8513,129.626
 L 33.5495,130.15 L 33.145,130.599 L 32.6564,130.954 L 32.1032,131.2 L 31.5125,131.326 L 30.9075,131.326
 L 30.3168,131.2 L 29.7636,130.954 L 29.275,130.599 L 28.8705,130.15 L 28.5687,129.626 L 28.3817,129.051
 z
M 46.8183,67.45 L 46.8817,66.8491 L 47.0687,66.2737 L 47.3703,65.7509 L 47.775,65.3016 L 48.2647,64.9457
 L 48.8166,64.6997 L 49.4072,64.5746 L 50.0128,64.5746 L 50.6034,64.6997 L 51.1553,64.9457 L 51.645,65.3016
 L 52.0497,65.7509 L 52.3513,66.2737 L 52.5383,66.8491 L 52.6017,67.45 L 52.5383,68.0509 L 52.3513,68.6263
 L 52.0497,69.1491 L 51.645,69.5984 L 51.1553,69.9543 L 50.6034,70.2003 L 50.0128,70.3254 L 49.4072,70.3254
 L 48.8166,70.2003 L 48.2647,69.9543 L 47.775,69.5984 L 47.3703,69.1491 L 47.0687,68.6263 L 46.8817,68.0509
 z
M 51.3671,165.837 L 51.4227,165.31 L 51.5862,164.807 L 51.8509,164.349 L 52.2047,163.955 L 52.6326,163.644
 L 53.1165,163.429 L 53.634,163.319 L 54.1629,163.319 L 54.6813,163.429 L 55.1642,163.644 L 55.5923,163.955
 L 55.9471,164.349 L 56.2117,164.807 L 56.3751,165.31 L 56.4299,165.837 L 56.3751,166.363 L 56.2117,166.866
 L 55.9471,167.324 L 55.5923,167.718 L 55.1642,168.029 L 54.6813,168.243 L 54.1629,168.354 L 53.634,168.354
 L 53.1165,168.243 L 52.6326,168.029 L 52.2047,167.718 L 51.8509,167.324 L 51.5862,166.866 L 51.4227,166.363
 z
M 57.1327,121.666 L 57.1883,121.139 L 57.3518,120.636 L 57.6165,120.178 L 57.9704,119.784 L 58.3982,119.473
 L 58.8821,119.258 L 59.4005,119.148 L 59.9295,119.148 L 60.447,119.258 L 60.9309,119.473 L 61.3587,119.784
 L 61.7126,120.178 L 61.9773,120.636 L 62.1408,121.139 L 62.1964,121.666 L 62.1408,122.193 L 61.9773,122.696
 L 61.7126,123.154 L 61.3587,123.548 L 60.9309,123.859 L 60.447,124.074 L 59.9295,124.184 L 59.4005,124.184
 L 58.8821,124.074 L 58.3982,123.859 L 57.9704,123.548 L 57.6165,123.154 L 57.3518,122.696 L 57.1883,122.193
 z
M 64.8798,54.1348 L 64.9354,53.6082 L 65.0989,53.105 L 65.3634,52.6466 L 65.7175,52.2538 L 66.1455,51.9421
 L 66.6292,51.7272 L 67.1467,51.6168 L 67.6756,51.6168 L 68.1941,51.7272 L 68.6777,51.9421 L 69.1058,52.2538
 L 69.4598,52.6466 L 69.7244,53.105 L 69.8879,53.6082 L 69.9435,54.1348 L 69.8879,54.6614 L 69.7244,55.1645
 L 69.4597,55.6231 L 69.1058,56.0166 L 68.678,56.3273 L 68.1941,56.5423 L 67.6756,56.6527 L 67.1467,56.6527
 L 66.6292,56.5423 L 66.1453,56.3273 L 65.7174,56.0166 L 65.3636,55.6231 L 65.0989,55.1645 L 64.9354,54.6614
 z
M 102.904,157.76 L 102.959,157.233 L 103.122,156.73 L 103.387,156.271 L 103.741,155.878 L 104.169,155.567
 L 104.653,155.352 L 105.17,155.242 L 105.699,155.242 L 106.217,155.352 L 106.7,155.567 L 107.128,155.878
 L 107.483,156.272 L 107.748,156.73 L 107.911,157.233 L 107.966,157.76 L 107.911,158.286 L 107.748,158.789
 L 107.483,159.247 L 107.128,159.64 L 106.7,159.952 L 106.217,160.167 L 105.699,160.277 L 105.17,160.277
 L 104.653,160.167 L 104.169,159.952 L 103.741,159.641 L 103.387,159.247 L 103.122,158.789 L 102.959,158.286
 z
M 136.509,91.5928 L 136.563,91.0661 L 136.728,90.5633 L 136.992,90.1044 L 137.346,89.711 L 137.774,89.4002
 L 138.258,89.1852 L 138.776,89.0748 L 139.304,89.0748 L 139.822,89.1852 L 140.306,89.4002 L 140.734,89.711
 L 141.088,90.1044 L 141.352,90.563 L 141.516,91.0662 L 141.571,91.5927 L 141.516,92.1184 L 141.352,92.6216
 L 141.088,93.0801 L 140.734,93.4736 L 140.306,93.7846 L 139.822,94.0002 L 139.305,94.1098 L 138.775,94.1098
 L 138.258,94.0002 L 137.774,93.7846 L 137.346,93.4736 L 136.992,93.0801 L 136.728,92.6213 L 136.563,92.1184
 z
M 198.611,54.1348 L 198.667,53.6082 L 198.83,53.105 L 199.095,52.6466 L 199.449,52.2538 L 199.877,51.9421
 L 200.361,51.7272 L 200.878,51.6168 L 201.407,51.6168 L 201.925,51.7272 L 202.408,51.9421 L 202.837,52.254
 L 203.191,52.6466 L 203.456,53.105 L 203.619,53.6082 L 203.675,54.1348 L 203.619,54.6614 L 203.456,55.1645
 L 203.191,55.6231 L 202.837,56.0165 L 202.409,56.3273 L 201.925,56.5423 L 201.407,56.6527 L 200.878,56.6527
 L 200.361,56.5423 L 199.877,56.3273 L 199.449,56.0166 L 199.095,55.6231 L 198.83,55.1645 L 198.667,54.6614
 z
M 199.247,140.056 L 199.302,139.529 L 199.465,139.026 L 199.73,138.568 L 200.084,138.174 L 200.513,137.863
 L 200.995,137.648 L 201.514,137.538 L 202.043,137.538 L 202.56,137.648 L 203.044,137.863 L 203.472,138.174
 L 203.826,138.567 L 204.091,139.026 L 204.254,139.529 L 204.31,140.056 L 204.254,140.581 L 204.091,141.085
 L 203.826,141.543 L 203.472,141.936 L 203.044,142.247 L 202.56,142.463 L 202.043,142.573 L 201.514,142.573
 L 200.995,142.463 L 200.513,142.248 L 200.084,141.936 L 199.73,141.543 L 199.465,141.085 L 199.302,140.582
 z
" stroke="black" fill="lightgray" stroke-width="0.5"/>
</svg>
