<?xml version="1.0" encoding="UTF-8" standalone="no"?>
<svg
   xmlns:dc="http://purl.org/dc/elements/1.1/"
   xmlns:cc="http://creativecommons.org/ns#"
   xmlns:rdf="http://www.w3.org/1999/02/22-rdf-syntax-ns#"
   xmlns:svg="http://www.w3.org/2000/svg"
   xmlns="http://www.w3.org/2000/svg"
   width="60cm"
   height="30cm"
   viewBox="18 44 600.00002 299.99999"
   version="1.1"
   id="svg1716">
  <metadata
     id="metadata1722">
    <rdf:RDF>
      <cc:Work
         rdf:about="">
        <dc:format>image/svg+xml</dc:format>
        <dc:type
           rdf:resource="http://purl.org/dc/dcmitype/StillImage" />
        <dc:title>OpenSCAD Model</dc:title>
      </cc:Work>
    </rdf:RDF>
  </metadata>
  <defs
     id="defs1720">
    <marker
       id="DistanceX"
       orient="auto"
       refX="0.0"
       refY="0.0"
       style="overflow:visible">
      <path
         d="M 3,-3 L -3,3 M 0,-5 L  0,5"
         style="stroke:#000000; stroke-width:0.5"
         id="path1557" />
    </marker>
    <pattern
       id="Hatch"
       patternUnits="userSpaceOnUse"
       width="8"
       height="8"
       x="0"
       y="0">
      <path
         d="M8 4 l-4,4"
         stroke="#000000"
         stroke-width="0.25"
         linecap="square"
         id="path1560" />
      <path
         d="M6 2 l-4,4"
         stroke="#000000"
         stroke-width="0.25"
         linecap="square"
         id="path1562" />
      <path
         d="M4 0 l-4,4"
         stroke="#000000"
         stroke-width="0.25"
         linecap="square"
         id="path1564" />
    </pattern>
    <symbol
       id="*MODEL_SPACE" />
    <symbol
       id="*PAPER_SPACE" />
    <marker
       id="DistanceX-6"
       orient="auto"
       refX="0.0"
       refY="0.0"
       style="overflow:visible">
      <path
         d="M 3,-3 L -3,3 M 0,-5 L  0,5"
         style="stroke:#000000; stroke-width:0.5"
         id="path1647" />
    </marker>
    <pattern
       id="Hatch-7"
       patternUnits="userSpaceOnUse"
       width="8"
       height="8"
       x="0"
       y="0">
      <path
         d="M8 4 l-4,4"
         stroke="#000000"
         stroke-width="0.25"
         linecap="square"
         id="path1650" />
      <path
         d="M6 2 l-4,4"
         stroke="#000000"
         stroke-width="0.25"
         linecap="square"
         id="path1652" />
      <path
         d="M4 0 l-4,4"
         stroke="#000000"
         stroke-width="0.25"
         linecap="square"
         id="path1654" />
    </pattern>
    <symbol
       id="*MODEL_SPACE-5" />
    <symbol
       id="*PAPER_SPACE-3" />
    <marker
       id="DistanceX-5"
       orient="auto"
       refX="0.0"
       refY="0.0"
       style="overflow:visible">
      <path
         d="M 3,-3 L -3,3 M 0,-5 L  0,5"
         style="stroke:#000000; stroke-width:0.5"
         id="path1737" />
    </marker>
    <pattern
       id="Hatch-6"
       patternUnits="userSpaceOnUse"
       width="8"
       height="8"
       x="0"
       y="0">
      <path
         d="M8 4 l-4,4"
         stroke="#000000"
         stroke-width="0.25"
         linecap="square"
         id="path1740" />
      <path
         d="M6 2 l-4,4"
         stroke="#000000"
         stroke-width="0.25"
         linecap="square"
         id="path1742" />
      <path
         d="M4 0 l-4,4"
         stroke="#000000"
         stroke-width="0.25"
         linecap="square"
         id="path1744" />
    </pattern>
    <symbol
       id="*MODEL_SPACE-2" />
    <symbol
       id="*PAPER_SPACE-9" />
  </defs>
  <title
     id="title1712">OpenSCAD Model</title>
  <g
     id="g1485"
     transform="translate(5.2287618,-20.531064)">
    <path
       d="m 167.12648,330.385 a 1.524,1.524 0 1 1 -3.048,0 1.524,1.524 0 1 1 3.048,0 z"
       style="fill:none;stroke:#000000;stroke-width:0.264583;stroke-miterlimit:4;stroke-dasharray:none"
       id="path1389" />
    <path
       d="m 95.498479,292.93715 a 1.524,1.524 0 1 1 -3.048,0 1.524,1.524 0 1 1 3.048,0 z"
       style="fill:none;stroke:#000000;stroke-width:0.264583;stroke-miterlimit:4;stroke-dasharray:none"
       id="path1391" />
    <path
       d="m 32.76049,244.47396 a 1.524,1.524 0 1 1 -3.048,0 1.524,1.524 0 1 1 3.048,0 z"
       style="fill:none;stroke:#000000;stroke-width:0.264583;stroke-miterlimit:4;stroke-dasharray:none"
       id="path1393" />
    <path
       d="m 129.10268,226.77016 a 1.524,1.524 0 1 1 -3.048,0 1.524,1.524 0 1 1 3.048,0 z"
       style="fill:none;stroke:#000000;stroke-width:0.264583;stroke-miterlimit:4;stroke-dasharray:none"
       id="path1395" />
    <path
       d="m 174.87348,262.86356 a 1.524,1.524 0 1 1 -3.048,0 1.524,1.524 0 1 1 3.048,0 z"
       style="fill:none;stroke:#000000;stroke-width:0.264583;stroke-miterlimit:4;stroke-dasharray:none"
       id="path1397" />
    <path
       d="m 180.63928,218.69296 a 1.524,1.524 0 1 1 -3.048,0 1.524,1.524 0 1 1 3.048,0 z"
       style="fill:none;stroke:#000000;stroke-width:0.264583;stroke-miterlimit:4;stroke-dasharray:none"
       id="path1399" />
    <path
       d="m 178.96288,230.10518 -12.6619,5.9055 1.397,2.99212 12.65936,-5.9055 z"
       style="fill:none;stroke:#000000;stroke-width:0.264583;stroke-miterlimit:4;stroke-dasharray:none"
       id="path1401" />
    <path
       d="m 168.87146,208.46691 -12.65936,5.90297 1.39446,2.99212 12.6619,-5.90296 z"
       style="fill:none;stroke:#000000;stroke-width:0.264583;stroke-miterlimit:4;stroke-dasharray:none"
       id="path1403" />
    <path
       d="m 141.72394,224.77118 12.6619,-5.9055 -1.397,-2.99212 -12.65936,5.9055 z"
       style="fill:none;stroke:#000000;stroke-width:0.264583;stroke-miterlimit:4;stroke-dasharray:none"
       id="path1405" />
    <path
       d="m 151.81536,246.40944 12.65936,-5.90296 -1.39446,-2.99212 -12.6619,5.90296 z"
       style="fill:none;stroke:#000000;stroke-width:0.264583;stroke-miterlimit:4;stroke-dasharray:none"
       id="path1407" />
    <path
       d="m 48.54659,267.3619 v -0.98044 h 0.8128 v -3.50012 h -0.8128 v -5.00888 h 0.8128 v -3.50012 h -0.8128 v -0.98044 h -13.97 v 0.98044 h -0.8128 v 3.50012 h 0.8128 v 5.00888 h -0.8128 v 3.50012 h 0.8128 v 0.98044 z"
       style="fill:none;stroke:#000000;stroke-width:0.264583;stroke-miterlimit:4;stroke-dasharray:none"
       id="path1409" />
    <path
       d="m 48.54659,286.41189 v -0.98044 h 0.8128 v -3.50012 h -0.8128 v -5.00887 h 0.8128 v -3.50012 h -0.8128 v -0.98044 h -13.97 v 0.98044 h -0.8128 v 3.50012 h 0.8128 v 5.00887 h -0.8128 v 3.50012 h 0.8128 v 0.98044 z"
       style="fill:none;stroke:#000000;stroke-width:0.264583;stroke-miterlimit:4;stroke-dasharray:none"
       id="path1411" />
    <path
       d="m 48.54659,305.46189 v -0.98044 h 0.8128 v -3.50012 h -0.8128 v -5.00888 h 0.8128 v -3.50012 h -0.8128 v -0.98044 h -13.97 v 0.98044 h -0.8128 v 3.50012 h 0.8128 v 5.00888 h -0.8128 v 3.50012 h 0.8128 v 0.98044 z"
       style="fill:none;stroke:#000000;stroke-width:0.264583;stroke-miterlimit:4;stroke-dasharray:none"
       id="path1413" />
    <path
       d="m 48.54659,324.50935 v -0.98044 h 0.8128 v -3.50012 h -0.8128 v -5.00888 h 0.8128 v -3.50012 h -0.8128 v -0.98044 h -13.97 v 0.98044 h -0.8128 v 3.50012 h 0.8128 v 5.00888 h -0.8128 v 3.50012 h 0.8128 v 0.98044 z"
       style="fill:none;stroke:#000000;stroke-width:0.264583;stroke-miterlimit:4;stroke-dasharray:none"
       id="path1415" />
    <path
       d="m 148.55908,326.41435 v -0.98044 h 0.8128 v -3.50012 h -0.8128 v -5.00888 h 0.8128 v -3.50012 h -0.8128 v -0.98044 h -13.97 v 0.98044 h -0.8128 v 3.50012 h 0.8128 v 5.00888 h -0.8128 v 3.50012 h 0.8128 v 0.98044 z"
       style="fill:none;stroke:#000000;stroke-width:0.264583;stroke-miterlimit:4;stroke-dasharray:none"
       id="path1417" />
    <path
       d="m 91.409079,308.63689 v -0.98044 h 0.8128 v -3.50012 h -0.8128 v -5.00888 h 0.8128 v -3.50012 h -0.8128 v -0.98044 h -13.96999 v 0.98044 h -0.8128 v 3.50012 h 0.8128 v 5.00888 h -0.8128 v 3.50012 h 0.8128 v 0.98044 z"
       style="fill:none;stroke:#000000;stroke-width:0.264583;stroke-miterlimit:4;stroke-dasharray:none"
       id="path1419" />
    <path
       d="m 172.3538,214.12858 -0.889,0.41656 -0.3429,-0.7366 -3.17246,1.47828 0.3429,0.7366 -4.53898,2.11582 -0.3429,-0.7366 -3.17246,1.48082 0.3429,0.7366 -0.889,0.41402 5.9055,12.6619 0.889,-0.41656 0.3429,0.7366 3.17246,-1.47828 -0.3429,-0.7366 4.53898,-2.11582 0.3429,0.7366 3.17246,-1.48082 -0.3429,-0.7366 0.889,-0.41402 z"
       style="fill:none;stroke:#000000;stroke-width:0.264583;stroke-miterlimit:4;stroke-dasharray:none"
       id="path1421" />
    <path
       d="m 155.08942,222.18038 -0.889,0.41656 -0.3429,-0.7366 -3.17246,1.47828 0.3429,0.7366 -4.53898,2.11582 -0.3429,-0.7366 -3.17246,1.48082 0.3429,0.7366 -0.889,0.41402 5.9055,12.6619 0.889,-0.41656 0.3429,0.7366 3.17246,-1.47828 -0.3429,-0.7366 4.53898,-2.11582 0.3429,0.7366 3.17246,-1.48082 -0.3429,-0.7366 0.889,-0.41402 z"
       style="fill:none;stroke:#000000;stroke-width:0.264583;stroke-miterlimit:4;stroke-dasharray:none"
       id="path1423" />
    <path
       d="m 129.50908,251.4869 v -0.98044 h 0.8128 v -3.50012 h -0.8128 v -5.00888 h 0.8128 v -3.50012 h -0.8128 v -0.98044 h -13.97 v 0.98044 h -0.8128 v 3.50012 h 0.8128 v 5.00888 h -0.8128 v 3.50012 h 0.8128 v 0.98044 z"
       style="fill:none;stroke:#000000;stroke-width:0.264583;stroke-miterlimit:4;stroke-dasharray:none"
       id="path1425" />
    <path
       d="m 110.45908,253.08456 v -0.98044 h 0.8128 V 248.604 h -0.8128 v -5.00888 h 0.8128 V 240.095 h -0.8128 v -0.98044 H 96.489079 v 0.98044 h -0.8128 v 3.50012 h 0.8128 v 5.00888 h -0.8128 v 3.50012 h 0.8128 v 0.98044 z"
       style="fill:none;stroke:#000000;stroke-width:0.264583;stroke-miterlimit:4;stroke-dasharray:none"
       id="path1427" />
    <path
       d="m 72.359089,248.3119 v -0.98044 h 0.8128 v -3.50012 h -0.8128 v -5.00888 h 0.8128 v -3.50012 h -0.8128 v -0.98044 h -13.97 v 0.98044 h -0.8128 v 3.50012 h 0.8128 v 5.00888 h -0.8128 v 3.50012 h 0.8128 v 0.98044 z"
       style="fill:none;stroke:#000000;stroke-width:0.264583;stroke-miterlimit:4;stroke-dasharray:none"
       id="path1429" />
    <path
       d="m 148.55908,269.2669 v -0.98044 h 0.8128 v -3.50012 h -0.8128 v -5.00888 h 0.8128 v -3.50012 h -0.8128 v -0.98044 h -13.97 v 0.98044 h -0.8128 v 3.50012 h 0.8128 v 5.00888 h -0.8128 v 3.50012 h 0.8128 v 0.98044 z"
       style="fill:none;stroke:#000000;stroke-width:0.264583;stroke-miterlimit:4;stroke-dasharray:none"
       id="path1431" />
    <path
       d="m 129.50908,270.5369 v -0.98044 h 0.8128 v -3.50012 h -0.8128 v -5.00888 h 0.8128 v -3.50012 h -0.8128 v -0.98044 h -13.97 v 0.98044 h -0.8128 v 3.50012 h 0.8128 v 5.00888 h -0.8128 v 3.50012 h 0.8128 v 0.98044 z"
       style="fill:none;stroke:#000000;stroke-width:0.264583;stroke-miterlimit:4;stroke-dasharray:none"
       id="path1433" />
    <path
       d="m 110.45908,272.13456 v -0.98044 h 0.8128 V 267.654 h -0.8128 v -5.00888 h 0.8128 V 259.145 h -0.8128 v -0.98044 H 96.489079 v 0.98044 h -0.8128 v 3.50012 h 0.8128 v 5.00888 h -0.8128 v 3.50012 h 0.8128 v 0.98044 z"
       style="fill:none;stroke:#000000;stroke-width:0.264583;stroke-miterlimit:4;stroke-dasharray:none"
       id="path1435" />
    <path
       d="m 91.409079,270.5369 v -0.98044 h 0.8128 v -3.50012 h -0.8128 v -5.00888 h 0.8128 v -3.50012 h -0.8128 v -0.98044 h -13.96999 v 0.98044 h -0.8128 v 3.50012 h 0.8128 v 5.00888 h -0.8128 v 3.50012 h 0.8128 v 0.98044 z"
       style="fill:none;stroke:#000000;stroke-width:0.264583;stroke-miterlimit:4;stroke-dasharray:none"
       id="path1437" />
    <path
       d="m 72.359089,267.3619 v -0.98044 h 0.8128 v -3.50012 h -0.8128 v -5.00888 h 0.8128 v -3.50012 h -0.8128 v -0.98044 h -13.97 v 0.98044 h -0.8128 v 3.50012 h 0.8128 v 5.00888 h -0.8128 v 3.50012 h 0.8128 v 0.98044 z"
       style="fill:none;stroke:#000000;stroke-width:0.264583;stroke-miterlimit:4;stroke-dasharray:none"
       id="path1439" />
    <path
       d="m 148.55908,288.31689 v -0.98044 h 0.8128 v -3.50012 h -0.8128 v -5.00887 h 0.8128 v -3.50012 h -0.8128 v -0.98044 h -13.97 v 0.98044 h -0.8128 v 3.50012 h 0.8128 v 5.00887 h -0.8128 v 3.50012 h 0.8128 v 0.98044 z"
       style="fill:none;stroke:#000000;stroke-width:0.264583;stroke-miterlimit:4;stroke-dasharray:none"
       id="path1441" />
    <path
       d="m 129.50908,289.58689 v -0.98044 h 0.8128 v -3.50012 h -0.8128 v -5.00888 h 0.8128 v -3.50011 h -0.8128 v -0.98044 h -13.97 v 0.98044 h -0.8128 v 3.50011 h 0.8128 v 5.00888 h -0.8128 v 3.50012 h 0.8128 v 0.98044 z"
       style="fill:none;stroke:#000000;stroke-width:0.264583;stroke-miterlimit:4;stroke-dasharray:none"
       id="path1443" />
    <path
       d="m 110.45908,291.18455 v -0.98044 h 0.8128 v -3.50012 h -0.8128 v -5.00888 h 0.8128 V 278.195 h -0.8128 v -0.98044 H 96.489079 v 0.98044 h -0.8128 v 3.50011 h 0.8128 v 5.00888 h -0.8128 v 3.50012 h 0.8128 v 0.98044 z"
       style="fill:none;stroke:#000000;stroke-width:0.264583;stroke-miterlimit:4;stroke-dasharray:none"
       id="path1445" />
    <path
       d="m 91.409079,289.58689 v -0.98044 h 0.8128 v -3.50012 h -0.8128 v -5.00888 h 0.8128 v -3.50011 h -0.8128 v -0.98044 h -13.96999 v 0.98044 h -0.8128 v 3.50011 h 0.8128 v 5.00888 h -0.8128 v 3.50012 h 0.8128 v 0.98044 z"
       style="fill:none;stroke:#000000;stroke-width:0.264583;stroke-miterlimit:4;stroke-dasharray:none"
       id="path1447" />
    <path
       d="m 72.359089,286.41189 v -0.98044 h 0.8128 v -3.50012 h -0.8128 v -5.00887 h 0.8128 v -3.50012 h -0.8128 v -0.98044 h -13.97 v 0.98044 h -0.8128 v 3.50012 h 0.8128 v 5.00887 h -0.8128 v 3.50012 h 0.8128 v 0.98044 z"
       style="fill:none;stroke:#000000;stroke-width:0.264583;stroke-miterlimit:4;stroke-dasharray:none"
       id="path1449" />
    <path
       d="m 129.50908,308.63689 v -0.98044 h 0.8128 v -3.50012 h -0.8128 v -5.00888 h 0.8128 v -3.50012 h -0.8128 v -0.98044 h -13.97 v 0.98044 h -0.8128 v 3.50012 h 0.8128 v 5.00888 h -0.8128 v 3.50012 h 0.8128 v 0.98044 z"
       style="fill:none;stroke:#000000;stroke-width:0.264583;stroke-miterlimit:4;stroke-dasharray:none"
       id="path1451" />
    <path
       d="m 110.45908,310.23455 v -0.98044 h 0.8128 v -3.50012 h -0.8128 v -5.00888 h 0.8128 v -3.50012 h -0.8128 v -0.98044 H 96.489079 v 0.98044 h -0.8128 v 3.50012 h 0.8128 v 5.00888 h -0.8128 v 3.50012 h 0.8128 v 0.98044 z"
       style="fill:none;stroke:#000000;stroke-width:0.264583;stroke-miterlimit:4;stroke-dasharray:none"
       id="path1453" />
    <path
       d="m 72.359089,305.46189 v -0.98044 h 0.8128 v -3.50012 h -0.8128 v -5.00888 h 0.8128 v -3.50012 h -0.8128 v -0.98044 h -13.97 v 0.98044 h -0.8128 v 3.50012 h 0.8128 v 5.00888 h -0.8128 v 3.50012 h 0.8128 v 0.98044 z"
       style="fill:none;stroke:#000000;stroke-width:0.264583;stroke-miterlimit:4;stroke-dasharray:none"
       id="path1455" />
    <path
       d="m 91.409079,251.4869 v -0.98044 h 0.8128 v -3.50012 h -0.8128 v -5.00888 h 0.8128 v -3.50012 h -0.8128 v -0.98044 h -13.96999 v 0.98044 h -0.8128 v 3.50012 h 0.8128 v 5.00888 h -0.8128 v 3.50012 h 0.8128 v 0.98044 z"
       style="fill:none;stroke:#000000;stroke-width:0.264583;stroke-miterlimit:4;stroke-dasharray:none"
       id="path1457" />
    <path
       d="m 129.50908,327.68689 v -0.98044 h 0.8128 v -3.50012 h -0.8128 v -5.00888 h 0.8128 v -3.50012 h -0.8128 v -0.98044 h -13.97 v 0.98044 h -0.8128 v 3.50012 h 0.8128 v 5.00888 h -0.8128 v 3.50012 h 0.8128 v 0.98044 z"
       style="fill:none;stroke:#000000;stroke-width:0.264583;stroke-miterlimit:4;stroke-dasharray:none"
       id="path1459" />
    <path
       d="m 110.45908,329.28455 v -0.98044 h 0.8128 v -3.50012 h -0.8128 v -5.00888 h 0.8128 v -3.50012 h -0.8128 v -0.98044 H 96.489079 v 0.98044 h -0.8128 v 3.50012 h 0.8128 v 5.00888 h -0.8128 v 3.50012 h 0.8128 v 0.98044 z"
       style="fill:none;stroke:#000000;stroke-width:0.264583;stroke-miterlimit:4;stroke-dasharray:none"
       id="path1461" />
    <path
       d="m 91.409079,327.68689 v -0.98044 h 0.8128 v -3.50012 h -0.8128 v -5.00888 h 0.8128 v -3.50012 h -0.8128 v -0.98044 h -13.96999 v 0.98044 h -0.8128 v 3.50012 h 0.8128 v 5.00888 h -0.8128 v 3.50012 h 0.8128 v 0.98044 z"
       style="fill:none;stroke:#000000;stroke-width:0.264583;stroke-miterlimit:4;stroke-dasharray:none"
       id="path1463" />
    <path
       d="m 72.359089,324.50935 v -0.98044 h 0.8128 v -3.50012 h -0.8128 v -5.00888 h 0.8128 v -3.50012 h -0.8128 v -0.98044 h -13.97 v 0.98044 h -0.8128 v 3.50012 h 0.8128 v 5.00888 h -0.8128 v 3.50012 h 0.8128 v 0.98044 z"
       style="fill:none;stroke:#000000;stroke-width:0.264583;stroke-miterlimit:4;stroke-dasharray:none"
       id="path1465" />
    <path
       d="m 190.33446,252.68832 -0.41656,-0.889 0.7366,-0.3429 -1.47828,-3.17246 -0.7366,0.3429 -2.11582,-4.53898 0.7366,-0.3429 -1.48082,-3.17246 -0.7366,0.3429 -0.41402,-0.889 -12.6619,5.9055 0.41656,0.889 -0.7366,0.3429 1.47828,3.17246 0.7366,-0.3429 2.11582,4.53898 -0.7366,0.3429 1.48082,3.17246 0.7366,-0.3429 0.41402,0.889 z"
       style="fill:none;stroke:#000000;stroke-width:0.264583;stroke-miterlimit:4;stroke-dasharray:none"
       id="path1467" />
    <path
       d="m 207.59884,244.63906 -0.41656,-0.889 0.7366,-0.3429 -1.47828,-3.17246 -0.7366,0.3429 -2.11582,-4.53898 0.7366,-0.3429 -1.48082,-3.17246 -0.7366,0.3429 -0.41402,-0.889 -12.6619,5.9055 0.41656,0.889 -0.7366,0.3429 1.47828,3.17246 0.7366,-0.3429 2.11582,4.53898 -0.7366,0.3429 1.48082,3.17246 0.7366,-0.3429 0.41402,0.889 z"
       style="fill:none;stroke:#000000;stroke-width:0.264583;stroke-miterlimit:4;stroke-dasharray:none"
       id="path1469" />
    <path
       d="m 191.49778,210.10776 -0.41656,-0.88901 0.7366,-0.3429 -1.47828,-3.17246 -0.7366,0.3429 -2.11582,-4.53898 0.7366,-0.3429 -1.48082,-3.17246 -0.7366,0.3429 -0.41402,-0.889 -12.6619,5.9055 0.41656,0.889 -0.7366,0.3429 1.47828,3.17246 0.7366,-0.3429 2.11582,4.53899 -0.7366,0.3429 1.48082,3.17246 0.7366,-0.3429 0.41402,0.889 z"
       style="fill:none;stroke:#000000;stroke-width:0.264583;stroke-miterlimit:4;stroke-dasharray:none"
       id="path1471" />
    <path
       d="m 199.54958,227.37468 -0.41656,-0.889 0.7366,-0.3429 -1.47828,-3.17246 -0.7366,0.3429 -2.11582,-4.53898 0.7366,-0.3429 -1.48082,-3.17246 -0.7366,0.3429 -0.41402,-0.889 -12.6619,5.9055 0.41656,0.889 -0.7366,0.3429 1.47828,3.17246 0.7366,-0.3429 2.11582,4.53898 -0.7366,0.3429 1.48082,3.17246 0.7366,-0.3429 0.41402,0.889 z"
       style="fill:none;stroke:#000000;stroke-width:0.264583;stroke-miterlimit:4;stroke-dasharray:none"
       id="path1473" />
    <path
       d="m 148.55908,307.36689 v -0.98044 h 0.8128 v -3.50012 h -0.8128 v -5.00888 h 0.8128 v -3.50012 h -0.8128 v -0.98044 h -13.97 v 0.98044 h -0.8128 v 3.50012 h 0.8128 v 5.00888 h -0.8128 v 3.50012 h 0.8128 v 0.98044 z"
       style="fill:none;stroke:#000000;stroke-width:0.264583;stroke-miterlimit:4;stroke-dasharray:none"
       id="path1475" />
    <path
       d="m 53.309089,248.3119 v -0.98044 h 0.8128 v -3.50012 h -0.8128 v -5.00888 h 0.8128 v -3.50012 h -0.8128 V 234.3419 H 39.33909 v 0.98044 h -0.8128 v 3.50012 h 0.8128 v 5.00888 h -0.8128 v 3.50012 h 0.8128 v 0.98044 z"
       style="fill:none;stroke:#000000;stroke-width:0.264583;stroke-miterlimit:4;stroke-dasharray:none"
       id="path1477" />
    <path
       id="path1479"
       style="fill:none;stroke:#000000;stroke-width:0.999999;stroke-miterlimit:4;stroke-dasharray:none"
       d="M 187.37305,42.519531 V 146.67578 h 16.58398 v -2.64062 h -3.07226 v -13.22852 h 3.07226 V 111.875 h -3.07226 V 98.646484 h 3.07226 v -3.705078 h 52.79883 v 3.705078 h 3.07226 V 111.875 h -3.07226 v 18.93164 h 3.07226 v 13.22852 h -3.07226 v 3.70507 h -24.89063 l -0.0879,11.1543 0.0801,0.0918 0.0781,0.13672 0.0488,0.14843 0.0156,0.15821 v 25.50195 h 7.82227 v -3.07226 h 13.22851 v 3.07226 h 3.70508 v 52.79883 h -3.70508 v 3.07226 H 239.8222 v -3.07226 H 232 v 55.20117 h 7.82227 v -3.07226 h 13.22851 v 3.07226 h 3.70508 v 52.79883 h -3.70508 v 3.07226 h -13.22851 v -3.07226 h -18.93165 v 3.07226 h -13.22851 v -3.07226 h -3.70508 v -36.10938 c -32.81449,17.69642 -64.91613,31.2828 -97.58984,46.53711 L 60.076172,324.96875 103.89844,61.289062 l 0.0254,-0.107421 0.0645,-0.144532 0.0937,-0.126953 0.11719,-0.105468 0.0234,-0.01367 V 42.5625 l -3.50782,0.369141 -3.757809,1.220703 -3.421875,1.974609 -2.935547,2.644531 -2.322265,3.195313 -1.607422,3.609375 -0.658203,2.679687 -57.394531,338.265621 -2.31836,6.36133 -0.955078,3.83594 -0.138672,3.94922 0.685547,3.89258 1.039063,2.77734 81.955082,175.75977 2.0332,3.38672 2.69531,2.89062 3.23633,2.26367 2.70898,1.23633 15.94727,5.79492 3.83398,0.95117 3.94922,0.13672 3.89063,-0.6875 2.76562,-1.03515 291.64258,-135.96875 H 699.0957 l 3.92578,-0.41211 3.75782,-1.22071 3.41992,-1.97656 2.25586,-1.92383 36.0039,-36.0039 2.48438,-3.06836 1.79492,-3.51953 1.01953,-3.81836 0.23438,-2.95508 V 73.417969 l -0.41211,-3.927735 -1.2207,-3.757812 -1.97657,-3.421875 -1.92383,-2.253906 -12,-12 -3.07226,-2.486329 -3.51953,-1.792968 -3.81641,-1.023438 -2.95508,-0.232422 z"
       transform="matrix(-0.26458333,0,0,-0.26458333,221.5726,351.53416)" />
    <path
       d="m 33.37646,330.3521 a 1.524,1.524 0 1 1 -3.048,0 1.524,1.524 0 1 1 3.048,0 z"
       style="fill:none;stroke:#000000;stroke-width:0.264583;stroke-miterlimit:4;stroke-dasharray:none"
       id="path1481" />
    <path
       d="m 203.2756,256.09134 a 1.524,1.524 0 1 1 -3.048,0 1.524,1.524 0 1 1 3.048,0 z"
       style="fill:none;stroke:#000000;stroke-width:0.264583;stroke-miterlimit:4;stroke-dasharray:none"
       id="path1483" />
  </g>
  <g
     id="g2061"
     transform="rotate(180,117.25845,194.72388)">
    <path
       d="m 167.12648,330.385 a 1.524,1.524 0 1 1 -3.048,0 1.524,1.524 0 1 1 3.048,0 z"
       style="fill:none;stroke:#000000;stroke-width:0.264583;stroke-miterlimit:4;stroke-dasharray:none"
       id="path1965" />
    <path
       d="m 95.498479,292.93715 a 1.524,1.524 0 1 1 -3.048,0 1.524,1.524 0 1 1 3.048,0 z"
       style="fill:none;stroke:#000000;stroke-width:0.264583;stroke-miterlimit:4;stroke-dasharray:none"
       id="path1967" />
    <path
       d="m 32.76049,244.47396 a 1.524,1.524 0 1 1 -3.048,0 1.524,1.524 0 1 1 3.048,0 z"
       style="fill:none;stroke:#000000;stroke-width:0.264583;stroke-miterlimit:4;stroke-dasharray:none"
       id="path1969" />
    <path
       d="m 129.10268,226.77016 a 1.524,1.524 0 1 1 -3.048,0 1.524,1.524 0 1 1 3.048,0 z"
       style="fill:none;stroke:#000000;stroke-width:0.264583;stroke-miterlimit:4;stroke-dasharray:none"
       id="path1971" />
    <path
       d="m 174.87348,262.86356 a 1.524,1.524 0 1 1 -3.048,0 1.524,1.524 0 1 1 3.048,0 z"
       style="fill:none;stroke:#000000;stroke-width:0.264583;stroke-miterlimit:4;stroke-dasharray:none"
       id="path1973" />
    <path
       d="m 180.63928,218.69296 a 1.524,1.524 0 1 1 -3.048,0 1.524,1.524 0 1 1 3.048,0 z"
       style="fill:none;stroke:#000000;stroke-width:0.264583;stroke-miterlimit:4;stroke-dasharray:none"
       id="path1975" />
    <path
       d="m 178.96288,230.10518 -12.6619,5.9055 1.397,2.99212 12.65936,-5.9055 z"
       style="fill:none;stroke:#000000;stroke-width:0.264583;stroke-miterlimit:4;stroke-dasharray:none"
       id="path1977" />
    <path
       d="m 168.87146,208.46691 -12.65936,5.90297 1.39446,2.99212 12.6619,-5.90296 z"
       style="fill:none;stroke:#000000;stroke-width:0.264583;stroke-miterlimit:4;stroke-dasharray:none"
       id="path1979" />
    <path
       d="m 141.72394,224.77118 12.6619,-5.9055 -1.397,-2.99212 -12.65936,5.9055 z"
       style="fill:none;stroke:#000000;stroke-width:0.264583;stroke-miterlimit:4;stroke-dasharray:none"
       id="path1981" />
    <path
       d="m 151.81536,246.40944 12.65936,-5.90296 -1.39446,-2.99212 -12.6619,5.90296 z"
       style="fill:none;stroke:#000000;stroke-width:0.264583;stroke-miterlimit:4;stroke-dasharray:none"
       id="path1983" />
    <path
       d="m 48.54659,267.3619 v -0.98044 h 0.8128 v -3.50012 h -0.8128 v -5.00888 h 0.8128 v -3.50012 h -0.8128 v -0.98044 h -13.97 v 0.98044 h -0.8128 v 3.50012 h 0.8128 v 5.00888 h -0.8128 v 3.50012 h 0.8128 v 0.98044 z"
       style="fill:none;stroke:#000000;stroke-width:0.264583;stroke-miterlimit:4;stroke-dasharray:none"
       id="path1985" />
    <path
       d="m 48.54659,286.41189 v -0.98044 h 0.8128 v -3.50012 h -0.8128 v -5.00887 h 0.8128 v -3.50012 h -0.8128 v -0.98044 h -13.97 v 0.98044 h -0.8128 v 3.50012 h 0.8128 v 5.00887 h -0.8128 v 3.50012 h 0.8128 v 0.98044 z"
       style="fill:none;stroke:#000000;stroke-width:0.264583;stroke-miterlimit:4;stroke-dasharray:none"
       id="path1987" />
    <path
       d="m 48.54659,305.46189 v -0.98044 h 0.8128 v -3.50012 h -0.8128 v -5.00888 h 0.8128 v -3.50012 h -0.8128 v -0.98044 h -13.97 v 0.98044 h -0.8128 v 3.50012 h 0.8128 v 5.00888 h -0.8128 v 3.50012 h 0.8128 v 0.98044 z"
       style="fill:none;stroke:#000000;stroke-width:0.264583;stroke-miterlimit:4;stroke-dasharray:none"
       id="path1989" />
    <path
       d="m 48.54659,324.50935 v -0.98044 h 0.8128 v -3.50012 h -0.8128 v -5.00888 h 0.8128 v -3.50012 h -0.8128 v -0.98044 h -13.97 v 0.98044 h -0.8128 v 3.50012 h 0.8128 v 5.00888 h -0.8128 v 3.50012 h 0.8128 v 0.98044 z"
       style="fill:none;stroke:#000000;stroke-width:0.264583;stroke-miterlimit:4;stroke-dasharray:none"
       id="path1991" />
    <path
       d="m 148.55908,326.41435 v -0.98044 h 0.8128 v -3.50012 h -0.8128 v -5.00888 h 0.8128 v -3.50012 h -0.8128 v -0.98044 h -13.97 v 0.98044 h -0.8128 v 3.50012 h 0.8128 v 5.00888 h -0.8128 v 3.50012 h 0.8128 v 0.98044 z"
       style="fill:none;stroke:#000000;stroke-width:0.264583;stroke-miterlimit:4;stroke-dasharray:none"
       id="path1993" />
    <path
       d="m 91.409079,308.63689 v -0.98044 h 0.8128 v -3.50012 h -0.8128 v -5.00888 h 0.8128 v -3.50012 h -0.8128 v -0.98044 h -13.96999 v 0.98044 h -0.8128 v 3.50012 h 0.8128 v 5.00888 h -0.8128 v 3.50012 h 0.8128 v 0.98044 z"
       style="fill:none;stroke:#000000;stroke-width:0.264583;stroke-miterlimit:4;stroke-dasharray:none"
       id="path1995" />
    <path
       d="m 172.3538,214.12858 -0.889,0.41656 -0.3429,-0.7366 -3.17246,1.47828 0.3429,0.7366 -4.53898,2.11582 -0.3429,-0.7366 -3.17246,1.48082 0.3429,0.7366 -0.889,0.41402 5.9055,12.6619 0.889,-0.41656 0.3429,0.7366 3.17246,-1.47828 -0.3429,-0.7366 4.53898,-2.11582 0.3429,0.7366 3.17246,-1.48082 -0.3429,-0.7366 0.889,-0.41402 z"
       style="fill:none;stroke:#000000;stroke-width:0.264583;stroke-miterlimit:4;stroke-dasharray:none"
       id="path1997" />
    <path
       d="m 155.08942,222.18038 -0.889,0.41656 -0.3429,-0.7366 -3.17246,1.47828 0.3429,0.7366 -4.53898,2.11582 -0.3429,-0.7366 -3.17246,1.48082 0.3429,0.7366 -0.889,0.41402 5.9055,12.6619 0.889,-0.41656 0.3429,0.7366 3.17246,-1.47828 -0.3429,-0.7366 4.53898,-2.11582 0.3429,0.7366 3.17246,-1.48082 -0.3429,-0.7366 0.889,-0.41402 z"
       style="fill:none;stroke:#000000;stroke-width:0.264583;stroke-miterlimit:4;stroke-dasharray:none"
       id="path1999" />
    <path
       d="m 129.50908,251.4869 v -0.98044 h 0.8128 v -3.50012 h -0.8128 v -5.00888 h 0.8128 v -3.50012 h -0.8128 v -0.98044 h -13.97 v 0.98044 h -0.8128 v 3.50012 h 0.8128 v 5.00888 h -0.8128 v 3.50012 h 0.8128 v 0.98044 z"
       style="fill:none;stroke:#000000;stroke-width:0.264583;stroke-miterlimit:4;stroke-dasharray:none"
       id="path2001" />
    <path
       d="m 110.45908,253.08456 v -0.98044 h 0.8128 V 248.604 h -0.8128 v -5.00888 h 0.8128 V 240.095 h -0.8128 v -0.98044 H 96.489079 v 0.98044 h -0.8128 v 3.50012 h 0.8128 v 5.00888 h -0.8128 v 3.50012 h 0.8128 v 0.98044 z"
       style="fill:none;stroke:#000000;stroke-width:0.264583;stroke-miterlimit:4;stroke-dasharray:none"
       id="path2003" />
    <path
       d="m 72.359089,248.3119 v -0.98044 h 0.8128 v -3.50012 h -0.8128 v -5.00888 h 0.8128 v -3.50012 h -0.8128 v -0.98044 h -13.97 v 0.98044 h -0.8128 v 3.50012 h 0.8128 v 5.00888 h -0.8128 v 3.50012 h 0.8128 v 0.98044 z"
       style="fill:none;stroke:#000000;stroke-width:0.264583;stroke-miterlimit:4;stroke-dasharray:none"
       id="path2005" />
    <path
       d="m 148.55908,269.2669 v -0.98044 h 0.8128 v -3.50012 h -0.8128 v -5.00888 h 0.8128 v -3.50012 h -0.8128 v -0.98044 h -13.97 v 0.98044 h -0.8128 v 3.50012 h 0.8128 v 5.00888 h -0.8128 v 3.50012 h 0.8128 v 0.98044 z"
       style="fill:none;stroke:#000000;stroke-width:0.264583;stroke-miterlimit:4;stroke-dasharray:none"
       id="path2007" />
    <path
       d="m 129.50908,270.5369 v -0.98044 h 0.8128 v -3.50012 h -0.8128 v -5.00888 h 0.8128 v -3.50012 h -0.8128 v -0.98044 h -13.97 v 0.98044 h -0.8128 v 3.50012 h 0.8128 v 5.00888 h -0.8128 v 3.50012 h 0.8128 v 0.98044 z"
       style="fill:none;stroke:#000000;stroke-width:0.264583;stroke-miterlimit:4;stroke-dasharray:none"
       id="path2009" />
    <path
       d="m 110.45908,272.13456 v -0.98044 h 0.8128 V 267.654 h -0.8128 v -5.00888 h 0.8128 V 259.145 h -0.8128 v -0.98044 H 96.489079 v 0.98044 h -0.8128 v 3.50012 h 0.8128 v 5.00888 h -0.8128 v 3.50012 h 0.8128 v 0.98044 z"
       style="fill:none;stroke:#000000;stroke-width:0.264583;stroke-miterlimit:4;stroke-dasharray:none"
       id="path2011" />
    <path
       d="m 91.409079,270.5369 v -0.98044 h 0.8128 v -3.50012 h -0.8128 v -5.00888 h 0.8128 v -3.50012 h -0.8128 v -0.98044 h -13.96999 v 0.98044 h -0.8128 v 3.50012 h 0.8128 v 5.00888 h -0.8128 v 3.50012 h 0.8128 v 0.98044 z"
       style="fill:none;stroke:#000000;stroke-width:0.264583;stroke-miterlimit:4;stroke-dasharray:none"
       id="path2013" />
    <path
       d="m 72.359089,267.3619 v -0.98044 h 0.8128 v -3.50012 h -0.8128 v -5.00888 h 0.8128 v -3.50012 h -0.8128 v -0.98044 h -13.97 v 0.98044 h -0.8128 v 3.50012 h 0.8128 v 5.00888 h -0.8128 v 3.50012 h 0.8128 v 0.98044 z"
       style="fill:none;stroke:#000000;stroke-width:0.264583;stroke-miterlimit:4;stroke-dasharray:none"
       id="path2015" />
    <path
       d="m 148.55908,288.31689 v -0.98044 h 0.8128 v -3.50012 h -0.8128 v -5.00887 h 0.8128 v -3.50012 h -0.8128 v -0.98044 h -13.97 v 0.98044 h -0.8128 v 3.50012 h 0.8128 v 5.00887 h -0.8128 v 3.50012 h 0.8128 v 0.98044 z"
       style="fill:none;stroke:#000000;stroke-width:0.264583;stroke-miterlimit:4;stroke-dasharray:none"
       id="path2017" />
    <path
       d="m 129.50908,289.58689 v -0.98044 h 0.8128 v -3.50012 h -0.8128 v -5.00888 h 0.8128 v -3.50011 h -0.8128 v -0.98044 h -13.97 v 0.98044 h -0.8128 v 3.50011 h 0.8128 v 5.00888 h -0.8128 v 3.50012 h 0.8128 v 0.98044 z"
       style="fill:none;stroke:#000000;stroke-width:0.264583;stroke-miterlimit:4;stroke-dasharray:none"
       id="path2019" />
    <path
       d="m 110.45908,291.18455 v -0.98044 h 0.8128 v -3.50012 h -0.8128 v -5.00888 h 0.8128 V 278.195 h -0.8128 v -0.98044 H 96.489079 v 0.98044 h -0.8128 v 3.50011 h 0.8128 v 5.00888 h -0.8128 v 3.50012 h 0.8128 v 0.98044 z"
       style="fill:none;stroke:#000000;stroke-width:0.264583;stroke-miterlimit:4;stroke-dasharray:none"
       id="path2021" />
    <path
       d="m 91.409079,289.58689 v -0.98044 h 0.8128 v -3.50012 h -0.8128 v -5.00888 h 0.8128 v -3.50011 h -0.8128 v -0.98044 h -13.96999 v 0.98044 h -0.8128 v 3.50011 h 0.8128 v 5.00888 h -0.8128 v 3.50012 h 0.8128 v 0.98044 z"
       style="fill:none;stroke:#000000;stroke-width:0.264583;stroke-miterlimit:4;stroke-dasharray:none"
       id="path2023" />
    <path
       d="m 72.359089,286.41189 v -0.98044 h 0.8128 v -3.50012 h -0.8128 v -5.00887 h 0.8128 v -3.50012 h -0.8128 v -0.98044 h -13.97 v 0.98044 h -0.8128 v 3.50012 h 0.8128 v 5.00887 h -0.8128 v 3.50012 h 0.8128 v 0.98044 z"
       style="fill:none;stroke:#000000;stroke-width:0.264583;stroke-miterlimit:4;stroke-dasharray:none"
       id="path2025" />
    <path
       d="m 129.50908,308.63689 v -0.98044 h 0.8128 v -3.50012 h -0.8128 v -5.00888 h 0.8128 v -3.50012 h -0.8128 v -0.98044 h -13.97 v 0.98044 h -0.8128 v 3.50012 h 0.8128 v 5.00888 h -0.8128 v 3.50012 h 0.8128 v 0.98044 z"
       style="fill:none;stroke:#000000;stroke-width:0.264583;stroke-miterlimit:4;stroke-dasharray:none"
       id="path2027" />
    <path
       d="m 110.45908,310.23455 v -0.98044 h 0.8128 v -3.50012 h -0.8128 v -5.00888 h 0.8128 v -3.50012 h -0.8128 v -0.98044 H 96.489079 v 0.98044 h -0.8128 v 3.50012 h 0.8128 v 5.00888 h -0.8128 v 3.50012 h 0.8128 v 0.98044 z"
       style="fill:none;stroke:#000000;stroke-width:0.264583;stroke-miterlimit:4;stroke-dasharray:none"
       id="path2029" />
    <path
       d="m 72.359089,305.46189 v -0.98044 h 0.8128 v -3.50012 h -0.8128 v -5.00888 h 0.8128 v -3.50012 h -0.8128 v -0.98044 h -13.97 v 0.98044 h -0.8128 v 3.50012 h 0.8128 v 5.00888 h -0.8128 v 3.50012 h 0.8128 v 0.98044 z"
       style="fill:none;stroke:#000000;stroke-width:0.264583;stroke-miterlimit:4;stroke-dasharray:none"
       id="path2031" />
    <path
       d="m 91.409079,251.4869 v -0.98044 h 0.8128 v -3.50012 h -0.8128 v -5.00888 h 0.8128 v -3.50012 h -0.8128 v -0.98044 h -13.96999 v 0.98044 h -0.8128 v 3.50012 h 0.8128 v 5.00888 h -0.8128 v 3.50012 h 0.8128 v 0.98044 z"
       style="fill:none;stroke:#000000;stroke-width:0.264583;stroke-miterlimit:4;stroke-dasharray:none"
       id="path2033" />
    <path
       d="m 129.50908,327.68689 v -0.98044 h 0.8128 v -3.50012 h -0.8128 v -5.00888 h 0.8128 v -3.50012 h -0.8128 v -0.98044 h -13.97 v 0.98044 h -0.8128 v 3.50012 h 0.8128 v 5.00888 h -0.8128 v 3.50012 h 0.8128 v 0.98044 z"
       style="fill:none;stroke:#000000;stroke-width:0.264583;stroke-miterlimit:4;stroke-dasharray:none"
       id="path2035" />
    <path
       d="m 110.45908,329.28455 v -0.98044 h 0.8128 v -3.50012 h -0.8128 v -5.00888 h 0.8128 v -3.50012 h -0.8128 v -0.98044 H 96.489079 v 0.98044 h -0.8128 v 3.50012 h 0.8128 v 5.00888 h -0.8128 v 3.50012 h 0.8128 v 0.98044 z"
       style="fill:none;stroke:#000000;stroke-width:0.264583;stroke-miterlimit:4;stroke-dasharray:none"
       id="path2037" />
    <path
       d="m 91.409079,327.68689 v -0.98044 h 0.8128 v -3.50012 h -0.8128 v -5.00888 h 0.8128 v -3.50012 h -0.8128 v -0.98044 h -13.96999 v 0.98044 h -0.8128 v 3.50012 h 0.8128 v 5.00888 h -0.8128 v 3.50012 h 0.8128 v 0.98044 z"
       style="fill:none;stroke:#000000;stroke-width:0.264583;stroke-miterlimit:4;stroke-dasharray:none"
       id="path2039" />
    <path
       d="m 72.359089,324.50935 v -0.98044 h 0.8128 v -3.50012 h -0.8128 v -5.00888 h 0.8128 v -3.50012 h -0.8128 v -0.98044 h -13.97 v 0.98044 h -0.8128 v 3.50012 h 0.8128 v 5.00888 h -0.8128 v 3.50012 h 0.8128 v 0.98044 z"
       style="fill:none;stroke:#000000;stroke-width:0.264583;stroke-miterlimit:4;stroke-dasharray:none"
       id="path2041" />
    <path
       d="m 190.33446,252.68832 -0.41656,-0.889 0.7366,-0.3429 -1.47828,-3.17246 -0.7366,0.3429 -2.11582,-4.53898 0.7366,-0.3429 -1.48082,-3.17246 -0.7366,0.3429 -0.41402,-0.889 -12.6619,5.9055 0.41656,0.889 -0.7366,0.3429 1.47828,3.17246 0.7366,-0.3429 2.11582,4.53898 -0.7366,0.3429 1.48082,3.17246 0.7366,-0.3429 0.41402,0.889 z"
       style="fill:none;stroke:#000000;stroke-width:0.264583;stroke-miterlimit:4;stroke-dasharray:none"
       id="path2043" />
    <path
       d="m 207.59884,244.63906 -0.41656,-0.889 0.7366,-0.3429 -1.47828,-3.17246 -0.7366,0.3429 -2.11582,-4.53898 0.7366,-0.3429 -1.48082,-3.17246 -0.7366,0.3429 -0.41402,-0.889 -12.6619,5.9055 0.41656,0.889 -0.7366,0.3429 1.47828,3.17246 0.7366,-0.3429 2.11582,4.53898 -0.7366,0.3429 1.48082,3.17246 0.7366,-0.3429 0.41402,0.889 z"
       style="fill:none;stroke:#000000;stroke-width:0.264583;stroke-miterlimit:4;stroke-dasharray:none"
       id="path2045" />
    <path
       d="m 191.49778,210.10776 -0.41656,-0.88901 0.7366,-0.3429 -1.47828,-3.17246 -0.7366,0.3429 -2.11582,-4.53898 0.7366,-0.3429 -1.48082,-3.17246 -0.7366,0.3429 -0.41402,-0.889 -12.6619,5.9055 0.41656,0.889 -0.7366,0.3429 1.47828,3.17246 0.7366,-0.3429 2.11582,4.53899 -0.7366,0.3429 1.48082,3.17246 0.7366,-0.3429 0.41402,0.889 z"
       style="fill:none;stroke:#000000;stroke-width:0.264583;stroke-miterlimit:4;stroke-dasharray:none"
       id="path2047" />
    <path
       d="m 199.54958,227.37468 -0.41656,-0.889 0.7366,-0.3429 -1.47828,-3.17246 -0.7366,0.3429 -2.11582,-4.53898 0.7366,-0.3429 -1.48082,-3.17246 -0.7366,0.3429 -0.41402,-0.889 -12.6619,5.9055 0.41656,0.889 -0.7366,0.3429 1.47828,3.17246 0.7366,-0.3429 2.11582,4.53898 -0.7366,0.3429 1.48082,3.17246 0.7366,-0.3429 0.41402,0.889 z"
       style="fill:none;stroke:#000000;stroke-width:0.264583;stroke-miterlimit:4;stroke-dasharray:none"
       id="path2049" />
    <path
       d="m 148.55908,307.36689 v -0.98044 h 0.8128 v -3.50012 h -0.8128 v -5.00888 h 0.8128 v -3.50012 h -0.8128 v -0.98044 h -13.97 v 0.98044 h -0.8128 v 3.50012 h 0.8128 v 5.00888 h -0.8128 v 3.50012 h 0.8128 v 0.98044 z"
       style="fill:none;stroke:#000000;stroke-width:0.264583;stroke-miterlimit:4;stroke-dasharray:none"
       id="path2051" />
    <path
       d="m 53.309089,248.3119 v -0.98044 h 0.8128 v -3.50012 h -0.8128 v -5.00888 h 0.8128 v -3.50012 h -0.8128 V 234.3419 H 39.33909 v 0.98044 h -0.8128 v 3.50012 h 0.8128 v 5.00888 h -0.8128 v 3.50012 h 0.8128 v 0.98044 z"
       style="fill:none;stroke:#000000;stroke-width:0.264583;stroke-miterlimit:4;stroke-dasharray:none"
       id="path2053" />
    <path
       id="path2055"
       style="fill:none;stroke:#000000;stroke-width:0.999999;stroke-miterlimit:4;stroke-dasharray:none"
       d="M 187.37305,42.519531 V 146.67578 h 16.58398 v -2.64062 h -3.07226 v -13.22852 h 3.07226 V 111.875 h -3.07226 V 98.646484 h 3.07226 v -3.705078 h 52.79883 v 3.705078 h 3.07226 V 111.875 h -3.07226 v 18.93164 h 3.07226 v 13.22852 h -3.07226 v 3.70507 h -24.89063 l -0.0879,11.1543 0.0801,0.0918 0.0781,0.13672 0.0488,0.14843 0.0156,0.15821 v 25.50195 h 7.82227 v -3.07226 h 13.22851 v 3.07226 h 3.70508 v 52.79883 h -3.70508 v 3.07226 H 239.8222 v -3.07226 H 232 v 55.20117 h 7.82227 v -3.07226 h 13.22851 v 3.07226 h 3.70508 v 52.79883 h -3.70508 v 3.07226 h -13.22851 v -3.07226 h -18.93165 v 3.07226 h -13.22851 v -3.07226 h -3.70508 v -36.10938 c -32.81449,17.69642 -64.91613,31.2828 -97.58984,46.53711 L 60.076172,324.96875 103.89844,61.289062 l 0.0254,-0.107421 0.0645,-0.144532 0.0937,-0.126953 0.11719,-0.105468 0.0234,-0.01367 V 42.5625 l -3.50782,0.369141 -3.757809,1.220703 -3.421875,1.974609 -2.935547,2.644531 -2.322265,3.195313 -1.607422,3.609375 -0.658203,2.679687 -57.394531,338.265621 -2.31836,6.36133 -0.955078,3.83594 -0.138672,3.94922 0.685547,3.89258 1.039063,2.77734 81.955082,175.75977 2.0332,3.38672 2.69531,2.89062 3.23633,2.26367 2.70898,1.23633 15.94727,5.79492 3.83398,0.95117 3.94922,0.13672 3.89063,-0.6875 2.76562,-1.03515 291.64258,-135.96875 H 699.0957 l 3.92578,-0.41211 3.75782,-1.22071 3.41992,-1.97656 2.25586,-1.92383 36.0039,-36.0039 2.48438,-3.06836 1.79492,-3.51953 1.01953,-3.81836 0.23438,-2.95508 V 73.417969 l -0.41211,-3.927735 -1.2207,-3.757812 -1.97657,-3.421875 -1.92383,-2.253906 -12,-12 -3.07226,-2.486329 -3.51953,-1.792968 -3.81641,-1.023438 -2.95508,-0.232422 z"
       transform="matrix(-0.26458333,0,0,-0.26458333,221.5726,351.53416)" />
    <path
       d="m 33.37646,330.3521 a 1.524,1.524 0 1 1 -3.048,0 1.524,1.524 0 1 1 3.048,0 z"
       style="fill:none;stroke:#000000;stroke-width:0.264583;stroke-miterlimit:4;stroke-dasharray:none"
       id="path2057" />
    <path
       d="m 203.2756,256.09134 a 1.524,1.524 0 1 1 -3.048,0 1.524,1.524 0 1 1 3.048,0 z"
       style="fill:none;stroke:#000000;stroke-width:0.264583;stroke-miterlimit:4;stroke-dasharray:none"
       id="path2059" />
  </g>
  <path
     id="path2783"
     style="fill:none;stroke:#000000;stroke-width:0.264583;stroke-miterlimit:4;stroke-dasharray:none"
     d="m 298.63239,94.084021 a 1.524,1.524 0 1 0 0,-3.047997 1.524,1.524 0 1 0 0,3.047997 z m -60.99988,18.397769 a 1.524005,1.524005 0 1 0 0,-3.04801 1.524005,1.524005 0 1 0 0,3.04801 z m 6.77222,-28.402136 a 1.524,1.524 0 1 0 0,-3.048 1.524,1.524 0 1 0 0,3.048 z m 77.41961,-4.33426 -72.13513,-0.15295 -0.002,0.004 H 235.0447 c -0.78625,0 -1.08878,1.3145 -0.50333,1.58544 l 8.37261,3.87469 c 0.50833,0.23712 0.72832,0.84135 0.49145,1.3498 l -15.45798,33.149376 c -0.86806,1.86153 -0.8599,3.83436 0.21498,3.65199 l 89.49945,-15.18566 0.709,-0.17415 0.95498,-0.42529 0.84542,-0.61444 0.6997,-0.77668 0.52245,-0.90538 0.32298,-0.99425 0.0977,-0.92811 h -0.002 l 0.0119,-0.11163 z" />
  <g
     id="g2844"
     transform="matrix(0.26458333,0,0,0.26458333,2.7667395,-38.527174)">
    <path
       d="m 1360.7084,417.44431 a 5.7600001,5.7600001 0 1 0 -11.52,0 5.7600001,5.7600001 0 1 0 11.52,0 z"
       style="fill:none;stroke:#000000;stroke-width:0.999999;stroke-miterlimit:4;stroke-dasharray:none"
       id="path2828" />
    <path
       d="m 852.86845,742.14746 a 5.7600001,5.7600001 0 1 0 -11.52,0 5.7600001,5.7600001 0 1 0 11.52,0 z"
       style="fill:none;stroke:#000000;stroke-width:0.999999;stroke-miterlimit:4;stroke-dasharray:none"
       id="path2830" />
    <path
       d="m 1216.9964,809.05946 a 5.7600001,5.7600001 0 1 0 -11.52,0 5.7600001,5.7600001 0 1 0 11.52,0 z"
       style="fill:none;stroke:#000000;stroke-width:0.999999;stroke-miterlimit:4;stroke-dasharray:none"
       id="path2832" />
    <path
       d="m 1389.9884,672.64346 a 5.7600001,5.7600001 0 1 0 -11.52,0 5.7600001,5.7600001 0 1 0 11.52,0 z"
       style="fill:none;stroke:#000000;stroke-width:0.999999;stroke-miterlimit:4;stroke-dasharray:none"
       id="path2834" />
    <path
       id="path2836"
       style="fill:none;stroke:#000000;stroke-width:0.999999;stroke-miterlimit:4;stroke-dasharray:none"
       d="m 3033.627,314.29492 -535.7227,0.002 -2.9551,0.23242 -3.8164,1.02343 -3.5195,1.79297 -3.0723,2.48633 -12,12 -1.9238,2.25391 -1.9766,3.42187 -1.2207,3.75781 -0.4121,3.92774 v 343.75 l 0.2344,2.95508 1.0195,3.81836 1.7949,3.51953 2.4844,3.06836 36.0039,36.0039 2.2559,1.92383 3.4199,1.97656 3.7578,1.22071 3.9258,0.41211 h 257.5078 l 291.6426,135.96875 2.7656,1.03515 3.8906,0.6875 3.9493,-0.13672 3.8339,-0.95117 15.9473,-5.79492 2.709,-1.23633 3.2363,-2.26367 2.6953,-2.89062 2.0332,-3.38672 81.9551,-175.75977 1.0391,-2.77734 0.6855,-3.89258 -0.1387,-3.94922 -0.955,-3.83594 -2.3184,-6.36132 -57.3945,-338.26563 -0.6582,-2.67969 -1.6074,-3.60937 -2.3223,-3.19531 -2.9356,-2.64454 -3.4218,-1.97461 -3.7578,-1.2207 -3.5079,-0.36914 v 18.22852 l 0.023,0.0137 0.1172,0.10547 0.094,0.12695 0.064,0.14453 0.025,0.10742 43.8222,263.67969 -46.291,31.18945 c -29.1767,-13.62162 -57.8989,-25.92222 -87.0781,-40.99804 v 55.34961 c -1e-4,2.12067 -1.7192,3.83978 -3.8399,3.83984 h -47.4687 c -4.1096,-4.7e-4 -5.3477,5.58373 -1.6231,7.32031 l 39.5411,18.4375 c 2.8833,1.3456 6.3114,0.0985 7.6562,-2.78515 l 26.3711,-56.55469 c 0.8962,-1.92125 3.1799,-2.7527 5.1016,-1.85742 l 125.289,58.42383 c 1.9213,0.89622 2.7527,3.17984 1.8575,5.10156 l -88.8516,190.54297 c -0.8963,1.92233 -3.1813,2.75398 -5.1035,1.85742 l -190.541,-88.85156 c -1.9224,-0.89623 -2.7541,-3.1813 -1.8575,-5.10352 l 55.1817,-118.33789 c 1.7798,-3.81852 -1.0078,-8.19331 -5.2207,-8.19336 h -54.7324 c -3.181,1.1e-4 -5.7597,2.57878 -5.7598,5.75977 v 57.59961 c -1e-4,2.12067 -1.7192,3.83978 -3.8399,3.83984 h -66.9394 c -1.5651,2.7e-4 -2.9738,-0.9494 -3.5606,-2.40039 -0.8803,-2.17573 -2.9927,-3.59973 -5.3398,-3.59961 h -58.5605 c -2.3471,-1.6e-4 -4.4596,1.42384 -5.3399,3.59961 -0.5865,1.45032 -1.9942,2.39985 -3.5586,2.40039 h -63.1015 c -3.181,1.1e-4 -5.7597,2.57877 -5.7598,5.75976 v 2.4004 c -1e-4,2.12067 -1.7192,3.83978 -3.8399,3.83984 h -138.2402 c -2.1206,-1.1e-4 -3.8397,-1.71921 -3.8398,-3.83984 v -62.4004 c -10e-5,-3.18099 -2.5788,-5.75965 -5.7598,-5.75976 h -26.125 c -2.0872,-1.3e-4 -3.7792,-1.6921 -3.7793,-3.7793 v -282.3614 c 1e-4,-2.08719 1.6921,-3.77916 3.7793,-3.77929 h 170.125 c 3.181,-1.1e-4 5.7597,-2.57878 5.7598,-5.75977 v -2.40039 c 1e-4,-2.12063 1.7192,-3.83973 3.8398,-3.83984 h 62.4004 c 2.3471,1.2e-4 4.4595,-1.42388 5.3398,-3.59961 0.5868,-1.45099 1.9955,-2.40066 3.5606,-2.40039 h 67.6406 c 1.5644,5.4e-4 2.9721,0.95007 3.5586,2.40039 0.8803,2.17577 2.9928,3.59977 5.3399,3.59961 h 63.6875 c 1.3714,4.6e-4 2.6385,0.73226 3.3242,1.91992 1.0287,1.78248 2.9303,2.88068 4.9883,2.88086 h 109.9596 c 2.1207,6e-5 3.8398,1.71917 3.8399,3.83984 l 24.4407,6.1708 h 6.0723 z"
       transform="translate(-1654.5108,65.73523)" />
    <path
       d="m 855.19653,417.56866 a 5.7600001,5.7600001 0 1 0 -11.52,0 5.7600001,5.7600001 0 1 0 11.52,0 z"
       style="fill:none;stroke:#000000;stroke-width:0.999999;stroke-miterlimit:4;stroke-dasharray:none"
       id="path2838" />
    <path
       d="m 1497.335,698.23925 a 5.7600001,5.7600001 0 1 0 -11.52,0 5.7600001,5.7600001 0 1 0 11.52,0 z"
       style="fill:none;stroke:#000000;stroke-width:0.999999;stroke-miterlimit:4;stroke-dasharray:none"
       id="path2840" />
  </g>
  <path
     id="path2860"
     style="fill:none;stroke:#000000;stroke-width:0.264583;stroke-miterlimit:4;stroke-dasharray:none"
     d="m 358.56976,114.11908 a 1.524002,1.524002 0 1 1 1.524,2.63965 1.524002,1.524002 0 1 1 -1.524,-2.63965 z m -62.02633,14.56701 a 1.524002,1.524002 0 1 1 1.524,2.63965 1.524002,1.524002 0 1 1 -1.524,-2.63965 z m 20.06598,21.21086 a 1.524,1.524 0 1 1 1.524,2.63964 1.524,1.524 0 1 1 -1.524,-2.63964 z m 69.21448,-34.95623 -62.39438,36.20003 -0.004,-0.002 -12.68079,7.32126 c -0.68091,0.39312 -1.60016,-0.594 -1.22861,-1.12137 l 5.31355,-7.54188 c 0.32166,-0.45952 0.21006,-1.09279 -0.2493,-1.41469 l -29.96169,-20.97922 c -1.68253,-1.1781 -2.66187,-2.8907 -1.63982,-3.2702 l 85.10163,-31.598559 0.70109,-0.20368 1.03968,-0.10918 1.03938,0.10941 0.99429,0.32278 0.90515,0.52285 0.77683,0.69956 0.54867,0.75492 -0.002,10e-4 0.0661,0.0907 z" />
  <g
     id="g2878"
     transform="matrix(-0.26458333,0,0,-0.26458333,627.32895,437.11648)">
    <path
       d="m 1360.7084,417.44431 a 5.7600001,5.7600001 0 1 0 -11.52,0 5.7600001,5.7600001 0 1 0 11.52,0 z"
       style="fill:none;stroke:#000000;stroke-width:0.999999;stroke-miterlimit:4;stroke-dasharray:none"
       id="path2862" />
    <path
       d="m 852.86845,742.14746 a 5.7600001,5.7600001 0 1 0 -11.52,0 5.7600001,5.7600001 0 1 0 11.52,0 z"
       style="fill:none;stroke:#000000;stroke-width:0.999999;stroke-miterlimit:4;stroke-dasharray:none"
       id="path2864" />
    <path
       d="m 1216.9964,809.05946 a 5.7600001,5.7600001 0 1 0 -11.52,0 5.7600001,5.7600001 0 1 0 11.52,0 z"
       style="fill:none;stroke:#000000;stroke-width:0.999999;stroke-miterlimit:4;stroke-dasharray:none"
       id="path2866" />
    <path
       d="m 1389.9884,672.64346 a 5.7600001,5.7600001 0 1 0 -11.52,0 5.7600001,5.7600001 0 1 0 11.52,0 z"
       style="fill:none;stroke:#000000;stroke-width:0.999999;stroke-miterlimit:4;stroke-dasharray:none"
       id="path2868" />
    <path
       id="path2870"
       style="fill:none;stroke:#000000;stroke-width:0.999999;stroke-miterlimit:4;stroke-dasharray:none"
       d="m 3033.627,314.29492 -535.7227,0.002 -2.9551,0.23242 -3.8164,1.02343 -3.5195,1.79297 -3.0723,2.48633 -12,12 -1.9238,2.25391 -1.9766,3.42187 -1.2207,3.75781 -0.4121,3.92774 v 343.75 l 0.2344,2.95508 1.0195,3.81836 1.7949,3.51953 2.4844,3.06836 36.0039,36.0039 2.2559,1.92383 3.4199,1.97656 3.7578,1.22071 3.9258,0.41211 h 257.5078 l 291.6426,135.96875 2.7656,1.03515 3.8906,0.6875 3.9493,-0.13672 3.8339,-0.95117 15.9473,-5.79492 2.709,-1.23633 3.2363,-2.26367 2.6953,-2.89062 2.0332,-3.38672 81.9551,-175.75977 1.0391,-2.77734 0.6855,-3.89258 -0.1387,-3.94922 -0.955,-3.83594 -2.3184,-6.36132 -57.3945,-338.26563 -0.6582,-2.67969 -1.6074,-3.60937 -2.3223,-3.19531 -2.9356,-2.64454 -3.4218,-1.97461 -3.7578,-1.2207 -3.5079,-0.36914 v 18.22852 l 0.023,0.0137 0.1172,0.10547 0.094,0.12695 0.064,0.14453 0.025,0.10742 43.8222,263.67969 -46.291,31.18945 c -29.1767,-13.62162 -57.8989,-25.92222 -87.0781,-40.99804 v 55.34961 c -1e-4,2.12067 -1.7192,3.83978 -3.8399,3.83984 h -47.4687 c -4.1096,-4.7e-4 -5.3477,5.58373 -1.6231,7.32031 l 39.5411,18.4375 c 2.8833,1.3456 6.3114,0.0985 7.6562,-2.78515 l 26.3711,-56.55469 c 0.8962,-1.92125 3.1799,-2.7527 5.1016,-1.85742 l 125.289,58.42383 c 1.9213,0.89622 2.7527,3.17984 1.8575,5.10156 l -88.8516,190.54297 c -0.8963,1.92233 -3.1813,2.75398 -5.1035,1.85742 l -190.541,-88.85156 c -1.9224,-0.89623 -2.7541,-3.1813 -1.8575,-5.10352 l 55.1817,-118.33789 c 1.7798,-3.81852 -1.0078,-8.19331 -5.2207,-8.19336 h -54.7324 c -3.181,1.1e-4 -5.7597,2.57878 -5.7598,5.75977 v 57.59961 c -1e-4,2.12067 -1.7192,3.83978 -3.8399,3.83984 h -66.9394 c -1.5651,2.7e-4 -2.9738,-0.9494 -3.5606,-2.40039 -0.8803,-2.17573 -2.9927,-3.59973 -5.3398,-3.59961 h -58.5605 c -2.3471,-1.6e-4 -4.4596,1.42384 -5.3399,3.59961 -0.5865,1.45032 -1.9942,2.39985 -3.5586,2.40039 h -63.1015 c -3.181,1.1e-4 -5.7597,2.57877 -5.7598,5.75976 v 2.4004 c -1e-4,2.12067 -1.7192,3.83978 -3.8399,3.83984 h -138.2402 c -2.1206,-1.1e-4 -3.8397,-1.71921 -3.8398,-3.83984 v -62.4004 c -10e-5,-3.18099 -2.5788,-5.75965 -5.7598,-5.75976 h -26.125 c -2.0872,-1.3e-4 -3.7792,-1.6921 -3.7793,-3.7793 v -282.3614 c 1e-4,-2.08719 1.6921,-3.77916 3.7793,-3.77929 h 170.125 c 3.181,-1.1e-4 5.7597,-2.57878 5.7598,-5.75977 v -2.40039 c 1e-4,-2.12063 1.7192,-3.83973 3.8398,-3.83984 h 62.4004 c 2.3471,1.2e-4 4.4595,-1.42388 5.3398,-3.59961 0.5868,-1.45099 1.9955,-2.40066 3.5606,-2.40039 h 67.6406 c 1.5644,5.4e-4 2.9721,0.95007 3.5586,2.40039 0.8803,2.17577 2.9928,3.59977 5.3399,3.59961 h 63.6875 c 1.3714,4.6e-4 2.6385,0.73226 3.3242,1.91992 1.0287,1.78248 2.9303,2.88068 4.9883,2.88086 h 109.9596 c 2.1207,6e-5 3.8398,1.71917 3.8399,3.83984 l 24.4407,6.1708 h 6.0723 z"
       transform="translate(-1654.5108,65.73523)" />
    <path
       d="m 855.19653,417.56866 a 5.7600001,5.7600001 0 1 0 -11.52,0 5.7600001,5.7600001 0 1 0 11.52,0 z"
       style="fill:none;stroke:#000000;stroke-width:0.999999;stroke-miterlimit:4;stroke-dasharray:none"
       id="path2872" />
    <path
       d="m 1497.335,698.23925 a 5.7600001,5.7600001 0 1 0 -11.52,0 5.7600001,5.7600001 0 1 0 11.52,0 z"
       style="fill:none;stroke:#000000;stroke-width:0.999999;stroke-miterlimit:4;stroke-dasharray:none"
       id="path2874" />
    <path
       d="m 1360.7084,417.44431 a 5.7600001,5.7600001 0 1 0 -11.52,0 5.7600001,5.7600001 0 1 0 11.52,0 z"
       style="fill:none;stroke:#000000;stroke-width:0.999999;stroke-miterlimit:4;stroke-dasharray:none"
       id="path2876" />
  </g>
  <g
     aria-label="NFS.WORKS"
     id="text2882"
     style="font-style:normal;font-variant:normal;font-weight:normal;font-stretch:normal;font-size:5.09909px;line-height:1.25;font-family:Iosevka;-inkscape-font-specification:Iosevka;fill:#ff0000;stroke:none;stroke-width:0.134913">
    <path
       d="m 250.1151,86.054123 v -3.747831 h 0.17337 0.39263 l 0.97903,3.064553 q 0,-0.132576 0,-0.265153 l -0.005,-0.05099 v -0.02549 -0.05099 -0.05099 -0.122378 l -0.005,-0.05099 v -0.0255 -0.05099 -0.09688 -0.05099 q -0.005,-0.346738 -0.005,-0.698575 v -1.524628 h 0.40793 v 3.747831 h -0.17337 -0.39263 l -0.97903,-3.064553 q 0,0.132576 0,0.265152 l 0.005,0.05099 v 0.0255 0.05099 0.05099 0.122378 l 0.005,0.05099 v 0.02549 0.05099 0.09688 0.05099 q 0.005,0.346738 0.005,0.698575 v 1.524628 z"
       style="font-style:normal;font-variant:normal;font-weight:normal;font-stretch:normal;font-size:5.09909px;font-family:Iosevka;-inkscape-font-specification:Iosevka;fill:#ff0000;stroke:none;stroke-width:0.134913"
       id="path2884" />
    <path
       d="m 252.81761,86.054123 v -3.747831 h 1.78468 v 0.367134 h -1.37675 v 1.172791 h 1.08611 v 0.367134 h -1.08611 v 1.840772 z"
       style="font-style:normal;font-variant:normal;font-weight:normal;font-stretch:normal;font-size:5.09909px;font-family:Iosevka;-inkscape-font-specification:Iosevka;fill:#ff0000;stroke:none;stroke-width:0.134913"
       id="path2886" />
    <path
       d="m 256.1677,86.094916 q -0.23965,0 -0.46911,-0.08669 -0.22436,-0.08668 -0.36714,-0.290648 -0.14277,-0.203964 -0.14277,-0.44872 v -0.0051 l 0.40283,-0.05609 q 0,0.0204 0,0.03569 0,0.142774 0.0816,0.265152 0.0867,0.117279 0.21926,0.16827 0.13258,0.05099 0.27535,0.05099 0.15298,0 0.29065,-0.06629 0.14278,-0.06629 0.21416,-0.203964 0.0714,-0.142774 0.0714,-0.295747 0,-0.260053 -0.19376,-0.458918 -0.19377,-0.203964 -0.42833,-0.321243 -0.22946,-0.122378 -0.44362,-0.28045 -0.20906,-0.158071 -0.33654,-0.39263 -0.12748,-0.239657 -0.12748,-0.504809 0,-0.188667 0.0714,-0.372234 0.0714,-0.183567 0.20906,-0.316144 0.14278,-0.132576 0.32635,-0.188666 0.18866,-0.06119 0.37733,-0.06119 0.23966,0 0.46402,0.08668 0.22945,0.08668 0.37223,0.290648 0.14277,0.203963 0.14277,0.44872 v 0.0051 l -0.40282,0.05609 q 0,-0.0204 0,-0.03569 0,-0.142774 -0.0867,-0.260054 -0.0816,-0.122378 -0.21416,-0.173369 -0.13258,-0.05099 -0.27535,-0.05099 -0.15297,0 -0.29575,0.06629 -0.13767,0.06629 -0.20906,0.209062 -0.0714,0.137676 -0.0714,0.290648 0,0.260054 0.19377,0.464018 0.19376,0.198864 0.42322,0.321242 0.23456,0.117279 0.44362,0.275351 0.21416,0.158072 0.34164,0.397729 0.12748,0.234558 0.12748,0.499711 0,0.188666 -0.0714,0.372234 -0.0714,0.183567 -0.21416,0.316143 -0.13768,0.132577 -0.32634,0.193766 -0.18357,0.05609 -0.37224,0.05609 z"
       style="font-style:normal;font-variant:normal;font-weight:normal;font-stretch:normal;font-size:5.09909px;font-family:Iosevka;-inkscape-font-specification:Iosevka;fill:#ff0000;stroke:none;stroke-width:0.134913"
       id="path2888" />
    <path
       d="m 258.73254,86.094916 q -0.10708,0 -0.20397,-0.04589 -0.0969,-0.05099 -0.14787,-0.147874 -0.0459,-0.09688 -0.0459,-0.203963 0,-0.107081 0.0459,-0.203964 0.051,-0.09688 0.14787,-0.142775 0.0969,-0.05099 0.20397,-0.05099 0.10708,0 0.20396,0.05099 0.0969,0.04589 0.14277,0.142775 0.051,0.09688 0.051,0.203964 0,0.107081 -0.051,0.203963 -0.0459,0.09688 -0.14277,0.147874 -0.0969,0.04589 -0.20396,0.04589 z"
       style="font-style:normal;font-variant:normal;font-weight:normal;font-stretch:normal;font-size:5.09909px;font-family:Iosevka;-inkscape-font-specification:Iosevka;fill:#ff0000;stroke:none;stroke-width:0.134913"
       id="path2890" />
    <path
       d="m 260.69568,86.054123 q -0.38244,-1.958051 -0.38244,-2.809599 v -0.938232 h 0.40793 v 0.938232 q 0,0.734269 0.13258,2.29969 l 0.28555,-1.73879 h 0.28555 l 0.28555,1.73879 q 0.13257,-1.565421 0.13257,-2.29969 v -0.938232 h 0.40793 v 0.938232 q 0,0.851548 -0.38243,2.809599 h -0.28045 l -0.30595,-1.861168 -0.30594,1.861168 z"
       style="font-style:normal;font-variant:normal;font-weight:normal;font-stretch:normal;font-size:5.09909px;font-family:Iosevka;-inkscape-font-specification:Iosevka;fill:#ff0000;stroke:none;stroke-width:0.134913"
       id="path2892" />
    <path
       d="m 263.83161,86.094916 q -0.20397,0 -0.40283,-0.06629 -0.19377,-0.06629 -0.34164,-0.214161 -0.14277,-0.152973 -0.20396,-0.351838 -0.0612,-0.198864 -0.0612,-0.402828 v -1.759186 q 0,-0.203963 0.0612,-0.402828 0.0612,-0.198864 0.20396,-0.346738 0.14787,-0.152973 0.34164,-0.219261 0.19886,-0.06629 0.40283,-0.06629 0.20396,0 0.39773,0.06629 0.19886,0.06629 0.34164,0.219261 0.14787,0.147874 0.20906,0.346738 0.0612,0.198865 0.0612,0.402828 V 85.0598 q 0,0.203964 -0.0612,0.402828 -0.0612,0.198865 -0.20906,0.351838 -0.14278,0.147873 -0.34164,0.214161 -0.19377,0.06629 -0.39773,0.06629 z m 0,-0.367135 q 0.12747,0 0.24475,-0.04589 0.12238,-0.05099 0.20397,-0.147873 0.0867,-0.101982 0.11728,-0.22436 0.0357,-0.122378 0.0357,-0.249856 v -1.759186 q 0,-0.127477 -0.0357,-0.249855 -0.0306,-0.122378 -0.11728,-0.219261 -0.0816,-0.101982 -0.20397,-0.147874 -0.11728,-0.05099 -0.24475,-0.05099 -0.12748,0 -0.24986,0.05099 -0.11728,0.04589 -0.20396,0.147874 -0.0816,0.09688 -0.11728,0.219261 -0.0306,0.122378 -0.0306,0.249855 V 85.0598 q 0,0.127478 0.0306,0.249856 0.0357,0.122378 0.11728,0.22436 0.0867,0.09688 0.20396,0.147873 0.12238,0.04589 0.24986,0.04589 z"
       style="font-style:normal;font-variant:normal;font-weight:normal;font-stretch:normal;font-size:5.09909px;font-family:Iosevka;-inkscape-font-specification:Iosevka;fill:#ff0000;stroke:none;stroke-width:0.134913"
       id="path2894" />
    <path
       d="m 265.41232,86.054123 v -3.747831 h 0.97392 q 0.20906,0 0.40793,0.07139 0.19886,0.07139 0.33654,0.229459 0.14277,0.158072 0.19886,0.362035 0.0612,0.198865 0.0612,0.407928 0,0.203963 -0.0612,0.407927 -0.0561,0.198864 -0.19886,0.356936 -0.13768,0.158072 -0.33654,0.229459 -0.0357,0.0153 -0.0714,0.0255 0.66798,0.973926 0.66798,1.657204 h -0.40792 q 0,-0.652684 -0.70878,-1.606213 h -0.45382 v 1.606213 z m 0.97392,-1.973348 q 0.13258,0 0.24986,-0.05099 0.12238,-0.05609 0.20396,-0.163171 0.0816,-0.107081 0.11218,-0.234558 0.0306,-0.127477 0.0306,-0.254954 0,-0.132577 -0.0306,-0.260054 -0.0306,-0.127477 -0.11218,-0.229459 -0.0816,-0.107081 -0.20396,-0.158072 -0.11728,-0.05609 -0.24986,-0.05609 h -0.566 v 1.407349 z"
       style="font-style:normal;font-variant:normal;font-weight:normal;font-stretch:normal;font-size:5.09909px;font-family:Iosevka;-inkscape-font-specification:Iosevka;fill:#ff0000;stroke:none;stroke-width:0.134913"
       id="path2896" />
    <path
       d="m 267.96185,86.054123 v -3.747831 h 0.40793 v 1.73369 q 0.051,-0.05609 0.10198,-0.117279 0.10708,-0.117279 0.20906,-0.239657 0.10198,-0.127477 0.19887,-0.254954 0.0969,-0.127478 0.18866,-0.260054 0.0918,-0.132576 0.17337,-0.270252 0.0816,-0.137675 0.15297,-0.28045 0.0765,-0.147873 0.0765,-0.311044 h 0.42832 q 0,0.178468 -0.0816,0.346738 -0.0816,0.163171 -0.16827,0.316143 -0.0867,0.152973 -0.18867,0.300847 -0.10198,0.147873 -0.20906,0.290648 -0.0612,0.08158 -0.12238,0.163171 0.81076,1.738789 0.81076,2.330284 h -0.40793 q 0,-0.520107 -0.68328,-1.988645 l -0.0408,0.05609 q -0.11728,0.132576 -0.23456,0.265152 -0.10198,0.11218 -0.20396,0.219261 v 1.448142 z"
       style="font-style:normal;font-variant:normal;font-weight:normal;font-stretch:normal;font-size:5.09909px;font-family:Iosevka;-inkscape-font-specification:Iosevka;fill:#ff0000;stroke:none;stroke-width:0.134913"
       id="path2898" />
    <path
       d="m 271.46492,86.094916 q -0.23966,0 -0.46912,-0.08669 -0.22436,-0.08668 -0.36714,-0.290648 -0.14277,-0.203964 -0.14277,-0.44872 v -0.0051 l 0.40283,-0.05609 q 0,0.0204 0,0.03569 0,0.142774 0.0816,0.265152 0.0867,0.117279 0.21926,0.16827 0.13258,0.05099 0.27536,0.05099 0.15297,0 0.29064,-0.06629 0.14278,-0.06629 0.21417,-0.203964 0.0714,-0.142774 0.0714,-0.295747 0,-0.260053 -0.19376,-0.458918 -0.19377,-0.203964 -0.42833,-0.321243 -0.22946,-0.122378 -0.44362,-0.28045 -0.20906,-0.158071 -0.33654,-0.39263 -0.12747,-0.239657 -0.12747,-0.504809 0,-0.188667 0.0714,-0.372234 0.0714,-0.183567 0.20907,-0.316144 0.14277,-0.132576 0.32634,-0.188666 0.18866,-0.06119 0.37733,-0.06119 0.23966,0 0.46402,0.08668 0.22946,0.08668 0.37223,0.290648 0.14278,0.203963 0.14278,0.44872 v 0.0051 l -0.40283,0.05609 q 0,-0.0204 0,-0.03569 0,-0.142774 -0.0867,-0.260054 -0.0816,-0.122378 -0.21416,-0.173369 -0.13258,-0.05099 -0.27535,-0.05099 -0.15297,0 -0.29575,0.06629 -0.13767,0.06629 -0.20906,0.209062 -0.0714,0.137676 -0.0714,0.290648 0,0.260054 0.19377,0.464018 0.19376,0.198864 0.42322,0.321242 0.23456,0.117279 0.44362,0.275351 0.21417,0.158072 0.34164,0.397729 0.12748,0.234558 0.12748,0.499711 0,0.188666 -0.0714,0.372234 -0.0714,0.183567 -0.21416,0.316143 -0.13767,0.132577 -0.32634,0.193766 -0.18357,0.05609 -0.37223,0.05609 z"
       style="font-style:normal;font-variant:normal;font-weight:normal;font-stretch:normal;font-size:5.09909px;font-family:Iosevka;-inkscape-font-specification:Iosevka;fill:#ff0000;stroke:none;stroke-width:0.134913"
       id="path2900" />
  </g>
</svg>
