<?xml version="1.0" standalone="no"?>
<!DOCTYPE svg PUBLIC "-//W3C//DTD SVG 1.1//EN" "http://www.w3.org/Graphics/SVG/1.1/DTD/svg11.dtd">
<svg width="193mm" height="151mm" viewBox="18 44 193 151" xmlns="http://www.w3.org/2000/svg" version="1.1">
<title>OpenSCAD Model</title>
<path d="
M 18.0932,141.663 L 18.2745,142.693 L 18.5495,143.428 L 40.2331,189.931 L 40.7714,190.827 L 41.4843,191.592
 L 42.3405,192.191 L 43.0572,192.518 L 47.2769,194.051 L 48.2913,194.303 L 49.3359,194.339 L 50.3652,194.157
 L 51.0971,193.883 L 128.261,157.908 L 196.393,157.908 L 197.432,157.799 L 198.426,157.476 L 199.331,156.953
 L 199.928,156.444 L 209.454,146.918 L 210.111,146.106 L 210.586,145.175 L 210.856,144.165 L 210.918,143.383
 L 210.918,52.4326 L 210.809,51.3931 L 210.486,50.3989 L 209.963,49.4937 L 209.454,48.8971 L 206.279,45.7223
 L 205.466,45.0645 L 204.535,44.5899 L 203.525,44.3194 L 202.743,44.2578 L 61,44.2578 L 61,49.0578
 L 202.743,49.0578 L 202.774,49.0603 L 202.815,49.0711 L 202.852,49.0901 L 202.885,49.1164 L 206.059,52.2912
 L 206.08,52.3151 L 206.101,52.3513 L 206.114,52.391 L 206.118,52.4326 L 206.118,143.383 L 206.116,143.414
 L 206.105,143.454 L 206.086,143.492 L 206.059,143.524 L 196.534,153.05 L 196.51,153.07 L 196.474,153.091
 L 196.434,153.104 L 196.393,153.108 L 127.197,153.108 L 49.0689,189.533 L 49.0396,189.544 L 48.9984,189.551
 L 48.9566,189.55 L 48.9161,189.54 L 44.6964,188.006 L 44.6677,187.993 L 44.6334,187.969 L 44.6049,187.939
 L 44.5834,187.903 L 22.8998,141.4 L 22.8888,141.371 L 22.8815,141.329 L 22.883,141.288 L 22.8931,141.247
 L 23.6555,139.154 L 38.9141,49.2243 L 38.9211,49.196 L 38.9381,49.1578 L 38.9627,49.124 L 38.9938,49.096
 L 39,49.0924 L 39,44.2695 L 38.0718,44.3671 L 37.0777,44.6901 L 36.1724,45.2127 L 35.3956,45.9122
 L 34.7812,46.7578 L 34.356,47.7127 L 34.1818,48.4214 L 18.996,137.921 L 18.3829,139.604 L 18.1299,140.619
 z
" stroke="black" fill="lightgray" stroke-width="0.5"/>
</svg>
