999
"DXF R12 Output" (www.mydxf.blogspot.com)
 0 
SECTION
 2 
HEADER
 9 
$ACADVER
 1 
AC1009
 9 
$EXTMIN
 10 
 0 
 20 
 0 
 9 
$EXTMAX
 10 
 8.5 
 20 
 11 
 0 
ENDSEC
 0 
SECTION
 2 
ENTITIES
0
LINE
8
Layer 1
10
0.846666
20
85.513400
11
-0.846666
21
83.820000
0
LINE
8
Layer 1
10
0.000000
20
86.077800
11
0.000000
21
83.255600
0
LINE
8
Layer 1
10
2.257780
20
83.537800
11
1.128890
21
82.408910
0
LINE
8
Layer 1
10
1.693330
20
84.102300
11
0.564440
21
82.973410
0
LINE
8
Layer 1
10
1.128890
20
84.666700
11
0.000000
21
83.537810
0
LINE
8
Layer 1
10
0.846666
20
85.513400
11
-0.846666
21
83.820000
0
LINE
8
Layer 1
10
0.000000
20
86.077800
11
0.000000
21
83.255600
0
LINE
8
Layer 1
10
2.257780
20
83.537800
11
1.128890
21
82.408910
0
LINE
8
Layer 1
10
1.693330
20
84.102300
11
0.564440
21
82.973410
0
LINE
8
Layer 1
10
1.128890
20
84.666700
11
0.000000
21
83.537810
0
LINE
8
Layer 1
10
0.846666
20
85.513400
11
-0.846666
21
83.820000
0
LINE
8
Layer 1
10
0.000000
20
86.077800
11
0.000000
21
83.255600
0
LINE
8
Layer 1
10
2.257780
20
83.537800
11
1.128890
21
82.408910
0
LINE
8
Layer 1
10
1.693330
20
84.102300
11
0.564440
21
82.973410
0
LINE
8
Layer 1
10
1.128890
20
84.666700
11
0.000000
21
83.537810
0
LINE
8
Layer 1
10
47.166800
20
-8.575220
11
46.951747
21
-8.947703
0
LINE
8
Layer 1
10
46.951747
20
-8.947703
11
46.521641
21
-8.947703
0
LINE
8
Layer 1
10
46.521641
20
-8.947703
11
46.306588
21
-8.575220
0
LINE
8
Layer 1
10
46.306588
20
-8.575220
11
46.521641
21
-8.202737
0
LINE
8
Layer 1
10
46.521641
20
-8.202737
11
46.951747
21
-8.202737
0
LINE
8
Layer 1
10
46.951747
20
-8.202737
11
47.166800
21
-8.575220
0
LINE
8
Layer 1
10
47.166800
20
-8.575220
11
47.166800
21
-8.575220
0
LINE
8
Layer 1
10
26.951800
20
1.993390
11
26.736746
21
1.620907
0
LINE
8
Layer 1
10
26.736746
20
1.620907
11
26.306641
21
1.620907
0
LINE
8
Layer 1
10
26.306641
20
1.620907
11
26.091587
21
1.993390
0
LINE
8
Layer 1
10
26.091587
20
1.993390
11
26.306641
21
2.365873
0
LINE
8
Layer 1
10
26.306641
20
2.365873
11
26.736747
21
2.365873
0
LINE
8
Layer 1
10
26.736747
20
2.365873
11
26.951800
21
1.993390
0
LINE
8
Layer 1
10
26.951800
20
1.993390
11
26.951800
21
1.993390
0
LINE
8
Layer 1
10
9.245730
20
15.670800
11
9.030677
21
15.298317
0
LINE
8
Layer 1
10
9.030677
20
15.298317
11
8.600570
21
15.298317
0
LINE
8
Layer 1
10
8.600570
20
15.298317
11
8.385518
21
15.670800
0
LINE
8
Layer 1
10
8.385518
20
15.670800
11
8.600571
21
16.043283
0
LINE
8
Layer 1
10
8.600571
20
16.043283
11
9.030677
21
16.043283
0
LINE
8
Layer 1
10
9.030677
20
16.043283
11
9.245730
21
15.670800
0
LINE
8
Layer 1
10
9.245730
20
15.670800
11
9.245730
21
15.670800
0
LINE
8
Layer 1
10
36.435600
20
20.667200
11
36.220546
21
20.294717
0
LINE
8
Layer 1
10
36.220546
20
20.294717
11
35.790440
21
20.294717
0
LINE
8
Layer 1
10
35.790440
20
20.294717
11
35.575387
21
20.667200
0
LINE
8
Layer 1
10
35.575387
20
20.667200
11
35.790441
21
21.039683
0
LINE
8
Layer 1
10
35.790441
20
21.039683
11
36.220547
21
21.039683
0
LINE
8
Layer 1
10
36.220547
20
21.039683
11
36.435600
21
20.667200
0
LINE
8
Layer 1
10
36.435600
20
20.667200
11
36.435600
21
20.667200
0
LINE
8
Layer 1
10
49.353100
20
10.480800
11
49.138047
21
10.108317
0
LINE
8
Layer 1
10
49.138047
20
10.108317
11
48.707940
21
10.108317
0
LINE
8
Layer 1
10
48.707940
20
10.108317
11
48.492888
21
10.480800
0
LINE
8
Layer 1
10
48.492888
20
10.480800
11
48.707941
21
10.853283
0
LINE
8
Layer 1
10
48.707941
20
10.853283
11
49.138047
21
10.853283
0
LINE
8
Layer 1
10
49.138047
20
10.853283
11
49.353100
21
10.480800
0
LINE
8
Layer 1
10
49.353100
20
10.480800
11
49.353100
21
10.480800
0
LINE
8
Layer 1
10
50.980400
20
22.946700
11
50.765347
21
22.574217
0
LINE
8
Layer 1
10
50.765347
20
22.574217
11
50.335241
21
22.574217
0
LINE
8
Layer 1
10
50.335241
20
22.574217
11
50.120188
21
22.946700
0
LINE
8
Layer 1
10
50.120188
20
22.946700
11
50.335241
21
23.319183
0
LINE
8
Layer 1
10
50.335241
20
23.319183
11
50.765347
21
23.319183
0
LINE
8
Layer 1
10
50.765347
20
23.319183
11
50.980400
21
22.946700
0
LINE
8
Layer 1
10
50.980400
20
22.946700
11
50.980400
21
22.946700
0
LINE
8
Layer 1
10
50.507300
20
19.726000
11
46.933830
21
18.059340
0
LINE
8
Layer 1
10
46.933830
20
18.059340
11
47.328094
21
17.214898
0
LINE
8
Layer 1
10
47.328094
20
17.214898
11
50.900844
21
18.881558
0
LINE
8
Layer 1
10
50.900844
20
18.881558
11
50.507300
21
19.726000
0
LINE
8
Layer 1
10
47.659200
20
25.832800
11
44.086450
21
24.166850
0
LINE
8
Layer 1
10
44.086450
20
24.166850
11
44.479997
21
23.322408
0
LINE
8
Layer 1
10
44.479997
20
23.322408
11
48.053467
21
24.988358
0
LINE
8
Layer 1
10
48.053467
20
24.988358
11
47.659200
21
25.832800
0
LINE
8
Layer 1
10
39.997600
20
21.231300
11
43.571070
21
22.897960
0
LINE
8
Layer 1
10
43.571070
20
22.897960
11
43.176806
21
23.742402
0
LINE
8
Layer 1
10
43.176806
20
23.742402
11
39.604056
21
22.075742
0
LINE
8
Layer 1
10
39.604056
20
22.075742
11
39.997600
21
21.231300
0
LINE
8
Layer 1
10
42.845600
20
15.124500
11
46.418350
21
16.790450
0
LINE
8
Layer 1
10
46.418350
20
16.790450
11
46.024803
21
17.634892
0
LINE
8
Layer 1
10
46.024803
20
17.634892
11
42.451333
21
15.968942
0
LINE
8
Layer 1
10
42.451333
20
15.968942
11
42.845600
21
15.124500
0
LINE
8
Layer 1
10
13.700900
20
9.211290
11
13.700900
21
9.487990
0
LINE
8
Layer 1
10
13.700900
20
9.487990
11
13.930300
21
9.487990
0
LINE
8
Layer 1
10
13.930300
20
9.487990
11
13.930300
21
10.475800
0
LINE
8
Layer 1
10
13.930300
20
10.475800
11
13.700900
21
10.475800
0
LINE
8
Layer 1
10
13.700900
20
10.475800
11
13.700900
21
11.889400
0
LINE
8
Layer 1
10
13.700900
20
11.889400
11
13.930300
21
11.889400
0
LINE
8
Layer 1
10
13.930300
20
11.889400
11
13.930300
21
12.877200
0
LINE
8
Layer 1
10
13.930300
20
12.877200
11
13.700900
21
12.877200
0
LINE
8
Layer 1
10
13.700900
20
12.877200
11
13.700900
21
13.153900
0
LINE
8
Layer 1
10
13.700900
20
13.153900
11
9.758270
21
13.153900
0
LINE
8
Layer 1
10
9.758270
20
13.153900
11
9.758270
21
12.877200
0
LINE
8
Layer 1
10
9.758270
20
12.877200
11
9.528880
21
12.877200
0
LINE
8
Layer 1
10
9.528880
20
12.877200
11
9.528880
21
11.889400
0
LINE
8
Layer 1
10
9.528880
20
11.889400
11
9.758270
21
11.889400
0
LINE
8
Layer 1
10
9.758270
20
11.889400
11
9.758270
21
10.475800
0
LINE
8
Layer 1
10
9.758270
20
10.475800
11
9.528880
21
10.475800
0
LINE
8
Layer 1
10
9.528880
20
10.475800
11
9.528880
21
9.487990
0
LINE
8
Layer 1
10
9.528880
20
9.487990
11
9.758270
21
9.487990
0
LINE
8
Layer 1
10
9.758270
20
9.487990
11
9.758270
21
9.211290
0
LINE
8
Layer 1
10
9.758270
20
9.211290
11
13.700900
21
9.211290
0
LINE
8
Layer 1
10
13.700900
20
3.834960
11
13.700900
21
4.111670
0
LINE
8
Layer 1
10
13.700900
20
4.111670
11
13.930300
21
4.111670
0
LINE
8
Layer 1
10
13.930300
20
4.111670
11
13.930300
21
5.099480
0
LINE
8
Layer 1
10
13.930300
20
5.099480
11
13.700900
21
5.099480
0
LINE
8
Layer 1
10
13.700900
20
5.099480
11
13.700900
21
6.513090
0
LINE
8
Layer 1
10
13.700900
20
6.513090
11
13.930300
21
6.513090
0
LINE
8
Layer 1
10
13.930300
20
6.513090
11
13.930300
21
7.500900
0
LINE
8
Layer 1
10
13.930300
20
7.500900
11
13.700900
21
7.500900
0
LINE
8
Layer 1
10
13.700900
20
7.500900
11
13.700900
21
7.777600
0
LINE
8
Layer 1
10
13.700900
20
7.777600
11
9.758270
21
7.777600
0
LINE
8
Layer 1
10
9.758270
20
7.777600
11
9.758270
21
7.500900
0
LINE
8
Layer 1
10
9.758270
20
7.500900
11
9.528880
21
7.500900
0
LINE
8
Layer 1
10
9.528880
20
7.500900
11
9.528880
21
6.513090
0
LINE
8
Layer 1
10
9.528880
20
6.513090
11
9.758270
21
6.513090
0
LINE
8
Layer 1
10
9.758270
20
6.513090
11
9.758270
21
5.099480
0
LINE
8
Layer 1
10
9.758270
20
5.099480
11
9.528880
21
5.099480
0
LINE
8
Layer 1
10
9.528880
20
5.099480
11
9.528880
21
4.111670
0
LINE
8
Layer 1
10
9.528880
20
4.111670
11
9.758270
21
4.111670
0
LINE
8
Layer 1
10
9.758270
20
4.111670
11
9.758270
21
3.834960
0
LINE
8
Layer 1
10
9.758270
20
3.834960
11
13.700900
21
3.834960
0
LINE
8
Layer 1
10
13.700900
20
-1.541370
11
13.700900
21
-1.264660
0
LINE
8
Layer 1
10
13.700900
20
-1.264660
11
13.930300
21
-1.264660
0
LINE
8
Layer 1
10
13.930300
20
-1.264660
11
13.930300
21
-0.276853
0
LINE
8
Layer 1
10
13.930300
20
-0.276853
11
13.700900
21
-0.276853
0
LINE
8
Layer 1
10
13.700900
20
-0.276853
11
13.700900
21
1.136760
0
LINE
8
Layer 1
10
13.700900
20
1.136760
11
13.930300
21
1.136760
0
LINE
8
Layer 1
10
13.930300
20
1.136760
11
13.930300
21
2.124570
0
LINE
8
Layer 1
10
13.930300
20
2.124570
11
13.700900
21
2.124570
0
LINE
8
Layer 1
10
13.700900
20
2.124570
11
13.700900
21
2.401280
0
LINE
8
Layer 1
10
13.700900
20
2.401280
11
9.758270
21
2.401280
0
LINE
8
Layer 1
10
9.758270
20
2.401280
11
9.758270
21
2.124570
0
LINE
8
Layer 1
10
9.758270
20
2.124570
11
9.528880
21
2.124570
0
LINE
8
Layer 1
10
9.528880
20
2.124570
11
9.528880
21
1.136760
0
LINE
8
Layer 1
10
9.528880
20
1.136760
11
9.758270
21
1.136760
0
LINE
8
Layer 1
10
9.758270
20
1.136760
11
9.758270
21
-0.276853
0
LINE
8
Layer 1
10
9.758270
20
-0.276853
11
9.528880
21
-0.276853
0
LINE
8
Layer 1
10
9.528880
20
-0.276853
11
9.528880
21
-1.264660
0
LINE
8
Layer 1
10
9.528880
20
-1.264660
11
9.758270
21
-1.264660
0
LINE
8
Layer 1
10
9.758270
20
-1.264660
11
9.758270
21
-1.541370
0
LINE
8
Layer 1
10
9.758270
20
-1.541370
11
13.700900
21
-1.541370
0
LINE
8
Layer 1
10
13.700900
20
-6.916980
11
13.700900
21
-6.640280
0
LINE
8
Layer 1
10
13.700900
20
-6.640280
11
13.930300
21
-6.640280
0
LINE
8
Layer 1
10
13.930300
20
-6.640280
11
13.930300
21
-5.652470
0
LINE
8
Layer 1
10
13.930300
20
-5.652470
11
13.700900
21
-5.652470
0
LINE
8
Layer 1
10
13.700900
20
-5.652470
11
13.700900
21
-4.238850
0
LINE
8
Layer 1
10
13.700900
20
-4.238850
11
13.930300
21
-4.238850
0
LINE
8
Layer 1
10
13.930300
20
-4.238850
11
13.930300
21
-3.251040
0
LINE
8
Layer 1
10
13.930300
20
-3.251040
11
13.700900
21
-3.251040
0
LINE
8
Layer 1
10
13.700900
20
-3.251040
11
13.700900
21
-2.974340
0
LINE
8
Layer 1
10
13.700900
20
-2.974340
11
9.758270
21
-2.974340
0
LINE
8
Layer 1
10
9.758270
20
-2.974340
11
9.758270
21
-3.251040
0
LINE
8
Layer 1
10
9.758270
20
-3.251040
11
9.528880
21
-3.251040
0
LINE
8
Layer 1
10
9.528880
20
-3.251040
11
9.528880
21
-4.238850
0
LINE
8
Layer 1
10
9.528880
20
-4.238850
11
9.758270
21
-4.238850
0
LINE
8
Layer 1
10
9.758270
20
-4.238850
11
9.758270
21
-5.652470
0
LINE
8
Layer 1
10
9.758270
20
-5.652470
11
9.528880
21
-5.652470
0
LINE
8
Layer 1
10
9.528880
20
-5.652470
11
9.528880
21
-6.640280
0
LINE
8
Layer 1
10
9.528880
20
-6.640280
11
9.758270
21
-6.640280
0
LINE
8
Layer 1
10
9.758270
20
-6.640280
11
9.758270
21
-6.916980
0
LINE
8
Layer 1
10
9.758270
20
-6.916980
11
13.700900
21
-6.916980
0
LINE
8
Layer 1
10
41.926600
20
-7.454610
11
41.926600
21
-7.177910
0
LINE
8
Layer 1
10
41.926600
20
-7.177910
11
42.156000
21
-7.177910
0
LINE
8
Layer 1
10
42.156000
20
-7.177910
11
42.156000
21
-6.190100
0
LINE
8
Layer 1
10
42.156000
20
-6.190100
11
41.926600
21
-6.190100
0
LINE
8
Layer 1
10
41.926600
20
-6.190100
11
41.926600
21
-4.776480
0
LINE
8
Layer 1
10
41.926600
20
-4.776480
11
42.156000
21
-4.776480
0
LINE
8
Layer 1
10
42.156000
20
-4.776480
11
42.156000
21
-3.788670
0
LINE
8
Layer 1
10
42.156000
20
-3.788670
11
41.926600
21
-3.788670
0
LINE
8
Layer 1
10
41.926600
20
-3.788670
11
41.926600
21
-3.511970
0
LINE
8
Layer 1
10
41.926600
20
-3.511970
11
37.984000
21
-3.511970
0
LINE
8
Layer 1
10
37.984000
20
-3.511970
11
37.984000
21
-3.788670
0
LINE
8
Layer 1
10
37.984000
20
-3.788670
11
37.754600
21
-3.788670
0
LINE
8
Layer 1
10
37.754600
20
-3.788670
11
37.754600
21
-4.776480
0
LINE
8
Layer 1
10
37.754600
20
-4.776480
11
37.984000
21
-4.776480
0
LINE
8
Layer 1
10
37.984000
20
-4.776480
11
37.984000
21
-6.190100
0
LINE
8
Layer 1
10
37.984000
20
-6.190100
11
37.754600
21
-6.190100
0
LINE
8
Layer 1
10
37.754600
20
-6.190100
11
37.754600
21
-7.177910
0
LINE
8
Layer 1
10
37.754600
20
-7.177910
11
37.984000
21
-7.177910
0
LINE
8
Layer 1
10
37.984000
20
-7.177910
11
37.984000
21
-7.454610
0
LINE
8
Layer 1
10
37.984000
20
-7.454610
11
41.926600
21
-7.454610
0
LINE
8
Layer 1
10
25.797700
20
-2.437420
11
25.797700
21
-2.160720
0
LINE
8
Layer 1
10
25.797700
20
-2.160720
11
26.027000
21
-2.160720
0
LINE
8
Layer 1
10
26.027000
20
-2.160720
11
26.027000
21
-1.172910
0
LINE
8
Layer 1
10
26.027000
20
-1.172910
11
25.797700
21
-1.172910
0
LINE
8
Layer 1
10
25.797700
20
-1.172910
11
25.797700
21
0.240708
0
LINE
8
Layer 1
10
25.797700
20
0.240708
11
26.027000
21
0.240708
0
LINE
8
Layer 1
10
26.027000
20
0.240708
11
26.027000
21
1.228520
0
LINE
8
Layer 1
10
26.027000
20
1.228520
11
25.797700
21
1.228520
0
LINE
8
Layer 1
10
25.797700
20
1.228520
11
25.797700
21
1.505220
0
LINE
8
Layer 1
10
25.797700
20
1.505220
11
21.855000
21
1.505220
0
LINE
8
Layer 1
10
21.855000
20
1.505220
11
21.855000
21
1.228520
0
LINE
8
Layer 1
10
21.855000
20
1.228520
11
21.625600
21
1.228520
0
LINE
8
Layer 1
10
21.625600
20
1.228520
11
21.625600
21
0.240708
0
LINE
8
Layer 1
10
21.625600
20
0.240708
11
21.855000
21
0.240708
0
LINE
8
Layer 1
10
21.855000
20
0.240708
11
21.855000
21
-1.172910
0
LINE
8
Layer 1
10
21.855000
20
-1.172910
11
21.625600
21
-1.172910
0
LINE
8
Layer 1
10
21.625600
20
-1.172910
11
21.625600
21
-2.160720
0
LINE
8
Layer 1
10
21.625600
20
-2.160720
11
21.855000
21
-2.160720
0
LINE
8
Layer 1
10
21.855000
20
-2.160720
11
21.855000
21
-2.437420
0
LINE
8
Layer 1
10
21.855000
20
-2.437420
11
25.797700
21
-2.437420
0
LINE
8
Layer 1
10
48.642000
20
24.234900
11
48.391105
21
24.117338
0
LINE
8
Layer 1
10
48.391105
20
24.117338
11
48.294331
21
24.325223
0
LINE
8
Layer 1
10
48.294331
20
24.325223
11
47.398993
21
23.908020
0
LINE
8
Layer 1
10
47.398993
20
23.908020
11
47.495767
21
23.700135
0
LINE
8
Layer 1
10
47.495767
20
23.700135
11
46.214767
21
23.103004
0
LINE
8
Layer 1
10
46.214767
20
23.103004
11
46.117993
21
23.310889
0
LINE
8
Layer 1
10
46.117993
20
23.310889
11
45.222655
21
22.892969
0
LINE
8
Layer 1
10
45.222655
20
22.892969
11
45.319429
21
22.685084
0
LINE
8
Layer 1
10
45.319429
20
22.685084
11
45.068534
21
22.568238
0
LINE
8
Layer 1
10
45.068534
20
22.568238
11
46.735194
21
18.994768
0
LINE
8
Layer 1
10
46.735194
20
18.994768
11
46.986089
21
19.112330
0
LINE
8
Layer 1
10
46.986089
20
19.112330
11
47.082863
21
18.904445
0
LINE
8
Layer 1
10
47.082863
20
18.904445
11
47.978201
21
19.321648
0
LINE
8
Layer 1
10
47.978201
20
19.321648
11
47.881427
21
19.529533
0
LINE
8
Layer 1
10
47.881427
20
19.529533
11
49.162427
21
20.126664
0
LINE
8
Layer 1
10
49.162427
20
20.126664
11
49.259201
21
19.918779
0
LINE
8
Layer 1
10
49.259201
20
19.918779
11
50.154539
21
20.336699
0
LINE
8
Layer 1
10
50.154539
20
20.336699
11
50.057765
21
20.544584
0
LINE
8
Layer 1
10
50.057765
20
20.544584
11
50.308660
21
20.661430
0
LINE
8
Layer 1
10
50.308660
20
20.661430
11
48.642000
21
24.234900
0
LINE
8
Layer 1
10
43.769600
20
21.962500
11
43.518705
21
21.844938
0
LINE
8
Layer 1
10
43.518705
20
21.844938
11
43.421931
21
22.052823
0
LINE
8
Layer 1
10
43.421931
20
22.052823
11
42.526593
21
21.635620
0
LINE
8
Layer 1
10
42.526593
20
21.635620
11
42.623367
21
21.427735
0
LINE
8
Layer 1
10
42.623367
20
21.427735
11
41.342367
21
20.830604
0
LINE
8
Layer 1
10
41.342367
20
20.830604
11
41.245593
21
21.038489
0
LINE
8
Layer 1
10
41.245593
20
21.038489
11
40.350255
21
20.620569
0
LINE
8
Layer 1
10
40.350255
20
20.620569
11
40.447029
21
20.412684
0
LINE
8
Layer 1
10
40.447029
20
20.412684
11
40.196134
21
20.295838
0
LINE
8
Layer 1
10
40.196134
20
20.295838
11
41.862794
21
16.722368
0
LINE
8
Layer 1
10
41.862794
20
16.722368
11
42.113689
21
16.839930
0
LINE
8
Layer 1
10
42.113689
20
16.839930
11
42.210463
21
16.632045
0
LINE
8
Layer 1
10
42.210463
20
16.632045
11
43.105801
21
17.049248
0
LINE
8
Layer 1
10
43.105801
20
17.049248
11
43.009027
21
17.257133
0
LINE
8
Layer 1
10
43.009027
20
17.257133
11
44.290027
21
17.854264
0
LINE
8
Layer 1
10
44.290027
20
17.854264
11
44.386801
21
17.646379
0
LINE
8
Layer 1
10
44.386801
20
17.646379
11
45.282139
21
18.064299
0
LINE
8
Layer 1
10
45.282139
20
18.064299
11
45.185365
21
18.272184
0
LINE
8
Layer 1
10
45.185365
20
18.272184
11
45.436260
21
18.389030
0
LINE
8
Layer 1
10
45.436260
20
18.389030
11
43.769600
21
21.962500
0
LINE
8
Layer 1
10
36.550300
20
13.691600
11
36.550300
21
13.968300
0
LINE
8
Layer 1
10
36.550300
20
13.968300
11
36.779700
21
13.968300
0
LINE
8
Layer 1
10
36.779700
20
13.968300
11
36.779700
21
14.956100
0
LINE
8
Layer 1
10
36.779700
20
14.956100
11
36.550300
21
14.956100
0
LINE
8
Layer 1
10
36.550300
20
14.956100
11
36.550300
21
16.369700
0
LINE
8
Layer 1
10
36.550300
20
16.369700
11
36.779700
21
16.369700
0
LINE
8
Layer 1
10
36.779700
20
16.369700
11
36.779700
21
17.357500
0
LINE
8
Layer 1
10
36.779700
20
17.357500
11
36.550300
21
17.357500
0
LINE
8
Layer 1
10
36.550300
20
17.357500
11
36.550300
21
17.634200
0
LINE
8
Layer 1
10
36.550300
20
17.634200
11
32.607700
21
17.634200
0
LINE
8
Layer 1
10
32.607700
20
17.634200
11
32.607700
21
17.357500
0
LINE
8
Layer 1
10
32.607700
20
17.357500
11
32.378300
21
17.357500
0
LINE
8
Layer 1
10
32.378300
20
17.357500
11
32.378300
21
16.369700
0
LINE
8
Layer 1
10
32.378300
20
16.369700
11
32.607700
21
16.369700
0
LINE
8
Layer 1
10
32.607700
20
16.369700
11
32.607700
21
14.956100
0
LINE
8
Layer 1
10
32.607700
20
14.956100
11
32.378300
21
14.956100
0
LINE
8
Layer 1
10
32.378300
20
14.956100
11
32.378300
21
13.968300
0
LINE
8
Layer 1
10
32.378300
20
13.968300
11
32.607700
21
13.968300
0
LINE
8
Layer 1
10
32.607700
20
13.968300
11
32.607700
21
13.691600
0
LINE
8
Layer 1
10
32.607700
20
13.691600
11
36.550300
21
13.691600
0
LINE
8
Layer 1
10
31.174000
20
13.240700
11
31.174000
21
13.517400
0
LINE
8
Layer 1
10
31.174000
20
13.517400
11
31.403400
21
13.517400
0
LINE
8
Layer 1
10
31.403400
20
13.517400
11
31.403400
21
14.505200
0
LINE
8
Layer 1
10
31.403400
20
14.505200
11
31.174000
21
14.505200
0
LINE
8
Layer 1
10
31.174000
20
14.505200
11
31.174000
21
15.918800
0
LINE
8
Layer 1
10
31.174000
20
15.918800
11
31.403400
21
15.918800
0
LINE
8
Layer 1
10
31.403400
20
15.918800
11
31.403400
21
16.906600
0
LINE
8
Layer 1
10
31.403400
20
16.906600
11
31.174000
21
16.906600
0
LINE
8
Layer 1
10
31.174000
20
16.906600
11
31.174000
21
17.183300
0
LINE
8
Layer 1
10
31.174000
20
17.183300
11
27.231300
21
17.183300
0
LINE
8
Layer 1
10
27.231300
20
17.183300
11
27.231300
21
16.906600
0
LINE
8
Layer 1
10
27.231300
20
16.906600
11
27.002000
21
16.906600
0
LINE
8
Layer 1
10
27.002000
20
16.906600
11
27.002000
21
15.918800
0
LINE
8
Layer 1
10
27.002000
20
15.918800
11
27.231300
21
15.918800
0
LINE
8
Layer 1
10
27.231300
20
15.918800
11
27.231300
21
14.505200
0
LINE
8
Layer 1
10
27.231300
20
14.505200
11
27.002000
21
14.505200
0
LINE
8
Layer 1
10
27.002000
20
14.505200
11
27.002000
21
13.517400
0
LINE
8
Layer 1
10
27.002000
20
13.517400
11
27.231300
21
13.517400
0
LINE
8
Layer 1
10
27.231300
20
13.517400
11
27.231300
21
13.240700
0
LINE
8
Layer 1
10
27.231300
20
13.240700
11
31.174000
21
13.240700
0
LINE
8
Layer 1
10
20.421300
20
14.587600
11
20.421300
21
14.864300
0
LINE
8
Layer 1
10
20.421300
20
14.864300
11
20.650700
21
14.864300
0
LINE
8
Layer 1
10
20.650700
20
14.864300
11
20.650700
21
15.852100
0
LINE
8
Layer 1
10
20.650700
20
15.852100
11
20.421300
21
15.852100
0
LINE
8
Layer 1
10
20.421300
20
15.852100
11
20.421300
21
17.265700
0
LINE
8
Layer 1
10
20.421300
20
17.265700
11
20.650700
21
17.265700
0
LINE
8
Layer 1
10
20.650700
20
17.265700
11
20.650700
21
18.253600
0
LINE
8
Layer 1
10
20.650700
20
18.253600
11
20.421300
21
18.253600
0
LINE
8
Layer 1
10
20.421300
20
18.253600
11
20.421300
21
18.530300
0
LINE
8
Layer 1
10
20.421300
20
18.530300
11
16.478700
21
18.530300
0
LINE
8
Layer 1
10
16.478700
20
18.530300
11
16.478700
21
18.253600
0
LINE
8
Layer 1
10
16.478700
20
18.253600
11
16.249300
21
18.253600
0
LINE
8
Layer 1
10
16.249300
20
18.253600
11
16.249300
21
17.265700
0
LINE
8
Layer 1
10
16.249300
20
17.265700
11
16.478700
21
17.265700
0
LINE
8
Layer 1
10
16.478700
20
17.265700
11
16.478700
21
15.852100
0
LINE
8
Layer 1
10
16.478700
20
15.852100
11
16.249300
21
15.852100
0
LINE
8
Layer 1
10
16.249300
20
15.852100
11
16.249300
21
14.864300
0
LINE
8
Layer 1
10
16.249300
20
14.864300
11
16.478700
21
14.864300
0
LINE
8
Layer 1
10
16.478700
20
14.864300
11
16.478700
21
14.587600
0
LINE
8
Layer 1
10
16.478700
20
14.587600
11
20.421300
21
14.587600
0
LINE
8
Layer 1
10
41.926600
20
8.673660
11
41.926600
21
8.950360
0
LINE
8
Layer 1
10
41.926600
20
8.950360
11
42.156000
21
8.950360
0
LINE
8
Layer 1
10
42.156000
20
8.950360
11
42.156000
21
9.938170
0
LINE
8
Layer 1
10
42.156000
20
9.938170
11
41.926600
21
9.938170
0
LINE
8
Layer 1
10
41.926600
20
9.938170
11
41.926600
21
11.351800
0
LINE
8
Layer 1
10
41.926600
20
11.351800
11
42.156000
21
11.351800
0
LINE
8
Layer 1
10
42.156000
20
11.351800
11
42.156000
21
12.339600
0
LINE
8
Layer 1
10
42.156000
20
12.339600
11
41.926600
21
12.339600
0
LINE
8
Layer 1
10
41.926600
20
12.339600
11
41.926600
21
12.616300
0
LINE
8
Layer 1
10
41.926600
20
12.616300
11
37.984000
21
12.616300
0
LINE
8
Layer 1
10
37.984000
20
12.616300
11
37.984000
21
12.339600
0
LINE
8
Layer 1
10
37.984000
20
12.339600
11
37.754600
21
12.339600
0
LINE
8
Layer 1
10
37.754600
20
12.339600
11
37.754600
21
11.351800
0
LINE
8
Layer 1
10
37.754600
20
11.351800
11
37.984000
21
11.351800
0
LINE
8
Layer 1
10
37.984000
20
11.351800
11
37.984000
21
9.938170
0
LINE
8
Layer 1
10
37.984000
20
9.938170
11
37.754600
21
9.938170
0
LINE
8
Layer 1
10
37.754600
20
9.938170
11
37.754600
21
8.950360
0
LINE
8
Layer 1
10
37.754600
20
8.950360
11
37.984000
21
8.950360
0
LINE
8
Layer 1
10
37.984000
20
8.950360
11
37.984000
21
8.673660
0
LINE
8
Layer 1
10
37.984000
20
8.673660
11
41.926600
21
8.673660
0
LINE
8
Layer 1
10
36.550300
20
8.315240
11
36.550300
21
8.591940
0
LINE
8
Layer 1
10
36.550300
20
8.591940
11
36.779700
21
8.591940
0
LINE
8
Layer 1
10
36.779700
20
8.591940
11
36.779700
21
9.579750
0
LINE
8
Layer 1
10
36.779700
20
9.579750
11
36.550300
21
9.579750
0
LINE
8
Layer 1
10
36.550300
20
9.579750
11
36.550300
21
10.993400
0
LINE
8
Layer 1
10
36.550300
20
10.993400
11
36.779700
21
10.993400
0
LINE
8
Layer 1
10
36.779700
20
10.993400
11
36.779700
21
11.981200
0
LINE
8
Layer 1
10
36.779700
20
11.981200
11
36.550300
21
11.981200
0
LINE
8
Layer 1
10
36.550300
20
11.981200
11
36.550300
21
12.257900
0
LINE
8
Layer 1
10
36.550300
20
12.257900
11
32.607700
21
12.257900
0
LINE
8
Layer 1
10
32.607700
20
12.257900
11
32.607700
21
11.981200
0
LINE
8
Layer 1
10
32.607700
20
11.981200
11
32.378300
21
11.981200
0
LINE
8
Layer 1
10
32.378300
20
11.981200
11
32.378300
21
10.993400
0
LINE
8
Layer 1
10
32.378300
20
10.993400
11
32.607700
21
10.993400
0
LINE
8
Layer 1
10
32.607700
20
10.993400
11
32.607700
21
9.579750
0
LINE
8
Layer 1
10
32.607700
20
9.579750
11
32.378300
21
9.579750
0
LINE
8
Layer 1
10
32.378300
20
9.579750
11
32.378300
21
8.591940
0
LINE
8
Layer 1
10
32.378300
20
8.591940
11
32.607700
21
8.591940
0
LINE
8
Layer 1
10
32.607700
20
8.591940
11
32.607700
21
8.315240
0
LINE
8
Layer 1
10
32.607700
20
8.315240
11
36.550300
21
8.315240
0
LINE
8
Layer 1
10
31.174000
20
7.864340
11
31.174000
21
8.141040
0
LINE
8
Layer 1
10
31.174000
20
8.141040
11
31.403400
21
8.141040
0
LINE
8
Layer 1
10
31.403400
20
8.141040
11
31.403400
21
9.128850
0
LINE
8
Layer 1
10
31.403400
20
9.128850
11
31.174000
21
9.128850
0
LINE
8
Layer 1
10
31.174000
20
9.128850
11
31.174000
21
10.542500
0
LINE
8
Layer 1
10
31.174000
20
10.542500
11
31.403400
21
10.542500
0
LINE
8
Layer 1
10
31.403400
20
10.542500
11
31.403400
21
11.530300
0
LINE
8
Layer 1
10
31.403400
20
11.530300
11
31.174000
21
11.530300
0
LINE
8
Layer 1
10
31.174000
20
11.530300
11
31.174000
21
11.807000
0
LINE
8
Layer 1
10
31.174000
20
11.807000
11
27.231300
21
11.807000
0
LINE
8
Layer 1
10
27.231300
20
11.807000
11
27.231300
21
11.530300
0
LINE
8
Layer 1
10
27.231300
20
11.530300
11
27.002000
21
11.530300
0
LINE
8
Layer 1
10
27.002000
20
11.530300
11
27.002000
21
10.542500
0
LINE
8
Layer 1
10
27.002000
20
10.542500
11
27.231300
21
10.542500
0
LINE
8
Layer 1
10
27.231300
20
10.542500
11
27.231300
21
9.128850
0
LINE
8
Layer 1
10
27.231300
20
9.128850
11
27.002000
21
9.128850
0
LINE
8
Layer 1
10
27.002000
20
9.128850
11
27.002000
21
8.141040
0
LINE
8
Layer 1
10
27.002000
20
8.141040
11
27.231300
21
8.141040
0
LINE
8
Layer 1
10
27.231300
20
8.141040
11
27.231300
21
7.864340
0
LINE
8
Layer 1
10
27.231300
20
7.864340
11
31.174000
21
7.864340
0
LINE
8
Layer 1
10
25.797700
20
8.315240
11
25.797700
21
8.591940
0
LINE
8
Layer 1
10
25.797700
20
8.591940
11
26.027000
21
8.591940
0
LINE
8
Layer 1
10
26.027000
20
8.591940
11
26.027000
21
9.579750
0
LINE
8
Layer 1
10
26.027000
20
9.579750
11
25.797700
21
9.579750
0
LINE
8
Layer 1
10
25.797700
20
9.579750
11
25.797700
21
10.993400
0
LINE
8
Layer 1
10
25.797700
20
10.993400
11
26.027000
21
10.993400
0
LINE
8
Layer 1
10
26.027000
20
10.993400
11
26.027000
21
11.981200
0
LINE
8
Layer 1
10
26.027000
20
11.981200
11
25.797700
21
11.981200
0
LINE
8
Layer 1
10
25.797700
20
11.981200
11
25.797700
21
12.257900
0
LINE
8
Layer 1
10
25.797700
20
12.257900
11
21.855000
21
12.257900
0
LINE
8
Layer 1
10
21.855000
20
12.257900
11
21.855000
21
11.981200
0
LINE
8
Layer 1
10
21.855000
20
11.981200
11
21.625600
21
11.981200
0
LINE
8
Layer 1
10
21.625600
20
11.981200
11
21.625600
21
10.993400
0
LINE
8
Layer 1
10
21.625600
20
10.993400
11
21.855000
21
10.993400
0
LINE
8
Layer 1
10
21.855000
20
10.993400
11
21.855000
21
9.579750
0
LINE
8
Layer 1
10
21.855000
20
9.579750
11
21.625600
21
9.579750
0
LINE
8
Layer 1
10
21.625600
20
9.579750
11
21.625600
21
8.591940
0
LINE
8
Layer 1
10
21.625600
20
8.591940
11
21.855000
21
8.591940
0
LINE
8
Layer 1
10
21.855000
20
8.591940
11
21.855000
21
8.315240
0
LINE
8
Layer 1
10
21.855000
20
8.315240
11
25.797700
21
8.315240
0
LINE
8
Layer 1
10
20.421300
20
9.211290
11
20.421300
21
9.487990
0
LINE
8
Layer 1
10
20.421300
20
9.487990
11
20.650700
21
9.487990
0
LINE
8
Layer 1
10
20.650700
20
9.487990
11
20.650700
21
10.475800
0
LINE
8
Layer 1
10
20.650700
20
10.475800
11
20.421300
21
10.475800
0
LINE
8
Layer 1
10
20.421300
20
10.475800
11
20.421300
21
11.889400
0
LINE
8
Layer 1
10
20.421300
20
11.889400
11
20.650700
21
11.889400
0
LINE
8
Layer 1
10
20.650700
20
11.889400
11
20.650700
21
12.877200
0
LINE
8
Layer 1
10
20.650700
20
12.877200
11
20.421300
21
12.877200
0
LINE
8
Layer 1
10
20.421300
20
12.877200
11
20.421300
21
13.153900
0
LINE
8
Layer 1
10
20.421300
20
13.153900
11
16.478700
21
13.153900
0
LINE
8
Layer 1
10
16.478700
20
13.153900
11
16.478700
21
12.877200
0
LINE
8
Layer 1
10
16.478700
20
12.877200
11
16.249300
21
12.877200
0
LINE
8
Layer 1
10
16.249300
20
12.877200
11
16.249300
21
11.889400
0
LINE
8
Layer 1
10
16.249300
20
11.889400
11
16.478700
21
11.889400
0
LINE
8
Layer 1
10
16.478700
20
11.889400
11
16.478700
21
10.475800
0
LINE
8
Layer 1
10
16.478700
20
10.475800
11
16.249300
21
10.475800
0
LINE
8
Layer 1
10
16.249300
20
10.475800
11
16.249300
21
9.487990
0
LINE
8
Layer 1
10
16.249300
20
9.487990
11
16.478700
21
9.487990
0
LINE
8
Layer 1
10
16.478700
20
9.487990
11
16.478700
21
9.211290
0
LINE
8
Layer 1
10
16.478700
20
9.211290
11
20.421300
21
9.211290
0
LINE
8
Layer 1
10
41.926600
20
3.297330
11
41.926600
21
3.574030
0
LINE
8
Layer 1
10
41.926600
20
3.574030
11
42.156000
21
3.574030
0
LINE
8
Layer 1
10
42.156000
20
3.574030
11
42.156000
21
4.561840
0
LINE
8
Layer 1
10
42.156000
20
4.561840
11
41.926600
21
4.561840
0
LINE
8
Layer 1
10
41.926600
20
4.561840
11
41.926600
21
5.975460
0
LINE
8
Layer 1
10
41.926600
20
5.975460
11
42.156000
21
5.975460
0
LINE
8
Layer 1
10
42.156000
20
5.975460
11
42.156000
21
6.963270
0
LINE
8
Layer 1
10
42.156000
20
6.963270
11
41.926600
21
6.963270
0
LINE
8
Layer 1
10
41.926600
20
6.963270
11
41.926600
21
7.239970
0
LINE
8
Layer 1
10
41.926600
20
7.239970
11
37.984000
21
7.239970
0
LINE
8
Layer 1
10
37.984000
20
7.239970
11
37.984000
21
6.963270
0
LINE
8
Layer 1
10
37.984000
20
6.963270
11
37.754600
21
6.963270
0
LINE
8
Layer 1
10
37.754600
20
6.963270
11
37.754600
21
5.975460
0
LINE
8
Layer 1
10
37.754600
20
5.975460
11
37.984000
21
5.975460
0
LINE
8
Layer 1
10
37.984000
20
5.975460
11
37.984000
21
4.561840
0
LINE
8
Layer 1
10
37.984000
20
4.561840
11
37.754600
21
4.561840
0
LINE
8
Layer 1
10
37.754600
20
4.561840
11
37.754600
21
3.574030
0
LINE
8
Layer 1
10
37.754600
20
3.574030
11
37.984000
21
3.574030
0
LINE
8
Layer 1
10
37.984000
20
3.574030
11
37.984000
21
3.297330
0
LINE
8
Layer 1
10
37.984000
20
3.297330
11
41.926600
21
3.297330
0
LINE
8
Layer 1
10
36.550300
20
2.938910
11
36.550300
21
3.215610
0
LINE
8
Layer 1
10
36.550300
20
3.215610
11
36.779700
21
3.215610
0
LINE
8
Layer 1
10
36.779700
20
3.215610
11
36.779700
21
4.203420
0
LINE
8
Layer 1
10
36.779700
20
4.203420
11
36.550300
21
4.203420
0
LINE
8
Layer 1
10
36.550300
20
4.203420
11
36.550300
21
5.617040
0
LINE
8
Layer 1
10
36.550300
20
5.617040
11
36.779700
21
5.617040
0
LINE
8
Layer 1
10
36.779700
20
5.617040
11
36.779700
21
6.604850
0
LINE
8
Layer 1
10
36.779700
20
6.604850
11
36.550300
21
6.604850
0
LINE
8
Layer 1
10
36.550300
20
6.604850
11
36.550300
21
6.881550
0
LINE
8
Layer 1
10
36.550300
20
6.881550
11
32.607700
21
6.881550
0
LINE
8
Layer 1
10
32.607700
20
6.881550
11
32.607700
21
6.604850
0
LINE
8
Layer 1
10
32.607700
20
6.604850
11
32.378300
21
6.604850
0
LINE
8
Layer 1
10
32.378300
20
6.604850
11
32.378300
21
5.617040
0
LINE
8
Layer 1
10
32.378300
20
5.617040
11
32.607700
21
5.617040
0
LINE
8
Layer 1
10
32.607700
20
5.617040
11
32.607700
21
4.203420
0
LINE
8
Layer 1
10
32.607700
20
4.203420
11
32.378300
21
4.203420
0
LINE
8
Layer 1
10
32.378300
20
4.203420
11
32.378300
21
3.215610
0
LINE
8
Layer 1
10
32.378300
20
3.215610
11
32.607700
21
3.215610
0
LINE
8
Layer 1
10
32.607700
20
3.215610
11
32.607700
21
2.938910
0
LINE
8
Layer 1
10
32.607700
20
2.938910
11
36.550300
21
2.938910
0
LINE
8
Layer 1
10
31.174000
20
2.488010
11
31.174000
21
2.764720
0
LINE
8
Layer 1
10
31.174000
20
2.764720
11
31.403400
21
2.764720
0
LINE
8
Layer 1
10
31.403400
20
2.764720
11
31.403400
21
3.752530
0
LINE
8
Layer 1
10
31.403400
20
3.752530
11
31.174000
21
3.752530
0
LINE
8
Layer 1
10
31.174000
20
3.752530
11
31.174000
21
5.166140
0
LINE
8
Layer 1
10
31.174000
20
5.166140
11
31.403400
21
5.166140
0
LINE
8
Layer 1
10
31.403400
20
5.166140
11
31.403400
21
6.153950
0
LINE
8
Layer 1
10
31.403400
20
6.153950
11
31.174000
21
6.153950
0
LINE
8
Layer 1
10
31.174000
20
6.153950
11
31.174000
21
6.430650
0
LINE
8
Layer 1
10
31.174000
20
6.430650
11
27.231300
21
6.430650
0
LINE
8
Layer 1
10
27.231300
20
6.430650
11
27.231300
21
6.153950
0
LINE
8
Layer 1
10
27.231300
20
6.153950
11
27.002000
21
6.153950
0
LINE
8
Layer 1
10
27.002000
20
6.153950
11
27.002000
21
5.166140
0
LINE
8
Layer 1
10
27.002000
20
5.166140
11
27.231300
21
5.166140
0
LINE
8
Layer 1
10
27.231300
20
5.166140
11
27.231300
21
3.752530
0
LINE
8
Layer 1
10
27.231300
20
3.752530
11
27.002000
21
3.752530
0
LINE
8
Layer 1
10
27.002000
20
3.752530
11
27.002000
21
2.764720
0
LINE
8
Layer 1
10
27.002000
20
2.764720
11
27.231300
21
2.764720
0
LINE
8
Layer 1
10
27.231300
20
2.764720
11
27.231300
21
2.488010
0
LINE
8
Layer 1
10
27.231300
20
2.488010
11
31.174000
21
2.488010
0
LINE
8
Layer 1
10
25.797700
20
2.938910
11
25.797700
21
3.215610
0
LINE
8
Layer 1
10
25.797700
20
3.215610
11
26.027000
21
3.215610
0
LINE
8
Layer 1
10
26.027000
20
3.215610
11
26.027000
21
4.203420
0
LINE
8
Layer 1
10
26.027000
20
4.203420
11
25.797700
21
4.203420
0
LINE
8
Layer 1
10
25.797700
20
4.203420
11
25.797700
21
5.617040
0
LINE
8
Layer 1
10
25.797700
20
5.617040
11
26.027000
21
5.617040
0
LINE
8
Layer 1
10
26.027000
20
5.617040
11
26.027000
21
6.604850
0
LINE
8
Layer 1
10
26.027000
20
6.604850
11
25.797700
21
6.604850
0
LINE
8
Layer 1
10
25.797700
20
6.604850
11
25.797700
21
6.881550
0
LINE
8
Layer 1
10
25.797700
20
6.881550
11
21.855000
21
6.881550
0
LINE
8
Layer 1
10
21.855000
20
6.881550
11
21.855000
21
6.604850
0
LINE
8
Layer 1
10
21.855000
20
6.604850
11
21.625600
21
6.604850
0
LINE
8
Layer 1
10
21.625600
20
6.604850
11
21.625600
21
5.617040
0
LINE
8
Layer 1
10
21.625600
20
5.617040
11
21.855000
21
5.617040
0
LINE
8
Layer 1
10
21.855000
20
5.617040
11
21.855000
21
4.203420
0
LINE
8
Layer 1
10
21.855000
20
4.203420
11
21.625600
21
4.203420
0
LINE
8
Layer 1
10
21.625600
20
4.203420
11
21.625600
21
3.215610
0
LINE
8
Layer 1
10
21.625600
20
3.215610
11
21.855000
21
3.215610
0
LINE
8
Layer 1
10
21.855000
20
3.215610
11
21.855000
21
2.938910
0
LINE
8
Layer 1
10
21.855000
20
2.938910
11
25.797700
21
2.938910
0
LINE
8
Layer 1
10
20.421300
20
3.834960
11
20.421300
21
4.111670
0
LINE
8
Layer 1
10
20.421300
20
4.111670
11
20.650700
21
4.111670
0
LINE
8
Layer 1
10
20.650700
20
4.111670
11
20.650700
21
5.099480
0
LINE
8
Layer 1
10
20.650700
20
5.099480
11
20.421300
21
5.099480
0
LINE
8
Layer 1
10
20.421300
20
5.099480
11
20.421300
21
6.513090
0
LINE
8
Layer 1
10
20.421300
20
6.513090
11
20.650700
21
6.513090
0
LINE
8
Layer 1
10
20.650700
20
6.513090
11
20.650700
21
7.500900
0
LINE
8
Layer 1
10
20.650700
20
7.500900
11
20.421300
21
7.500900
0
LINE
8
Layer 1
10
20.421300
20
7.500900
11
20.421300
21
7.777600
0
LINE
8
Layer 1
10
20.421300
20
7.777600
11
16.478700
21
7.777600
0
LINE
8
Layer 1
10
16.478700
20
7.777600
11
16.478700
21
7.500900
0
LINE
8
Layer 1
10
16.478700
20
7.500900
11
16.249300
21
7.500900
0
LINE
8
Layer 1
10
16.249300
20
7.500900
11
16.249300
21
6.513090
0
LINE
8
Layer 1
10
16.249300
20
6.513090
11
16.478700
21
6.513090
0
LINE
8
Layer 1
10
16.478700
20
6.513090
11
16.478700
21
5.099480
0
LINE
8
Layer 1
10
16.478700
20
5.099480
11
16.249300
21
5.099480
0
LINE
8
Layer 1
10
16.249300
20
5.099480
11
16.249300
21
4.111670
0
LINE
8
Layer 1
10
16.249300
20
4.111670
11
16.478700
21
4.111670
0
LINE
8
Layer 1
10
16.478700
20
4.111670
11
16.478700
21
3.834960
0
LINE
8
Layer 1
10
16.478700
20
3.834960
11
20.421300
21
3.834960
0
LINE
8
Layer 1
10
36.550300
20
-2.437420
11
36.550300
21
-2.160720
0
LINE
8
Layer 1
10
36.550300
20
-2.160720
11
36.779700
21
-2.160720
0
LINE
8
Layer 1
10
36.779700
20
-2.160720
11
36.779700
21
-1.172910
0
LINE
8
Layer 1
10
36.779700
20
-1.172910
11
36.550300
21
-1.172910
0
LINE
8
Layer 1
10
36.550300
20
-1.172910
11
36.550300
21
0.240708
0
LINE
8
Layer 1
10
36.550300
20
0.240708
11
36.779700
21
0.240708
0
LINE
8
Layer 1
10
36.779700
20
0.240708
11
36.779700
21
1.228520
0
LINE
8
Layer 1
10
36.779700
20
1.228520
11
36.550300
21
1.228520
0
LINE
8
Layer 1
10
36.550300
20
1.228520
11
36.550300
21
1.505220
0
LINE
8
Layer 1
10
36.550300
20
1.505220
11
32.607700
21
1.505220
0
LINE
8
Layer 1
10
32.607700
20
1.505220
11
32.607700
21
1.228520
0
LINE
8
Layer 1
10
32.607700
20
1.228520
11
32.378300
21
1.228520
0
LINE
8
Layer 1
10
32.378300
20
1.228520
11
32.378300
21
0.240708
0
LINE
8
Layer 1
10
32.378300
20
0.240708
11
32.607700
21
0.240708
0
LINE
8
Layer 1
10
32.607700
20
0.240708
11
32.607700
21
-1.172910
0
LINE
8
Layer 1
10
32.607700
20
-1.172910
11
32.378300
21
-1.172910
0
LINE
8
Layer 1
10
32.378300
20
-1.172910
11
32.378300
21
-2.160720
0
LINE
8
Layer 1
10
32.378300
20
-2.160720
11
32.607700
21
-2.160720
0
LINE
8
Layer 1
10
32.607700
20
-2.160720
11
32.607700
21
-2.437420
0
LINE
8
Layer 1
10
32.607700
20
-2.437420
11
36.550300
21
-2.437420
0
LINE
8
Layer 1
10
31.174000
20
-2.888320
11
31.174000
21
-2.611610
0
LINE
8
Layer 1
10
31.174000
20
-2.611610
11
31.403400
21
-2.611610
0
LINE
8
Layer 1
10
31.403400
20
-2.611610
11
31.403400
21
-1.623800
0
LINE
8
Layer 1
10
31.403400
20
-1.623800
11
31.174000
21
-1.623800
0
LINE
8
Layer 1
10
31.174000
20
-1.623800
11
31.174000
21
-0.210186
0
LINE
8
Layer 1
10
31.174000
20
-0.210186
11
31.403400
21
-0.210186
0
LINE
8
Layer 1
10
31.403400
20
-0.210186
11
31.403400
21
0.777624
0
LINE
8
Layer 1
10
31.403400
20
0.777624
11
31.174000
21
0.777624
0
LINE
8
Layer 1
10
31.174000
20
0.777624
11
31.174000
21
1.054330
0
LINE
8
Layer 1
10
31.174000
20
1.054330
11
27.231300
21
1.054330
0
LINE
8
Layer 1
10
27.231300
20
1.054330
11
27.231300
21
0.777624
0
LINE
8
Layer 1
10
27.231300
20
0.777624
11
27.002000
21
0.777624
0
LINE
8
Layer 1
10
27.002000
20
0.777624
11
27.002000
21
-0.210186
0
LINE
8
Layer 1
10
27.002000
20
-0.210186
11
27.231300
21
-0.210186
0
LINE
8
Layer 1
10
27.231300
20
-0.210186
11
27.231300
21
-1.623800
0
LINE
8
Layer 1
10
27.231300
20
-1.623800
11
27.002000
21
-1.623800
0
LINE
8
Layer 1
10
27.002000
20
-1.623800
11
27.002000
21
-2.611610
0
LINE
8
Layer 1
10
27.002000
20
-2.611610
11
27.231300
21
-2.611610
0
LINE
8
Layer 1
10
27.231300
20
-2.611610
11
27.231300
21
-2.888320
0
LINE
8
Layer 1
10
27.231300
20
-2.888320
11
31.174000
21
-2.888320
0
LINE
8
Layer 1
10
20.421300
20
-1.541370
11
20.421300
21
-1.264660
0
LINE
8
Layer 1
10
20.421300
20
-1.264660
11
20.650700
21
-1.264660
0
LINE
8
Layer 1
10
20.650700
20
-1.264660
11
20.650700
21
-0.276853
0
LINE
8
Layer 1
10
20.650700
20
-0.276853
11
20.421300
21
-0.276853
0
LINE
8
Layer 1
10
20.421300
20
-0.276853
11
20.421300
21
1.136760
0
LINE
8
Layer 1
10
20.421300
20
1.136760
11
20.650700
21
1.136760
0
LINE
8
Layer 1
10
20.650700
20
1.136760
11
20.650700
21
2.124570
0
LINE
8
Layer 1
10
20.650700
20
2.124570
11
20.421300
21
2.124570
0
LINE
8
Layer 1
10
20.421300
20
2.124570
11
20.421300
21
2.401280
0
LINE
8
Layer 1
10
20.421300
20
2.401280
11
16.478700
21
2.401280
0
LINE
8
Layer 1
10
16.478700
20
2.401280
11
16.478700
21
2.124570
0
LINE
8
Layer 1
10
16.478700
20
2.124570
11
16.249300
21
2.124570
0
LINE
8
Layer 1
10
16.249300
20
2.124570
11
16.249300
21
1.136760
0
LINE
8
Layer 1
10
16.249300
20
1.136760
11
16.478700
21
1.136760
0
LINE
8
Layer 1
10
16.478700
20
1.136760
11
16.478700
21
-0.276853
0
LINE
8
Layer 1
10
16.478700
20
-0.276853
11
16.249300
21
-0.276853
0
LINE
8
Layer 1
10
16.249300
20
-0.276853
11
16.249300
21
-1.264660
0
LINE
8
Layer 1
10
16.249300
20
-1.264660
11
16.478700
21
-1.264660
0
LINE
8
Layer 1
10
16.478700
20
-1.264660
11
16.478700
21
-1.541370
0
LINE
8
Layer 1
10
16.478700
20
-1.541370
11
20.421300
21
-1.541370
0
LINE
8
Layer 1
10
25.797700
20
13.691600
11
25.797700
21
13.968300
0
LINE
8
Layer 1
10
25.797700
20
13.968300
11
26.027000
21
13.968300
0
LINE
8
Layer 1
10
26.027000
20
13.968300
11
26.027000
21
14.956100
0
LINE
8
Layer 1
10
26.027000
20
14.956100
11
25.797700
21
14.956100
0
LINE
8
Layer 1
10
25.797700
20
14.956100
11
25.797700
21
16.369700
0
LINE
8
Layer 1
10
25.797700
20
16.369700
11
26.027000
21
16.369700
0
LINE
8
Layer 1
10
26.027000
20
16.369700
11
26.027000
21
17.357500
0
LINE
8
Layer 1
10
26.027000
20
17.357500
11
25.797700
21
17.357500
0
LINE
8
Layer 1
10
25.797700
20
17.357500
11
25.797700
21
17.634200
0
LINE
8
Layer 1
10
25.797700
20
17.634200
11
21.855000
21
17.634200
0
LINE
8
Layer 1
10
21.855000
20
17.634200
11
21.855000
21
17.357500
0
LINE
8
Layer 1
10
21.855000
20
17.357500
11
21.625600
21
17.357500
0
LINE
8
Layer 1
10
21.625600
20
17.357500
11
21.625600
21
16.369700
0
LINE
8
Layer 1
10
21.625600
20
16.369700
11
21.855000
21
16.369700
0
LINE
8
Layer 1
10
21.855000
20
16.369700
11
21.855000
21
14.956100
0
LINE
8
Layer 1
10
21.855000
20
14.956100
11
21.625600
21
14.956100
0
LINE
8
Layer 1
10
21.625600
20
14.956100
11
21.625600
21
13.968300
0
LINE
8
Layer 1
10
21.625600
20
13.968300
11
21.855000
21
13.968300
0
LINE
8
Layer 1
10
21.855000
20
13.968300
11
21.855000
21
13.691600
0
LINE
8
Layer 1
10
21.855000
20
13.691600
11
25.797700
21
13.691600
0
LINE
8
Layer 1
10
36.550300
20
-7.813750
11
36.550300
21
-7.537050
0
LINE
8
Layer 1
10
36.550300
20
-7.537050
11
36.779700
21
-7.537050
0
LINE
8
Layer 1
10
36.779700
20
-7.537050
11
36.779700
21
-6.549240
0
LINE
8
Layer 1
10
36.779700
20
-6.549240
11
36.550300
21
-6.549240
0
LINE
8
Layer 1
10
36.550300
20
-6.549240
11
36.550300
21
-5.135620
0
LINE
8
Layer 1
10
36.550300
20
-5.135620
11
36.779700
21
-5.135620
0
LINE
8
Layer 1
10
36.779700
20
-5.135620
11
36.779700
21
-4.147810
0
LINE
8
Layer 1
10
36.779700
20
-4.147810
11
36.550300
21
-4.147810
0
LINE
8
Layer 1
10
36.550300
20
-4.147810
11
36.550300
21
-3.871110
0
LINE
8
Layer 1
10
36.550300
20
-3.871110
11
32.607700
21
-3.871110
0
LINE
8
Layer 1
10
32.607700
20
-3.871110
11
32.607700
21
-4.147810
0
LINE
8
Layer 1
10
32.607700
20
-4.147810
11
32.378300
21
-4.147810
0
LINE
8
Layer 1
10
32.378300
20
-4.147810
11
32.378300
21
-5.135620
0
LINE
8
Layer 1
10
32.378300
20
-5.135620
11
32.607700
21
-5.135620
0
LINE
8
Layer 1
10
32.607700
20
-5.135620
11
32.607700
21
-6.549240
0
LINE
8
Layer 1
10
32.607700
20
-6.549240
11
32.378300
21
-6.549240
0
LINE
8
Layer 1
10
32.378300
20
-6.549240
11
32.378300
21
-7.537050
0
LINE
8
Layer 1
10
32.378300
20
-7.537050
11
32.607700
21
-7.537050
0
LINE
8
Layer 1
10
32.607700
20
-7.537050
11
32.607700
21
-7.813750
0
LINE
8
Layer 1
10
32.607700
20
-7.813750
11
36.550300
21
-7.813750
0
LINE
8
Layer 1
10
31.174000
20
-8.264640
11
31.174000
21
-7.987940
0
LINE
8
Layer 1
10
31.174000
20
-7.987940
11
31.403400
21
-7.987940
0
LINE
8
Layer 1
10
31.403400
20
-7.987940
11
31.403400
21
-7.000130
0
LINE
8
Layer 1
10
31.403400
20
-7.000130
11
31.174000
21
-7.000130
0
LINE
8
Layer 1
10
31.174000
20
-7.000130
11
31.174000
21
-5.586520
0
LINE
8
Layer 1
10
31.174000
20
-5.586520
11
31.403400
21
-5.586520
0
LINE
8
Layer 1
10
31.403400
20
-5.586520
11
31.403400
21
-4.598700
0
LINE
8
Layer 1
10
31.403400
20
-4.598700
11
31.174000
21
-4.598700
0
LINE
8
Layer 1
10
31.174000
20
-4.598700
11
31.174000
21
-4.322000
0
LINE
8
Layer 1
10
31.174000
20
-4.322000
11
27.231300
21
-4.322000
0
LINE
8
Layer 1
10
27.231300
20
-4.322000
11
27.231300
21
-4.598700
0
LINE
8
Layer 1
10
27.231300
20
-4.598700
11
27.002000
21
-4.598700
0
LINE
8
Layer 1
10
27.002000
20
-4.598700
11
27.002000
21
-5.586520
0
LINE
8
Layer 1
10
27.002000
20
-5.586520
11
27.231300
21
-5.586520
0
LINE
8
Layer 1
10
27.231300
20
-5.586520
11
27.231300
21
-7.000130
0
LINE
8
Layer 1
10
27.231300
20
-7.000130
11
27.002000
21
-7.000130
0
LINE
8
Layer 1
10
27.002000
20
-7.000130
11
27.002000
21
-7.987940
0
LINE
8
Layer 1
10
27.002000
20
-7.987940
11
27.231300
21
-7.987940
0
LINE
8
Layer 1
10
27.231300
20
-7.987940
11
27.231300
21
-8.264640
0
LINE
8
Layer 1
10
27.231300
20
-8.264640
11
31.174000
21
-8.264640
0
LINE
8
Layer 1
10
25.797700
20
-7.813750
11
25.797700
21
-7.537050
0
LINE
8
Layer 1
10
25.797700
20
-7.537050
11
26.027000
21
-7.537050
0
LINE
8
Layer 1
10
26.027000
20
-7.537050
11
26.027000
21
-6.549240
0
LINE
8
Layer 1
10
26.027000
20
-6.549240
11
25.797700
21
-6.549240
0
LINE
8
Layer 1
10
25.797700
20
-6.549240
11
25.797700
21
-5.135620
0
LINE
8
Layer 1
10
25.797700
20
-5.135620
11
26.027000
21
-5.135620
0
LINE
8
Layer 1
10
26.027000
20
-5.135620
11
26.027000
21
-4.147810
0
LINE
8
Layer 1
10
26.027000
20
-4.147810
11
25.797700
21
-4.147810
0
LINE
8
Layer 1
10
25.797700
20
-4.147810
11
25.797700
21
-3.871110
0
LINE
8
Layer 1
10
25.797700
20
-3.871110
11
21.855000
21
-3.871110
0
LINE
8
Layer 1
10
21.855000
20
-3.871110
11
21.855000
21
-4.147810
0
LINE
8
Layer 1
10
21.855000
20
-4.147810
11
21.625600
21
-4.147810
0
LINE
8
Layer 1
10
21.625600
20
-4.147810
11
21.625600
21
-5.135620
0
LINE
8
Layer 1
10
21.625600
20
-5.135620
11
21.855000
21
-5.135620
0
LINE
8
Layer 1
10
21.855000
20
-5.135620
11
21.855000
21
-6.549240
0
LINE
8
Layer 1
10
21.855000
20
-6.549240
11
21.625600
21
-6.549240
0
LINE
8
Layer 1
10
21.625600
20
-6.549240
11
21.625600
21
-7.537050
0
LINE
8
Layer 1
10
21.625600
20
-7.537050
11
21.855000
21
-7.537050
0
LINE
8
Layer 1
10
21.855000
20
-7.537050
11
21.855000
21
-7.813750
0
LINE
8
Layer 1
10
21.855000
20
-7.813750
11
25.797700
21
-7.813750
0
LINE
8
Layer 1
10
20.421300
20
-6.916980
11
20.421300
21
-6.640280
0
LINE
8
Layer 1
10
20.421300
20
-6.640280
11
20.650700
21
-6.640280
0
LINE
8
Layer 1
10
20.650700
20
-6.640280
11
20.650700
21
-5.652470
0
LINE
8
Layer 1
10
20.650700
20
-5.652470
11
20.421300
21
-5.652470
0
LINE
8
Layer 1
10
20.421300
20
-5.652470
11
20.421300
21
-4.238850
0
LINE
8
Layer 1
10
20.421300
20
-4.238850
11
20.650700
21
-4.238850
0
LINE
8
Layer 1
10
20.650700
20
-4.238850
11
20.650700
21
-3.251040
0
LINE
8
Layer 1
10
20.650700
20
-3.251040
11
20.421300
21
-3.251040
0
LINE
8
Layer 1
10
20.421300
20
-3.251040
11
20.421300
21
-2.974340
0
LINE
8
Layer 1
10
20.421300
20
-2.974340
11
16.478700
21
-2.974340
0
LINE
8
Layer 1
10
16.478700
20
-2.974340
11
16.478700
21
-3.251040
0
LINE
8
Layer 1
10
16.478700
20
-3.251040
11
16.249300
21
-3.251040
0
LINE
8
Layer 1
10
16.249300
20
-3.251040
11
16.249300
21
-4.238850
0
LINE
8
Layer 1
10
16.249300
20
-4.238850
11
16.478700
21
-4.238850
0
LINE
8
Layer 1
10
16.478700
20
-4.238850
11
16.478700
21
-5.652470
0
LINE
8
Layer 1
10
16.478700
20
-5.652470
11
16.249300
21
-5.652470
0
LINE
8
Layer 1
10
16.249300
20
-5.652470
11
16.249300
21
-6.640280
0
LINE
8
Layer 1
10
16.249300
20
-6.640280
11
16.478700
21
-6.640280
0
LINE
8
Layer 1
10
16.478700
20
-6.640280
11
16.478700
21
-6.916980
0
LINE
8
Layer 1
10
16.478700
20
-6.916980
11
20.421300
21
-6.916980
0
LINE
8
Layer 1
10
53.716600
20
13.352500
11
53.599038
21
13.603395
0
LINE
8
Layer 1
10
53.599038
20
13.603395
11
53.806923
21
13.700169
0
LINE
8
Layer 1
10
53.806923
20
13.700169
11
53.389720
21
14.595507
0
LINE
8
Layer 1
10
53.389720
20
14.595507
11
53.181835
21
14.498733
0
LINE
8
Layer 1
10
53.181835
20
14.498733
11
52.584704
21
15.779733
0
LINE
8
Layer 1
10
52.584704
20
15.779733
11
52.792589
21
15.876507
0
LINE
8
Layer 1
10
52.792589
20
15.876507
11
52.374669
21
16.771845
0
LINE
8
Layer 1
10
52.374669
20
16.771845
11
52.166784
21
16.675071
0
LINE
8
Layer 1
10
52.166784
20
16.675071
11
52.049938
21
16.925966
0
LINE
8
Layer 1
10
52.049938
20
16.925966
11
48.476468
21
15.259306
0
LINE
8
Layer 1
10
48.476468
20
15.259306
11
48.594030
21
15.008411
0
LINE
8
Layer 1
10
48.594030
20
15.008411
11
48.386145
21
14.911637
0
LINE
8
Layer 1
10
48.386145
20
14.911637
11
48.803348
21
14.016299
0
LINE
8
Layer 1
10
48.803348
20
14.016299
11
49.011233
21
14.113073
0
LINE
8
Layer 1
10
49.011233
20
14.113073
11
49.608364
21
12.832073
0
LINE
8
Layer 1
10
49.608364
20
12.832073
11
49.400479
21
12.735299
0
LINE
8
Layer 1
10
49.400479
20
12.735299
11
49.818399
21
11.839961
0
LINE
8
Layer 1
10
49.818399
20
11.839961
11
50.026284
21
11.936735
0
LINE
8
Layer 1
10
50.026284
20
11.936735
11
50.143130
21
11.685840
0
LINE
8
Layer 1
10
50.143130
20
11.685840
11
53.716600
21
13.352500
0
LINE
8
Layer 1
10
58.589000
20
15.624200
11
58.471438
21
15.875095
0
LINE
8
Layer 1
10
58.471438
20
15.875095
11
58.679323
21
15.971869
0
LINE
8
Layer 1
10
58.679323
20
15.971869
11
58.262120
21
16.867207
0
LINE
8
Layer 1
10
58.262120
20
16.867207
11
58.054235
21
16.770433
0
LINE
8
Layer 1
10
58.054235
20
16.770433
11
57.457104
21
18.051433
0
LINE
8
Layer 1
10
57.457104
20
18.051433
11
57.664989
21
18.148207
0
LINE
8
Layer 1
10
57.664989
20
18.148207
11
57.247069
21
19.043545
0
LINE
8
Layer 1
10
57.247069
20
19.043545
11
57.039184
21
18.946771
0
LINE
8
Layer 1
10
57.039184
20
18.946771
11
56.922338
21
19.197666
0
LINE
8
Layer 1
10
56.922338
20
19.197666
11
53.348868
21
17.531006
0
LINE
8
Layer 1
10
53.348868
20
17.531006
11
53.466430
21
17.280111
0
LINE
8
Layer 1
10
53.466430
20
17.280111
11
53.258545
21
17.183337
0
LINE
8
Layer 1
10
53.258545
20
17.183337
11
53.675748
21
16.287999
0
LINE
8
Layer 1
10
53.675748
20
16.287999
11
53.883633
21
16.384773
0
LINE
8
Layer 1
10
53.883633
20
16.384773
11
54.480764
21
15.103773
0
LINE
8
Layer 1
10
54.480764
20
15.103773
11
54.272879
21
15.006999
0
LINE
8
Layer 1
10
54.272879
20
15.006999
11
54.690799
21
14.111661
0
LINE
8
Layer 1
10
54.690799
20
14.111661
11
54.898684
21
14.208435
0
LINE
8
Layer 1
10
54.898684
20
14.208435
11
55.015530
21
13.957540
0
LINE
8
Layer 1
10
55.015530
20
13.957540
11
58.589000
21
15.624200
0
LINE
8
Layer 1
10
54.044900
20
25.369700
11
53.927338
21
25.620598
0
LINE
8
Layer 1
10
53.927338
20
25.620598
11
54.135223
21
25.717372
0
LINE
8
Layer 1
10
54.135223
20
25.717372
11
53.718020
21
26.612710
0
LINE
8
Layer 1
10
53.718020
20
26.612710
11
53.510135
21
26.515936
0
LINE
8
Layer 1
10
53.510135
20
26.515936
11
52.913004
21
27.796936
0
LINE
8
Layer 1
10
52.913004
20
27.796936
11
53.120889
21
27.893710
0
LINE
8
Layer 1
10
53.120889
20
27.893710
11
52.702969
21
28.789048
0
LINE
8
Layer 1
10
52.702969
20
28.789048
11
52.495084
21
28.692274
0
LINE
8
Layer 1
10
52.495084
20
28.692274
11
52.378238
21
28.943169
0
LINE
8
Layer 1
10
52.378238
20
28.943169
11
48.804768
21
27.276509
0
LINE
8
Layer 1
10
48.804768
20
27.276509
11
48.922330
21
27.025614
0
LINE
8
Layer 1
10
48.922330
20
27.025614
11
48.714445
21
26.928840
0
LINE
8
Layer 1
10
48.714445
20
26.928840
11
49.131648
21
26.033502
0
LINE
8
Layer 1
10
49.131648
20
26.033502
11
49.339533
21
26.130276
0
LINE
8
Layer 1
10
49.339533
20
26.130276
11
49.936664
21
24.849276
0
LINE
8
Layer 1
10
49.936664
20
24.849276
11
49.728779
21
24.752502
0
LINE
8
Layer 1
10
49.728779
20
24.752502
11
50.146699
21
23.857164
0
LINE
8
Layer 1
10
50.146699
20
23.857164
11
50.354584
21
23.953938
0
LINE
8
Layer 1
10
50.354584
20
23.953938
11
50.471430
21
23.703043
0
LINE
8
Layer 1
10
50.471430
20
23.703043
11
54.044900
21
25.369700
0
LINE
8
Layer 1
10
56.317300
20
20.496600
11
56.199738
21
20.747495
0
LINE
8
Layer 1
10
56.199738
20
20.747495
11
56.407623
21
20.844269
0
LINE
8
Layer 1
10
56.407623
20
20.844269
11
55.990420
21
21.739607
0
LINE
8
Layer 1
10
55.990420
20
21.739607
11
55.782535
21
21.642833
0
LINE
8
Layer 1
10
55.782535
20
21.642833
11
55.185404
21
22.923833
0
LINE
8
Layer 1
10
55.185404
20
22.923833
11
55.393289
21
23.020607
0
LINE
8
Layer 1
10
55.393289
20
23.020607
11
54.975369
21
23.915945
0
LINE
8
Layer 1
10
54.975369
20
23.915945
11
54.767484
21
23.819171
0
LINE
8
Layer 1
10
54.767484
20
23.819171
11
54.650638
21
24.070066
0
LINE
8
Layer 1
10
54.650638
20
24.070066
11
51.077168
21
22.403406
0
LINE
8
Layer 1
10
51.077168
20
22.403406
11
51.194730
21
22.152511
0
LINE
8
Layer 1
10
51.194730
20
22.152511
11
50.986845
21
22.055737
0
LINE
8
Layer 1
10
50.986845
20
22.055737
11
51.404048
21
21.160399
0
LINE
8
Layer 1
10
51.404048
20
21.160399
11
51.611933
21
21.257173
0
LINE
8
Layer 1
10
51.611933
20
21.257173
11
52.209064
21
19.976173
0
LINE
8
Layer 1
10
52.209064
20
19.976173
11
52.001179
21
19.879399
0
LINE
8
Layer 1
10
52.001179
20
19.879399
11
52.419099
21
18.984061
0
LINE
8
Layer 1
10
52.419099
20
18.984061
11
52.626984
21
19.080835
0
LINE
8
Layer 1
10
52.626984
20
19.080835
11
52.743830
21
18.829940
0
LINE
8
Layer 1
10
52.743830
20
18.829940
11
56.317300
21
20.496600
0
LINE
8
Layer 1
10
41.926600
20
-2.079000
11
41.926600
21
-1.802300
0
LINE
8
Layer 1
10
41.926600
20
-1.802300
11
42.156000
21
-1.802300
0
LINE
8
Layer 1
10
42.156000
20
-1.802300
11
42.156000
21
-0.814486
0
LINE
8
Layer 1
10
42.156000
20
-0.814486
11
41.926600
21
-0.814486
0
LINE
8
Layer 1
10
41.926600
20
-0.814486
11
41.926600
21
0.599130
0
LINE
8
Layer 1
10
41.926600
20
0.599130
11
42.156000
21
0.599130
0
LINE
8
Layer 1
10
42.156000
20
0.599130
11
42.156000
21
1.586940
0
LINE
8
Layer 1
10
42.156000
20
1.586940
11
41.926600
21
1.586940
0
LINE
8
Layer 1
10
41.926600
20
1.586940
11
41.926600
21
1.863640
0
LINE
8
Layer 1
10
41.926600
20
1.863640
11
37.984000
21
1.863640
0
LINE
8
Layer 1
10
37.984000
20
1.863640
11
37.984000
21
1.586940
0
LINE
8
Layer 1
10
37.984000
20
1.586940
11
37.754600
21
1.586940
0
LINE
8
Layer 1
10
37.754600
20
1.586940
11
37.754600
21
0.599130
0
LINE
8
Layer 1
10
37.754600
20
0.599130
11
37.984000
21
0.599130
0
LINE
8
Layer 1
10
37.984000
20
0.599130
11
37.984000
21
-0.814486
0
LINE
8
Layer 1
10
37.984000
20
-0.814486
11
37.754600
21
-0.814486
0
LINE
8
Layer 1
10
37.754600
20
-0.814486
11
37.754600
21
-1.802300
0
LINE
8
Layer 1
10
37.754600
20
-1.802300
11
37.984000
21
-1.802300
0
LINE
8
Layer 1
10
37.984000
20
-1.802300
11
37.984000
21
-2.079000
0
LINE
8
Layer 1
10
37.984000
20
-2.079000
11
41.926600
21
-2.079000
0
LINE
8
Layer 1
10
15.045000
20
14.587600
11
15.045000
21
14.864300
0
LINE
8
Layer 1
10
15.045000
20
14.864300
11
15.274400
21
14.864300
0
LINE
8
Layer 1
10
15.274400
20
14.864300
11
15.274400
21
15.852100
0
LINE
8
Layer 1
10
15.274400
20
15.852100
11
15.045000
21
15.852100
0
LINE
8
Layer 1
10
15.045000
20
15.852100
11
15.045000
21
17.265700
0
LINE
8
Layer 1
10
15.045000
20
17.265700
11
15.274400
21
17.265700
0
LINE
8
Layer 1
10
15.274400
20
17.265700
11
15.274400
21
18.253600
0
LINE
8
Layer 1
10
15.274400
20
18.253600
11
15.045000
21
18.253600
0
LINE
8
Layer 1
10
15.045000
20
18.253600
11
15.045000
21
18.530300
0
LINE
8
Layer 1
10
15.045000
20
18.530300
11
11.102400
21
18.530300
0
LINE
8
Layer 1
10
11.102400
20
18.530300
11
11.102400
21
18.253600
0
LINE
8
Layer 1
10
11.102400
20
18.253600
11
10.873000
21
18.253600
0
LINE
8
Layer 1
10
10.873000
20
18.253600
11
10.873000
21
17.265700
0
LINE
8
Layer 1
10
10.873000
20
17.265700
11
11.102400
21
17.265700
0
LINE
8
Layer 1
10
11.102400
20
17.265700
11
11.102400
21
15.852100
0
LINE
8
Layer 1
10
11.102400
20
15.852100
11
10.873000
21
15.852100
0
LINE
8
Layer 1
10
10.873000
20
15.852100
11
10.873000
21
14.864300
0
LINE
8
Layer 1
10
10.873000
20
14.864300
11
11.102400
21
14.864300
0
LINE
8
Layer 1
10
11.102400
20
14.864300
11
11.102400
21
14.587600
0
LINE
8
Layer 1
10
11.102400
20
14.587600
11
15.045000
21
14.587600
0
LINE
8
Layer 1
10
207.582000
20
332.308000
11
207.582000
21
340.085000
0
LINE
8
Layer 1
10
207.582000
20
340.085000
11
206.343000
21
340.085000
0
LINE
8
Layer 1
10
206.343000
20
340.085000
11
206.343000
21
339.888000
0
LINE
8
Layer 1
10
206.343000
20
339.888000
11
206.573000
21
339.888000
0
LINE
8
Layer 1
10
206.573000
20
339.888000
11
206.573000
21
338.901000
0
LINE
8
Layer 1
10
206.573000
20
338.901000
11
206.343000
21
338.901000
0
LINE
8
Layer 1
10
206.343000
20
338.901000
11
206.343000
21
337.487000
0
LINE
8
Layer 1
10
206.343000
20
337.487000
11
206.573000
21
337.487000
0
LINE
8
Layer 1
10
206.573000
20
337.487000
11
206.573000
21
336.499000
0
LINE
8
Layer 1
10
206.573000
20
336.499000
11
206.343000
21
336.499000
0
LINE
8
Layer 1
10
206.343000
20
336.499000
11
206.343000
21
336.222000
0
LINE
8
Layer 1
10
206.343000
20
336.222000
11
202.401000
21
336.222000
0
LINE
8
Layer 1
10
202.401000
20
336.222000
11
202.401000
21
336.499000
0
LINE
8
Layer 1
10
202.401000
20
336.499000
11
202.171000
21
336.499000
0
LINE
8
Layer 1
10
202.171000
20
336.499000
11
202.171000
21
337.487000
0
LINE
8
Layer 1
10
202.171000
20
337.487000
11
202.401000
21
337.487000
0
LINE
8
Layer 1
10
202.401000
20
337.487000
11
202.401000
21
338.901000
0
LINE
8
Layer 1
10
202.401000
20
338.901000
11
202.171000
21
338.901000
0
LINE
8
Layer 1
10
202.171000
20
338.901000
11
202.171000
21
339.888000
0
LINE
8
Layer 1
10
202.171000
20
339.888000
11
202.401000
21
339.888000
0
LINE
8
Layer 1
10
202.401000
20
339.888000
11
202.401000
21
340.165000
0
LINE
8
Layer 1
10
202.401000
20
340.165000
11
204.259000
21
340.165000
0
LINE
8
Layer 1
10
204.259000
20
340.165000
11
204.265564
21
340.997906
0
LINE
8
Layer 1
10
204.265564
20
340.997906
11
204.259582
21
341.004761
0
LINE
8
Layer 1
10
204.259582
20
341.004761
11
204.253751
21
341.014970
0
LINE
8
Layer 1
10
204.253751
20
341.014970
11
204.250107
21
341.026053
0
LINE
8
Layer 1
10
204.250107
20
341.026053
11
204.248942
21
341.037867
0
LINE
8
Layer 1
10
204.248942
20
341.037867
11
204.249000
21
342.942000
0
LINE
8
Layer 1
10
204.249000
20
342.942000
11
203.665000
21
342.942000
0
LINE
8
Layer 1
10
203.665000
20
342.942000
11
203.665000
21
342.713000
0
LINE
8
Layer 1
10
203.665000
20
342.713000
11
202.677000
21
342.713000
0
LINE
8
Layer 1
10
202.677000
20
342.713000
11
202.677000
21
342.942000
0
LINE
8
Layer 1
10
202.677000
20
342.942000
11
202.401000
21
342.942000
0
LINE
8
Layer 1
10
202.401000
20
342.942000
11
202.401000
21
346.885000
0
LINE
8
Layer 1
10
202.401000
20
346.885000
11
202.677000
21
346.885000
0
LINE
8
Layer 1
10
202.677000
20
346.885000
11
202.677000
21
347.114000
0
LINE
8
Layer 1
10
202.677000
20
347.114000
11
203.665000
21
347.114000
0
LINE
8
Layer 1
10
203.665000
20
347.114000
11
203.665000
21
346.885000
0
LINE
8
Layer 1
10
203.665000
20
346.885000
11
204.249000
21
346.885000
0
LINE
8
Layer 1
10
204.249000
20
346.885000
11
204.249000
21
351.007000
0
LINE
8
Layer 1
10
204.249000
20
351.007000
11
203.665000
21
351.007000
0
LINE
8
Layer 1
10
203.665000
20
351.007000
11
203.665000
21
350.777000
0
LINE
8
Layer 1
10
203.665000
20
350.777000
11
202.677000
21
350.777000
0
LINE
8
Layer 1
10
202.677000
20
350.777000
11
202.677000
21
351.007000
0
LINE
8
Layer 1
10
202.677000
20
351.007000
11
202.401000
21
351.007000
0
LINE
8
Layer 1
10
202.401000
20
351.007000
11
202.401000
21
354.949000
0
LINE
8
Layer 1
10
202.401000
20
354.949000
11
202.677000
21
354.949000
0
LINE
8
Layer 1
10
202.677000
20
354.949000
11
202.677000
21
355.179000
0
LINE
8
Layer 1
10
202.677000
20
355.179000
11
203.665000
21
355.179000
0
LINE
8
Layer 1
10
203.665000
20
355.179000
11
203.665000
21
354.949000
0
LINE
8
Layer 1
10
203.665000
20
354.949000
11
205.079000
21
354.949000
0
LINE
8
Layer 1
10
205.079000
20
354.949000
11
205.079000
21
355.179000
0
LINE
8
Layer 1
10
205.079000
20
355.179000
11
206.067000
21
355.179000
0
LINE
8
Layer 1
10
206.067000
20
355.179000
11
206.067000
21
354.949000
0
LINE
8
Layer 1
10
206.067000
20
354.949000
11
206.343000
21
354.949000
0
LINE
8
Layer 1
10
206.343000
20
354.949000
11
206.343000
21
352.253000
0
LINE
8
Layer 1
10
206.343000
20
352.253000
11
209.990521
21
354.058876
0
LINE
8
Layer 1
10
209.990521
20
354.058876
11
213.630160
21
355.727990
0
LINE
8
Layer 1
10
213.630160
20
355.727990
11
217.087000
21
353.399000
0
LINE
8
Layer 1
10
217.087000
20
353.399000
11
213.815000
21
333.710000
0
LINE
8
Layer 1
10
213.815000
20
333.710000
11
213.813103
21
333.701979
0
LINE
8
Layer 1
10
213.813103
20
333.701979
11
213.808287
21
333.691186
0
LINE
8
Layer 1
10
213.808287
20
333.691186
11
213.801290
21
333.681707
0
LINE
8
Layer 1
10
213.801290
20
333.681707
11
213.792540
21
333.673831
0
LINE
8
Layer 1
10
213.792540
20
333.673831
11
213.790792
21
333.672810
0
LINE
8
Layer 1
10
213.790792
20
333.672810
11
213.791000
21
332.311000
0
LINE
8
Layer 1
10
213.791000
20
332.311000
11
214.052933
21
332.338564
0
LINE
8
Layer 1
10
214.052933
20
332.338564
11
214.333533
21
332.429716
0
LINE
8
Layer 1
10
214.333533
20
332.429716
11
214.589049
21
332.577163
0
LINE
8
Layer 1
10
214.589049
20
332.577163
11
214.808250
21
332.774634
0
LINE
8
Layer 1
10
214.808250
20
332.774634
11
214.981657
21
333.013232
0
LINE
8
Layer 1
10
214.981657
20
333.013232
11
215.101685
21
333.282749
0
LINE
8
Layer 1
10
215.101685
20
333.282749
11
215.150834
21
333.482845
0
LINE
8
Layer 1
10
215.150834
20
333.482845
11
219.436554
21
358.741545
0
LINE
8
Layer 1
10
219.436554
20
358.741545
11
219.609669
21
359.216554
0
LINE
8
Layer 1
10
219.609669
20
359.216554
11
219.680986
21
359.502989
0
LINE
8
Layer 1
10
219.680986
20
359.502989
11
219.691341
21
359.797882
0
LINE
8
Layer 1
10
219.691341
20
359.797882
11
219.640150
21
360.088546
0
LINE
8
Layer 1
10
219.640150
20
360.088546
11
219.562562
21
360.295934
0
LINE
8
Layer 1
10
219.562562
20
360.295934
11
213.442872
21
373.420134
0
LINE
8
Layer 1
10
213.442872
20
373.420134
11
213.291050
21
373.673025
0
LINE
8
Layer 1
10
213.291050
20
373.673025
11
213.089788
21
373.888871
0
LINE
8
Layer 1
10
213.089788
20
373.888871
11
212.848127
21
374.057902
0
LINE
8
Layer 1
10
212.848127
20
374.057902
11
212.645844
21
374.150220
0
LINE
8
Layer 1
10
212.645844
20
374.150220
11
211.455044
21
374.582934
0
LINE
8
Layer 1
10
211.455044
20
374.582934
11
211.168756
21
374.653959
0
LINE
8
Layer 1
10
211.168756
20
374.653959
11
210.873863
21
374.664168
0
LINE
8
Layer 1
10
210.873863
20
374.664168
11
210.583345
21
374.612832
0
LINE
8
Layer 1
10
210.583345
20
374.612832
11
210.376833
21
374.535536
0
LINE
8
Layer 1
10
210.376833
20
374.535536
11
188.599533
21
364.382536
0
LINE
8
Layer 1
10
188.599533
20
364.382536
11
169.371000
21
364.383000
0
LINE
8
Layer 1
10
169.371000
20
364.383000
11
169.077857
21
364.352227
0
LINE
8
Layer 1
10
169.077857
20
364.352227
11
168.797256
21
364.261075
0
LINE
8
Layer 1
10
168.797256
20
364.261075
11
168.541886
21
364.113483
0
LINE
8
Layer 1
10
168.541886
20
364.113483
11
168.373438
21
363.969828
0
LINE
8
Layer 1
10
168.373438
20
363.969828
11
165.684978
21
361.281368
0
LINE
8
Layer 1
10
165.684978
20
361.281368
11
165.499466
21
361.052250
0
LINE
8
Layer 1
10
165.499466
20
361.052250
11
165.365437
21
360.789442
0
LINE
8
Layer 1
10
165.365437
20
360.789442
11
165.289307
21
360.504320
0
LINE
8
Layer 1
10
165.289307
20
360.504320
11
165.271806
21
360.283660
0
LINE
8
Layer 1
10
165.271806
20
360.283660
11
165.271000
21
334.615000
0
LINE
8
Layer 1
10
165.271000
20
334.615000
11
165.301773
21
334.321711
0
LINE
8
Layer 1
10
165.301773
20
334.321711
11
165.392924
21
334.041110
0
LINE
8
Layer 1
10
165.392924
20
334.041110
11
165.540517
21
333.785594
0
LINE
8
Layer 1
10
165.540517
20
333.785594
11
165.684172
21
333.617292
0
LINE
8
Layer 1
10
165.684172
20
333.617292
11
166.580228
21
332.721236
0
LINE
8
Layer 1
10
166.580228
20
332.721236
11
166.809638
21
332.535579
0
LINE
8
Layer 1
10
166.809638
20
332.535579
11
167.072446
21
332.401696
0
LINE
8
Layer 1
10
167.072446
20
332.401696
11
167.357422
21
332.325275
0
LINE
8
Layer 1
10
167.357422
20
332.325275
11
167.578082
21
332.307919
0
LINE
8
Layer 1
10
167.578082
20
332.307919
11
207.582000
21
332.308000
0
LINE
8
Layer 1
10
9.419570
20
-8.565930
11
9.204517
21
-8.938413
0
LINE
8
Layer 1
10
9.204517
20
-8.938413
11
8.774411
21
-8.938413
0
LINE
8
Layer 1
10
8.774411
20
-8.938413
11
8.559358
21
-8.565930
0
LINE
8
Layer 1
10
8.559358
20
-8.565930
11
8.774411
21
-8.193447
0
LINE
8
Layer 1
10
8.774411
20
-8.193447
11
9.204517
21
-8.193447
0
LINE
8
Layer 1
10
9.204517
20
-8.193447
11
9.419570
21
-8.565930
0
LINE
8
Layer 1
10
9.419570
20
-8.565930
11
9.419570
21
-8.565930
0
LINE
8
Layer 1
10
57.368800
20
12.392100
11
57.153747
21
12.019617
0
LINE
8
Layer 1
10
57.153747
20
12.019617
11
56.723641
21
12.019617
0
LINE
8
Layer 1
10
56.723641
20
12.019617
11
56.508588
21
12.392100
0
LINE
8
Layer 1
10
56.508588
20
12.392100
11
56.723641
21
12.764583
0
LINE
8
Layer 1
10
56.723641
20
12.764583
11
57.153747
21
12.764583
0
LINE
8
Layer 1
10
57.153747
20
12.764583
11
57.368800
21
12.392100
0
LINE
8
Layer 1
10
57.368800
20
12.392100
11
57.368800
21
12.392100
0
LINE
8
Layer 1
10
47.166800
20
-8.575220
11
46.951747
21
-8.947703
0
LINE
8
Layer 1
10
46.951747
20
-8.947703
11
46.521641
21
-8.947703
0
LINE
8
Layer 1
10
46.521641
20
-8.947703
11
46.306588
21
-8.575220
0
LINE
8
Layer 1
10
46.306588
20
-8.575220
11
46.521641
21
-8.202737
0
LINE
8
Layer 1
10
46.521641
20
-8.202737
11
46.951747
21
-8.202737
0
LINE
8
Layer 1
10
46.951747
20
-8.202737
11
47.166800
21
-8.575220
0
LINE
8
Layer 1
10
47.166800
20
-8.575220
11
47.166800
21
-8.575220
0
LINE
8
Layer 1
10
26.951800
20
1.993390
11
26.736746
21
1.620907
0
LINE
8
Layer 1
10
26.736746
20
1.620907
11
26.306641
21
1.620907
0
LINE
8
Layer 1
10
26.306641
20
1.620907
11
26.091587
21
1.993390
0
LINE
8
Layer 1
10
26.091587
20
1.993390
11
26.306641
21
2.365873
0
LINE
8
Layer 1
10
26.306641
20
2.365873
11
26.736747
21
2.365873
0
LINE
8
Layer 1
10
26.736747
20
2.365873
11
26.951800
21
1.993390
0
LINE
8
Layer 1
10
26.951800
20
1.993390
11
26.951800
21
1.993390
0
LINE
8
Layer 1
10
9.245730
20
15.670800
11
9.030677
21
15.298317
0
LINE
8
Layer 1
10
9.030677
20
15.298317
11
8.600570
21
15.298317
0
LINE
8
Layer 1
10
8.600570
20
15.298317
11
8.385518
21
15.670800
0
LINE
8
Layer 1
10
8.385518
20
15.670800
11
8.600571
21
16.043283
0
LINE
8
Layer 1
10
8.600571
20
16.043283
11
9.030677
21
16.043283
0
LINE
8
Layer 1
10
9.030677
20
16.043283
11
9.245730
21
15.670800
0
LINE
8
Layer 1
10
9.245730
20
15.670800
11
9.245730
21
15.670800
0
LINE
8
Layer 1
10
36.435600
20
20.667200
11
36.220546
21
20.294717
0
LINE
8
Layer 1
10
36.220546
20
20.294717
11
35.790440
21
20.294717
0
LINE
8
Layer 1
10
35.790440
20
20.294717
11
35.575387
21
20.667200
0
LINE
8
Layer 1
10
35.575387
20
20.667200
11
35.790441
21
21.039683
0
LINE
8
Layer 1
10
35.790441
20
21.039683
11
36.220547
21
21.039683
0
LINE
8
Layer 1
10
36.220547
20
21.039683
11
36.435600
21
20.667200
0
LINE
8
Layer 1
10
36.435600
20
20.667200
11
36.435600
21
20.667200
0
LINE
8
Layer 1
10
49.353100
20
10.480800
11
49.138047
21
10.108317
0
LINE
8
Layer 1
10
49.138047
20
10.108317
11
48.707940
21
10.108317
0
LINE
8
Layer 1
10
48.707940
20
10.108317
11
48.492888
21
10.480800
0
LINE
8
Layer 1
10
48.492888
20
10.480800
11
48.707941
21
10.853283
0
LINE
8
Layer 1
10
48.707941
20
10.853283
11
49.138047
21
10.853283
0
LINE
8
Layer 1
10
49.138047
20
10.853283
11
49.353100
21
10.480800
0
LINE
8
Layer 1
10
49.353100
20
10.480800
11
49.353100
21
10.480800
0
LINE
8
Layer 1
10
50.980400
20
22.946700
11
50.765347
21
22.574217
0
LINE
8
Layer 1
10
50.765347
20
22.574217
11
50.335241
21
22.574217
0
LINE
8
Layer 1
10
50.335241
20
22.574217
11
50.120188
21
22.946700
0
LINE
8
Layer 1
10
50.120188
20
22.946700
11
50.335241
21
23.319183
0
LINE
8
Layer 1
10
50.335241
20
23.319183
11
50.765347
21
23.319183
0
LINE
8
Layer 1
10
50.765347
20
23.319183
11
50.980400
21
22.946700
0
LINE
8
Layer 1
10
50.980400
20
22.946700
11
50.980400
21
22.946700
0
LINE
8
Layer 1
10
50.507300
20
19.726000
11
46.933830
21
18.059340
0
LINE
8
Layer 1
10
46.933830
20
18.059340
11
47.328094
21
17.214898
0
LINE
8
Layer 1
10
47.328094
20
17.214898
11
50.900844
21
18.881558
0
LINE
8
Layer 1
10
50.900844
20
18.881558
11
50.507300
21
19.726000
0
LINE
8
Layer 1
10
47.659200
20
25.832800
11
44.086450
21
24.166850
0
LINE
8
Layer 1
10
44.086450
20
24.166850
11
44.479997
21
23.322408
0
LINE
8
Layer 1
10
44.479997
20
23.322408
11
48.053467
21
24.988358
0
LINE
8
Layer 1
10
48.053467
20
24.988358
11
47.659200
21
25.832800
0
LINE
8
Layer 1
10
39.997600
20
21.231300
11
43.571070
21
22.897960
0
LINE
8
Layer 1
10
43.571070
20
22.897960
11
43.176806
21
23.742402
0
LINE
8
Layer 1
10
43.176806
20
23.742402
11
39.604056
21
22.075742
0
LINE
8
Layer 1
10
39.604056
20
22.075742
11
39.997600
21
21.231300
0
LINE
8
Layer 1
10
42.845600
20
15.124500
11
46.418350
21
16.790450
0
LINE
8
Layer 1
10
46.418350
20
16.790450
11
46.024803
21
17.634892
0
LINE
8
Layer 1
10
46.024803
20
17.634892
11
42.451333
21
15.968942
0
LINE
8
Layer 1
10
42.451333
20
15.968942
11
42.845600
21
15.124500
0
LINE
8
Layer 1
10
13.700900
20
9.211290
11
13.700900
21
9.487990
0
LINE
8
Layer 1
10
13.700900
20
9.487990
11
13.930300
21
9.487990
0
LINE
8
Layer 1
10
13.930300
20
9.487990
11
13.930300
21
10.475800
0
LINE
8
Layer 1
10
13.930300
20
10.475800
11
13.700900
21
10.475800
0
LINE
8
Layer 1
10
13.700900
20
10.475800
11
13.700900
21
11.889400
0
LINE
8
Layer 1
10
13.700900
20
11.889400
11
13.930300
21
11.889400
0
LINE
8
Layer 1
10
13.930300
20
11.889400
11
13.930300
21
12.877200
0
LINE
8
Layer 1
10
13.930300
20
12.877200
11
13.700900
21
12.877200
0
LINE
8
Layer 1
10
13.700900
20
12.877200
11
13.700900
21
13.153900
0
LINE
8
Layer 1
10
13.700900
20
13.153900
11
9.758270
21
13.153900
0
LINE
8
Layer 1
10
9.758270
20
13.153900
11
9.758270
21
12.877200
0
LINE
8
Layer 1
10
9.758270
20
12.877200
11
9.528880
21
12.877200
0
LINE
8
Layer 1
10
9.528880
20
12.877200
11
9.528880
21
11.889400
0
LINE
8
Layer 1
10
9.528880
20
11.889400
11
9.758270
21
11.889400
0
LINE
8
Layer 1
10
9.758270
20
11.889400
11
9.758270
21
10.475800
0
LINE
8
Layer 1
10
9.758270
20
10.475800
11
9.528880
21
10.475800
0
LINE
8
Layer 1
10
9.528880
20
10.475800
11
9.528880
21
9.487990
0
LINE
8
Layer 1
10
9.528880
20
9.487990
11
9.758270
21
9.487990
0
LINE
8
Layer 1
10
9.758270
20
9.487990
11
9.758270
21
9.211290
0
LINE
8
Layer 1
10
9.758270
20
9.211290
11
13.700900
21
9.211290
0
LINE
8
Layer 1
10
13.700900
20
3.834960
11
13.700900
21
4.111670
0
LINE
8
Layer 1
10
13.700900
20
4.111670
11
13.930300
21
4.111670
0
LINE
8
Layer 1
10
13.930300
20
4.111670
11
13.930300
21
5.099480
0
LINE
8
Layer 1
10
13.930300
20
5.099480
11
13.700900
21
5.099480
0
LINE
8
Layer 1
10
13.700900
20
5.099480
11
13.700900
21
6.513090
0
LINE
8
Layer 1
10
13.700900
20
6.513090
11
13.930300
21
6.513090
0
LINE
8
Layer 1
10
13.930300
20
6.513090
11
13.930300
21
7.500900
0
LINE
8
Layer 1
10
13.930300
20
7.500900
11
13.700900
21
7.500900
0
LINE
8
Layer 1
10
13.700900
20
7.500900
11
13.700900
21
7.777600
0
LINE
8
Layer 1
10
13.700900
20
7.777600
11
9.758270
21
7.777600
0
LINE
8
Layer 1
10
9.758270
20
7.777600
11
9.758270
21
7.500900
0
LINE
8
Layer 1
10
9.758270
20
7.500900
11
9.528880
21
7.500900
0
LINE
8
Layer 1
10
9.528880
20
7.500900
11
9.528880
21
6.513090
0
LINE
8
Layer 1
10
9.528880
20
6.513090
11
9.758270
21
6.513090
0
LINE
8
Layer 1
10
9.758270
20
6.513090
11
9.758270
21
5.099480
0
LINE
8
Layer 1
10
9.758270
20
5.099480
11
9.528880
21
5.099480
0
LINE
8
Layer 1
10
9.528880
20
5.099480
11
9.528880
21
4.111670
0
LINE
8
Layer 1
10
9.528880
20
4.111670
11
9.758270
21
4.111670
0
LINE
8
Layer 1
10
9.758270
20
4.111670
11
9.758270
21
3.834960
0
LINE
8
Layer 1
10
9.758270
20
3.834960
11
13.700900
21
3.834960
0
LINE
8
Layer 1
10
13.700900
20
-1.541370
11
13.700900
21
-1.264660
0
LINE
8
Layer 1
10
13.700900
20
-1.264660
11
13.930300
21
-1.264660
0
LINE
8
Layer 1
10
13.930300
20
-1.264660
11
13.930300
21
-0.276853
0
LINE
8
Layer 1
10
13.930300
20
-0.276853
11
13.700900
21
-0.276853
0
LINE
8
Layer 1
10
13.700900
20
-0.276853
11
13.700900
21
1.136760
0
LINE
8
Layer 1
10
13.700900
20
1.136760
11
13.930300
21
1.136760
0
LINE
8
Layer 1
10
13.930300
20
1.136760
11
13.930300
21
2.124570
0
LINE
8
Layer 1
10
13.930300
20
2.124570
11
13.700900
21
2.124570
0
LINE
8
Layer 1
10
13.700900
20
2.124570
11
13.700900
21
2.401280
0
LINE
8
Layer 1
10
13.700900
20
2.401280
11
9.758270
21
2.401280
0
LINE
8
Layer 1
10
9.758270
20
2.401280
11
9.758270
21
2.124570
0
LINE
8
Layer 1
10
9.758270
20
2.124570
11
9.528880
21
2.124570
0
LINE
8
Layer 1
10
9.528880
20
2.124570
11
9.528880
21
1.136760
0
LINE
8
Layer 1
10
9.528880
20
1.136760
11
9.758270
21
1.136760
0
LINE
8
Layer 1
10
9.758270
20
1.136760
11
9.758270
21
-0.276853
0
LINE
8
Layer 1
10
9.758270
20
-0.276853
11
9.528880
21
-0.276853
0
LINE
8
Layer 1
10
9.528880
20
-0.276853
11
9.528880
21
-1.264660
0
LINE
8
Layer 1
10
9.528880
20
-1.264660
11
9.758270
21
-1.264660
0
LINE
8
Layer 1
10
9.758270
20
-1.264660
11
9.758270
21
-1.541370
0
LINE
8
Layer 1
10
9.758270
20
-1.541370
11
13.700900
21
-1.541370
0
LINE
8
Layer 1
10
13.700900
20
-6.916980
11
13.700900
21
-6.640280
0
LINE
8
Layer 1
10
13.700900
20
-6.640280
11
13.930300
21
-6.640280
0
LINE
8
Layer 1
10
13.930300
20
-6.640280
11
13.930300
21
-5.652470
0
LINE
8
Layer 1
10
13.930300
20
-5.652470
11
13.700900
21
-5.652470
0
LINE
8
Layer 1
10
13.700900
20
-5.652470
11
13.700900
21
-4.238850
0
LINE
8
Layer 1
10
13.700900
20
-4.238850
11
13.930300
21
-4.238850
0
LINE
8
Layer 1
10
13.930300
20
-4.238850
11
13.930300
21
-3.251040
0
LINE
8
Layer 1
10
13.930300
20
-3.251040
11
13.700900
21
-3.251040
0
LINE
8
Layer 1
10
13.700900
20
-3.251040
11
13.700900
21
-2.974340
0
LINE
8
Layer 1
10
13.700900
20
-2.974340
11
9.758270
21
-2.974340
0
LINE
8
Layer 1
10
9.758270
20
-2.974340
11
9.758270
21
-3.251040
0
LINE
8
Layer 1
10
9.758270
20
-3.251040
11
9.528880
21
-3.251040
0
LINE
8
Layer 1
10
9.528880
20
-3.251040
11
9.528880
21
-4.238850
0
LINE
8
Layer 1
10
9.528880
20
-4.238850
11
9.758270
21
-4.238850
0
LINE
8
Layer 1
10
9.758270
20
-4.238850
11
9.758270
21
-5.652470
0
LINE
8
Layer 1
10
9.758270
20
-5.652470
11
9.528880
21
-5.652470
0
LINE
8
Layer 1
10
9.528880
20
-5.652470
11
9.528880
21
-6.640280
0
LINE
8
Layer 1
10
9.528880
20
-6.640280
11
9.758270
21
-6.640280
0
LINE
8
Layer 1
10
9.758270
20
-6.640280
11
9.758270
21
-6.916980
0
LINE
8
Layer 1
10
9.758270
20
-6.916980
11
13.700900
21
-6.916980
0
LINE
8
Layer 1
10
41.926600
20
-7.454610
11
41.926600
21
-7.177910
0
LINE
8
Layer 1
10
41.926600
20
-7.177910
11
42.156000
21
-7.177910
0
LINE
8
Layer 1
10
42.156000
20
-7.177910
11
42.156000
21
-6.190100
0
LINE
8
Layer 1
10
42.156000
20
-6.190100
11
41.926600
21
-6.190100
0
LINE
8
Layer 1
10
41.926600
20
-6.190100
11
41.926600
21
-4.776480
0
LINE
8
Layer 1
10
41.926600
20
-4.776480
11
42.156000
21
-4.776480
0
LINE
8
Layer 1
10
42.156000
20
-4.776480
11
42.156000
21
-3.788670
0
LINE
8
Layer 1
10
42.156000
20
-3.788670
11
41.926600
21
-3.788670
0
LINE
8
Layer 1
10
41.926600
20
-3.788670
11
41.926600
21
-3.511970
0
LINE
8
Layer 1
10
41.926600
20
-3.511970
11
37.984000
21
-3.511970
0
LINE
8
Layer 1
10
37.984000
20
-3.511970
11
37.984000
21
-3.788670
0
LINE
8
Layer 1
10
37.984000
20
-3.788670
11
37.754600
21
-3.788670
0
LINE
8
Layer 1
10
37.754600
20
-3.788670
11
37.754600
21
-4.776480
0
LINE
8
Layer 1
10
37.754600
20
-4.776480
11
37.984000
21
-4.776480
0
LINE
8
Layer 1
10
37.984000
20
-4.776480
11
37.984000
21
-6.190100
0
LINE
8
Layer 1
10
37.984000
20
-6.190100
11
37.754600
21
-6.190100
0
LINE
8
Layer 1
10
37.754600
20
-6.190100
11
37.754600
21
-7.177910
0
LINE
8
Layer 1
10
37.754600
20
-7.177910
11
37.984000
21
-7.177910
0
LINE
8
Layer 1
10
37.984000
20
-7.177910
11
37.984000
21
-7.454610
0
LINE
8
Layer 1
10
37.984000
20
-7.454610
11
41.926600
21
-7.454610
0
LINE
8
Layer 1
10
25.797700
20
-2.437420
11
25.797700
21
-2.160720
0
LINE
8
Layer 1
10
25.797700
20
-2.160720
11
26.027000
21
-2.160720
0
LINE
8
Layer 1
10
26.027000
20
-2.160720
11
26.027000
21
-1.172910
0
LINE
8
Layer 1
10
26.027000
20
-1.172910
11
25.797700
21
-1.172910
0
LINE
8
Layer 1
10
25.797700
20
-1.172910
11
25.797700
21
0.240708
0
LINE
8
Layer 1
10
25.797700
20
0.240708
11
26.027000
21
0.240708
0
LINE
8
Layer 1
10
26.027000
20
0.240708
11
26.027000
21
1.228520
0
LINE
8
Layer 1
10
26.027000
20
1.228520
11
25.797700
21
1.228520
0
LINE
8
Layer 1
10
25.797700
20
1.228520
11
25.797700
21
1.505220
0
LINE
8
Layer 1
10
25.797700
20
1.505220
11
21.855000
21
1.505220
0
LINE
8
Layer 1
10
21.855000
20
1.505220
11
21.855000
21
1.228520
0
LINE
8
Layer 1
10
21.855000
20
1.228520
11
21.625600
21
1.228520
0
LINE
8
Layer 1
10
21.625600
20
1.228520
11
21.625600
21
0.240708
0
LINE
8
Layer 1
10
21.625600
20
0.240708
11
21.855000
21
0.240708
0
LINE
8
Layer 1
10
21.855000
20
0.240708
11
21.855000
21
-1.172910
0
LINE
8
Layer 1
10
21.855000
20
-1.172910
11
21.625600
21
-1.172910
0
LINE
8
Layer 1
10
21.625600
20
-1.172910
11
21.625600
21
-2.160720
0
LINE
8
Layer 1
10
21.625600
20
-2.160720
11
21.855000
21
-2.160720
0
LINE
8
Layer 1
10
21.855000
20
-2.160720
11
21.855000
21
-2.437420
0
LINE
8
Layer 1
10
21.855000
20
-2.437420
11
25.797700
21
-2.437420
0
LINE
8
Layer 1
10
48.642000
20
24.234900
11
48.391105
21
24.117338
0
LINE
8
Layer 1
10
48.391105
20
24.117338
11
48.294331
21
24.325223
0
LINE
8
Layer 1
10
48.294331
20
24.325223
11
47.398993
21
23.908020
0
LINE
8
Layer 1
10
47.398993
20
23.908020
11
47.495767
21
23.700135
0
LINE
8
Layer 1
10
47.495767
20
23.700135
11
46.214767
21
23.103004
0
LINE
8
Layer 1
10
46.214767
20
23.103004
11
46.117993
21
23.310889
0
LINE
8
Layer 1
10
46.117993
20
23.310889
11
45.222655
21
22.892969
0
LINE
8
Layer 1
10
45.222655
20
22.892969
11
45.319429
21
22.685084
0
LINE
8
Layer 1
10
45.319429
20
22.685084
11
45.068534
21
22.568238
0
LINE
8
Layer 1
10
45.068534
20
22.568238
11
46.735194
21
18.994768
0
LINE
8
Layer 1
10
46.735194
20
18.994768
11
46.986089
21
19.112330
0
LINE
8
Layer 1
10
46.986089
20
19.112330
11
47.082863
21
18.904445
0
LINE
8
Layer 1
10
47.082863
20
18.904445
11
47.978201
21
19.321648
0
LINE
8
Layer 1
10
47.978201
20
19.321648
11
47.881427
21
19.529533
0
LINE
8
Layer 1
10
47.881427
20
19.529533
11
49.162427
21
20.126664
0
LINE
8
Layer 1
10
49.162427
20
20.126664
11
49.259201
21
19.918779
0
LINE
8
Layer 1
10
49.259201
20
19.918779
11
50.154539
21
20.336699
0
LINE
8
Layer 1
10
50.154539
20
20.336699
11
50.057765
21
20.544584
0
LINE
8
Layer 1
10
50.057765
20
20.544584
11
50.308660
21
20.661430
0
LINE
8
Layer 1
10
50.308660
20
20.661430
11
48.642000
21
24.234900
0
LINE
8
Layer 1
10
43.769600
20
21.962500
11
43.518705
21
21.844938
0
LINE
8
Layer 1
10
43.518705
20
21.844938
11
43.421931
21
22.052823
0
LINE
8
Layer 1
10
43.421931
20
22.052823
11
42.526593
21
21.635620
0
LINE
8
Layer 1
10
42.526593
20
21.635620
11
42.623367
21
21.427735
0
LINE
8
Layer 1
10
42.623367
20
21.427735
11
41.342367
21
20.830604
0
LINE
8
Layer 1
10
41.342367
20
20.830604
11
41.245593
21
21.038489
0
LINE
8
Layer 1
10
41.245593
20
21.038489
11
40.350255
21
20.620569
0
LINE
8
Layer 1
10
40.350255
20
20.620569
11
40.447029
21
20.412684
0
LINE
8
Layer 1
10
40.447029
20
20.412684
11
40.196134
21
20.295838
0
LINE
8
Layer 1
10
40.196134
20
20.295838
11
41.862794
21
16.722368
0
LINE
8
Layer 1
10
41.862794
20
16.722368
11
42.113689
21
16.839930
0
LINE
8
Layer 1
10
42.113689
20
16.839930
11
42.210463
21
16.632045
0
LINE
8
Layer 1
10
42.210463
20
16.632045
11
43.105801
21
17.049248
0
LINE
8
Layer 1
10
43.105801
20
17.049248
11
43.009027
21
17.257133
0
LINE
8
Layer 1
10
43.009027
20
17.257133
11
44.290027
21
17.854264
0
LINE
8
Layer 1
10
44.290027
20
17.854264
11
44.386801
21
17.646379
0
LINE
8
Layer 1
10
44.386801
20
17.646379
11
45.282139
21
18.064299
0
LINE
8
Layer 1
10
45.282139
20
18.064299
11
45.185365
21
18.272184
0
LINE
8
Layer 1
10
45.185365
20
18.272184
11
45.436260
21
18.389030
0
LINE
8
Layer 1
10
45.436260
20
18.389030
11
43.769600
21
21.962500
0
LINE
8
Layer 1
10
36.550300
20
13.691600
11
36.550300
21
13.968300
0
LINE
8
Layer 1
10
36.550300
20
13.968300
11
36.779700
21
13.968300
0
LINE
8
Layer 1
10
36.779700
20
13.968300
11
36.779700
21
14.956100
0
LINE
8
Layer 1
10
36.779700
20
14.956100
11
36.550300
21
14.956100
0
LINE
8
Layer 1
10
36.550300
20
14.956100
11
36.550300
21
16.369700
0
LINE
8
Layer 1
10
36.550300
20
16.369700
11
36.779700
21
16.369700
0
LINE
8
Layer 1
10
36.779700
20
16.369700
11
36.779700
21
17.357500
0
LINE
8
Layer 1
10
36.779700
20
17.357500
11
36.550300
21
17.357500
0
LINE
8
Layer 1
10
36.550300
20
17.357500
11
36.550300
21
17.634200
0
LINE
8
Layer 1
10
36.550300
20
17.634200
11
32.607700
21
17.634200
0
LINE
8
Layer 1
10
32.607700
20
17.634200
11
32.607700
21
17.357500
0
LINE
8
Layer 1
10
32.607700
20
17.357500
11
32.378300
21
17.357500
0
LINE
8
Layer 1
10
32.378300
20
17.357500
11
32.378300
21
16.369700
0
LINE
8
Layer 1
10
32.378300
20
16.369700
11
32.607700
21
16.369700
0
LINE
8
Layer 1
10
32.607700
20
16.369700
11
32.607700
21
14.956100
0
LINE
8
Layer 1
10
32.607700
20
14.956100
11
32.378300
21
14.956100
0
LINE
8
Layer 1
10
32.378300
20
14.956100
11
32.378300
21
13.968300
0
LINE
8
Layer 1
10
32.378300
20
13.968300
11
32.607700
21
13.968300
0
LINE
8
Layer 1
10
32.607700
20
13.968300
11
32.607700
21
13.691600
0
LINE
8
Layer 1
10
32.607700
20
13.691600
11
36.550300
21
13.691600
0
LINE
8
Layer 1
10
31.174000
20
13.240700
11
31.174000
21
13.517400
0
LINE
8
Layer 1
10
31.174000
20
13.517400
11
31.403400
21
13.517400
0
LINE
8
Layer 1
10
31.403400
20
13.517400
11
31.403400
21
14.505200
0
LINE
8
Layer 1
10
31.403400
20
14.505200
11
31.174000
21
14.505200
0
LINE
8
Layer 1
10
31.174000
20
14.505200
11
31.174000
21
15.918800
0
LINE
8
Layer 1
10
31.174000
20
15.918800
11
31.403400
21
15.918800
0
LINE
8
Layer 1
10
31.403400
20
15.918800
11
31.403400
21
16.906600
0
LINE
8
Layer 1
10
31.403400
20
16.906600
11
31.174000
21
16.906600
0
LINE
8
Layer 1
10
31.174000
20
16.906600
11
31.174000
21
17.183300
0
LINE
8
Layer 1
10
31.174000
20
17.183300
11
27.231300
21
17.183300
0
LINE
8
Layer 1
10
27.231300
20
17.183300
11
27.231300
21
16.906600
0
LINE
8
Layer 1
10
27.231300
20
16.906600
11
27.002000
21
16.906600
0
LINE
8
Layer 1
10
27.002000
20
16.906600
11
27.002000
21
15.918800
0
LINE
8
Layer 1
10
27.002000
20
15.918800
11
27.231300
21
15.918800
0
LINE
8
Layer 1
10
27.231300
20
15.918800
11
27.231300
21
14.505200
0
LINE
8
Layer 1
10
27.231300
20
14.505200
11
27.002000
21
14.505200
0
LINE
8
Layer 1
10
27.002000
20
14.505200
11
27.002000
21
13.517400
0
LINE
8
Layer 1
10
27.002000
20
13.517400
11
27.231300
21
13.517400
0
LINE
8
Layer 1
10
27.231300
20
13.517400
11
27.231300
21
13.240700
0
LINE
8
Layer 1
10
27.231300
20
13.240700
11
31.174000
21
13.240700
0
LINE
8
Layer 1
10
20.421300
20
14.587600
11
20.421300
21
14.864300
0
LINE
8
Layer 1
10
20.421300
20
14.864300
11
20.650700
21
14.864300
0
LINE
8
Layer 1
10
20.650700
20
14.864300
11
20.650700
21
15.852100
0
LINE
8
Layer 1
10
20.650700
20
15.852100
11
20.421300
21
15.852100
0
LINE
8
Layer 1
10
20.421300
20
15.852100
11
20.421300
21
17.265700
0
LINE
8
Layer 1
10
20.421300
20
17.265700
11
20.650700
21
17.265700
0
LINE
8
Layer 1
10
20.650700
20
17.265700
11
20.650700
21
18.253600
0
LINE
8
Layer 1
10
20.650700
20
18.253600
11
20.421300
21
18.253600
0
LINE
8
Layer 1
10
20.421300
20
18.253600
11
20.421300
21
18.530300
0
LINE
8
Layer 1
10
20.421300
20
18.530300
11
16.478700
21
18.530300
0
LINE
8
Layer 1
10
16.478700
20
18.530300
11
16.478700
21
18.253600
0
LINE
8
Layer 1
10
16.478700
20
18.253600
11
16.249300
21
18.253600
0
LINE
8
Layer 1
10
16.249300
20
18.253600
11
16.249300
21
17.265700
0
LINE
8
Layer 1
10
16.249300
20
17.265700
11
16.478700
21
17.265700
0
LINE
8
Layer 1
10
16.478700
20
17.265700
11
16.478700
21
15.852100
0
LINE
8
Layer 1
10
16.478700
20
15.852100
11
16.249300
21
15.852100
0
LINE
8
Layer 1
10
16.249300
20
15.852100
11
16.249300
21
14.864300
0
LINE
8
Layer 1
10
16.249300
20
14.864300
11
16.478700
21
14.864300
0
LINE
8
Layer 1
10
16.478700
20
14.864300
11
16.478700
21
14.587600
0
LINE
8
Layer 1
10
16.478700
20
14.587600
11
20.421300
21
14.587600
0
LINE
8
Layer 1
10
41.926600
20
8.673660
11
41.926600
21
8.950360
0
LINE
8
Layer 1
10
41.926600
20
8.950360
11
42.156000
21
8.950360
0
LINE
8
Layer 1
10
42.156000
20
8.950360
11
42.156000
21
9.938170
0
LINE
8
Layer 1
10
42.156000
20
9.938170
11
41.926600
21
9.938170
0
LINE
8
Layer 1
10
41.926600
20
9.938170
11
41.926600
21
11.351800
0
LINE
8
Layer 1
10
41.926600
20
11.351800
11
42.156000
21
11.351800
0
LINE
8
Layer 1
10
42.156000
20
11.351800
11
42.156000
21
12.339600
0
LINE
8
Layer 1
10
42.156000
20
12.339600
11
41.926600
21
12.339600
0
LINE
8
Layer 1
10
41.926600
20
12.339600
11
41.926600
21
12.616300
0
LINE
8
Layer 1
10
41.926600
20
12.616300
11
37.984000
21
12.616300
0
LINE
8
Layer 1
10
37.984000
20
12.616300
11
37.984000
21
12.339600
0
LINE
8
Layer 1
10
37.984000
20
12.339600
11
37.754600
21
12.339600
0
LINE
8
Layer 1
10
37.754600
20
12.339600
11
37.754600
21
11.351800
0
LINE
8
Layer 1
10
37.754600
20
11.351800
11
37.984000
21
11.351800
0
LINE
8
Layer 1
10
37.984000
20
11.351800
11
37.984000
21
9.938170
0
LINE
8
Layer 1
10
37.984000
20
9.938170
11
37.754600
21
9.938170
0
LINE
8
Layer 1
10
37.754600
20
9.938170
11
37.754600
21
8.950360
0
LINE
8
Layer 1
10
37.754600
20
8.950360
11
37.984000
21
8.950360
0
LINE
8
Layer 1
10
37.984000
20
8.950360
11
37.984000
21
8.673660
0
LINE
8
Layer 1
10
37.984000
20
8.673660
11
41.926600
21
8.673660
0
LINE
8
Layer 1
10
36.550300
20
8.315240
11
36.550300
21
8.591940
0
LINE
8
Layer 1
10
36.550300
20
8.591940
11
36.779700
21
8.591940
0
LINE
8
Layer 1
10
36.779700
20
8.591940
11
36.779700
21
9.579750
0
LINE
8
Layer 1
10
36.779700
20
9.579750
11
36.550300
21
9.579750
0
LINE
8
Layer 1
10
36.550300
20
9.579750
11
36.550300
21
10.993400
0
LINE
8
Layer 1
10
36.550300
20
10.993400
11
36.779700
21
10.993400
0
LINE
8
Layer 1
10
36.779700
20
10.993400
11
36.779700
21
11.981200
0
LINE
8
Layer 1
10
36.779700
20
11.981200
11
36.550300
21
11.981200
0
LINE
8
Layer 1
10
36.550300
20
11.981200
11
36.550300
21
12.257900
0
LINE
8
Layer 1
10
36.550300
20
12.257900
11
32.607700
21
12.257900
0
LINE
8
Layer 1
10
32.607700
20
12.257900
11
32.607700
21
11.981200
0
LINE
8
Layer 1
10
32.607700
20
11.981200
11
32.378300
21
11.981200
0
LINE
8
Layer 1
10
32.378300
20
11.981200
11
32.378300
21
10.993400
0
LINE
8
Layer 1
10
32.378300
20
10.993400
11
32.607700
21
10.993400
0
LINE
8
Layer 1
10
32.607700
20
10.993400
11
32.607700
21
9.579750
0
LINE
8
Layer 1
10
32.607700
20
9.579750
11
32.378300
21
9.579750
0
LINE
8
Layer 1
10
32.378300
20
9.579750
11
32.378300
21
8.591940
0
LINE
8
Layer 1
10
32.378300
20
8.591940
11
32.607700
21
8.591940
0
LINE
8
Layer 1
10
32.607700
20
8.591940
11
32.607700
21
8.315240
0
LINE
8
Layer 1
10
32.607700
20
8.315240
11
36.550300
21
8.315240
0
LINE
8
Layer 1
10
31.174000
20
7.864340
11
31.174000
21
8.141040
0
LINE
8
Layer 1
10
31.174000
20
8.141040
11
31.403400
21
8.141040
0
LINE
8
Layer 1
10
31.403400
20
8.141040
11
31.403400
21
9.128850
0
LINE
8
Layer 1
10
31.403400
20
9.128850
11
31.174000
21
9.128850
0
LINE
8
Layer 1
10
31.174000
20
9.128850
11
31.174000
21
10.542500
0
LINE
8
Layer 1
10
31.174000
20
10.542500
11
31.403400
21
10.542500
0
LINE
8
Layer 1
10
31.403400
20
10.542500
11
31.403400
21
11.530300
0
LINE
8
Layer 1
10
31.403400
20
11.530300
11
31.174000
21
11.530300
0
LINE
8
Layer 1
10
31.174000
20
11.530300
11
31.174000
21
11.807000
0
LINE
8
Layer 1
10
31.174000
20
11.807000
11
27.231300
21
11.807000
0
LINE
8
Layer 1
10
27.231300
20
11.807000
11
27.231300
21
11.530300
0
LINE
8
Layer 1
10
27.231300
20
11.530300
11
27.002000
21
11.530300
0
LINE
8
Layer 1
10
27.002000
20
11.530300
11
27.002000
21
10.542500
0
LINE
8
Layer 1
10
27.002000
20
10.542500
11
27.231300
21
10.542500
0
LINE
8
Layer 1
10
27.231300
20
10.542500
11
27.231300
21
9.128850
0
LINE
8
Layer 1
10
27.231300
20
9.128850
11
27.002000
21
9.128850
0
LINE
8
Layer 1
10
27.002000
20
9.128850
11
27.002000
21
8.141040
0
LINE
8
Layer 1
10
27.002000
20
8.141040
11
27.231300
21
8.141040
0
LINE
8
Layer 1
10
27.231300
20
8.141040
11
27.231300
21
7.864340
0
LINE
8
Layer 1
10
27.231300
20
7.864340
11
31.174000
21
7.864340
0
LINE
8
Layer 1
10
25.797700
20
8.315240
11
25.797700
21
8.591940
0
LINE
8
Layer 1
10
25.797700
20
8.591940
11
26.027000
21
8.591940
0
LINE
8
Layer 1
10
26.027000
20
8.591940
11
26.027000
21
9.579750
0
LINE
8
Layer 1
10
26.027000
20
9.579750
11
25.797700
21
9.579750
0
LINE
8
Layer 1
10
25.797700
20
9.579750
11
25.797700
21
10.993400
0
LINE
8
Layer 1
10
25.797700
20
10.993400
11
26.027000
21
10.993400
0
LINE
8
Layer 1
10
26.027000
20
10.993400
11
26.027000
21
11.981200
0
LINE
8
Layer 1
10
26.027000
20
11.981200
11
25.797700
21
11.981200
0
LINE
8
Layer 1
10
25.797700
20
11.981200
11
25.797700
21
12.257900
0
LINE
8
Layer 1
10
25.797700
20
12.257900
11
21.855000
21
12.257900
0
LINE
8
Layer 1
10
21.855000
20
12.257900
11
21.855000
21
11.981200
0
LINE
8
Layer 1
10
21.855000
20
11.981200
11
21.625600
21
11.981200
0
LINE
8
Layer 1
10
21.625600
20
11.981200
11
21.625600
21
10.993400
0
LINE
8
Layer 1
10
21.625600
20
10.993400
11
21.855000
21
10.993400
0
LINE
8
Layer 1
10
21.855000
20
10.993400
11
21.855000
21
9.579750
0
LINE
8
Layer 1
10
21.855000
20
9.579750
11
21.625600
21
9.579750
0
LINE
8
Layer 1
10
21.625600
20
9.579750
11
21.625600
21
8.591940
0
LINE
8
Layer 1
10
21.625600
20
8.591940
11
21.855000
21
8.591940
0
LINE
8
Layer 1
10
21.855000
20
8.591940
11
21.855000
21
8.315240
0
LINE
8
Layer 1
10
21.855000
20
8.315240
11
25.797700
21
8.315240
0
LINE
8
Layer 1
10
20.421300
20
9.211290
11
20.421300
21
9.487990
0
LINE
8
Layer 1
10
20.421300
20
9.487990
11
20.650700
21
9.487990
0
LINE
8
Layer 1
10
20.650700
20
9.487990
11
20.650700
21
10.475800
0
LINE
8
Layer 1
10
20.650700
20
10.475800
11
20.421300
21
10.475800
0
LINE
8
Layer 1
10
20.421300
20
10.475800
11
20.421300
21
11.889400
0
LINE
8
Layer 1
10
20.421300
20
11.889400
11
20.650700
21
11.889400
0
LINE
8
Layer 1
10
20.650700
20
11.889400
11
20.650700
21
12.877200
0
LINE
8
Layer 1
10
20.650700
20
12.877200
11
20.421300
21
12.877200
0
LINE
8
Layer 1
10
20.421300
20
12.877200
11
20.421300
21
13.153900
0
LINE
8
Layer 1
10
20.421300
20
13.153900
11
16.478700
21
13.153900
0
LINE
8
Layer 1
10
16.478700
20
13.153900
11
16.478700
21
12.877200
0
LINE
8
Layer 1
10
16.478700
20
12.877200
11
16.249300
21
12.877200
0
LINE
8
Layer 1
10
16.249300
20
12.877200
11
16.249300
21
11.889400
0
LINE
8
Layer 1
10
16.249300
20
11.889400
11
16.478700
21
11.889400
0
LINE
8
Layer 1
10
16.478700
20
11.889400
11
16.478700
21
10.475800
0
LINE
8
Layer 1
10
16.478700
20
10.475800
11
16.249300
21
10.475800
0
LINE
8
Layer 1
10
16.249300
20
10.475800
11
16.249300
21
9.487990
0
LINE
8
Layer 1
10
16.249300
20
9.487990
11
16.478700
21
9.487990
0
LINE
8
Layer 1
10
16.478700
20
9.487990
11
16.478700
21
9.211290
0
LINE
8
Layer 1
10
16.478700
20
9.211290
11
20.421300
21
9.211290
0
LINE
8
Layer 1
10
41.926600
20
3.297330
11
41.926600
21
3.574030
0
LINE
8
Layer 1
10
41.926600
20
3.574030
11
42.156000
21
3.574030
0
LINE
8
Layer 1
10
42.156000
20
3.574030
11
42.156000
21
4.561840
0
LINE
8
Layer 1
10
42.156000
20
4.561840
11
41.926600
21
4.561840
0
LINE
8
Layer 1
10
41.926600
20
4.561840
11
41.926600
21
5.975460
0
LINE
8
Layer 1
10
41.926600
20
5.975460
11
42.156000
21
5.975460
0
LINE
8
Layer 1
10
42.156000
20
5.975460
11
42.156000
21
6.963270
0
LINE
8
Layer 1
10
42.156000
20
6.963270
11
41.926600
21
6.963270
0
LINE
8
Layer 1
10
41.926600
20
6.963270
11
41.926600
21
7.239970
0
LINE
8
Layer 1
10
41.926600
20
7.239970
11
37.984000
21
7.239970
0
LINE
8
Layer 1
10
37.984000
20
7.239970
11
37.984000
21
6.963270
0
LINE
8
Layer 1
10
37.984000
20
6.963270
11
37.754600
21
6.963270
0
LINE
8
Layer 1
10
37.754600
20
6.963270
11
37.754600
21
5.975460
0
LINE
8
Layer 1
10
37.754600
20
5.975460
11
37.984000
21
5.975460
0
LINE
8
Layer 1
10
37.984000
20
5.975460
11
37.984000
21
4.561840
0
LINE
8
Layer 1
10
37.984000
20
4.561840
11
37.754600
21
4.561840
0
LINE
8
Layer 1
10
37.754600
20
4.561840
11
37.754600
21
3.574030
0
LINE
8
Layer 1
10
37.754600
20
3.574030
11
37.984000
21
3.574030
0
LINE
8
Layer 1
10
37.984000
20
3.574030
11
37.984000
21
3.297330
0
LINE
8
Layer 1
10
37.984000
20
3.297330
11
41.926600
21
3.297330
0
LINE
8
Layer 1
10
36.550300
20
2.938910
11
36.550300
21
3.215610
0
LINE
8
Layer 1
10
36.550300
20
3.215610
11
36.779700
21
3.215610
0
LINE
8
Layer 1
10
36.779700
20
3.215610
11
36.779700
21
4.203420
0
LINE
8
Layer 1
10
36.779700
20
4.203420
11
36.550300
21
4.203420
0
LINE
8
Layer 1
10
36.550300
20
4.203420
11
36.550300
21
5.617040
0
LINE
8
Layer 1
10
36.550300
20
5.617040
11
36.779700
21
5.617040
0
LINE
8
Layer 1
10
36.779700
20
5.617040
11
36.779700
21
6.604850
0
LINE
8
Layer 1
10
36.779700
20
6.604850
11
36.550300
21
6.604850
0
LINE
8
Layer 1
10
36.550300
20
6.604850
11
36.550300
21
6.881550
0
LINE
8
Layer 1
10
36.550300
20
6.881550
11
32.607700
21
6.881550
0
LINE
8
Layer 1
10
32.607700
20
6.881550
11
32.607700
21
6.604850
0
LINE
8
Layer 1
10
32.607700
20
6.604850
11
32.378300
21
6.604850
0
LINE
8
Layer 1
10
32.378300
20
6.604850
11
32.378300
21
5.617040
0
LINE
8
Layer 1
10
32.378300
20
5.617040
11
32.607700
21
5.617040
0
LINE
8
Layer 1
10
32.607700
20
5.617040
11
32.607700
21
4.203420
0
LINE
8
Layer 1
10
32.607700
20
4.203420
11
32.378300
21
4.203420
0
LINE
8
Layer 1
10
32.378300
20
4.203420
11
32.378300
21
3.215610
0
LINE
8
Layer 1
10
32.378300
20
3.215610
11
32.607700
21
3.215610
0
LINE
8
Layer 1
10
32.607700
20
3.215610
11
32.607700
21
2.938910
0
LINE
8
Layer 1
10
32.607700
20
2.938910
11
36.550300
21
2.938910
0
LINE
8
Layer 1
10
31.174000
20
2.488010
11
31.174000
21
2.764720
0
LINE
8
Layer 1
10
31.174000
20
2.764720
11
31.403400
21
2.764720
0
LINE
8
Layer 1
10
31.403400
20
2.764720
11
31.403400
21
3.752530
0
LINE
8
Layer 1
10
31.403400
20
3.752530
11
31.174000
21
3.752530
0
LINE
8
Layer 1
10
31.174000
20
3.752530
11
31.174000
21
5.166140
0
LINE
8
Layer 1
10
31.174000
20
5.166140
11
31.403400
21
5.166140
0
LINE
8
Layer 1
10
31.403400
20
5.166140
11
31.403400
21
6.153950
0
LINE
8
Layer 1
10
31.403400
20
6.153950
11
31.174000
21
6.153950
0
LINE
8
Layer 1
10
31.174000
20
6.153950
11
31.174000
21
6.430650
0
LINE
8
Layer 1
10
31.174000
20
6.430650
11
27.231300
21
6.430650
0
LINE
8
Layer 1
10
27.231300
20
6.430650
11
27.231300
21
6.153950
0
LINE
8
Layer 1
10
27.231300
20
6.153950
11
27.002000
21
6.153950
0
LINE
8
Layer 1
10
27.002000
20
6.153950
11
27.002000
21
5.166140
0
LINE
8
Layer 1
10
27.002000
20
5.166140
11
27.231300
21
5.166140
0
LINE
8
Layer 1
10
27.231300
20
5.166140
11
27.231300
21
3.752530
0
LINE
8
Layer 1
10
27.231300
20
3.752530
11
27.002000
21
3.752530
0
LINE
8
Layer 1
10
27.002000
20
3.752530
11
27.002000
21
2.764720
0
LINE
8
Layer 1
10
27.002000
20
2.764720
11
27.231300
21
2.764720
0
LINE
8
Layer 1
10
27.231300
20
2.764720
11
27.231300
21
2.488010
0
LINE
8
Layer 1
10
27.231300
20
2.488010
11
31.174000
21
2.488010
0
LINE
8
Layer 1
10
25.797700
20
2.938910
11
25.797700
21
3.215610
0
LINE
8
Layer 1
10
25.797700
20
3.215610
11
26.027000
21
3.215610
0
LINE
8
Layer 1
10
26.027000
20
3.215610
11
26.027000
21
4.203420
0
LINE
8
Layer 1
10
26.027000
20
4.203420
11
25.797700
21
4.203420
0
LINE
8
Layer 1
10
25.797700
20
4.203420
11
25.797700
21
5.617040
0
LINE
8
Layer 1
10
25.797700
20
5.617040
11
26.027000
21
5.617040
0
LINE
8
Layer 1
10
26.027000
20
5.617040
11
26.027000
21
6.604850
0
LINE
8
Layer 1
10
26.027000
20
6.604850
11
25.797700
21
6.604850
0
LINE
8
Layer 1
10
25.797700
20
6.604850
11
25.797700
21
6.881550
0
LINE
8
Layer 1
10
25.797700
20
6.881550
11
21.855000
21
6.881550
0
LINE
8
Layer 1
10
21.855000
20
6.881550
11
21.855000
21
6.604850
0
LINE
8
Layer 1
10
21.855000
20
6.604850
11
21.625600
21
6.604850
0
LINE
8
Layer 1
10
21.625600
20
6.604850
11
21.625600
21
5.617040
0
LINE
8
Layer 1
10
21.625600
20
5.617040
11
21.855000
21
5.617040
0
LINE
8
Layer 1
10
21.855000
20
5.617040
11
21.855000
21
4.203420
0
LINE
8
Layer 1
10
21.855000
20
4.203420
11
21.625600
21
4.203420
0
LINE
8
Layer 1
10
21.625600
20
4.203420
11
21.625600
21
3.215610
0
LINE
8
Layer 1
10
21.625600
20
3.215610
11
21.855000
21
3.215610
0
LINE
8
Layer 1
10
21.855000
20
3.215610
11
21.855000
21
2.938910
0
LINE
8
Layer 1
10
21.855000
20
2.938910
11
25.797700
21
2.938910
0
LINE
8
Layer 1
10
20.421300
20
3.834960
11
20.421300
21
4.111670
0
LINE
8
Layer 1
10
20.421300
20
4.111670
11
20.650700
21
4.111670
0
LINE
8
Layer 1
10
20.650700
20
4.111670
11
20.650700
21
5.099480
0
LINE
8
Layer 1
10
20.650700
20
5.099480
11
20.421300
21
5.099480
0
LINE
8
Layer 1
10
20.421300
20
5.099480
11
20.421300
21
6.513090
0
LINE
8
Layer 1
10
20.421300
20
6.513090
11
20.650700
21
6.513090
0
LINE
8
Layer 1
10
20.650700
20
6.513090
11
20.650700
21
7.500900
0
LINE
8
Layer 1
10
20.650700
20
7.500900
11
20.421300
21
7.500900
0
LINE
8
Layer 1
10
20.421300
20
7.500900
11
20.421300
21
7.777600
0
LINE
8
Layer 1
10
20.421300
20
7.777600
11
16.478700
21
7.777600
0
LINE
8
Layer 1
10
16.478700
20
7.777600
11
16.478700
21
7.500900
0
LINE
8
Layer 1
10
16.478700
20
7.500900
11
16.249300
21
7.500900
0
LINE
8
Layer 1
10
16.249300
20
7.500900
11
16.249300
21
6.513090
0
LINE
8
Layer 1
10
16.249300
20
6.513090
11
16.478700
21
6.513090
0
LINE
8
Layer 1
10
16.478700
20
6.513090
11
16.478700
21
5.099480
0
LINE
8
Layer 1
10
16.478700
20
5.099480
11
16.249300
21
5.099480
0
LINE
8
Layer 1
10
16.249300
20
5.099480
11
16.249300
21
4.111670
0
LINE
8
Layer 1
10
16.249300
20
4.111670
11
16.478700
21
4.111670
0
LINE
8
Layer 1
10
16.478700
20
4.111670
11
16.478700
21
3.834960
0
LINE
8
Layer 1
10
16.478700
20
3.834960
11
20.421300
21
3.834960
0
LINE
8
Layer 1
10
36.550300
20
-2.437420
11
36.550300
21
-2.160720
0
LINE
8
Layer 1
10
36.550300
20
-2.160720
11
36.779700
21
-2.160720
0
LINE
8
Layer 1
10
36.779700
20
-2.160720
11
36.779700
21
-1.172910
0
LINE
8
Layer 1
10
36.779700
20
-1.172910
11
36.550300
21
-1.172910
0
LINE
8
Layer 1
10
36.550300
20
-1.172910
11
36.550300
21
0.240708
0
LINE
8
Layer 1
10
36.550300
20
0.240708
11
36.779700
21
0.240708
0
LINE
8
Layer 1
10
36.779700
20
0.240708
11
36.779700
21
1.228520
0
LINE
8
Layer 1
10
36.779700
20
1.228520
11
36.550300
21
1.228520
0
LINE
8
Layer 1
10
36.550300
20
1.228520
11
36.550300
21
1.505220
0
LINE
8
Layer 1
10
36.550300
20
1.505220
11
32.607700
21
1.505220
0
LINE
8
Layer 1
10
32.607700
20
1.505220
11
32.607700
21
1.228520
0
LINE
8
Layer 1
10
32.607700
20
1.228520
11
32.378300
21
1.228520
0
LINE
8
Layer 1
10
32.378300
20
1.228520
11
32.378300
21
0.240708
0
LINE
8
Layer 1
10
32.378300
20
0.240708
11
32.607700
21
0.240708
0
LINE
8
Layer 1
10
32.607700
20
0.240708
11
32.607700
21
-1.172910
0
LINE
8
Layer 1
10
32.607700
20
-1.172910
11
32.378300
21
-1.172910
0
LINE
8
Layer 1
10
32.378300
20
-1.172910
11
32.378300
21
-2.160720
0
LINE
8
Layer 1
10
32.378300
20
-2.160720
11
32.607700
21
-2.160720
0
LINE
8
Layer 1
10
32.607700
20
-2.160720
11
32.607700
21
-2.437420
0
LINE
8
Layer 1
10
32.607700
20
-2.437420
11
36.550300
21
-2.437420
0
LINE
8
Layer 1
10
31.174000
20
-2.888320
11
31.174000
21
-2.611610
0
LINE
8
Layer 1
10
31.174000
20
-2.611610
11
31.403400
21
-2.611610
0
LINE
8
Layer 1
10
31.403400
20
-2.611610
11
31.403400
21
-1.623800
0
LINE
8
Layer 1
10
31.403400
20
-1.623800
11
31.174000
21
-1.623800
0
LINE
8
Layer 1
10
31.174000
20
-1.623800
11
31.174000
21
-0.210186
0
LINE
8
Layer 1
10
31.174000
20
-0.210186
11
31.403400
21
-0.210186
0
LINE
8
Layer 1
10
31.403400
20
-0.210186
11
31.403400
21
0.777624
0
LINE
8
Layer 1
10
31.403400
20
0.777624
11
31.174000
21
0.777624
0
LINE
8
Layer 1
10
31.174000
20
0.777624
11
31.174000
21
1.054330
0
LINE
8
Layer 1
10
31.174000
20
1.054330
11
27.231300
21
1.054330
0
LINE
8
Layer 1
10
27.231300
20
1.054330
11
27.231300
21
0.777624
0
LINE
8
Layer 1
10
27.231300
20
0.777624
11
27.002000
21
0.777624
0
LINE
8
Layer 1
10
27.002000
20
0.777624
11
27.002000
21
-0.210186
0
LINE
8
Layer 1
10
27.002000
20
-0.210186
11
27.231300
21
-0.210186
0
LINE
8
Layer 1
10
27.231300
20
-0.210186
11
27.231300
21
-1.623800
0
LINE
8
Layer 1
10
27.231300
20
-1.623800
11
27.002000
21
-1.623800
0
LINE
8
Layer 1
10
27.002000
20
-1.623800
11
27.002000
21
-2.611610
0
LINE
8
Layer 1
10
27.002000
20
-2.611610
11
27.231300
21
-2.611610
0
LINE
8
Layer 1
10
27.231300
20
-2.611610
11
27.231300
21
-2.888320
0
LINE
8
Layer 1
10
27.231300
20
-2.888320
11
31.174000
21
-2.888320
0
LINE
8
Layer 1
10
20.421300
20
-1.541370
11
20.421300
21
-1.264660
0
LINE
8
Layer 1
10
20.421300
20
-1.264660
11
20.650700
21
-1.264660
0
LINE
8
Layer 1
10
20.650700
20
-1.264660
11
20.650700
21
-0.276853
0
LINE
8
Layer 1
10
20.650700
20
-0.276853
11
20.421300
21
-0.276853
0
LINE
8
Layer 1
10
20.421300
20
-0.276853
11
20.421300
21
1.136760
0
LINE
8
Layer 1
10
20.421300
20
1.136760
11
20.650700
21
1.136760
0
LINE
8
Layer 1
10
20.650700
20
1.136760
11
20.650700
21
2.124570
0
LINE
8
Layer 1
10
20.650700
20
2.124570
11
20.421300
21
2.124570
0
LINE
8
Layer 1
10
20.421300
20
2.124570
11
20.421300
21
2.401280
0
LINE
8
Layer 1
10
20.421300
20
2.401280
11
16.478700
21
2.401280
0
LINE
8
Layer 1
10
16.478700
20
2.401280
11
16.478700
21
2.124570
0
LINE
8
Layer 1
10
16.478700
20
2.124570
11
16.249300
21
2.124570
0
LINE
8
Layer 1
10
16.249300
20
2.124570
11
16.249300
21
1.136760
0
LINE
8
Layer 1
10
16.249300
20
1.136760
11
16.478700
21
1.136760
0
LINE
8
Layer 1
10
16.478700
20
1.136760
11
16.478700
21
-0.276853
0
LINE
8
Layer 1
10
16.478700
20
-0.276853
11
16.249300
21
-0.276853
0
LINE
8
Layer 1
10
16.249300
20
-0.276853
11
16.249300
21
-1.264660
0
LINE
8
Layer 1
10
16.249300
20
-1.264660
11
16.478700
21
-1.264660
0
LINE
8
Layer 1
10
16.478700
20
-1.264660
11
16.478700
21
-1.541370
0
LINE
8
Layer 1
10
16.478700
20
-1.541370
11
20.421300
21
-1.541370
0
LINE
8
Layer 1
10
25.797700
20
13.691600
11
25.797700
21
13.968300
0
LINE
8
Layer 1
10
25.797700
20
13.968300
11
26.027000
21
13.968300
0
LINE
8
Layer 1
10
26.027000
20
13.968300
11
26.027000
21
14.956100
0
LINE
8
Layer 1
10
26.027000
20
14.956100
11
25.797700
21
14.956100
0
LINE
8
Layer 1
10
25.797700
20
14.956100
11
25.797700
21
16.369700
0
LINE
8
Layer 1
10
25.797700
20
16.369700
11
26.027000
21
16.369700
0
LINE
8
Layer 1
10
26.027000
20
16.369700
11
26.027000
21
17.357500
0
LINE
8
Layer 1
10
26.027000
20
17.357500
11
25.797700
21
17.357500
0
LINE
8
Layer 1
10
25.797700
20
17.357500
11
25.797700
21
17.634200
0
LINE
8
Layer 1
10
25.797700
20
17.634200
11
21.855000
21
17.634200
0
LINE
8
Layer 1
10
21.855000
20
17.634200
11
21.855000
21
17.357500
0
LINE
8
Layer 1
10
21.855000
20
17.357500
11
21.625600
21
17.357500
0
LINE
8
Layer 1
10
21.625600
20
17.357500
11
21.625600
21
16.369700
0
LINE
8
Layer 1
10
21.625600
20
16.369700
11
21.855000
21
16.369700
0
LINE
8
Layer 1
10
21.855000
20
16.369700
11
21.855000
21
14.956100
0
LINE
8
Layer 1
10
21.855000
20
14.956100
11
21.625600
21
14.956100
0
LINE
8
Layer 1
10
21.625600
20
14.956100
11
21.625600
21
13.968300
0
LINE
8
Layer 1
10
21.625600
20
13.968300
11
21.855000
21
13.968300
0
LINE
8
Layer 1
10
21.855000
20
13.968300
11
21.855000
21
13.691600
0
LINE
8
Layer 1
10
21.855000
20
13.691600
11
25.797700
21
13.691600
0
LINE
8
Layer 1
10
36.550300
20
-7.813750
11
36.550300
21
-7.537050
0
LINE
8
Layer 1
10
36.550300
20
-7.537050
11
36.779700
21
-7.537050
0
LINE
8
Layer 1
10
36.779700
20
-7.537050
11
36.779700
21
-6.549240
0
LINE
8
Layer 1
10
36.779700
20
-6.549240
11
36.550300
21
-6.549240
0
LINE
8
Layer 1
10
36.550300
20
-6.549240
11
36.550300
21
-5.135620
0
LINE
8
Layer 1
10
36.550300
20
-5.135620
11
36.779700
21
-5.135620
0
LINE
8
Layer 1
10
36.779700
20
-5.135620
11
36.779700
21
-4.147810
0
LINE
8
Layer 1
10
36.779700
20
-4.147810
11
36.550300
21
-4.147810
0
LINE
8
Layer 1
10
36.550300
20
-4.147810
11
36.550300
21
-3.871110
0
LINE
8
Layer 1
10
36.550300
20
-3.871110
11
32.607700
21
-3.871110
0
LINE
8
Layer 1
10
32.607700
20
-3.871110
11
32.607700
21
-4.147810
0
LINE
8
Layer 1
10
32.607700
20
-4.147810
11
32.378300
21
-4.147810
0
LINE
8
Layer 1
10
32.378300
20
-4.147810
11
32.378300
21
-5.135620
0
LINE
8
Layer 1
10
32.378300
20
-5.135620
11
32.607700
21
-5.135620
0
LINE
8
Layer 1
10
32.607700
20
-5.135620
11
32.607700
21
-6.549240
0
LINE
8
Layer 1
10
32.607700
20
-6.549240
11
32.378300
21
-6.549240
0
LINE
8
Layer 1
10
32.378300
20
-6.549240
11
32.378300
21
-7.537050
0
LINE
8
Layer 1
10
32.378300
20
-7.537050
11
32.607700
21
-7.537050
0
LINE
8
Layer 1
10
32.607700
20
-7.537050
11
32.607700
21
-7.813750
0
LINE
8
Layer 1
10
32.607700
20
-7.813750
11
36.550300
21
-7.813750
0
LINE
8
Layer 1
10
31.174000
20
-8.264640
11
31.174000
21
-7.987940
0
LINE
8
Layer 1
10
31.174000
20
-7.987940
11
31.403400
21
-7.987940
0
LINE
8
Layer 1
10
31.403400
20
-7.987940
11
31.403400
21
-7.000130
0
LINE
8
Layer 1
10
31.403400
20
-7.000130
11
31.174000
21
-7.000130
0
LINE
8
Layer 1
10
31.174000
20
-7.000130
11
31.174000
21
-5.586520
0
LINE
8
Layer 1
10
31.174000
20
-5.586520
11
31.403400
21
-5.586520
0
LINE
8
Layer 1
10
31.403400
20
-5.586520
11
31.403400
21
-4.598700
0
LINE
8
Layer 1
10
31.403400
20
-4.598700
11
31.174000
21
-4.598700
0
LINE
8
Layer 1
10
31.174000
20
-4.598700
11
31.174000
21
-4.322000
0
LINE
8
Layer 1
10
31.174000
20
-4.322000
11
27.231300
21
-4.322000
0
LINE
8
Layer 1
10
27.231300
20
-4.322000
11
27.231300
21
-4.598700
0
LINE
8
Layer 1
10
27.231300
20
-4.598700
11
27.002000
21
-4.598700
0
LINE
8
Layer 1
10
27.002000
20
-4.598700
11
27.002000
21
-5.586520
0
LINE
8
Layer 1
10
27.002000
20
-5.586520
11
27.231300
21
-5.586520
0
LINE
8
Layer 1
10
27.231300
20
-5.586520
11
27.231300
21
-7.000130
0
LINE
8
Layer 1
10
27.231300
20
-7.000130
11
27.002000
21
-7.000130
0
LINE
8
Layer 1
10
27.002000
20
-7.000130
11
27.002000
21
-7.987940
0
LINE
8
Layer 1
10
27.002000
20
-7.987940
11
27.231300
21
-7.987940
0
LINE
8
Layer 1
10
27.231300
20
-7.987940
11
27.231300
21
-8.264640
0
LINE
8
Layer 1
10
27.231300
20
-8.264640
11
31.174000
21
-8.264640
0
LINE
8
Layer 1
10
25.797700
20
-7.813750
11
25.797700
21
-7.537050
0
LINE
8
Layer 1
10
25.797700
20
-7.537050
11
26.027000
21
-7.537050
0
LINE
8
Layer 1
10
26.027000
20
-7.537050
11
26.027000
21
-6.549240
0
LINE
8
Layer 1
10
26.027000
20
-6.549240
11
25.797700
21
-6.549240
0
LINE
8
Layer 1
10
25.797700
20
-6.549240
11
25.797700
21
-5.135620
0
LINE
8
Layer 1
10
25.797700
20
-5.135620
11
26.027000
21
-5.135620
0
LINE
8
Layer 1
10
26.027000
20
-5.135620
11
26.027000
21
-4.147810
0
LINE
8
Layer 1
10
26.027000
20
-4.147810
11
25.797700
21
-4.147810
0
LINE
8
Layer 1
10
25.797700
20
-4.147810
11
25.797700
21
-3.871110
0
LINE
8
Layer 1
10
25.797700
20
-3.871110
11
21.855000
21
-3.871110
0
LINE
8
Layer 1
10
21.855000
20
-3.871110
11
21.855000
21
-4.147810
0
LINE
8
Layer 1
10
21.855000
20
-4.147810
11
21.625600
21
-4.147810
0
LINE
8
Layer 1
10
21.625600
20
-4.147810
11
21.625600
21
-5.135620
0
LINE
8
Layer 1
10
21.625600
20
-5.135620
11
21.855000
21
-5.135620
0
LINE
8
Layer 1
10
21.855000
20
-5.135620
11
21.855000
21
-6.549240
0
LINE
8
Layer 1
10
21.855000
20
-6.549240
11
21.625600
21
-6.549240
0
LINE
8
Layer 1
10
21.625600
20
-6.549240
11
21.625600
21
-7.537050
0
LINE
8
Layer 1
10
21.625600
20
-7.537050
11
21.855000
21
-7.537050
0
LINE
8
Layer 1
10
21.855000
20
-7.537050
11
21.855000
21
-7.813750
0
LINE
8
Layer 1
10
21.855000
20
-7.813750
11
25.797700
21
-7.813750
0
LINE
8
Layer 1
10
20.421300
20
-6.916980
11
20.421300
21
-6.640280
0
LINE
8
Layer 1
10
20.421300
20
-6.640280
11
20.650700
21
-6.640280
0
LINE
8
Layer 1
10
20.650700
20
-6.640280
11
20.650700
21
-5.652470
0
LINE
8
Layer 1
10
20.650700
20
-5.652470
11
20.421300
21
-5.652470
0
LINE
8
Layer 1
10
20.421300
20
-5.652470
11
20.421300
21
-4.238850
0
LINE
8
Layer 1
10
20.421300
20
-4.238850
11
20.650700
21
-4.238850
0
LINE
8
Layer 1
10
20.650700
20
-4.238850
11
20.650700
21
-3.251040
0
LINE
8
Layer 1
10
20.650700
20
-3.251040
11
20.421300
21
-3.251040
0
LINE
8
Layer 1
10
20.421300
20
-3.251040
11
20.421300
21
-2.974340
0
LINE
8
Layer 1
10
20.421300
20
-2.974340
11
16.478700
21
-2.974340
0
LINE
8
Layer 1
10
16.478700
20
-2.974340
11
16.478700
21
-3.251040
0
LINE
8
Layer 1
10
16.478700
20
-3.251040
11
16.249300
21
-3.251040
0
LINE
8
Layer 1
10
16.249300
20
-3.251040
11
16.249300
21
-4.238850
0
LINE
8
Layer 1
10
16.249300
20
-4.238850
11
16.478700
21
-4.238850
0
LINE
8
Layer 1
10
16.478700
20
-4.238850
11
16.478700
21
-5.652470
0
LINE
8
Layer 1
10
16.478700
20
-5.652470
11
16.249300
21
-5.652470
0
LINE
8
Layer 1
10
16.249300
20
-5.652470
11
16.249300
21
-6.640280
0
LINE
8
Layer 1
10
16.249300
20
-6.640280
11
16.478700
21
-6.640280
0
LINE
8
Layer 1
10
16.478700
20
-6.640280
11
16.478700
21
-6.916980
0
LINE
8
Layer 1
10
16.478700
20
-6.916980
11
20.421300
21
-6.916980
0
LINE
8
Layer 1
10
53.716600
20
13.352500
11
53.599038
21
13.603395
0
LINE
8
Layer 1
10
53.599038
20
13.603395
11
53.806923
21
13.700169
0
LINE
8
Layer 1
10
53.806923
20
13.700169
11
53.389720
21
14.595507
0
LINE
8
Layer 1
10
53.389720
20
14.595507
11
53.181835
21
14.498733
0
LINE
8
Layer 1
10
53.181835
20
14.498733
11
52.584704
21
15.779733
0
LINE
8
Layer 1
10
52.584704
20
15.779733
11
52.792589
21
15.876507
0
LINE
8
Layer 1
10
52.792589
20
15.876507
11
52.374669
21
16.771845
0
LINE
8
Layer 1
10
52.374669
20
16.771845
11
52.166784
21
16.675071
0
LINE
8
Layer 1
10
52.166784
20
16.675071
11
52.049938
21
16.925966
0
LINE
8
Layer 1
10
52.049938
20
16.925966
11
48.476468
21
15.259306
0
LINE
8
Layer 1
10
48.476468
20
15.259306
11
48.594030
21
15.008411
0
LINE
8
Layer 1
10
48.594030
20
15.008411
11
48.386145
21
14.911637
0
LINE
8
Layer 1
10
48.386145
20
14.911637
11
48.803348
21
14.016299
0
LINE
8
Layer 1
10
48.803348
20
14.016299
11
49.011233
21
14.113073
0
LINE
8
Layer 1
10
49.011233
20
14.113073
11
49.608364
21
12.832073
0
LINE
8
Layer 1
10
49.608364
20
12.832073
11
49.400479
21
12.735299
0
LINE
8
Layer 1
10
49.400479
20
12.735299
11
49.818399
21
11.839961
0
LINE
8
Layer 1
10
49.818399
20
11.839961
11
50.026284
21
11.936735
0
LINE
8
Layer 1
10
50.026284
20
11.936735
11
50.143130
21
11.685840
0
LINE
8
Layer 1
10
50.143130
20
11.685840
11
53.716600
21
13.352500
0
LINE
8
Layer 1
10
58.589000
20
15.624200
11
58.471438
21
15.875095
0
LINE
8
Layer 1
10
58.471438
20
15.875095
11
58.679323
21
15.971869
0
LINE
8
Layer 1
10
58.679323
20
15.971869
11
58.262120
21
16.867207
0
LINE
8
Layer 1
10
58.262120
20
16.867207
11
58.054235
21
16.770433
0
LINE
8
Layer 1
10
58.054235
20
16.770433
11
57.457104
21
18.051433
0
LINE
8
Layer 1
10
57.457104
20
18.051433
11
57.664989
21
18.148207
0
LINE
8
Layer 1
10
57.664989
20
18.148207
11
57.247069
21
19.043545
0
LINE
8
Layer 1
10
57.247069
20
19.043545
11
57.039184
21
18.946771
0
LINE
8
Layer 1
10
57.039184
20
18.946771
11
56.922338
21
19.197666
0
LINE
8
Layer 1
10
56.922338
20
19.197666
11
53.348868
21
17.531006
0
LINE
8
Layer 1
10
53.348868
20
17.531006
11
53.466430
21
17.280111
0
LINE
8
Layer 1
10
53.466430
20
17.280111
11
53.258545
21
17.183337
0
LINE
8
Layer 1
10
53.258545
20
17.183337
11
53.675748
21
16.287999
0
LINE
8
Layer 1
10
53.675748
20
16.287999
11
53.883633
21
16.384773
0
LINE
8
Layer 1
10
53.883633
20
16.384773
11
54.480764
21
15.103773
0
LINE
8
Layer 1
10
54.480764
20
15.103773
11
54.272879
21
15.006999
0
LINE
8
Layer 1
10
54.272879
20
15.006999
11
54.690799
21
14.111661
0
LINE
8
Layer 1
10
54.690799
20
14.111661
11
54.898684
21
14.208435
0
LINE
8
Layer 1
10
54.898684
20
14.208435
11
55.015530
21
13.957540
0
LINE
8
Layer 1
10
55.015530
20
13.957540
11
58.589000
21
15.624200
0
LINE
8
Layer 1
10
54.044900
20
25.369700
11
53.927338
21
25.620598
0
LINE
8
Layer 1
10
53.927338
20
25.620598
11
54.135223
21
25.717372
0
LINE
8
Layer 1
10
54.135223
20
25.717372
11
53.718020
21
26.612710
0
LINE
8
Layer 1
10
53.718020
20
26.612710
11
53.510135
21
26.515936
0
LINE
8
Layer 1
10
53.510135
20
26.515936
11
52.913004
21
27.796936
0
LINE
8
Layer 1
10
52.913004
20
27.796936
11
53.120889
21
27.893710
0
LINE
8
Layer 1
10
53.120889
20
27.893710
11
52.702969
21
28.789048
0
LINE
8
Layer 1
10
52.702969
20
28.789048
11
52.495084
21
28.692274
0
LINE
8
Layer 1
10
52.495084
20
28.692274
11
52.378238
21
28.943169
0
LINE
8
Layer 1
10
52.378238
20
28.943169
11
48.804768
21
27.276509
0
LINE
8
Layer 1
10
48.804768
20
27.276509
11
48.922330
21
27.025614
0
LINE
8
Layer 1
10
48.922330
20
27.025614
11
48.714445
21
26.928840
0
LINE
8
Layer 1
10
48.714445
20
26.928840
11
49.131648
21
26.033502
0
LINE
8
Layer 1
10
49.131648
20
26.033502
11
49.339533
21
26.130276
0
LINE
8
Layer 1
10
49.339533
20
26.130276
11
49.936664
21
24.849276
0
LINE
8
Layer 1
10
49.936664
20
24.849276
11
49.728779
21
24.752502
0
LINE
8
Layer 1
10
49.728779
20
24.752502
11
50.146699
21
23.857164
0
LINE
8
Layer 1
10
50.146699
20
23.857164
11
50.354584
21
23.953938
0
LINE
8
Layer 1
10
50.354584
20
23.953938
11
50.471430
21
23.703043
0
LINE
8
Layer 1
10
50.471430
20
23.703043
11
54.044900
21
25.369700
0
LINE
8
Layer 1
10
56.317300
20
20.496600
11
56.199738
21
20.747495
0
LINE
8
Layer 1
10
56.199738
20
20.747495
11
56.407623
21
20.844269
0
LINE
8
Layer 1
10
56.407623
20
20.844269
11
55.990420
21
21.739607
0
LINE
8
Layer 1
10
55.990420
20
21.739607
11
55.782535
21
21.642833
0
LINE
8
Layer 1
10
55.782535
20
21.642833
11
55.185404
21
22.923833
0
LINE
8
Layer 1
10
55.185404
20
22.923833
11
55.393289
21
23.020607
0
LINE
8
Layer 1
10
55.393289
20
23.020607
11
54.975369
21
23.915945
0
LINE
8
Layer 1
10
54.975369
20
23.915945
11
54.767484
21
23.819171
0
LINE
8
Layer 1
10
54.767484
20
23.819171
11
54.650638
21
24.070066
0
LINE
8
Layer 1
10
54.650638
20
24.070066
11
51.077168
21
22.403406
0
LINE
8
Layer 1
10
51.077168
20
22.403406
11
51.194730
21
22.152511
0
LINE
8
Layer 1
10
51.194730
20
22.152511
11
50.986845
21
22.055737
0
LINE
8
Layer 1
10
50.986845
20
22.055737
11
51.404048
21
21.160399
0
LINE
8
Layer 1
10
51.404048
20
21.160399
11
51.611933
21
21.257173
0
LINE
8
Layer 1
10
51.611933
20
21.257173
11
52.209064
21
19.976173
0
LINE
8
Layer 1
10
52.209064
20
19.976173
11
52.001179
21
19.879399
0
LINE
8
Layer 1
10
52.001179
20
19.879399
11
52.419099
21
18.984061
0
LINE
8
Layer 1
10
52.419099
20
18.984061
11
52.626984
21
19.080835
0
LINE
8
Layer 1
10
52.626984
20
19.080835
11
52.743830
21
18.829940
0
LINE
8
Layer 1
10
52.743830
20
18.829940
11
56.317300
21
20.496600
0
LINE
8
Layer 1
10
41.926600
20
-2.079000
11
41.926600
21
-1.802300
0
LINE
8
Layer 1
10
41.926600
20
-1.802300
11
42.156000
21
-1.802300
0
LINE
8
Layer 1
10
42.156000
20
-1.802300
11
42.156000
21
-0.814486
0
LINE
8
Layer 1
10
42.156000
20
-0.814486
11
41.926600
21
-0.814486
0
LINE
8
Layer 1
10
41.926600
20
-0.814486
11
41.926600
21
0.599130
0
LINE
8
Layer 1
10
41.926600
20
0.599130
11
42.156000
21
0.599130
0
LINE
8
Layer 1
10
42.156000
20
0.599130
11
42.156000
21
1.586940
0
LINE
8
Layer 1
10
42.156000
20
1.586940
11
41.926600
21
1.586940
0
LINE
8
Layer 1
10
41.926600
20
1.586940
11
41.926600
21
1.863640
0
LINE
8
Layer 1
10
41.926600
20
1.863640
11
37.984000
21
1.863640
0
LINE
8
Layer 1
10
37.984000
20
1.863640
11
37.984000
21
1.586940
0
LINE
8
Layer 1
10
37.984000
20
1.586940
11
37.754600
21
1.586940
0
LINE
8
Layer 1
10
37.754600
20
1.586940
11
37.754600
21
0.599130
0
LINE
8
Layer 1
10
37.754600
20
0.599130
11
37.984000
21
0.599130
0
LINE
8
Layer 1
10
37.984000
20
0.599130
11
37.984000
21
-0.814486
0
LINE
8
Layer 1
10
37.984000
20
-0.814486
11
37.754600
21
-0.814486
0
LINE
8
Layer 1
10
37.754600
20
-0.814486
11
37.754600
21
-1.802300
0
LINE
8
Layer 1
10
37.754600
20
-1.802300
11
37.984000
21
-1.802300
0
LINE
8
Layer 1
10
37.984000
20
-1.802300
11
37.984000
21
-2.079000
0
LINE
8
Layer 1
10
37.984000
20
-2.079000
11
41.926600
21
-2.079000
0
LINE
8
Layer 1
10
15.045000
20
14.587600
11
15.045000
21
14.864300
0
LINE
8
Layer 1
10
15.045000
20
14.864300
11
15.274400
21
14.864300
0
LINE
8
Layer 1
10
15.274400
20
14.864300
11
15.274400
21
15.852100
0
LINE
8
Layer 1
10
15.274400
20
15.852100
11
15.045000
21
15.852100
0
LINE
8
Layer 1
10
15.045000
20
15.852100
11
15.045000
21
17.265700
0
LINE
8
Layer 1
10
15.045000
20
17.265700
11
15.274400
21
17.265700
0
LINE
8
Layer 1
10
15.274400
20
17.265700
11
15.274400
21
18.253600
0
LINE
8
Layer 1
10
15.274400
20
18.253600
11
15.045000
21
18.253600
0
LINE
8
Layer 1
10
15.045000
20
18.253600
11
15.045000
21
18.530300
0
LINE
8
Layer 1
10
15.045000
20
18.530300
11
11.102400
21
18.530300
0
LINE
8
Layer 1
10
11.102400
20
18.530300
11
11.102400
21
18.253600
0
LINE
8
Layer 1
10
11.102400
20
18.253600
11
10.873000
21
18.253600
0
LINE
8
Layer 1
10
10.873000
20
18.253600
11
10.873000
21
17.265700
0
LINE
8
Layer 1
10
10.873000
20
17.265700
11
11.102400
21
17.265700
0
LINE
8
Layer 1
10
11.102400
20
17.265700
11
11.102400
21
15.852100
0
LINE
8
Layer 1
10
11.102400
20
15.852100
11
10.873000
21
15.852100
0
LINE
8
Layer 1
10
10.873000
20
15.852100
11
10.873000
21
14.864300
0
LINE
8
Layer 1
10
10.873000
20
14.864300
11
11.102400
21
14.864300
0
LINE
8
Layer 1
10
11.102400
20
14.864300
11
11.102400
21
14.587600
0
LINE
8
Layer 1
10
11.102400
20
14.587600
11
15.045000
21
14.587600
0
LINE
8
Layer 1
10
207.582000
20
332.308000
11
207.582000
21
340.085000
0
LINE
8
Layer 1
10
207.582000
20
340.085000
11
206.343000
21
340.085000
0
LINE
8
Layer 1
10
206.343000
20
340.085000
11
206.343000
21
339.888000
0
LINE
8
Layer 1
10
206.343000
20
339.888000
11
206.573000
21
339.888000
0
LINE
8
Layer 1
10
206.573000
20
339.888000
11
206.573000
21
338.901000
0
LINE
8
Layer 1
10
206.573000
20
338.901000
11
206.343000
21
338.901000
0
LINE
8
Layer 1
10
206.343000
20
338.901000
11
206.343000
21
337.487000
0
LINE
8
Layer 1
10
206.343000
20
337.487000
11
206.573000
21
337.487000
0
LINE
8
Layer 1
10
206.573000
20
337.487000
11
206.573000
21
336.499000
0
LINE
8
Layer 1
10
206.573000
20
336.499000
11
206.343000
21
336.499000
0
LINE
8
Layer 1
10
206.343000
20
336.499000
11
206.343000
21
336.222000
0
LINE
8
Layer 1
10
206.343000
20
336.222000
11
202.401000
21
336.222000
0
LINE
8
Layer 1
10
202.401000
20
336.222000
11
202.401000
21
336.499000
0
LINE
8
Layer 1
10
202.401000
20
336.499000
11
202.171000
21
336.499000
0
LINE
8
Layer 1
10
202.171000
20
336.499000
11
202.171000
21
337.487000
0
LINE
8
Layer 1
10
202.171000
20
337.487000
11
202.401000
21
337.487000
0
LINE
8
Layer 1
10
202.401000
20
337.487000
11
202.401000
21
338.901000
0
LINE
8
Layer 1
10
202.401000
20
338.901000
11
202.171000
21
338.901000
0
LINE
8
Layer 1
10
202.171000
20
338.901000
11
202.171000
21
339.888000
0
LINE
8
Layer 1
10
202.171000
20
339.888000
11
202.401000
21
339.888000
0
LINE
8
Layer 1
10
202.401000
20
339.888000
11
202.401000
21
340.165000
0
LINE
8
Layer 1
10
202.401000
20
340.165000
11
204.259000
21
340.165000
0
LINE
8
Layer 1
10
204.259000
20
340.165000
11
204.265564
21
340.997906
0
LINE
8
Layer 1
10
204.265564
20
340.997906
11
204.259582
21
341.004761
0
LINE
8
Layer 1
10
204.259582
20
341.004761
11
204.253751
21
341.014970
0
LINE
8
Layer 1
10
204.253751
20
341.014970
11
204.250107
21
341.026053
0
LINE
8
Layer 1
10
204.250107
20
341.026053
11
204.248942
21
341.037867
0
LINE
8
Layer 1
10
204.248942
20
341.037867
11
204.249000
21
342.942000
0
LINE
8
Layer 1
10
204.249000
20
342.942000
11
203.665000
21
342.942000
0
LINE
8
Layer 1
10
203.665000
20
342.942000
11
203.665000
21
342.713000
0
LINE
8
Layer 1
10
203.665000
20
342.713000
11
202.677000
21
342.713000
0
LINE
8
Layer 1
10
202.677000
20
342.713000
11
202.677000
21
342.942000
0
LINE
8
Layer 1
10
202.677000
20
342.942000
11
202.401000
21
342.942000
0
LINE
8
Layer 1
10
202.401000
20
342.942000
11
202.401000
21
346.885000
0
LINE
8
Layer 1
10
202.401000
20
346.885000
11
202.677000
21
346.885000
0
LINE
8
Layer 1
10
202.677000
20
346.885000
11
202.677000
21
347.114000
0
LINE
8
Layer 1
10
202.677000
20
347.114000
11
203.665000
21
347.114000
0
LINE
8
Layer 1
10
203.665000
20
347.114000
11
203.665000
21
346.885000
0
LINE
8
Layer 1
10
203.665000
20
346.885000
11
204.249000
21
346.885000
0
LINE
8
Layer 1
10
204.249000
20
346.885000
11
204.249000
21
351.007000
0
LINE
8
Layer 1
10
204.249000
20
351.007000
11
203.665000
21
351.007000
0
LINE
8
Layer 1
10
203.665000
20
351.007000
11
203.665000
21
350.777000
0
LINE
8
Layer 1
10
203.665000
20
350.777000
11
202.677000
21
350.777000
0
LINE
8
Layer 1
10
202.677000
20
350.777000
11
202.677000
21
351.007000
0
LINE
8
Layer 1
10
202.677000
20
351.007000
11
202.401000
21
351.007000
0
LINE
8
Layer 1
10
202.401000
20
351.007000
11
202.401000
21
354.949000
0
LINE
8
Layer 1
10
202.401000
20
354.949000
11
202.677000
21
354.949000
0
LINE
8
Layer 1
10
202.677000
20
354.949000
11
202.677000
21
355.179000
0
LINE
8
Layer 1
10
202.677000
20
355.179000
11
203.665000
21
355.179000
0
LINE
8
Layer 1
10
203.665000
20
355.179000
11
203.665000
21
354.949000
0
LINE
8
Layer 1
10
203.665000
20
354.949000
11
205.079000
21
354.949000
0
LINE
8
Layer 1
10
205.079000
20
354.949000
11
205.079000
21
355.179000
0
LINE
8
Layer 1
10
205.079000
20
355.179000
11
206.067000
21
355.179000
0
LINE
8
Layer 1
10
206.067000
20
355.179000
11
206.067000
21
354.949000
0
LINE
8
Layer 1
10
206.067000
20
354.949000
11
206.343000
21
354.949000
0
LINE
8
Layer 1
10
206.343000
20
354.949000
11
206.343000
21
352.253000
0
LINE
8
Layer 1
10
206.343000
20
352.253000
11
209.990521
21
354.058876
0
LINE
8
Layer 1
10
209.990521
20
354.058876
11
213.630160
21
355.727990
0
LINE
8
Layer 1
10
213.630160
20
355.727990
11
217.087000
21
353.399000
0
LINE
8
Layer 1
10
217.087000
20
353.399000
11
213.815000
21
333.710000
0
LINE
8
Layer 1
10
213.815000
20
333.710000
11
213.813103
21
333.701979
0
LINE
8
Layer 1
10
213.813103
20
333.701979
11
213.808287
21
333.691186
0
LINE
8
Layer 1
10
213.808287
20
333.691186
11
213.801290
21
333.681707
0
LINE
8
Layer 1
10
213.801290
20
333.681707
11
213.792540
21
333.673831
0
LINE
8
Layer 1
10
213.792540
20
333.673831
11
213.790792
21
333.672810
0
LINE
8
Layer 1
10
213.790792
20
333.672810
11
213.791000
21
332.311000
0
LINE
8
Layer 1
10
213.791000
20
332.311000
11
214.052933
21
332.338564
0
LINE
8
Layer 1
10
214.052933
20
332.338564
11
214.333533
21
332.429716
0
LINE
8
Layer 1
10
214.333533
20
332.429716
11
214.589049
21
332.577163
0
LINE
8
Layer 1
10
214.589049
20
332.577163
11
214.808250
21
332.774634
0
LINE
8
Layer 1
10
214.808250
20
332.774634
11
214.981657
21
333.013232
0
LINE
8
Layer 1
10
214.981657
20
333.013232
11
215.101685
21
333.282749
0
LINE
8
Layer 1
10
215.101685
20
333.282749
11
215.150834
21
333.482845
0
LINE
8
Layer 1
10
215.150834
20
333.482845
11
219.436554
21
358.741545
0
LINE
8
Layer 1
10
219.436554
20
358.741545
11
219.609669
21
359.216554
0
LINE
8
Layer 1
10
219.609669
20
359.216554
11
219.680986
21
359.502989
0
LINE
8
Layer 1
10
219.680986
20
359.502989
11
219.691341
21
359.797882
0
LINE
8
Layer 1
10
219.691341
20
359.797882
11
219.640150
21
360.088546
0
LINE
8
Layer 1
10
219.640150
20
360.088546
11
219.562562
21
360.295934
0
LINE
8
Layer 1
10
219.562562
20
360.295934
11
213.442872
21
373.420134
0
LINE
8
Layer 1
10
213.442872
20
373.420134
11
213.291050
21
373.673025
0
LINE
8
Layer 1
10
213.291050
20
373.673025
11
213.089788
21
373.888871
0
LINE
8
Layer 1
10
213.089788
20
373.888871
11
212.848127
21
374.057902
0
LINE
8
Layer 1
10
212.848127
20
374.057902
11
212.645844
21
374.150220
0
LINE
8
Layer 1
10
212.645844
20
374.150220
11
211.455044
21
374.582934
0
LINE
8
Layer 1
10
211.455044
20
374.582934
11
211.168756
21
374.653959
0
LINE
8
Layer 1
10
211.168756
20
374.653959
11
210.873863
21
374.664168
0
LINE
8
Layer 1
10
210.873863
20
374.664168
11
210.583345
21
374.612832
0
LINE
8
Layer 1
10
210.583345
20
374.612832
11
210.376833
21
374.535536
0
LINE
8
Layer 1
10
210.376833
20
374.535536
11
188.599533
21
364.382536
0
LINE
8
Layer 1
10
188.599533
20
364.382536
11
169.371000
21
364.383000
0
LINE
8
Layer 1
10
169.371000
20
364.383000
11
169.077857
21
364.352227
0
LINE
8
Layer 1
10
169.077857
20
364.352227
11
168.797256
21
364.261075
0
LINE
8
Layer 1
10
168.797256
20
364.261075
11
168.541886
21
364.113483
0
LINE
8
Layer 1
10
168.541886
20
364.113483
11
168.373438
21
363.969828
0
LINE
8
Layer 1
10
168.373438
20
363.969828
11
165.684978
21
361.281368
0
LINE
8
Layer 1
10
165.684978
20
361.281368
11
165.499466
21
361.052250
0
LINE
8
Layer 1
10
165.499466
20
361.052250
11
165.365437
21
360.789442
0
LINE
8
Layer 1
10
165.365437
20
360.789442
11
165.289307
21
360.504320
0
LINE
8
Layer 1
10
165.289307
20
360.504320
11
165.271806
21
360.283660
0
LINE
8
Layer 1
10
165.271806
20
360.283660
11
165.271000
21
334.615000
0
LINE
8
Layer 1
10
165.271000
20
334.615000
11
165.301773
21
334.321711
0
LINE
8
Layer 1
10
165.301773
20
334.321711
11
165.392924
21
334.041110
0
LINE
8
Layer 1
10
165.392924
20
334.041110
11
165.540517
21
333.785594
0
LINE
8
Layer 1
10
165.540517
20
333.785594
11
165.684172
21
333.617292
0
LINE
8
Layer 1
10
165.684172
20
333.617292
11
166.580228
21
332.721236
0
LINE
8
Layer 1
10
166.580228
20
332.721236
11
166.809638
21
332.535579
0
LINE
8
Layer 1
10
166.809638
20
332.535579
11
167.072446
21
332.401696
0
LINE
8
Layer 1
10
167.072446
20
332.401696
11
167.357422
21
332.325275
0
LINE
8
Layer 1
10
167.357422
20
332.325275
11
167.578082
21
332.307919
0
LINE
8
Layer 1
10
167.578082
20
332.307919
11
207.582000
21
332.308000
0
LINE
8
Layer 1
10
9.419570
20
-8.565930
11
9.204517
21
-8.938413
0
LINE
8
Layer 1
10
9.204517
20
-8.938413
11
8.774411
21
-8.938413
0
LINE
8
Layer 1
10
8.774411
20
-8.938413
11
8.559358
21
-8.565930
0
LINE
8
Layer 1
10
8.559358
20
-8.565930
11
8.774411
21
-8.193447
0
LINE
8
Layer 1
10
8.774411
20
-8.193447
11
9.204517
21
-8.193447
0
LINE
8
Layer 1
10
9.204517
20
-8.193447
11
9.419570
21
-8.565930
0
LINE
8
Layer 1
10
9.419570
20
-8.565930
11
9.419570
21
-8.565930
0
LINE
8
Layer 1
10
57.368800
20
12.392100
11
57.153747
21
12.019617
0
LINE
8
Layer 1
10
57.153747
20
12.019617
11
56.723641
21
12.019617
0
LINE
8
Layer 1
10
56.723641
20
12.019617
11
56.508588
21
12.392100
0
LINE
8
Layer 1
10
56.508588
20
12.392100
11
56.723641
21
12.764583
0
LINE
8
Layer 1
10
56.723641
20
12.764583
11
57.153747
21
12.764583
0
LINE
8
Layer 1
10
57.153747
20
12.764583
11
57.368800
21
12.392100
0
LINE
8
Layer 1
10
57.368800
20
12.392100
11
57.368800
21
12.392100
0
LINE
8
Layer 1
10
84.280600
20
58.114100
11
84.653083
21
58.329153
0
LINE
8
Layer 1
10
84.653083
20
58.329153
11
84.653083
21
58.759259
0
LINE
8
Layer 1
10
84.653083
20
58.759259
11
84.280600
21
58.974312
0
LINE
8
Layer 1
10
84.280600
20
58.974312
11
83.908117
21
58.759259
0
LINE
8
Layer 1
10
83.908117
20
58.759259
11
83.908117
21
58.329153
0
LINE
8
Layer 1
10
83.908117
20
58.329153
11
84.280600
21
58.114100
0
LINE
8
Layer 1
10
84.280600
20
58.114100
11
84.280600
21
58.114100
0
LINE
8
Layer 1
10
67.065100
20
52.921840
11
67.438131
21
53.136704
0
LINE
8
Layer 1
10
67.438131
20
53.136704
11
67.438131
21
53.567191
0
LINE
8
Layer 1
10
67.438131
20
53.567191
11
67.065100
21
53.782055
0
LINE
8
Layer 1
10
67.065100
20
53.782055
11
66.692069
21
53.567191
0
LINE
8
Layer 1
10
66.692069
20
53.567191
11
66.692069
21
53.136704
0
LINE
8
Layer 1
10
66.692069
20
53.136704
11
67.065100
21
52.921840
0
LINE
8
Layer 1
10
67.065100
20
52.921840
11
67.065100
21
52.921840
0
LINE
8
Layer 1
10
68.976370
20
60.937550
11
69.348853
21
61.152604
0
LINE
8
Layer 1
10
69.348853
20
61.152604
11
69.348853
21
61.582710
0
LINE
8
Layer 1
10
69.348853
20
61.582710
11
68.976370
21
61.797763
0
LINE
8
Layer 1
10
68.976370
20
61.797763
11
68.603887
21
61.582709
0
LINE
8
Layer 1
10
68.603887
20
61.582709
11
68.603887
21
61.152603
0
LINE
8
Layer 1
10
68.603887
20
61.152603
11
68.976370
21
60.937550
0
LINE
8
Layer 1
10
68.976370
20
60.937550
11
68.976370
21
60.937550
0
LINE
8
Layer 1
10
90.825870
20
62.160770
11
70.467770
21
62.203936
0
LINE
8
Layer 1
10
70.467770
20
62.203936
11
70.467206
21
62.202807
0
LINE
8
Layer 1
10
70.467206
20
62.202807
11
66.334800
21
59.379400
0
LINE
8
Layer 1
10
66.334800
20
59.379400
11
66.118603
21
59.184351
0
LINE
8
Layer 1
10
66.118603
20
59.184351
11
66.192749
21
58.931954
0
LINE
8
Layer 1
10
66.192749
20
58.931954
11
68.555679
21
57.838434
0
LINE
8
Layer 1
10
68.555679
20
57.838434
11
68.703895
21
57.676678
0
LINE
8
Layer 1
10
68.703895
20
57.676678
11
68.694377
21
57.457491
0
LINE
8
Layer 1
10
68.694377
20
57.457491
11
64.331797
21
48.102011
0
LINE
8
Layer 1
10
64.331797
20
48.102011
11
64.156505
21
47.370363
0
LINE
8
Layer 1
10
64.156505
20
47.370363
11
64.220560
21
47.136790
0
LINE
8
Layer 1
10
64.220560
20
47.136790
11
64.392469
21
47.071341
0
LINE
8
Layer 1
10
64.392469
20
47.071341
11
89.651169
21
51.357071
0
LINE
8
Layer 1
10
89.651169
20
51.357071
11
89.851264
21
51.406220
0
LINE
8
Layer 1
10
89.851264
20
51.406220
11
90.120780
21
51.526246
0
LINE
8
Layer 1
10
90.120780
20
51.526246
11
90.359376
21
51.699654
0
LINE
8
Layer 1
10
90.359376
20
51.699654
11
90.556847
21
51.918850
0
LINE
8
Layer 1
10
90.556847
20
51.918850
11
90.704294
21
52.174368
0
LINE
8
Layer 1
10
90.704294
20
52.174368
11
90.795446
21
52.454967
0
LINE
8
Layer 1
10
90.795446
20
52.454967
11
90.823019
21
52.716900
0
LINE
8
Layer 1
10
90.823019
20
52.716900
11
90.822500
21
52.716900
0
LINE
8
Layer 1
10
90.822500
20
52.716900
11
90.825858
21
52.748404
0
LINE
8
Layer 1
10
90.825858
20
52.748404
11
90.825870
21
62.160770
0
LINE
8
Layer 1
10
384.022000
20
-33.145300
11
383.804211
21
-32.332500
0
LINE
8
Layer 1
10
383.804211
20
-32.332500
11
383.209200
21
-31.737489
0
LINE
8
Layer 1
10
383.209200
20
-31.737489
11
382.396400
21
-31.519700
0
LINE
8
Layer 1
10
382.396400
20
-31.519700
11
381.583600
21
-31.737489
0
LINE
8
Layer 1
10
381.583600
20
-31.737489
11
380.988589
21
-32.332500
0
LINE
8
Layer 1
10
380.988589
20
-32.332500
11
380.770800
21
-33.145300
0
LINE
8
Layer 1
10
380.770800
20
-33.145300
11
380.988589
21
-33.958100
0
LINE
8
Layer 1
10
380.988589
20
-33.958100
11
381.583600
21
-34.553111
0
LINE
8
Layer 1
10
381.583600
20
-34.553111
11
382.396400
21
-34.770900
0
LINE
8
Layer 1
10
382.396400
20
-34.770900
11
383.209200
21
-34.553111
0
LINE
8
Layer 1
10
383.209200
20
-34.553111
11
383.804211
21
-33.958100
0
LINE
8
Layer 1
10
383.804211
20
-33.958100
11
384.022000
21
-33.145300
0
LINE
8
Layer 1
10
384.022000
20
-33.145300
11
384.022000
21
-33.145300
0
LINE
8
Layer 1
10
240.698000
20
-124.784000
11
240.480211
21
-123.971200
0
LINE
8
Layer 1
10
240.480211
20
-123.971200
11
239.885200
21
-123.376189
0
LINE
8
Layer 1
10
239.885200
20
-123.376189
11
239.072400
21
-123.158400
0
LINE
8
Layer 1
10
239.072400
20
-123.158400
11
238.259600
21
-123.376189
0
LINE
8
Layer 1
10
238.259600
20
-123.376189
11
237.664589
21
-123.971200
0
LINE
8
Layer 1
10
237.664589
20
-123.971200
11
237.446800
21
-124.784000
0
LINE
8
Layer 1
10
237.446800
20
-124.784000
11
237.664589
21
-125.596800
0
LINE
8
Layer 1
10
237.664589
20
-125.596800
11
238.259600
21
-126.191811
0
LINE
8
Layer 1
10
238.259600
20
-126.191811
11
239.072400
21
-126.409600
0
LINE
8
Layer 1
10
239.072400
20
-126.409600
11
239.885200
21
-126.191811
0
LINE
8
Layer 1
10
239.885200
20
-126.191811
11
240.480211
21
-125.596800
0
LINE
8
Layer 1
10
240.480211
20
-125.596800
11
240.698000
21
-124.784000
0
LINE
8
Layer 1
10
240.698000
20
-124.784000
11
240.698000
21
-124.784000
0
LINE
8
Layer 1
10
343.463000
20
-143.668000
11
343.245211
21
-142.855200
0
LINE
8
Layer 1
10
343.245211
20
-142.855200
11
342.650200
21
-142.260189
0
LINE
8
Layer 1
10
342.650200
20
-142.260189
11
341.837400
21
-142.042400
0
LINE
8
Layer 1
10
341.837400
20
-142.042400
11
341.024600
21
-142.260189
0
LINE
8
Layer 1
10
341.024600
20
-142.260189
11
340.429589
21
-142.855200
0
LINE
8
Layer 1
10
340.429589
20
-142.855200
11
340.211800
21
-143.668000
0
LINE
8
Layer 1
10
340.211800
20
-143.668000
11
340.429589
21
-144.480800
0
LINE
8
Layer 1
10
340.429589
20
-144.480800
11
341.024600
21
-145.075811
0
LINE
8
Layer 1
10
341.024600
20
-145.075811
11
341.837400
21
-145.293600
0
LINE
8
Layer 1
10
341.837400
20
-145.293600
11
342.650200
21
-145.075811
0
LINE
8
Layer 1
10
342.650200
20
-145.075811
11
343.245211
21
-144.480800
0
LINE
8
Layer 1
10
343.245211
20
-144.480800
11
343.463000
21
-143.668000
0
LINE
8
Layer 1
10
343.463000
20
-143.668000
11
343.463000
21
-143.668000
0
LINE
8
Layer 1
10
392.285000
20
-105.168000
11
392.067211
21
-104.355200
0
LINE
8
Layer 1
10
392.067211
20
-104.355200
11
391.472200
21
-103.760189
0
LINE
8
Layer 1
10
391.472200
20
-103.760189
11
390.659400
21
-103.542400
0
LINE
8
Layer 1
10
390.659400
20
-103.542400
11
389.846600
21
-103.760189
0
LINE
8
Layer 1
10
389.846600
20
-103.760189
11
389.251589
21
-104.355200
0
LINE
8
Layer 1
10
389.251589
20
-104.355200
11
389.033800
21
-105.168000
0
LINE
8
Layer 1
10
389.033800
20
-105.168000
11
389.251589
21
-105.980800
0
LINE
8
Layer 1
10
389.251589
20
-105.980800
11
389.846600
21
-106.575811
0
LINE
8
Layer 1
10
389.846600
20
-106.575811
11
390.659400
21
-106.793600
0
LINE
8
Layer 1
10
390.659400
20
-106.793600
11
391.472200
21
-106.575811
0
LINE
8
Layer 1
10
391.472200
20
-106.575811
11
392.067211
21
-105.980800
0
LINE
8
Layer 1
10
392.067211
20
-105.980800
11
392.285000
21
-105.168000
0
LINE
8
Layer 1
10
392.285000
20
-105.168000
11
392.285000
21
-105.168000
0
LINE
8
Layer 1
10
-798.354000
20
61.701100
11
-949.547000
21
61.700536
0
LINE
8
Layer 1
10
-949.547000
20
61.700536
11
-950.380994
21
61.634942
0
LINE
8
Layer 1
10
-950.380994
20
61.634942
11
-951.458064
21
61.346108
0
LINE
8
Layer 1
10
-951.458064
20
61.346108
11
-952.451344
21
60.840092
0
LINE
8
Layer 1
10
-952.451344
20
60.840092
11
-953.318415
21
60.138395
0
LINE
8
Layer 1
10
-953.318415
20
60.138395
11
-956.705075
21
56.751735
0
LINE
8
Layer 1
10
-956.705075
20
56.751735
11
-957.248014
21
56.115632
0
LINE
8
Layer 1
10
-957.248014
20
56.115632
11
-957.805854
21
55.149905
0
LINE
8
Layer 1
10
-957.805854
20
55.149905
11
-958.150362
21
54.089365
0
LINE
8
Layer 1
10
-958.150362
20
54.089365
11
-958.266666
21
52.980875
0
LINE
8
Layer 1
10
-958.266666
20
52.980875
11
-958.266000
21
-44.033000
0
LINE
8
Layer 1
10
-958.266000
20
-44.033000
11
-958.199847
21
-44.866989
0
LINE
8
Layer 1
10
-958.199847
20
-44.866989
11
-957.912122
21
-45.944619
0
LINE
8
Layer 1
10
-957.912122
20
-45.944619
11
-957.405562
21
-46.937908
0
LINE
8
Layer 1
10
-957.405562
20
-46.937908
11
-956.704410
21
-47.803867
0
LINE
8
Layer 1
10
-956.704410
20
-47.803867
11
-946.543310
21
-57.964967
0
LINE
8
Layer 1
10
-946.543310
20
-57.964967
11
-945.906645
21
-58.507914
0
LINE
8
Layer 1
10
-945.906645
20
-58.507914
11
-944.941474
21
-59.065743
0
LINE
8
Layer 1
10
-944.941474
20
-59.065743
11
-943.880944
21
-59.410254
0
LINE
8
Layer 1
10
-943.880944
20
-59.410254
11
-942.772994
21
-59.526561
0
LINE
8
Layer 1
10
-942.772994
20
-59.526561
11
-870.099000
21
-59.526500
0
LINE
8
Layer 1
10
-870.099000
20
-59.526500
11
-787.791000
21
-97.899900
0
LINE
8
Layer 1
10
-787.791000
20
-97.899900
11
-787.010487
21
-98.192042
0
LINE
8
Layer 1
10
-787.010487
20
-98.192042
11
-785.912477
21
-98.386070
0
LINE
8
Layer 1
10
-785.912477
20
-98.386070
11
-784.797897
21
-98.347485
0
LINE
8
Layer 1
10
-784.797897
20
-98.347485
11
-783.715887
21
-98.079044
0
LINE
8
Layer 1
10
-783.715887
20
-98.079044
11
-779.215207
21
-96.443594
0
LINE
8
Layer 1
10
-779.215207
20
-96.443594
11
-778.450668
21
-96.094674
0
LINE
8
Layer 1
10
-778.450668
20
-96.094674
11
-777.537313
21
-95.455817
0
LINE
8
Layer 1
10
-777.537313
20
-95.455817
11
-776.776640
21
-94.640020
0
LINE
8
Layer 1
10
-776.776640
20
-94.640020
11
-776.202826
21
-93.684213
0
LINE
8
Layer 1
10
-776.202826
20
-93.684213
11
-753.073326
21
-44.080913
0
LINE
8
Layer 1
10
-753.073326
20
-44.080913
11
-752.780069
21
-43.297087
0
LINE
8
Layer 1
10
-752.780069
20
-43.297087
11
-752.586606
21
-42.198517
0
LINE
8
Layer 1
10
-752.586606
20
-42.198517
11
-752.625750
21
-41.083957
0
LINE
8
Layer 1
10
-752.625750
20
-41.083957
11
-752.895272
21
-40.001367
0
LINE
8
Layer 1
10
-752.895272
20
-40.001367
11
-753.549575
21
-38.206067
0
LINE
8
Layer 1
10
-753.549575
20
-38.206067
11
-769.747575
21
57.259933
0
LINE
8
Layer 1
10
-769.747575
20
57.259933
11
-769.933334
21
58.016200
0
LINE
8
Layer 1
10
-769.933334
20
58.016200
11
-770.386978
21
59.034840
0
LINE
8
Layer 1
10
-770.386978
20
59.034840
11
-771.042382
21
59.936627
0
LINE
8
Layer 1
10
-771.042382
20
59.936627
11
-771.870873
21
60.682974
0
LINE
8
Layer 1
10
-771.870873
20
60.682974
11
-772.836580
21
61.240252
0
LINE
8
Layer 1
10
-772.836580
20
61.240252
11
-773.897110
21
61.584760
0
LINE
8
Layer 1
10
-773.897110
20
61.584760
11
-774.887117
21
61.688939
0
LINE
8
Layer 1
10
-774.887117
20
61.688939
11
-774.887000
21
56.544400
0
LINE
8
Layer 1
10
-774.887000
20
56.544400
11
-774.880509
21
56.540534
0
LINE
8
Layer 1
10
-774.880509
20
56.540534
11
-774.847432
21
56.510768
0
LINE
8
Layer 1
10
-774.847432
20
56.510768
11
-774.820904
21
56.474939
0
LINE
8
Layer 1
10
-774.820904
20
56.474939
11
-774.802841
21
56.434150
0
LINE
8
Layer 1
10
-774.802841
20
56.434150
11
-774.795786
21
56.403834
0
LINE
8
Layer 1
10
-774.795786
20
56.403834
11
-762.428186
21
-18.012366
0
LINE
8
Layer 1
10
-762.428186
20
-18.012366
11
-775.492486
21
-26.814716
0
LINE
8
Layer 1
10
-775.492486
20
-26.814716
11
-787.779890
21
-21.183351
0
LINE
8
Layer 1
10
-787.779890
20
-21.183351
11
-793.911747
21
-18.306443
0
LINE
8
Layer 1
10
-793.911747
20
-18.306443
11
-800.067886
21
-15.244216
0
LINE
8
Layer 1
10
-800.067886
20
-15.244216
11
-800.068000
21
-30.865000
0
LINE
8
Layer 1
10
-800.068000
20
-30.865000
11
-800.153175
21
-31.286816
0
LINE
8
Layer 1
10
-800.153175
20
-31.286816
11
-800.385422
21
-31.631275
0
LINE
8
Layer 1
10
-800.385422
20
-31.631275
11
-800.729882
21
-31.863519
0
LINE
8
Layer 1
10
-800.729882
20
-31.863519
11
-801.151700
21
-31.948690
0
LINE
8
Layer 1
10
-801.151700
20
-31.948690
11
-814.548000
21
-31.948700
0
LINE
8
Layer 1
10
-814.548000
20
-31.948700
11
-815.256693
21
-32.202528
0
LINE
8
Layer 1
10
-815.256693
20
-32.202528
11
-815.606157
21
-32.797838
0
LINE
8
Layer 1
10
-815.606157
20
-32.797838
11
-815.541061
21
-33.485066
0
LINE
8
Layer 1
10
-815.541061
20
-33.485066
11
-815.006075
21
-34.014650
0
LINE
8
Layer 1
10
-815.006075
20
-34.014650
11
-803.846675
21
-39.218120
0
LINE
8
Layer 1
10
-803.846675
20
-39.218120
11
-803.219136
21
-39.369958
0
LINE
8
Layer 1
10
-803.219136
20
-39.369958
11
-802.603475
21
-39.272700
0
LINE
8
Layer 1
10
-802.603475
20
-39.272700
11
-802.069225
21
-38.951644
0
LINE
8
Layer 1
10
-802.069225
20
-38.951644
11
-801.685925
21
-38.432089
0
LINE
8
Layer 1
10
-801.685925
20
-38.432089
11
-794.243425
21
-22.471089
0
LINE
8
Layer 1
10
-794.243425
20
-22.471089
11
-793.988023
21
-22.124902
0
LINE
8
Layer 1
10
-793.988023
20
-22.124902
11
-793.632066
21
-21.910904
0
LINE
8
Layer 1
10
-793.632066
20
-21.910904
11
-793.221843
21
-21.845948
0
LINE
8
Layer 1
10
-793.221843
20
-21.845948
11
-792.803645
21
-21.946884
0
LINE
8
Layer 1
10
-792.803645
20
-21.946884
11
-757.444345
21
-38.435384
0
LINE
8
Layer 1
10
-757.444345
20
-38.435384
11
-757.098152
21
-38.690786
0
LINE
8
Layer 1
10
-757.098152
20
-38.690786
11
-756.884152
21
-39.046738
0
LINE
8
Layer 1
10
-756.884152
20
-39.046738
11
-756.819192
21
-39.456955
0
LINE
8
Layer 1
10
-756.819192
20
-39.456955
11
-756.920118
21
-39.875154
0
LINE
8
Layer 1
10
-756.920118
20
-39.875154
11
-781.996018
21
-93.650554
0
LINE
8
Layer 1
10
-781.996018
20
-93.650554
11
-782.251497
21
-93.996921
0
LINE
8
Layer 1
10
-782.251497
20
-93.996921
11
-782.607604
21
-94.210989
0
LINE
8
Layer 1
10
-782.607604
20
-94.210989
11
-783.017998
21
-94.275891
0
LINE
8
Layer 1
10
-783.017998
20
-94.275891
11
-783.436338
21
-94.174759
0
LINE
8
Layer 1
10
-783.436338
20
-94.174759
11
-837.211238
21
-69.098859
0
LINE
8
Layer 1
10
-837.211238
20
-69.098859
11
-837.557618
21
-68.843389
0
LINE
8
Layer 1
10
-837.557618
20
-68.843389
11
-837.771696
21
-68.487279
0
LINE
8
Layer 1
10
-837.771696
20
-68.487279
11
-837.836601
21
-68.076877
0
LINE
8
Layer 1
10
-837.836601
20
-68.076877
11
-837.735465
21
-67.658529
0
LINE
8
Layer 1
10
-837.735465
20
-67.658529
11
-822.161965
21
-34.260929
0
LINE
8
Layer 1
10
-822.161965
20
-34.260929
11
-822.013076
21
-33.444985
0
LINE
8
Layer 1
10
-822.013076
20
-33.444985
11
-822.264437
21
-32.700635
0
LINE
8
Layer 1
10
-822.264437
20
-32.700635
11
-822.832911
21
-32.158345
0
LINE
8
Layer 1
10
-822.832911
20
-32.158345
11
-823.635365
21
-31.948579
0
LINE
8
Layer 1
10
-823.635365
20
-31.948579
11
-839.082000
21
-31.948700
0
LINE
8
Layer 1
10
-839.082000
20
-31.948700
11
-839.714724
21
-32.076457
0
LINE
8
Layer 1
10
-839.714724
20
-32.076457
11
-840.231414
21
-32.424823
0
LINE
8
Layer 1
10
-840.231414
20
-32.424823
11
-840.579783
21
-32.941510
0
LINE
8
Layer 1
10
-840.579783
20
-32.941510
11
-840.707540
21
-33.574230
0
LINE
8
Layer 1
10
-840.707540
20
-33.574230
11
-840.708000
21
-49.830100
0
LINE
8
Layer 1
10
-840.708000
20
-49.830100
11
-840.793175
21
-50.251916
0
LINE
8
Layer 1
10
-840.793175
20
-50.251916
11
-841.025422
21
-50.596375
0
LINE
8
Layer 1
10
-841.025422
20
-50.596375
11
-841.369882
21
-50.828619
0
LINE
8
Layer 1
10
-841.369882
20
-50.828619
11
-841.791700
21
-50.913790
0
LINE
8
Layer 1
10
-841.791700
20
-50.913790
11
-860.683000
21
-50.913800
0
LINE
8
Layer 1
10
-860.683000
20
-50.913800
11
-861.288977
21
-50.728670
0
LINE
8
Layer 1
10
-861.288977
20
-50.728670
11
-861.687880
21
-50.236357
0
LINE
8
Layer 1
10
-861.687880
20
-50.236357
11
-862.286148
21
-49.498136
0
LINE
8
Layer 1
10
-862.286148
20
-49.498136
11
-863.194890
21
-49.220467
0
LINE
8
Layer 1
10
-863.194890
20
-49.220467
11
-879.722000
21
-49.220500
0
LINE
8
Layer 1
10
-879.722000
20
-49.220500
11
-880.630756
21
-49.498159
0
LINE
8
Layer 1
10
-880.630756
20
-49.498159
11
-881.229040
21
-50.236390
0
LINE
8
Layer 1
10
-881.229040
20
-50.236390
11
-881.627704
21
-50.728546
0
LINE
8
Layer 1
10
-881.627704
20
-50.728546
11
-882.233360
21
-50.913833
0
LINE
8
Layer 1
10
-882.233360
20
-50.913833
11
-900.042000
21
-50.913800
0
LINE
8
Layer 1
10
-900.042000
20
-50.913800
11
-900.674724
21
-51.041557
0
LINE
8
Layer 1
10
-900.674724
20
-51.041557
11
-901.191414
21
-51.389923
0
LINE
8
Layer 1
10
-901.191414
20
-51.389923
11
-901.539783
21
-51.906610
0
LINE
8
Layer 1
10
-901.539783
20
-51.906610
11
-901.667540
21
-52.539330
0
LINE
8
Layer 1
10
-901.667540
20
-52.539330
11
-901.668000
21
-53.216800
0
LINE
8
Layer 1
10
-901.668000
20
-53.216800
11
-901.753175
21
-53.638616
0
LINE
8
Layer 1
10
-901.753175
20
-53.638616
11
-901.985422
21
-53.983075
0
LINE
8
Layer 1
10
-901.985422
20
-53.983075
11
-902.329882
21
-54.215319
0
LINE
8
Layer 1
10
-902.329882
20
-54.215319
11
-902.751700
21
-54.300490
0
LINE
8
Layer 1
10
-902.751700
20
-54.300490
11
-941.766000
21
-54.300500
0
LINE
8
Layer 1
10
-941.766000
20
-54.300500
11
-942.187805
21
-54.215323
0
LINE
8
Layer 1
10
-942.187805
20
-54.215323
11
-942.532259
21
-53.983077
0
LINE
8
Layer 1
10
-942.532259
20
-53.983077
11
-942.764504
21
-53.638621
0
LINE
8
Layer 1
10
-942.764504
20
-53.638621
11
-942.849680
21
-53.216810
0
LINE
8
Layer 1
10
-942.849680
20
-53.216810
11
-942.849000
21
-35.606000
0
LINE
8
Layer 1
10
-942.849000
20
-35.606000
11
-942.976757
21
-34.973279
0
LINE
8
Layer 1
10
-942.976757
20
-34.973279
11
-943.325126
21
-34.456592
0
LINE
8
Layer 1
10
-943.325126
20
-34.456592
11
-943.841817
21
-34.108226
0
LINE
8
Layer 1
10
-943.841817
20
-34.108226
11
-944.474540
21
-33.980470
0
LINE
8
Layer 1
10
-944.474540
20
-33.980470
11
-951.848000
21
-33.980500
0
LINE
8
Layer 1
10
-951.848000
20
-33.980500
11
-952.263159
21
-33.896664
0
LINE
8
Layer 1
10
-952.263159
20
-33.896664
11
-952.602184
21
-33.668081
0
LINE
8
Layer 1
10
-952.602184
20
-33.668081
11
-952.830767
21
-33.329057
0
LINE
8
Layer 1
10
-952.830767
20
-33.329057
11
-952.914600
21
-32.913900
0
LINE
8
Layer 1
10
-952.914600
20
-32.913900
11
-952.915000
21
46.774700
0
LINE
8
Layer 1
10
-952.915000
20
46.774700
11
-952.831167
21
47.189857
0
LINE
8
Layer 1
10
-952.831167
20
47.189857
11
-952.602584
21
47.528879
0
LINE
8
Layer 1
10
-952.602584
20
47.528879
11
-952.263559
21
47.757462
0
LINE
8
Layer 1
10
-952.263559
20
47.757462
11
-951.848400
21
47.841300
0
LINE
8
Layer 1
10
-951.848400
20
47.841300
11
-903.835000
21
47.841300
0
LINE
8
Layer 1
10
-903.835000
20
47.841300
11
-903.202276
21
47.969057
0
LINE
8
Layer 1
10
-903.202276
20
47.969057
11
-902.685586
21
48.317423
0
LINE
8
Layer 1
10
-902.685586
20
48.317423
11
-902.337217
21
48.834110
0
LINE
8
Layer 1
10
-902.337217
20
48.834110
11
-902.209460
21
49.466830
0
LINE
8
Layer 1
10
-902.209460
20
49.466830
11
-902.210000
21
50.144300
0
LINE
8
Layer 1
10
-902.210000
20
50.144300
11
-902.124825
21
50.566109
0
LINE
8
Layer 1
10
-902.124825
20
50.566109
11
-901.892581
21
50.910567
0
LINE
8
Layer 1
10
-901.892581
20
50.910567
11
-901.548126
21
51.142813
0
LINE
8
Layer 1
10
-901.548126
20
51.142813
11
-901.126320
21
51.227990
0
LINE
8
Layer 1
10
-901.126320
20
51.227990
11
-883.515000
21
51.228000
0
LINE
8
Layer 1
10
-883.515000
20
51.228000
11
-882.606259
21
51.505667
0
LINE
8
Layer 1
10
-882.606259
20
51.505667
11
-882.007990
21
52.243890
0
LINE
8
Layer 1
10
-882.007990
20
52.243890
11
-881.609087
21
52.736203
0
LINE
8
Layer 1
10
-881.609087
20
52.736203
11
-881.003110
21
52.921333
0
LINE
8
Layer 1
10
-881.003110
20
52.921333
11
-861.914000
21
52.921300
0
LINE
8
Layer 1
10
-861.914000
20
52.921300
11
-861.308348
21
52.736013
0
LINE
8
Layer 1
10
-861.308348
20
52.736013
11
-860.909680
21
52.243857
0
LINE
8
Layer 1
10
-860.909680
20
52.243857
11
-860.311397
21
51.505628
0
LINE
8
Layer 1
10
-860.311397
20
51.505628
11
-859.402640
21
51.227967
0
LINE
8
Layer 1
10
-859.402640
20
51.227967
11
-841.428000
21
51.228000
0
LINE
8
Layer 1
10
-841.428000
20
51.228000
11
-840.886349
21
51.082723
0
LINE
8
Layer 1
10
-840.886349
20
51.082723
11
-840.489838
21
50.686156
0
LINE
8
Layer 1
10
-840.489838
20
50.686156
11
-839.894868
21
50.091009
0
LINE
8
Layer 1
10
-839.894868
20
50.091009
11
-839.082028
21
49.873114
0
LINE
8
Layer 1
10
-839.082028
20
49.873114
11
-808.049000
21
49.873100
0
LINE
8
Layer 1
10
-808.049000
20
49.873100
11
-807.627179
21
49.787931
0
LINE
8
Layer 1
10
-807.627179
20
49.787931
11
-807.282717
21
49.555687
0
LINE
8
Layer 1
10
-807.282717
20
49.555687
11
-807.050471
21
49.211227
0
LINE
8
Layer 1
10
-807.050471
20
49.211227
11
-806.965300
21
48.789410
0
LINE
8
Layer 1
10
-806.965300
20
48.789410
11
-800.067600
21
47.047870
0
LINE
8
Layer 1
10
-800.067600
20
47.047870
11
-798.354000
21
47.047900
0
LINE
8
Layer 1
10
-798.354000
20
47.047900
11
-798.354000
21
61.701100
0
LINE
8
Layer 1
10
241.355000
20
-33.180400
11
241.137211
21
-32.367600
0
LINE
8
Layer 1
10
241.137211
20
-32.367600
11
240.542200
21
-31.772589
0
LINE
8
Layer 1
10
240.542200
20
-31.772589
11
239.729400
21
-31.554800
0
LINE
8
Layer 1
10
239.729400
20
-31.554800
11
238.916600
21
-31.772589
0
LINE
8
Layer 1
10
238.916600
20
-31.772589
11
238.321589
21
-32.367600
0
LINE
8
Layer 1
10
238.321589
20
-32.367600
11
238.103800
21
-33.180400
0
LINE
8
Layer 1
10
238.103800
20
-33.180400
11
238.321589
21
-33.993200
0
LINE
8
Layer 1
10
238.321589
20
-33.993200
11
238.916600
21
-34.588211
0
LINE
8
Layer 1
10
238.916600
20
-34.588211
11
239.729400
21
-34.806000
0
LINE
8
Layer 1
10
239.729400
20
-34.806000
11
240.542200
21
-34.588211
0
LINE
8
Layer 1
10
240.542200
20
-34.588211
11
241.137211
21
-33.993200
0
LINE
8
Layer 1
10
241.137211
20
-33.993200
11
241.355000
21
-33.180400
0
LINE
8
Layer 1
10
241.355000
20
-33.180400
11
241.355000
21
-33.180400
0
LINE
8
Layer 1
10
422.581000
20
-112.392000
11
422.363211
21
-111.579200
0
LINE
8
Layer 1
10
422.363211
20
-111.579200
11
421.768200
21
-110.984189
0
LINE
8
Layer 1
10
421.768200
20
-110.984189
11
420.955400
21
-110.766400
0
LINE
8
Layer 1
10
420.955400
20
-110.766400
11
420.142600
21
-110.984189
0
LINE
8
Layer 1
10
420.142600
20
-110.984189
11
419.547589
21
-111.579200
0
LINE
8
Layer 1
10
419.547589
20
-111.579200
11
419.329800
21
-112.392000
0
LINE
8
Layer 1
10
419.329800
20
-112.392000
11
419.547589
21
-113.204800
0
LINE
8
Layer 1
10
419.547589
20
-113.204800
11
420.142600
21
-113.799811
0
LINE
8
Layer 1
10
420.142600
20
-113.799811
11
420.955400
21
-114.017600
0
LINE
8
Layer 1
10
420.955400
20
-114.017600
11
421.768200
21
-113.799811
0
LINE
8
Layer 1
10
421.768200
20
-113.799811
11
422.363211
21
-113.204800
0
LINE
8
Layer 1
10
422.363211
20
-113.204800
11
422.581000
21
-112.392000
0
LINE
8
Layer 1
10
422.581000
20
-112.392000
11
422.581000
21
-112.392000
0
LINE
8
Layer 1
10
101.196000
20
52.459800
11
101.626413
21
52.460153
0
LINE
8
Layer 1
10
101.626413
20
52.460153
11
101.841619
21
52.087404
0
LINE
8
Layer 1
10
101.841619
20
52.087404
11
101.626106
21
51.714833
0
LINE
8
Layer 1
10
101.626106
20
51.714833
11
101.195693
21
51.714480
0
LINE
8
Layer 1
10
101.195693
20
51.714480
11
100.980487
21
52.087229
0
LINE
8
Layer 1
10
100.980487
20
52.087229
11
101.196000
21
52.459800
0
LINE
8
Layer 1
10
101.196000
20
52.459800
11
101.196000
21
52.459800
0
LINE
8
Layer 1
10
83.690800
20
48.348670
11
84.121213
21
48.349023
0
LINE
8
Layer 1
10
84.121213
20
48.349023
11
84.336419
21
47.976274
0
LINE
8
Layer 1
10
84.336419
20
47.976274
11
84.120906
21
47.603703
0
LINE
8
Layer 1
10
84.120906
20
47.603703
11
83.690493
21
47.603350
0
LINE
8
Layer 1
10
83.690493
20
47.603350
11
83.475287
21
47.976099
0
LINE
8
Layer 1
10
83.475287
20
47.976099
11
83.690800
21
48.348670
0
LINE
8
Layer 1
10
83.690800
20
48.348670
11
83.690800
21
48.348670
0
LINE
8
Layer 1
10
89.353860
20
42.362500
11
89.784389
21
42.362990
0
LINE
8
Layer 1
10
89.784389
20
42.362990
11
89.999654
21
41.990141
0
LINE
8
Layer 1
10
89.999654
20
41.990141
11
89.783966
21
41.617536
0
LINE
8
Layer 1
10
89.783966
20
41.617536
11
89.353437
21
41.617046
0
LINE
8
Layer 1
10
89.353437
20
41.617046
11
89.138172
21
41.989895
0
LINE
8
Layer 1
10
89.138172
20
41.989895
11
89.353860
21
42.362500
0
LINE
8
Layer 1
10
89.353860
20
42.362500
11
89.353860
21
42.362500
0
LINE
8
Layer 1
10
108.887660
20
52.227920
11
91.278560
21
42.011520
0
LINE
8
Layer 1
10
91.278560
20
42.011520
11
91.277431
21
42.012084
0
LINE
8
Layer 1
10
91.277431
20
42.012084
11
87.698631
21
39.945864
0
LINE
8
Layer 1
10
87.698631
20
39.945864
11
87.413875
21
40.006684
0
LINE
8
Layer 1
10
87.413875
20
40.006684
11
87.351890
21
40.262339
0
LINE
8
Layer 1
10
87.351890
20
40.262339
11
88.851490
21
42.390819
0
LINE
8
Layer 1
10
88.851490
20
42.390819
11
88.898969
21
42.605013
0
LINE
8
Layer 1
10
88.898969
20
42.605013
11
88.781132
21
42.790076
0
LINE
8
Layer 1
10
88.781132
20
42.790076
11
80.325282
21
48.710876
0
LINE
8
Layer 1
10
80.325282
20
48.710876
11
79.807651
21
49.256856
0
LINE
8
Layer 1
10
79.807651
20
49.256856
11
79.746338
21
49.491164
0
LINE
8
Layer 1
10
79.746338
20
49.491164
11
79.862489
21
49.633798
0
LINE
8
Layer 1
10
79.862489
20
49.633798
11
103.880089
21
58.551608
0
LINE
8
Layer 1
10
103.880089
20
58.551608
11
104.077952
21
58.609091
0
LINE
8
Layer 1
10
104.077952
20
58.609091
11
104.371373
21
58.639904
0
LINE
8
Layer 1
10
104.371373
20
58.639904
11
104.664709
21
58.609027
0
LINE
8
Layer 1
10
104.664709
20
58.609027
11
104.945320
21
58.517931
0
LINE
8
Layer 1
10
104.945320
20
58.517931
11
105.200773
21
58.370371
0
LINE
8
Layer 1
10
105.200773
20
58.370371
11
105.420012
21
58.172940
0
LINE
8
Layer 1
10
105.420012
20
58.172940
11
105.574859
21
57.959885
0
LINE
8
Layer 1
10
105.574859
20
57.959885
11
105.574295
21
57.959603
0
LINE
8
Layer 1
10
105.574295
20
57.959603
11
105.592950
21
57.934005
0
LINE
8
Layer 1
10
105.592950
20
57.934005
11
108.887660
21
52.227920
0
LINE
8
Layer 1
10
384.022000
20
-33.145300
11
383.804211
21
-32.332500
0
LINE
8
Layer 1
10
383.804211
20
-32.332500
11
383.209200
21
-31.737489
0
LINE
8
Layer 1
10
383.209200
20
-31.737489
11
382.396400
21
-31.519700
0
LINE
8
Layer 1
10
382.396400
20
-31.519700
11
381.583600
21
-31.737489
0
LINE
8
Layer 1
10
381.583600
20
-31.737489
11
380.988589
21
-32.332500
0
LINE
8
Layer 1
10
380.988589
20
-32.332500
11
380.770800
21
-33.145300
0
LINE
8
Layer 1
10
380.770800
20
-33.145300
11
380.988589
21
-33.958100
0
LINE
8
Layer 1
10
380.988589
20
-33.958100
11
381.583600
21
-34.553111
0
LINE
8
Layer 1
10
381.583600
20
-34.553111
11
382.396400
21
-34.770900
0
LINE
8
Layer 1
10
382.396400
20
-34.770900
11
383.209200
21
-34.553111
0
LINE
8
Layer 1
10
383.209200
20
-34.553111
11
383.804211
21
-33.958100
0
LINE
8
Layer 1
10
383.804211
20
-33.958100
11
384.022000
21
-33.145300
0
LINE
8
Layer 1
10
384.022000
20
-33.145300
11
384.022000
21
-33.145300
0
LINE
8
Layer 1
10
240.698000
20
-124.784000
11
240.480211
21
-123.971200
0
LINE
8
Layer 1
10
240.480211
20
-123.971200
11
239.885200
21
-123.376189
0
LINE
8
Layer 1
10
239.885200
20
-123.376189
11
239.072400
21
-123.158400
0
LINE
8
Layer 1
10
239.072400
20
-123.158400
11
238.259600
21
-123.376189
0
LINE
8
Layer 1
10
238.259600
20
-123.376189
11
237.664589
21
-123.971200
0
LINE
8
Layer 1
10
237.664589
20
-123.971200
11
237.446800
21
-124.784000
0
LINE
8
Layer 1
10
237.446800
20
-124.784000
11
237.664589
21
-125.596800
0
LINE
8
Layer 1
10
237.664589
20
-125.596800
11
238.259600
21
-126.191811
0
LINE
8
Layer 1
10
238.259600
20
-126.191811
11
239.072400
21
-126.409600
0
LINE
8
Layer 1
10
239.072400
20
-126.409600
11
239.885200
21
-126.191811
0
LINE
8
Layer 1
10
239.885200
20
-126.191811
11
240.480211
21
-125.596800
0
LINE
8
Layer 1
10
240.480211
20
-125.596800
11
240.698000
21
-124.784000
0
LINE
8
Layer 1
10
240.698000
20
-124.784000
11
240.698000
21
-124.784000
0
LINE
8
Layer 1
10
343.463000
20
-143.668000
11
343.245211
21
-142.855200
0
LINE
8
Layer 1
10
343.245211
20
-142.855200
11
342.650200
21
-142.260189
0
LINE
8
Layer 1
10
342.650200
20
-142.260189
11
341.837400
21
-142.042400
0
LINE
8
Layer 1
10
341.837400
20
-142.042400
11
341.024600
21
-142.260189
0
LINE
8
Layer 1
10
341.024600
20
-142.260189
11
340.429589
21
-142.855200
0
LINE
8
Layer 1
10
340.429589
20
-142.855200
11
340.211800
21
-143.668000
0
LINE
8
Layer 1
10
340.211800
20
-143.668000
11
340.429589
21
-144.480800
0
LINE
8
Layer 1
10
340.429589
20
-144.480800
11
341.024600
21
-145.075811
0
LINE
8
Layer 1
10
341.024600
20
-145.075811
11
341.837400
21
-145.293600
0
LINE
8
Layer 1
10
341.837400
20
-145.293600
11
342.650200
21
-145.075811
0
LINE
8
Layer 1
10
342.650200
20
-145.075811
11
343.245211
21
-144.480800
0
LINE
8
Layer 1
10
343.245211
20
-144.480800
11
343.463000
21
-143.668000
0
LINE
8
Layer 1
10
343.463000
20
-143.668000
11
343.463000
21
-143.668000
0
LINE
8
Layer 1
10
392.285000
20
-105.168000
11
392.067211
21
-104.355200
0
LINE
8
Layer 1
10
392.067211
20
-104.355200
11
391.472200
21
-103.760189
0
LINE
8
Layer 1
10
391.472200
20
-103.760189
11
390.659400
21
-103.542400
0
LINE
8
Layer 1
10
390.659400
20
-103.542400
11
389.846600
21
-103.760189
0
LINE
8
Layer 1
10
389.846600
20
-103.760189
11
389.251589
21
-104.355200
0
LINE
8
Layer 1
10
389.251589
20
-104.355200
11
389.033800
21
-105.168000
0
LINE
8
Layer 1
10
389.033800
20
-105.168000
11
389.251589
21
-105.980800
0
LINE
8
Layer 1
10
389.251589
20
-105.980800
11
389.846600
21
-106.575811
0
LINE
8
Layer 1
10
389.846600
20
-106.575811
11
390.659400
21
-106.793600
0
LINE
8
Layer 1
10
390.659400
20
-106.793600
11
391.472200
21
-106.575811
0
LINE
8
Layer 1
10
391.472200
20
-106.575811
11
392.067211
21
-105.980800
0
LINE
8
Layer 1
10
392.067211
20
-105.980800
11
392.285000
21
-105.168000
0
LINE
8
Layer 1
10
392.285000
20
-105.168000
11
392.285000
21
-105.168000
0
LINE
8
Layer 1
10
-798.354000
20
61.701100
11
-949.547000
21
61.700536
0
LINE
8
Layer 1
10
-949.547000
20
61.700536
11
-950.380994
21
61.634942
0
LINE
8
Layer 1
10
-950.380994
20
61.634942
11
-951.458064
21
61.346108
0
LINE
8
Layer 1
10
-951.458064
20
61.346108
11
-952.451344
21
60.840092
0
LINE
8
Layer 1
10
-952.451344
20
60.840092
11
-953.318415
21
60.138395
0
LINE
8
Layer 1
10
-953.318415
20
60.138395
11
-956.705075
21
56.751735
0
LINE
8
Layer 1
10
-956.705075
20
56.751735
11
-957.248014
21
56.115632
0
LINE
8
Layer 1
10
-957.248014
20
56.115632
11
-957.805854
21
55.149905
0
LINE
8
Layer 1
10
-957.805854
20
55.149905
11
-958.150362
21
54.089365
0
LINE
8
Layer 1
10
-958.150362
20
54.089365
11
-958.266666
21
52.980875
0
LINE
8
Layer 1
10
-958.266666
20
52.980875
11
-958.266000
21
-44.033000
0
LINE
8
Layer 1
10
-958.266000
20
-44.033000
11
-958.199847
21
-44.866989
0
LINE
8
Layer 1
10
-958.199847
20
-44.866989
11
-957.912122
21
-45.944619
0
LINE
8
Layer 1
10
-957.912122
20
-45.944619
11
-957.405562
21
-46.937908
0
LINE
8
Layer 1
10
-957.405562
20
-46.937908
11
-956.704410
21
-47.803867
0
LINE
8
Layer 1
10
-956.704410
20
-47.803867
11
-946.543310
21
-57.964967
0
LINE
8
Layer 1
10
-946.543310
20
-57.964967
11
-945.906645
21
-58.507914
0
LINE
8
Layer 1
10
-945.906645
20
-58.507914
11
-944.941474
21
-59.065743
0
LINE
8
Layer 1
10
-944.941474
20
-59.065743
11
-943.880944
21
-59.410254
0
LINE
8
Layer 1
10
-943.880944
20
-59.410254
11
-942.772994
21
-59.526561
0
LINE
8
Layer 1
10
-942.772994
20
-59.526561
11
-870.099000
21
-59.526500
0
LINE
8
Layer 1
10
-870.099000
20
-59.526500
11
-787.791000
21
-97.899900
0
LINE
8
Layer 1
10
-787.791000
20
-97.899900
11
-787.010487
21
-98.192042
0
LINE
8
Layer 1
10
-787.010487
20
-98.192042
11
-785.912477
21
-98.386070
0
LINE
8
Layer 1
10
-785.912477
20
-98.386070
11
-784.797897
21
-98.347485
0
LINE
8
Layer 1
10
-784.797897
20
-98.347485
11
-783.715887
21
-98.079044
0
LINE
8
Layer 1
10
-783.715887
20
-98.079044
11
-779.215207
21
-96.443594
0
LINE
8
Layer 1
10
-779.215207
20
-96.443594
11
-778.450668
21
-96.094674
0
LINE
8
Layer 1
10
-778.450668
20
-96.094674
11
-777.537313
21
-95.455817
0
LINE
8
Layer 1
10
-777.537313
20
-95.455817
11
-776.776640
21
-94.640020
0
LINE
8
Layer 1
10
-776.776640
20
-94.640020
11
-776.202826
21
-93.684213
0
LINE
8
Layer 1
10
-776.202826
20
-93.684213
11
-753.073326
21
-44.080913
0
LINE
8
Layer 1
10
-753.073326
20
-44.080913
11
-752.780069
21
-43.297087
0
LINE
8
Layer 1
10
-752.780069
20
-43.297087
11
-752.586606
21
-42.198517
0
LINE
8
Layer 1
10
-752.586606
20
-42.198517
11
-752.625750
21
-41.083957
0
LINE
8
Layer 1
10
-752.625750
20
-41.083957
11
-752.895272
21
-40.001367
0
LINE
8
Layer 1
10
-752.895272
20
-40.001367
11
-753.549575
21
-38.206067
0
LINE
8
Layer 1
10
-753.549575
20
-38.206067
11
-769.747575
21
57.259933
0
LINE
8
Layer 1
10
-769.747575
20
57.259933
11
-769.933334
21
58.016200
0
LINE
8
Layer 1
10
-769.933334
20
58.016200
11
-770.386978
21
59.034840
0
LINE
8
Layer 1
10
-770.386978
20
59.034840
11
-771.042382
21
59.936627
0
LINE
8
Layer 1
10
-771.042382
20
59.936627
11
-771.870873
21
60.682974
0
LINE
8
Layer 1
10
-771.870873
20
60.682974
11
-772.836580
21
61.240252
0
LINE
8
Layer 1
10
-772.836580
20
61.240252
11
-773.897110
21
61.584760
0
LINE
8
Layer 1
10
-773.897110
20
61.584760
11
-774.887117
21
61.688939
0
LINE
8
Layer 1
10
-774.887117
20
61.688939
11
-774.887000
21
56.544400
0
LINE
8
Layer 1
10
-774.887000
20
56.544400
11
-774.880509
21
56.540534
0
LINE
8
Layer 1
10
-774.880509
20
56.540534
11
-774.847432
21
56.510768
0
LINE
8
Layer 1
10
-774.847432
20
56.510768
11
-774.820904
21
56.474939
0
LINE
8
Layer 1
10
-774.820904
20
56.474939
11
-774.802841
21
56.434150
0
LINE
8
Layer 1
10
-774.802841
20
56.434150
11
-774.795786
21
56.403834
0
LINE
8
Layer 1
10
-774.795786
20
56.403834
11
-762.428186
21
-18.012366
0
LINE
8
Layer 1
10
-762.428186
20
-18.012366
11
-775.492486
21
-26.814716
0
LINE
8
Layer 1
10
-775.492486
20
-26.814716
11
-787.779890
21
-21.183351
0
LINE
8
Layer 1
10
-787.779890
20
-21.183351
11
-793.911747
21
-18.306443
0
LINE
8
Layer 1
10
-793.911747
20
-18.306443
11
-800.067886
21
-15.244216
0
LINE
8
Layer 1
10
-800.067886
20
-15.244216
11
-800.068000
21
-30.865000
0
LINE
8
Layer 1
10
-800.068000
20
-30.865000
11
-800.153175
21
-31.286816
0
LINE
8
Layer 1
10
-800.153175
20
-31.286816
11
-800.385422
21
-31.631275
0
LINE
8
Layer 1
10
-800.385422
20
-31.631275
11
-800.729882
21
-31.863519
0
LINE
8
Layer 1
10
-800.729882
20
-31.863519
11
-801.151700
21
-31.948690
0
LINE
8
Layer 1
10
-801.151700
20
-31.948690
11
-814.548000
21
-31.948700
0
LINE
8
Layer 1
10
-814.548000
20
-31.948700
11
-815.256693
21
-32.202528
0
LINE
8
Layer 1
10
-815.256693
20
-32.202528
11
-815.606157
21
-32.797838
0
LINE
8
Layer 1
10
-815.606157
20
-32.797838
11
-815.541061
21
-33.485066
0
LINE
8
Layer 1
10
-815.541061
20
-33.485066
11
-815.006075
21
-34.014650
0
LINE
8
Layer 1
10
-815.006075
20
-34.014650
11
-803.846675
21
-39.218120
0
LINE
8
Layer 1
10
-803.846675
20
-39.218120
11
-803.219136
21
-39.369958
0
LINE
8
Layer 1
10
-803.219136
20
-39.369958
11
-802.603475
21
-39.272700
0
LINE
8
Layer 1
10
-802.603475
20
-39.272700
11
-802.069225
21
-38.951644
0
LINE
8
Layer 1
10
-802.069225
20
-38.951644
11
-801.685925
21
-38.432089
0
LINE
8
Layer 1
10
-801.685925
20
-38.432089
11
-794.243425
21
-22.471089
0
LINE
8
Layer 1
10
-794.243425
20
-22.471089
11
-793.988023
21
-22.124902
0
LINE
8
Layer 1
10
-793.988023
20
-22.124902
11
-793.632066
21
-21.910904
0
LINE
8
Layer 1
10
-793.632066
20
-21.910904
11
-793.221843
21
-21.845948
0
LINE
8
Layer 1
10
-793.221843
20
-21.845948
11
-792.803645
21
-21.946884
0
LINE
8
Layer 1
10
-792.803645
20
-21.946884
11
-757.444345
21
-38.435384
0
LINE
8
Layer 1
10
-757.444345
20
-38.435384
11
-757.098152
21
-38.690786
0
LINE
8
Layer 1
10
-757.098152
20
-38.690786
11
-756.884152
21
-39.046738
0
LINE
8
Layer 1
10
-756.884152
20
-39.046738
11
-756.819192
21
-39.456955
0
LINE
8
Layer 1
10
-756.819192
20
-39.456955
11
-756.920118
21
-39.875154
0
LINE
8
Layer 1
10
-756.920118
20
-39.875154
11
-781.996018
21
-93.650554
0
LINE
8
Layer 1
10
-781.996018
20
-93.650554
11
-782.251497
21
-93.996921
0
LINE
8
Layer 1
10
-782.251497
20
-93.996921
11
-782.607604
21
-94.210989
0
LINE
8
Layer 1
10
-782.607604
20
-94.210989
11
-783.017998
21
-94.275891
0
LINE
8
Layer 1
10
-783.017998
20
-94.275891
11
-783.436338
21
-94.174759
0
LINE
8
Layer 1
10
-783.436338
20
-94.174759
11
-837.211238
21
-69.098859
0
LINE
8
Layer 1
10
-837.211238
20
-69.098859
11
-837.557618
21
-68.843389
0
LINE
8
Layer 1
10
-837.557618
20
-68.843389
11
-837.771696
21
-68.487279
0
LINE
8
Layer 1
10
-837.771696
20
-68.487279
11
-837.836601
21
-68.076877
0
LINE
8
Layer 1
10
-837.836601
20
-68.076877
11
-837.735465
21
-67.658529
0
LINE
8
Layer 1
10
-837.735465
20
-67.658529
11
-822.161965
21
-34.260929
0
LINE
8
Layer 1
10
-822.161965
20
-34.260929
11
-822.013076
21
-33.444985
0
LINE
8
Layer 1
10
-822.013076
20
-33.444985
11
-822.264437
21
-32.700635
0
LINE
8
Layer 1
10
-822.264437
20
-32.700635
11
-822.832911
21
-32.158345
0
LINE
8
Layer 1
10
-822.832911
20
-32.158345
11
-823.635365
21
-31.948579
0
LINE
8
Layer 1
10
-823.635365
20
-31.948579
11
-839.082000
21
-31.948700
0
LINE
8
Layer 1
10
-839.082000
20
-31.948700
11
-839.714724
21
-32.076457
0
LINE
8
Layer 1
10
-839.714724
20
-32.076457
11
-840.231414
21
-32.424823
0
LINE
8
Layer 1
10
-840.231414
20
-32.424823
11
-840.579783
21
-32.941510
0
LINE
8
Layer 1
10
-840.579783
20
-32.941510
11
-840.707540
21
-33.574230
0
LINE
8
Layer 1
10
-840.707540
20
-33.574230
11
-840.708000
21
-49.830100
0
LINE
8
Layer 1
10
-840.708000
20
-49.830100
11
-840.793175
21
-50.251916
0
LINE
8
Layer 1
10
-840.793175
20
-50.251916
11
-841.025422
21
-50.596375
0
LINE
8
Layer 1
10
-841.025422
20
-50.596375
11
-841.369882
21
-50.828619
0
LINE
8
Layer 1
10
-841.369882
20
-50.828619
11
-841.791700
21
-50.913790
0
LINE
8
Layer 1
10
-841.791700
20
-50.913790
11
-860.683000
21
-50.913800
0
LINE
8
Layer 1
10
-860.683000
20
-50.913800
11
-861.288977
21
-50.728670
0
LINE
8
Layer 1
10
-861.288977
20
-50.728670
11
-861.687880
21
-50.236357
0
LINE
8
Layer 1
10
-861.687880
20
-50.236357
11
-862.286148
21
-49.498136
0
LINE
8
Layer 1
10
-862.286148
20
-49.498136
11
-863.194890
21
-49.220467
0
LINE
8
Layer 1
10
-863.194890
20
-49.220467
11
-879.722000
21
-49.220500
0
LINE
8
Layer 1
10
-879.722000
20
-49.220500
11
-880.630756
21
-49.498159
0
LINE
8
Layer 1
10
-880.630756
20
-49.498159
11
-881.229040
21
-50.236390
0
LINE
8
Layer 1
10
-881.229040
20
-50.236390
11
-881.627704
21
-50.728546
0
LINE
8
Layer 1
10
-881.627704
20
-50.728546
11
-882.233360
21
-50.913833
0
LINE
8
Layer 1
10
-882.233360
20
-50.913833
11
-900.042000
21
-50.913800
0
LINE
8
Layer 1
10
-900.042000
20
-50.913800
11
-900.674724
21
-51.041557
0
LINE
8
Layer 1
10
-900.674724
20
-51.041557
11
-901.191414
21
-51.389923
0
LINE
8
Layer 1
10
-901.191414
20
-51.389923
11
-901.539783
21
-51.906610
0
LINE
8
Layer 1
10
-901.539783
20
-51.906610
11
-901.667540
21
-52.539330
0
LINE
8
Layer 1
10
-901.667540
20
-52.539330
11
-901.668000
21
-53.216800
0
LINE
8
Layer 1
10
-901.668000
20
-53.216800
11
-901.753175
21
-53.638616
0
LINE
8
Layer 1
10
-901.753175
20
-53.638616
11
-901.985422
21
-53.983075
0
LINE
8
Layer 1
10
-901.985422
20
-53.983075
11
-902.329882
21
-54.215319
0
LINE
8
Layer 1
10
-902.329882
20
-54.215319
11
-902.751700
21
-54.300490
0
LINE
8
Layer 1
10
-902.751700
20
-54.300490
11
-941.766000
21
-54.300500
0
LINE
8
Layer 1
10
-941.766000
20
-54.300500
11
-942.187805
21
-54.215323
0
LINE
8
Layer 1
10
-942.187805
20
-54.215323
11
-942.532259
21
-53.983077
0
LINE
8
Layer 1
10
-942.532259
20
-53.983077
11
-942.764504
21
-53.638621
0
LINE
8
Layer 1
10
-942.764504
20
-53.638621
11
-942.849680
21
-53.216810
0
LINE
8
Layer 1
10
-942.849680
20
-53.216810
11
-942.849000
21
-35.606000
0
LINE
8
Layer 1
10
-942.849000
20
-35.606000
11
-942.976757
21
-34.973279
0
LINE
8
Layer 1
10
-942.976757
20
-34.973279
11
-943.325126
21
-34.456592
0
LINE
8
Layer 1
10
-943.325126
20
-34.456592
11
-943.841817
21
-34.108226
0
LINE
8
Layer 1
10
-943.841817
20
-34.108226
11
-944.474540
21
-33.980470
0
LINE
8
Layer 1
10
-944.474540
20
-33.980470
11
-951.848000
21
-33.980500
0
LINE
8
Layer 1
10
-951.848000
20
-33.980500
11
-952.263159
21
-33.896664
0
LINE
8
Layer 1
10
-952.263159
20
-33.896664
11
-952.602184
21
-33.668081
0
LINE
8
Layer 1
10
-952.602184
20
-33.668081
11
-952.830767
21
-33.329057
0
LINE
8
Layer 1
10
-952.830767
20
-33.329057
11
-952.914600
21
-32.913900
0
LINE
8
Layer 1
10
-952.914600
20
-32.913900
11
-952.915000
21
46.774700
0
LINE
8
Layer 1
10
-952.915000
20
46.774700
11
-952.831167
21
47.189857
0
LINE
8
Layer 1
10
-952.831167
20
47.189857
11
-952.602584
21
47.528879
0
LINE
8
Layer 1
10
-952.602584
20
47.528879
11
-952.263559
21
47.757462
0
LINE
8
Layer 1
10
-952.263559
20
47.757462
11
-951.848400
21
47.841300
0
LINE
8
Layer 1
10
-951.848400
20
47.841300
11
-903.835000
21
47.841300
0
LINE
8
Layer 1
10
-903.835000
20
47.841300
11
-903.202276
21
47.969057
0
LINE
8
Layer 1
10
-903.202276
20
47.969057
11
-902.685586
21
48.317423
0
LINE
8
Layer 1
10
-902.685586
20
48.317423
11
-902.337217
21
48.834110
0
LINE
8
Layer 1
10
-902.337217
20
48.834110
11
-902.209460
21
49.466830
0
LINE
8
Layer 1
10
-902.209460
20
49.466830
11
-902.210000
21
50.144300
0
LINE
8
Layer 1
10
-902.210000
20
50.144300
11
-902.124825
21
50.566109
0
LINE
8
Layer 1
10
-902.124825
20
50.566109
11
-901.892581
21
50.910567
0
LINE
8
Layer 1
10
-901.892581
20
50.910567
11
-901.548126
21
51.142813
0
LINE
8
Layer 1
10
-901.548126
20
51.142813
11
-901.126320
21
51.227990
0
LINE
8
Layer 1
10
-901.126320
20
51.227990
11
-883.515000
21
51.228000
0
LINE
8
Layer 1
10
-883.515000
20
51.228000
11
-882.606259
21
51.505667
0
LINE
8
Layer 1
10
-882.606259
20
51.505667
11
-882.007990
21
52.243890
0
LINE
8
Layer 1
10
-882.007990
20
52.243890
11
-881.609087
21
52.736203
0
LINE
8
Layer 1
10
-881.609087
20
52.736203
11
-881.003110
21
52.921333
0
LINE
8
Layer 1
10
-881.003110
20
52.921333
11
-861.914000
21
52.921300
0
LINE
8
Layer 1
10
-861.914000
20
52.921300
11
-861.308348
21
52.736013
0
LINE
8
Layer 1
10
-861.308348
20
52.736013
11
-860.909680
21
52.243857
0
LINE
8
Layer 1
10
-860.909680
20
52.243857
11
-860.311397
21
51.505628
0
LINE
8
Layer 1
10
-860.311397
20
51.505628
11
-859.402640
21
51.227967
0
LINE
8
Layer 1
10
-859.402640
20
51.227967
11
-841.428000
21
51.228000
0
LINE
8
Layer 1
10
-841.428000
20
51.228000
11
-840.886349
21
51.082723
0
LINE
8
Layer 1
10
-840.886349
20
51.082723
11
-840.489838
21
50.686156
0
LINE
8
Layer 1
10
-840.489838
20
50.686156
11
-839.894868
21
50.091009
0
LINE
8
Layer 1
10
-839.894868
20
50.091009
11
-839.082028
21
49.873114
0
LINE
8
Layer 1
10
-839.082028
20
49.873114
11
-808.049000
21
49.873100
0
LINE
8
Layer 1
10
-808.049000
20
49.873100
11
-807.627179
21
49.787931
0
LINE
8
Layer 1
10
-807.627179
20
49.787931
11
-807.282717
21
49.555687
0
LINE
8
Layer 1
10
-807.282717
20
49.555687
11
-807.050471
21
49.211227
0
LINE
8
Layer 1
10
-807.050471
20
49.211227
11
-806.965300
21
48.789410
0
LINE
8
Layer 1
10
-806.965300
20
48.789410
11
-800.067600
21
47.047870
0
LINE
8
Layer 1
10
-800.067600
20
47.047870
11
-798.354000
21
47.047900
0
LINE
8
Layer 1
10
-798.354000
20
47.047900
11
-798.354000
21
61.701100
0
LINE
8
Layer 1
10
241.355000
20
-33.180400
11
241.137211
21
-32.367600
0
LINE
8
Layer 1
10
241.137211
20
-32.367600
11
240.542200
21
-31.772589
0
LINE
8
Layer 1
10
240.542200
20
-31.772589
11
239.729400
21
-31.554800
0
LINE
8
Layer 1
10
239.729400
20
-31.554800
11
238.916600
21
-31.772589
0
LINE
8
Layer 1
10
238.916600
20
-31.772589
11
238.321589
21
-32.367600
0
LINE
8
Layer 1
10
238.321589
20
-32.367600
11
238.103800
21
-33.180400
0
LINE
8
Layer 1
10
238.103800
20
-33.180400
11
238.321589
21
-33.993200
0
LINE
8
Layer 1
10
238.321589
20
-33.993200
11
238.916600
21
-34.588211
0
LINE
8
Layer 1
10
238.916600
20
-34.588211
11
239.729400
21
-34.806000
0
LINE
8
Layer 1
10
239.729400
20
-34.806000
11
240.542200
21
-34.588211
0
LINE
8
Layer 1
10
240.542200
20
-34.588211
11
241.137211
21
-33.993200
0
LINE
8
Layer 1
10
241.137211
20
-33.993200
11
241.355000
21
-33.180400
0
LINE
8
Layer 1
10
241.355000
20
-33.180400
11
241.355000
21
-33.180400
0
LINE
8
Layer 1
10
422.581000
20
-112.392000
11
422.363211
21
-111.579200
0
LINE
8
Layer 1
10
422.363211
20
-111.579200
11
421.768200
21
-110.984189
0
LINE
8
Layer 1
10
421.768200
20
-110.984189
11
420.955400
21
-110.766400
0
LINE
8
Layer 1
10
420.955400
20
-110.766400
11
420.142600
21
-110.984189
0
LINE
8
Layer 1
10
420.142600
20
-110.984189
11
419.547589
21
-111.579200
0
LINE
8
Layer 1
10
419.547589
20
-111.579200
11
419.329800
21
-112.392000
0
LINE
8
Layer 1
10
419.329800
20
-112.392000
11
419.547589
21
-113.204800
0
LINE
8
Layer 1
10
419.547589
20
-113.204800
11
420.142600
21
-113.799811
0
LINE
8
Layer 1
10
420.142600
20
-113.799811
11
420.955400
21
-114.017600
0
LINE
8
Layer 1
10
420.955400
20
-114.017600
11
421.768200
21
-113.799811
0
LINE
8
Layer 1
10
421.768200
20
-113.799811
11
422.363211
21
-113.204800
0
LINE
8
Layer 1
10
422.363211
20
-113.204800
11
422.581000
21
-112.392000
0
LINE
8
Layer 1
10
422.581000
20
-112.392000
11
422.581000
21
-112.392000
0
LINE
8
Layer 1
10
384.022000
20
-33.145300
11
383.804211
21
-32.332500
0
LINE
8
Layer 1
10
383.804211
20
-32.332500
11
383.209200
21
-31.737489
0
LINE
8
Layer 1
10
383.209200
20
-31.737489
11
382.396400
21
-31.519700
0
LINE
8
Layer 1
10
382.396400
20
-31.519700
11
381.583600
21
-31.737489
0
LINE
8
Layer 1
10
381.583600
20
-31.737489
11
380.988589
21
-32.332500
0
LINE
8
Layer 1
10
380.988589
20
-32.332500
11
380.770800
21
-33.145300
0
LINE
8
Layer 1
10
380.770800
20
-33.145300
11
380.988589
21
-33.958100
0
LINE
8
Layer 1
10
380.988589
20
-33.958100
11
381.583600
21
-34.553111
0
LINE
8
Layer 1
10
381.583600
20
-34.553111
11
382.396400
21
-34.770900
0
LINE
8
Layer 1
10
382.396400
20
-34.770900
11
383.209200
21
-34.553111
0
LINE
8
Layer 1
10
383.209200
20
-34.553111
11
383.804211
21
-33.958100
0
LINE
8
Layer 1
10
383.804211
20
-33.958100
11
384.022000
21
-33.145300
0
LINE
8
Layer 1
10
384.022000
20
-33.145300
11
384.022000
21
-33.145300
0
LINE
8
Layer 1
10
70.588000
20
60.380300
11
70.588000
21
61.438100
0
LINE
8
Layer 1
10
70.588000
20
61.438100
11
70.636900
21
61.438100
0
LINE
8
Layer 1
10
70.636900
20
61.438100
11
70.747700
21
61.438100
0
LINE
8
Layer 1
10
70.747700
20
61.438100
11
71.024004
21
60.573216
0
LINE
8
Layer 1
10
71.024004
20
60.573216
11
71.024004
21
60.648048
0
LINE
8
Layer 1
10
71.024004
20
60.648048
11
71.022593
21
60.662439
0
LINE
8
Layer 1
10
71.022593
20
60.662439
11
71.022600
21
60.669600
0
LINE
8
Layer 1
10
71.022600
20
60.669600
11
71.022600
21
60.684000
0
LINE
8
Layer 1
10
71.022600
20
60.684000
11
71.022600
21
60.698400
0
LINE
8
Layer 1
10
71.022600
20
60.698400
11
71.022600
21
60.732900
0
LINE
8
Layer 1
10
71.022600
20
60.732900
11
71.021189
21
60.747290
0
LINE
8
Layer 1
10
71.021189
20
60.747290
11
71.021200
21
60.754500
0
LINE
8
Layer 1
10
71.021200
20
60.754500
11
71.021200
21
60.768900
0
LINE
8
Layer 1
10
71.021200
20
60.768900
11
71.021200
21
60.796200
0
LINE
8
Layer 1
10
71.021200
20
60.796200
11
71.021200
21
60.810600
0
LINE
8
Layer 1
10
71.021200
20
60.810600
11
71.019789
21
61.007753
0
LINE
8
Layer 1
10
71.019789
20
61.007753
11
71.019800
21
61.438100
0
LINE
8
Layer 1
10
71.019800
20
61.438100
11
71.134900
21
61.438100
0
LINE
8
Layer 1
10
71.134900
20
61.438100
11
71.134900
21
60.380300
0
LINE
8
Layer 1
10
71.134900
20
60.380300
11
71.086000
21
60.380300
0
LINE
8
Layer 1
10
71.086000
20
60.380300
11
70.975200
21
60.380300
0
LINE
8
Layer 1
10
70.975200
20
60.380300
11
70.698896
21
61.245184
0
LINE
8
Layer 1
10
70.698896
20
61.245184
11
70.698896
21
61.170352
0
LINE
8
Layer 1
10
70.698896
20
61.170352
11
70.700307
21
61.155962
0
LINE
8
Layer 1
10
70.700307
20
61.155962
11
70.700300
21
61.148800
0
LINE
8
Layer 1
10
70.700300
20
61.148800
11
70.700300
21
61.134400
0
LINE
8
Layer 1
10
70.700300
20
61.134400
11
70.700300
21
61.120000
0
LINE
8
Layer 1
10
70.700300
20
61.120000
11
70.700300
21
61.085500
0
LINE
8
Layer 1
10
70.700300
20
61.085500
11
70.701711
21
61.071110
0
LINE
8
Layer 1
10
70.701711
20
61.071110
11
70.701700
21
61.063900
0
LINE
8
Layer 1
10
70.701700
20
61.063900
11
70.701700
21
61.049500
0
LINE
8
Layer 1
10
70.701700
20
61.049500
11
70.701700
21
61.022200
0
LINE
8
Layer 1
10
70.701700
20
61.022200
11
70.701700
21
61.007800
0
LINE
8
Layer 1
10
70.701700
20
61.007800
11
70.703111
21
60.810647
0
LINE
8
Layer 1
10
70.703111
20
60.810647
11
70.703100
21
60.380300
0
LINE
8
Layer 1
10
70.703100
20
60.380300
11
70.588000
21
60.380300
0
LINE
8
Layer 1
10
71.350700
20
60.380300
11
71.350700
21
61.438100
0
LINE
8
Layer 1
10
71.350700
20
61.438100
11
71.854400
21
61.438100
0
LINE
8
Layer 1
10
71.854400
20
61.438100
11
71.854400
21
61.334400
0
LINE
8
Layer 1
10
71.854400
20
61.334400
11
71.465800
21
61.334400
0
LINE
8
Layer 1
10
71.465800
20
61.334400
11
71.465800
21
61.003500
0
LINE
8
Layer 1
10
71.465800
20
61.003500
11
71.772300
21
61.003500
0
LINE
8
Layer 1
10
71.772300
20
61.003500
11
71.772300
21
60.899800
0
LINE
8
Layer 1
10
71.772300
20
60.899800
11
71.465800
21
60.899800
0
LINE
8
Layer 1
10
71.465800
20
60.899800
11
71.465800
21
60.380300
0
LINE
8
Layer 1
10
71.465800
20
60.380300
11
71.350700
21
60.380300
0
LINE
8
Layer 1
10
72.296200
20
60.368800
11
72.163807
21
60.393266
0
LINE
8
Layer 1
10
72.163807
20
60.393266
11
72.060192
21
60.475293
0
LINE
8
Layer 1
10
72.060192
20
60.475293
11
72.019899
21
60.601932
0
LINE
8
Layer 1
10
72.019899
20
60.601932
11
72.019900
21
60.603400
0
LINE
8
Layer 1
10
72.019900
20
60.603400
11
72.133587
21
60.619230
0
LINE
8
Layer 1
10
72.133587
20
60.619230
11
72.133587
21
60.609157
0
LINE
8
Layer 1
10
72.133587
20
60.609157
11
72.156616
21
60.534326
0
LINE
8
Layer 1
10
72.156616
20
60.534326
11
72.218496
21
60.486836
0
LINE
8
Layer 1
10
72.218496
20
60.486836
11
72.296206
21
60.472446
0
LINE
8
Layer 1
10
72.296206
20
60.472446
11
72.378234
21
60.491154
0
LINE
8
Layer 1
10
72.378234
20
60.491154
11
72.438675
21
60.548717
0
LINE
8
Layer 1
10
72.438675
20
60.548717
11
72.458825
21
60.632184
0
LINE
8
Layer 1
10
72.458825
20
60.632184
11
72.404142
21
60.761701
0
LINE
8
Layer 1
10
72.404142
20
60.761701
11
72.283258
21
60.852362
0
LINE
8
Layer 1
10
72.283258
20
60.852362
11
72.158059
21
60.931512
0
LINE
8
Layer 1
10
72.158059
20
60.931512
11
72.063080
21
61.042321
0
LINE
8
Layer 1
10
72.063080
20
61.042321
11
72.027102
21
61.184789
0
LINE
8
Layer 1
10
72.027102
20
61.184789
11
72.047253
21
61.289842
0
LINE
8
Layer 1
10
72.047253
20
61.289842
11
72.106254
21
61.379064
0
LINE
8
Layer 1
10
72.106254
20
61.379064
11
72.198357
21
61.432310
0
LINE
8
Layer 1
10
72.198357
20
61.432310
11
72.304848
21
61.449579
0
LINE
8
Layer 1
10
72.304848
20
61.449579
11
72.435805
21
61.425116
0
LINE
8
Layer 1
10
72.435805
20
61.425116
11
72.540856
21
61.343089
0
LINE
8
Layer 1
10
72.540856
20
61.343089
11
72.581149
21
61.216450
0
LINE
8
Layer 1
10
72.581149
20
61.216450
11
72.581100
21
61.215000
0
LINE
8
Layer 1
10
72.581100
20
61.215000
11
72.467415
21
61.199170
0
LINE
8
Layer 1
10
72.467415
20
61.199170
11
72.467415
21
61.209243
0
LINE
8
Layer 1
10
72.467415
20
61.209243
11
72.442946
21
61.282636
0
LINE
8
Layer 1
10
72.442946
20
61.282636
11
72.382506
21
61.331564
0
LINE
8
Layer 1
10
72.382506
20
61.331564
11
72.304796
21
61.345955
0
LINE
8
Layer 1
10
72.304796
20
61.345955
11
72.221329
21
61.327246
0
LINE
8
Layer 1
10
72.221329
20
61.327246
11
72.162327
21
61.268244
0
LINE
8
Layer 1
10
72.162327
20
61.268244
11
72.142177
21
61.186217
0
LINE
8
Layer 1
10
72.142177
20
61.186217
11
72.196863
21
61.055261
0
LINE
8
Layer 1
10
72.196863
20
61.055261
11
72.316305
21
60.964599
0
LINE
8
Layer 1
10
72.316305
20
60.964599
11
72.441504
21
60.886889
0
LINE
8
Layer 1
10
72.441504
20
60.886889
11
72.537922
21
60.774641
0
LINE
8
Layer 1
10
72.537922
20
60.774641
11
72.573900
21
60.633612
0
LINE
8
Layer 1
10
72.573900
20
60.633612
11
72.553749
21
60.528559
0
LINE
8
Layer 1
10
72.553749
20
60.528559
11
72.493308
21
60.439337
0
LINE
8
Layer 1
10
72.493308
20
60.439337
11
72.401208
21
60.384652
0
LINE
8
Layer 1
10
72.401208
20
60.384652
11
72.296154
21
60.368822
0
LINE
8
Layer 1
10
72.296154
20
60.368822
11
72.296200
21
60.368800
0
LINE
8
Layer 1
10
73.020000
20
60.368800
11
72.962435
21
60.381751
0
LINE
8
Layer 1
10
72.962435
20
60.381751
11
72.920703
21
60.423485
0
LINE
8
Layer 1
10
72.920703
20
60.423485
11
72.907749
21
60.481047
0
LINE
8
Layer 1
10
72.907749
20
60.481047
11
72.920703
21
60.538610
0
LINE
8
Layer 1
10
72.920703
20
60.538610
11
72.962435
21
60.578905
0
LINE
8
Layer 1
10
72.962435
20
60.578905
11
73.020000
21
60.593295
0
LINE
8
Layer 1
10
73.020000
20
60.593295
11
73.077562
21
60.578905
0
LINE
8
Layer 1
10
73.077562
20
60.578905
11
73.117855
21
60.538610
0
LINE
8
Layer 1
10
73.117855
20
60.538610
11
73.132248
21
60.481047
0
LINE
8
Layer 1
10
73.132248
20
60.481047
11
73.117855
21
60.423485
0
LINE
8
Layer 1
10
73.117855
20
60.423485
11
73.077562
21
60.381751
0
LINE
8
Layer 1
10
73.077562
20
60.381751
11
73.020000
21
60.368800
0
LINE
8
Layer 1
10
73.020000
20
60.368800
11
73.020000
21
60.368800
0
LINE
8
Layer 1
10
73.574100
20
60.380300
11
73.466167
21
61.173231
0
LINE
8
Layer 1
10
73.466167
20
61.173231
11
73.466100
21
61.438100
0
LINE
8
Layer 1
10
73.466100
20
61.438100
11
73.581300
21
61.438100
0
LINE
8
Layer 1
10
73.581300
20
61.438100
11
73.581300
21
61.173300
0
LINE
8
Layer 1
10
73.581300
20
61.173300
11
73.618717
21
60.524277
0
LINE
8
Layer 1
10
73.618717
20
60.524277
11
73.699306
21
61.015002
0
LINE
8
Layer 1
10
73.699306
20
61.015002
11
73.779800
21
61.015000
0
LINE
8
Layer 1
10
73.779800
20
61.015000
11
73.860388
21
60.524275
0
LINE
8
Layer 1
10
73.860388
20
60.524275
11
73.897803
21
61.173298
0
LINE
8
Layer 1
10
73.897803
20
61.173298
11
73.897800
21
61.438100
0
LINE
8
Layer 1
10
73.897800
20
61.438100
11
74.013000
21
61.438100
0
LINE
8
Layer 1
10
74.013000
20
61.438100
11
74.013000
21
61.173300
0
LINE
8
Layer 1
10
74.013000
20
61.173300
11
73.905070
21
60.380369
0
LINE
8
Layer 1
10
73.905070
20
60.380369
11
73.825900
21
60.380300
0
LINE
8
Layer 1
10
73.825900
20
60.380300
11
73.739554
21
60.905563
0
LINE
8
Layer 1
10
73.739554
20
60.905563
11
73.653211
21
60.380300
0
LINE
8
Layer 1
10
73.653211
20
60.380300
11
73.574100
21
60.380300
0
LINE
8
Layer 1
10
74.459100
20
60.368800
11
74.345413
21
60.387509
0
LINE
8
Layer 1
10
74.345413
20
60.387509
11
74.248995
21
60.447949
0
LINE
8
Layer 1
10
74.248995
20
60.447949
11
74.191433
21
60.547246
0
LINE
8
Layer 1
10
74.191433
20
60.547246
11
74.174161
21
60.660933
0
LINE
8
Layer 1
10
74.174161
20
60.660933
11
74.174100
21
61.157400
0
LINE
8
Layer 1
10
74.174100
20
61.157400
11
74.191372
21
61.271087
0
LINE
8
Layer 1
10
74.191372
20
61.271087
11
74.248934
21
61.368944
0
LINE
8
Layer 1
10
74.248934
20
61.368944
11
74.345352
21
61.430824
0
LINE
8
Layer 1
10
74.345352
20
61.430824
11
74.459039
21
61.449533
0
LINE
8
Layer 1
10
74.459039
20
61.449533
11
74.571287
21
61.430824
0
LINE
8
Layer 1
10
74.571287
20
61.430824
11
74.667706
21
61.368944
0
LINE
8
Layer 1
10
74.667706
20
61.368944
11
74.726707
21
61.271087
0
LINE
8
Layer 1
10
74.726707
20
61.271087
11
74.743979
21
61.157400
0
LINE
8
Layer 1
10
74.743979
20
61.157400
11
74.744000
21
60.661000
0
LINE
8
Layer 1
10
74.744000
20
60.661000
11
74.726728
21
60.547313
0
LINE
8
Layer 1
10
74.726728
20
60.547313
11
74.667727
21
60.448017
0
LINE
8
Layer 1
10
74.667727
20
60.448017
11
74.571308
21
60.387576
0
LINE
8
Layer 1
10
74.571308
20
60.387576
11
74.459060
21
60.368867
0
LINE
8
Layer 1
10
74.459060
20
60.368867
11
74.459100
21
60.368800
0
LINE
8
Layer 1
10
74.459100
20
60.472414
11
74.528174
21
60.485365
0
LINE
8
Layer 1
10
74.528174
20
60.485365
11
74.585739
21
60.527098
0
LINE
8
Layer 1
10
74.585739
20
60.527098
11
74.618838
21
60.590418
0
LINE
8
Layer 1
10
74.618838
20
60.590418
11
74.628913
21
60.660932
0
LINE
8
Layer 1
10
74.628913
20
60.660932
11
74.628900
21
61.157400
0
LINE
8
Layer 1
10
74.628900
20
61.157400
11
74.618825
21
61.227915
0
LINE
8
Layer 1
10
74.618825
20
61.227915
11
74.585726
21
61.289795
0
LINE
8
Layer 1
10
74.585726
20
61.289795
11
74.528161
21
61.331528
0
LINE
8
Layer 1
10
74.528161
20
61.331528
11
74.459087
21
61.345919
0
LINE
8
Layer 1
10
74.459087
20
61.345919
11
74.388571
21
61.331528
0
LINE
8
Layer 1
10
74.388571
20
61.331528
11
74.331009
21
61.289795
0
LINE
8
Layer 1
10
74.331009
20
61.289795
11
74.297910
21
61.227915
0
LINE
8
Layer 1
10
74.297910
20
61.227915
11
74.289274
21
61.157400
0
LINE
8
Layer 1
10
74.289274
20
61.157400
11
74.289300
21
60.661000
0
LINE
8
Layer 1
10
74.289300
20
60.661000
11
74.297936
21
60.590485
0
LINE
8
Layer 1
10
74.297936
20
60.590485
11
74.331035
21
60.527166
0
LINE
8
Layer 1
10
74.331035
20
60.527166
11
74.388597
21
60.485433
0
LINE
8
Layer 1
10
74.388597
20
60.485433
11
74.459113
21
60.472482
0
LINE
8
Layer 1
10
74.459113
20
60.472482
11
74.459100
21
60.472414
0
LINE
8
Layer 1
10
74.905200
20
60.380300
11
74.905200
21
61.438100
0
LINE
8
Layer 1
10
74.905200
20
61.438100
11
75.180100
21
61.438100
0
LINE
8
Layer 1
10
75.180100
20
61.438100
11
75.295227
21
61.417952
0
LINE
8
Layer 1
10
75.295227
20
61.417952
11
75.390206
21
61.353194
0
LINE
8
Layer 1
10
75.390206
20
61.353194
11
75.446329
21
61.251020
0
LINE
8
Layer 1
10
75.446329
20
61.251020
11
75.463601
21
61.135894
0
LINE
8
Layer 1
10
75.463601
20
61.135894
11
75.446329
21
61.020768
0
LINE
8
Layer 1
10
75.446329
20
61.020768
11
75.390206
21
60.920033
0
LINE
8
Layer 1
10
75.390206
20
60.920033
11
75.295227
21
60.855274
0
LINE
8
Layer 1
10
75.295227
20
60.855274
11
75.275076
21
60.848078
0
LINE
8
Layer 1
10
75.275076
20
60.848078
11
75.463595
21
60.380379
0
LINE
8
Layer 1
10
75.463595
20
60.380379
11
75.348400
21
60.380300
0
LINE
8
Layer 1
10
75.348400
20
60.380300
11
75.148367
21
60.833609
0
LINE
8
Layer 1
10
75.148367
20
60.833609
11
75.020300
21
60.833600
0
LINE
8
Layer 1
10
75.020300
20
60.833600
11
75.020300
21
60.380300
0
LINE
8
Layer 1
10
75.020300
20
60.380300
11
74.905200
21
60.380300
0
LINE
8
Layer 1
10
75.180062
20
60.937222
11
75.250578
21
60.951612
0
LINE
8
Layer 1
10
75.250578
20
60.951612
11
75.308140
21
60.997663
0
LINE
8
Layer 1
10
75.308140
20
60.997663
11
75.339800
21
61.063860
0
LINE
8
Layer 1
10
75.339800
20
61.063860
11
75.348436
21
61.135814
0
LINE
8
Layer 1
10
75.348436
20
61.135814
11
75.339800
21
61.209207
0
LINE
8
Layer 1
10
75.339800
20
61.209207
11
75.308140
21
61.273965
0
LINE
8
Layer 1
10
75.308140
20
61.273965
11
75.250578
21
61.318577
0
LINE
8
Layer 1
10
75.250578
20
61.318577
11
75.180062
21
61.334407
0
LINE
8
Layer 1
10
75.180062
20
61.334407
11
75.020300
21
61.334400
0
LINE
8
Layer 1
10
75.020300
20
61.334400
11
75.020300
21
60.937300
0
LINE
8
Layer 1
10
75.020300
20
60.937300
11
75.180062
21
60.937222
0
LINE
8
Layer 1
10
75.624700
20
60.380300
11
75.624700
21
61.438100
0
LINE
8
Layer 1
10
75.624700
20
61.438100
11
75.739900
21
61.438100
0
LINE
8
Layer 1
10
75.739900
20
61.438100
11
75.739900
21
60.948800
0
LINE
8
Layer 1
10
75.739900
20
60.948800
11
75.768681
21
60.981899
0
LINE
8
Layer 1
10
75.768681
20
60.981899
11
75.827682
21
61.049535
0
LINE
8
Layer 1
10
75.827682
20
61.049535
11
75.883808
21
61.121489
0
LINE
8
Layer 1
10
75.883808
20
61.121489
11
75.937052
21
61.194882
0
LINE
8
Layer 1
10
75.937052
20
61.194882
11
75.985981
21
61.271153
0
LINE
8
Layer 1
10
75.985981
20
61.271153
11
76.029152
21
61.350302
0
LINE
8
Layer 1
10
76.029152
20
61.350302
11
76.050742
21
61.438086
0
LINE
8
Layer 1
10
76.050742
20
61.438086
11
76.171600
21
61.438100
0
LINE
8
Layer 1
10
76.171600
20
61.438100
11
76.148571
21
61.340243
0
LINE
8
Layer 1
10
76.148571
20
61.340243
11
76.101081
21
61.251020
0
LINE
8
Layer 1
10
76.101081
20
61.251020
11
76.047834
21
61.166115
0
LINE
8
Layer 1
10
76.047834
20
61.166115
11
75.988833
21
61.084088
0
LINE
8
Layer 1
10
75.988833
20
61.084088
11
75.954295
21
61.038037
0
LINE
8
Layer 1
10
75.954295
20
61.038037
11
76.183109
21
60.380380
0
LINE
8
Layer 1
10
76.183109
20
60.380380
11
76.068000
21
60.380300
0
LINE
8
Layer 1
10
76.068000
20
60.380300
11
75.875163
21
60.941539
0
LINE
8
Layer 1
10
75.875163
20
60.941539
11
75.863648
21
60.925709
0
LINE
8
Layer 1
10
75.863648
20
60.925709
11
75.797450
21
60.850878
0
LINE
8
Layer 1
10
75.797450
20
60.850878
11
75.739888
21
60.788997
0
LINE
8
Layer 1
10
75.739888
20
60.788997
11
75.739900
21
60.380300
0
LINE
8
Layer 1
10
75.739900
20
60.380300
11
75.624700
21
60.380300
0
LINE
8
Layer 1
10
76.613400
20
60.368800
11
76.481004
21
60.393266
0
LINE
8
Layer 1
10
76.481004
20
60.393266
11
76.377389
21
60.475293
0
LINE
8
Layer 1
10
76.377389
20
60.475293
11
76.337096
21
60.601932
0
LINE
8
Layer 1
10
76.337096
20
60.601932
11
76.337100
21
60.603400
0
LINE
8
Layer 1
10
76.337100
20
60.603400
11
76.450787
21
60.619230
0
LINE
8
Layer 1
10
76.450787
20
60.619230
11
76.450787
21
60.609157
0
LINE
8
Layer 1
10
76.450787
20
60.609157
11
76.473816
21
60.534326
0
LINE
8
Layer 1
10
76.473816
20
60.534326
11
76.535696
21
60.486836
0
LINE
8
Layer 1
10
76.535696
20
60.486836
11
76.613409
21
60.472446
0
LINE
8
Layer 1
10
76.613409
20
60.472446
11
76.695434
21
60.491154
0
LINE
8
Layer 1
10
76.695434
20
60.491154
11
76.755877
21
60.548717
0
LINE
8
Layer 1
10
76.755877
20
60.548717
11
76.776028
21
60.632184
0
LINE
8
Layer 1
10
76.776028
20
60.632184
11
76.721345
21
60.761701
0
LINE
8
Layer 1
10
76.721345
20
60.761701
11
76.600461
21
60.852362
0
LINE
8
Layer 1
10
76.600461
20
60.852362
11
76.475262
21
60.931512
0
LINE
8
Layer 1
10
76.475262
20
60.931512
11
76.380283
21
61.042321
0
LINE
8
Layer 1
10
76.380283
20
61.042321
11
76.344308
21
61.184789
0
LINE
8
Layer 1
10
76.344308
20
61.184789
11
76.364459
21
61.289842
0
LINE
8
Layer 1
10
76.364459
20
61.289842
11
76.423463
21
61.379064
0
LINE
8
Layer 1
10
76.423463
20
61.379064
11
76.515563
21
61.432310
0
LINE
8
Layer 1
10
76.515563
20
61.432310
11
76.622054
21
61.449579
0
LINE
8
Layer 1
10
76.622054
20
61.449579
11
76.753011
21
61.425116
0
LINE
8
Layer 1
10
76.753011
20
61.425116
11
76.858062
21
61.343089
0
LINE
8
Layer 1
10
76.858062
20
61.343089
11
76.898358
21
61.216450
0
LINE
8
Layer 1
10
76.898358
20
61.216450
11
76.898300
21
61.215000
0
LINE
8
Layer 1
10
76.898300
20
61.215000
11
76.784613
21
61.199170
0
LINE
8
Layer 1
10
76.784613
20
61.199170
11
76.784613
21
61.209243
0
LINE
8
Layer 1
10
76.784613
20
61.209243
11
76.760144
21
61.282636
0
LINE
8
Layer 1
10
76.760144
20
61.282636
11
76.699704
21
61.331564
0
LINE
8
Layer 1
10
76.699704
20
61.331564
11
76.621994
21
61.345955
0
LINE
8
Layer 1
10
76.621994
20
61.345955
11
76.538527
21
61.327246
0
LINE
8
Layer 1
10
76.538527
20
61.327246
11
76.479525
21
61.268244
0
LINE
8
Layer 1
10
76.479525
20
61.268244
11
76.459375
21
61.186217
0
LINE
8
Layer 1
10
76.459375
20
61.186217
11
76.514061
21
61.055261
0
LINE
8
Layer 1
10
76.514061
20
61.055261
11
76.633503
21
60.964599
0
LINE
8
Layer 1
10
76.633503
20
60.964599
11
76.758702
21
60.886889
0
LINE
8
Layer 1
10
76.758702
20
60.886889
11
76.855120
21
60.774641
0
LINE
8
Layer 1
10
76.855120
20
60.774641
11
76.891098
21
60.633612
0
LINE
8
Layer 1
10
76.891098
20
60.633612
11
76.870947
21
60.528559
0
LINE
8
Layer 1
10
76.870947
20
60.528559
11
76.810507
21
60.439337
0
LINE
8
Layer 1
10
76.810507
20
60.439337
11
76.718406
21
60.384652
0
LINE
8
Layer 1
10
76.718406
20
60.384652
11
76.613355
21
60.368822
0
LINE
8
Layer 1
10
76.613355
20
60.368822
11
76.613400
21
60.368800
 0 
ENDSEC
 0 
EOF