<?xml version="1.0" encoding="UTF-8" standalone="no"?>
<svg
   xmlns:dc="http://purl.org/dc/elements/1.1/"
   xmlns:cc="http://creativecommons.org/ns#"
   xmlns:rdf="http://www.w3.org/1999/02/22-rdf-syntax-ns#"
   xmlns:svg="http://www.w3.org/2000/svg"
   xmlns="http://www.w3.org/2000/svg"
   width="60cm"
   height="30cm"
   viewBox="18 44 600.00002 299.99999"
   version="1.1"
   id="svg1716">
  <metadata
     id="metadata1722">
    <rdf:RDF>
      <cc:Work
         rdf:about="">
        <dc:format>image/svg+xml</dc:format>
        <dc:type
           rdf:resource="http://purl.org/dc/dcmitype/StillImage" />
        <dc:title>OpenSCAD Model</dc:title>
      </cc:Work>
    </rdf:RDF>
  </metadata>
  <defs
     id="defs1720">
    <marker
       id="DistanceX"
       orient="auto"
       refX="0.0"
       refY="0.0"
       style="overflow:visible">
      <path
         d="M 3,-3 L -3,3 M 0,-5 L  0,5"
         style="stroke:#000000; stroke-width:0.5"
         id="path1557" />
    </marker>
    <pattern
       id="Hatch"
       patternUnits="userSpaceOnUse"
       width="8"
       height="8"
       x="0"
       y="0">
      <path
         d="M8 4 l-4,4"
         stroke="#000000"
         stroke-width="0.25"
         linecap="square"
         id="path1560" />
      <path
         d="M6 2 l-4,4"
         stroke="#000000"
         stroke-width="0.25"
         linecap="square"
         id="path1562" />
      <path
         d="M4 0 l-4,4"
         stroke="#000000"
         stroke-width="0.25"
         linecap="square"
         id="path1564" />
    </pattern>
    <symbol
       id="*MODEL_SPACE" />
    <symbol
       id="*PAPER_SPACE" />
    <marker
       id="DistanceX-6"
       orient="auto"
       refX="0.0"
       refY="0.0"
       style="overflow:visible">
      <path
         d="M 3,-3 L -3,3 M 0,-5 L  0,5"
         style="stroke:#000000; stroke-width:0.5"
         id="path1647" />
    </marker>
    <pattern
       id="Hatch-7"
       patternUnits="userSpaceOnUse"
       width="8"
       height="8"
       x="0"
       y="0">
      <path
         d="M8 4 l-4,4"
         stroke="#000000"
         stroke-width="0.25"
         linecap="square"
         id="path1650" />
      <path
         d="M6 2 l-4,4"
         stroke="#000000"
         stroke-width="0.25"
         linecap="square"
         id="path1652" />
      <path
         d="M4 0 l-4,4"
         stroke="#000000"
         stroke-width="0.25"
         linecap="square"
         id="path1654" />
    </pattern>
    <symbol
       id="*MODEL_SPACE-5" />
    <symbol
       id="*PAPER_SPACE-3" />
    <marker
       id="DistanceX-5"
       orient="auto"
       refX="0.0"
       refY="0.0"
       style="overflow:visible">
      <path
         d="M 3,-3 L -3,3 M 0,-5 L  0,5"
         style="stroke:#000000; stroke-width:0.5"
         id="path1737" />
    </marker>
    <pattern
       id="Hatch-6"
       patternUnits="userSpaceOnUse"
       width="8"
       height="8"
       x="0"
       y="0">
      <path
         d="M8 4 l-4,4"
         stroke="#000000"
         stroke-width="0.25"
         linecap="square"
         id="path1740" />
      <path
         d="M6 2 l-4,4"
         stroke="#000000"
         stroke-width="0.25"
         linecap="square"
         id="path1742" />
      <path
         d="M4 0 l-4,4"
         stroke="#000000"
         stroke-width="0.25"
         linecap="square"
         id="path1744" />
    </pattern>
    <symbol
       id="*MODEL_SPACE-2" />
    <symbol
       id="*PAPER_SPACE-9" />
  </defs>
  <title
     id="title1712">OpenSCAD Model</title>
  <g
     id="g2061"
     transform="rotate(180,117.25845,194.72388)">
    <path
       d="m 167.12648,330.385 a 1.524,1.524 0 1 1 -3.048,0 1.524,1.524 0 1 1 3.048,0 z"
       style="fill:none;stroke:#000000;stroke-width:0.264583;stroke-miterlimit:4;stroke-dasharray:none"
       id="path1965" />
    <path
       d="m 95.498479,292.93715 a 1.524,1.524 0 1 1 -3.048,0 1.524,1.524 0 1 1 3.048,0 z"
       style="fill:none;stroke:#000000;stroke-width:0.264583;stroke-miterlimit:4;stroke-dasharray:none"
       id="path1967" />
    <path
       d="m 32.76049,244.47396 a 1.524,1.524 0 1 1 -3.048,0 1.524,1.524 0 1 1 3.048,0 z"
       style="fill:none;stroke:#000000;stroke-width:0.264583;stroke-miterlimit:4;stroke-dasharray:none"
       id="path1969" />
    <path
       d="m 129.10268,226.77016 a 1.524,1.524 0 1 1 -3.048,0 1.524,1.524 0 1 1 3.048,0 z"
       style="fill:none;stroke:#000000;stroke-width:0.264583;stroke-miterlimit:4;stroke-dasharray:none"
       id="path1971" />
    <path
       d="m 174.87348,262.86356 a 1.524,1.524 0 1 1 -3.048,0 1.524,1.524 0 1 1 3.048,0 z"
       style="fill:none;stroke:#000000;stroke-width:0.264583;stroke-miterlimit:4;stroke-dasharray:none"
       id="path1973" />
    <path
       d="m 180.63928,218.69296 a 1.524,1.524 0 1 1 -3.048,0 1.524,1.524 0 1 1 3.048,0 z"
       style="fill:none;stroke:#000000;stroke-width:0.264583;stroke-miterlimit:4;stroke-dasharray:none"
       id="path1975" />
    <path
       d="m 178.96288,230.10518 -12.6619,5.9055 1.397,2.99212 12.65936,-5.9055 z"
       style="fill:none;stroke:#000000;stroke-width:0.264583;stroke-miterlimit:4;stroke-dasharray:none"
       id="path1977" />
    <path
       d="m 168.87146,208.46691 -12.65936,5.90297 1.39446,2.99212 12.6619,-5.90296 z"
       style="fill:none;stroke:#000000;stroke-width:0.264583;stroke-miterlimit:4;stroke-dasharray:none"
       id="path1979" />
    <path
       d="m 141.72394,224.77118 12.6619,-5.9055 -1.397,-2.99212 -12.65936,5.9055 z"
       style="fill:none;stroke:#000000;stroke-width:0.264583;stroke-miterlimit:4;stroke-dasharray:none"
       id="path1981" />
    <path
       d="m 151.81536,246.40944 12.65936,-5.90296 -1.39446,-2.99212 -12.6619,5.90296 z"
       style="fill:none;stroke:#000000;stroke-width:0.264583;stroke-miterlimit:4;stroke-dasharray:none"
       id="path1983" />
    <path
       d="m 48.54659,267.3619 v -0.98044 h 0.8128 v -3.50012 h -0.8128 v -5.00888 h 0.8128 v -3.50012 h -0.8128 v -0.98044 h -13.97 v 0.98044 h -0.8128 v 3.50012 h 0.8128 v 5.00888 h -0.8128 v 3.50012 h 0.8128 v 0.98044 z"
       style="fill:none;stroke:#000000;stroke-width:0.264583;stroke-miterlimit:4;stroke-dasharray:none"
       id="path1985" />
    <path
       d="m 48.54659,286.41189 v -0.98044 h 0.8128 v -3.50012 h -0.8128 v -5.00887 h 0.8128 v -3.50012 h -0.8128 v -0.98044 h -13.97 v 0.98044 h -0.8128 v 3.50012 h 0.8128 v 5.00887 h -0.8128 v 3.50012 h 0.8128 v 0.98044 z"
       style="fill:none;stroke:#000000;stroke-width:0.264583;stroke-miterlimit:4;stroke-dasharray:none"
       id="path1987" />
    <path
       d="m 48.54659,305.46189 v -0.98044 h 0.8128 v -3.50012 h -0.8128 v -5.00888 h 0.8128 v -3.50012 h -0.8128 v -0.98044 h -13.97 v 0.98044 h -0.8128 v 3.50012 h 0.8128 v 5.00888 h -0.8128 v 3.50012 h 0.8128 v 0.98044 z"
       style="fill:none;stroke:#000000;stroke-width:0.264583;stroke-miterlimit:4;stroke-dasharray:none"
       id="path1989" />
    <path
       d="m 48.54659,324.50935 v -0.98044 h 0.8128 v -3.50012 h -0.8128 v -5.00888 h 0.8128 v -3.50012 h -0.8128 v -0.98044 h -13.97 v 0.98044 h -0.8128 v 3.50012 h 0.8128 v 5.00888 h -0.8128 v 3.50012 h 0.8128 v 0.98044 z"
       style="fill:none;stroke:#000000;stroke-width:0.264583;stroke-miterlimit:4;stroke-dasharray:none"
       id="path1991" />
    <path
       d="m 148.55908,326.41435 v -0.98044 h 0.8128 v -3.50012 h -0.8128 v -5.00888 h 0.8128 v -3.50012 h -0.8128 v -0.98044 h -13.97 v 0.98044 h -0.8128 v 3.50012 h 0.8128 v 5.00888 h -0.8128 v 3.50012 h 0.8128 v 0.98044 z"
       style="fill:none;stroke:#000000;stroke-width:0.264583;stroke-miterlimit:4;stroke-dasharray:none"
       id="path1993" />
    <path
       d="m 91.409079,308.63689 v -0.98044 h 0.8128 v -3.50012 h -0.8128 v -5.00888 h 0.8128 v -3.50012 h -0.8128 v -0.98044 h -13.96999 v 0.98044 h -0.8128 v 3.50012 h 0.8128 v 5.00888 h -0.8128 v 3.50012 h 0.8128 v 0.98044 z"
       style="fill:none;stroke:#000000;stroke-width:0.264583;stroke-miterlimit:4;stroke-dasharray:none"
       id="path1995" />
    <path
       d="m 172.3538,214.12858 -0.889,0.41656 -0.3429,-0.7366 -3.17246,1.47828 0.3429,0.7366 -4.53898,2.11582 -0.3429,-0.7366 -3.17246,1.48082 0.3429,0.7366 -0.889,0.41402 5.9055,12.6619 0.889,-0.41656 0.3429,0.7366 3.17246,-1.47828 -0.3429,-0.7366 4.53898,-2.11582 0.3429,0.7366 3.17246,-1.48082 -0.3429,-0.7366 0.889,-0.41402 z"
       style="fill:none;stroke:#000000;stroke-width:0.264583;stroke-miterlimit:4;stroke-dasharray:none"
       id="path1997" />
    <path
       d="m 155.08942,222.18038 -0.889,0.41656 -0.3429,-0.7366 -3.17246,1.47828 0.3429,0.7366 -4.53898,2.11582 -0.3429,-0.7366 -3.17246,1.48082 0.3429,0.7366 -0.889,0.41402 5.9055,12.6619 0.889,-0.41656 0.3429,0.7366 3.17246,-1.47828 -0.3429,-0.7366 4.53898,-2.11582 0.3429,0.7366 3.17246,-1.48082 -0.3429,-0.7366 0.889,-0.41402 z"
       style="fill:none;stroke:#000000;stroke-width:0.264583;stroke-miterlimit:4;stroke-dasharray:none"
       id="path1999" />
    <path
       d="m 129.50908,251.4869 v -0.98044 h 0.8128 v -3.50012 h -0.8128 v -5.00888 h 0.8128 v -3.50012 h -0.8128 v -0.98044 h -13.97 v 0.98044 h -0.8128 v 3.50012 h 0.8128 v 5.00888 h -0.8128 v 3.50012 h 0.8128 v 0.98044 z"
       style="fill:none;stroke:#000000;stroke-width:0.264583;stroke-miterlimit:4;stroke-dasharray:none"
       id="path2001" />
    <path
       d="m 110.45908,253.08456 v -0.98044 h 0.8128 V 248.604 h -0.8128 v -5.00888 h 0.8128 V 240.095 h -0.8128 v -0.98044 H 96.489079 v 0.98044 h -0.8128 v 3.50012 h 0.8128 v 5.00888 h -0.8128 v 3.50012 h 0.8128 v 0.98044 z"
       style="fill:none;stroke:#000000;stroke-width:0.264583;stroke-miterlimit:4;stroke-dasharray:none"
       id="path2003" />
    <path
       d="m 72.359089,248.3119 v -0.98044 h 0.8128 v -3.50012 h -0.8128 v -5.00888 h 0.8128 v -3.50012 h -0.8128 v -0.98044 h -13.97 v 0.98044 h -0.8128 v 3.50012 h 0.8128 v 5.00888 h -0.8128 v 3.50012 h 0.8128 v 0.98044 z"
       style="fill:none;stroke:#000000;stroke-width:0.264583;stroke-miterlimit:4;stroke-dasharray:none"
       id="path2005" />
    <path
       d="m 148.55908,269.2669 v -0.98044 h 0.8128 v -3.50012 h -0.8128 v -5.00888 h 0.8128 v -3.50012 h -0.8128 v -0.98044 h -13.97 v 0.98044 h -0.8128 v 3.50012 h 0.8128 v 5.00888 h -0.8128 v 3.50012 h 0.8128 v 0.98044 z"
       style="fill:none;stroke:#000000;stroke-width:0.264583;stroke-miterlimit:4;stroke-dasharray:none"
       id="path2007" />
    <path
       d="m 129.50908,270.5369 v -0.98044 h 0.8128 v -3.50012 h -0.8128 v -5.00888 h 0.8128 v -3.50012 h -0.8128 v -0.98044 h -13.97 v 0.98044 h -0.8128 v 3.50012 h 0.8128 v 5.00888 h -0.8128 v 3.50012 h 0.8128 v 0.98044 z"
       style="fill:none;stroke:#000000;stroke-width:0.264583;stroke-miterlimit:4;stroke-dasharray:none"
       id="path2009" />
    <path
       d="m 110.45908,272.13456 v -0.98044 h 0.8128 V 267.654 h -0.8128 v -5.00888 h 0.8128 V 259.145 h -0.8128 v -0.98044 H 96.489079 v 0.98044 h -0.8128 v 3.50012 h 0.8128 v 5.00888 h -0.8128 v 3.50012 h 0.8128 v 0.98044 z"
       style="fill:none;stroke:#000000;stroke-width:0.264583;stroke-miterlimit:4;stroke-dasharray:none"
       id="path2011" />
    <path
       d="m 91.409079,270.5369 v -0.98044 h 0.8128 v -3.50012 h -0.8128 v -5.00888 h 0.8128 v -3.50012 h -0.8128 v -0.98044 h -13.96999 v 0.98044 h -0.8128 v 3.50012 h 0.8128 v 5.00888 h -0.8128 v 3.50012 h 0.8128 v 0.98044 z"
       style="fill:none;stroke:#000000;stroke-width:0.264583;stroke-miterlimit:4;stroke-dasharray:none"
       id="path2013" />
    <path
       d="m 72.359089,267.3619 v -0.98044 h 0.8128 v -3.50012 h -0.8128 v -5.00888 h 0.8128 v -3.50012 h -0.8128 v -0.98044 h -13.97 v 0.98044 h -0.8128 v 3.50012 h 0.8128 v 5.00888 h -0.8128 v 3.50012 h 0.8128 v 0.98044 z"
       style="fill:none;stroke:#000000;stroke-width:0.264583;stroke-miterlimit:4;stroke-dasharray:none"
       id="path2015" />
    <path
       d="m 148.55908,288.31689 v -0.98044 h 0.8128 v -3.50012 h -0.8128 v -5.00887 h 0.8128 v -3.50012 h -0.8128 v -0.98044 h -13.97 v 0.98044 h -0.8128 v 3.50012 h 0.8128 v 5.00887 h -0.8128 v 3.50012 h 0.8128 v 0.98044 z"
       style="fill:none;stroke:#000000;stroke-width:0.264583;stroke-miterlimit:4;stroke-dasharray:none"
       id="path2017" />
    <path
       d="m 129.50908,289.58689 v -0.98044 h 0.8128 v -3.50012 h -0.8128 v -5.00888 h 0.8128 v -3.50011 h -0.8128 v -0.98044 h -13.97 v 0.98044 h -0.8128 v 3.50011 h 0.8128 v 5.00888 h -0.8128 v 3.50012 h 0.8128 v 0.98044 z"
       style="fill:none;stroke:#000000;stroke-width:0.264583;stroke-miterlimit:4;stroke-dasharray:none"
       id="path2019" />
    <path
       d="m 110.45908,291.18455 v -0.98044 h 0.8128 v -3.50012 h -0.8128 v -5.00888 h 0.8128 V 278.195 h -0.8128 v -0.98044 H 96.489079 v 0.98044 h -0.8128 v 3.50011 h 0.8128 v 5.00888 h -0.8128 v 3.50012 h 0.8128 v 0.98044 z"
       style="fill:none;stroke:#000000;stroke-width:0.264583;stroke-miterlimit:4;stroke-dasharray:none"
       id="path2021" />
    <path
       d="m 91.409079,289.58689 v -0.98044 h 0.8128 v -3.50012 h -0.8128 v -5.00888 h 0.8128 v -3.50011 h -0.8128 v -0.98044 h -13.96999 v 0.98044 h -0.8128 v 3.50011 h 0.8128 v 5.00888 h -0.8128 v 3.50012 h 0.8128 v 0.98044 z"
       style="fill:none;stroke:#000000;stroke-width:0.264583;stroke-miterlimit:4;stroke-dasharray:none"
       id="path2023" />
    <path
       d="m 72.359089,286.41189 v -0.98044 h 0.8128 v -3.50012 h -0.8128 v -5.00887 h 0.8128 v -3.50012 h -0.8128 v -0.98044 h -13.97 v 0.98044 h -0.8128 v 3.50012 h 0.8128 v 5.00887 h -0.8128 v 3.50012 h 0.8128 v 0.98044 z"
       style="fill:none;stroke:#000000;stroke-width:0.264583;stroke-miterlimit:4;stroke-dasharray:none"
       id="path2025" />
    <path
       d="m 129.50908,308.63689 v -0.98044 h 0.8128 v -3.50012 h -0.8128 v -5.00888 h 0.8128 v -3.50012 h -0.8128 v -0.98044 h -13.97 v 0.98044 h -0.8128 v 3.50012 h 0.8128 v 5.00888 h -0.8128 v 3.50012 h 0.8128 v 0.98044 z"
       style="fill:none;stroke:#000000;stroke-width:0.264583;stroke-miterlimit:4;stroke-dasharray:none"
       id="path2027" />
    <path
       d="m 110.45908,310.23455 v -0.98044 h 0.8128 v -3.50012 h -0.8128 v -5.00888 h 0.8128 v -3.50012 h -0.8128 v -0.98044 H 96.489079 v 0.98044 h -0.8128 v 3.50012 h 0.8128 v 5.00888 h -0.8128 v 3.50012 h 0.8128 v 0.98044 z"
       style="fill:none;stroke:#000000;stroke-width:0.264583;stroke-miterlimit:4;stroke-dasharray:none"
       id="path2029" />
    <path
       d="m 72.359089,305.46189 v -0.98044 h 0.8128 v -3.50012 h -0.8128 v -5.00888 h 0.8128 v -3.50012 h -0.8128 v -0.98044 h -13.97 v 0.98044 h -0.8128 v 3.50012 h 0.8128 v 5.00888 h -0.8128 v 3.50012 h 0.8128 v 0.98044 z"
       style="fill:none;stroke:#000000;stroke-width:0.264583;stroke-miterlimit:4;stroke-dasharray:none"
       id="path2031" />
    <path
       d="m 91.409079,251.4869 v -0.98044 h 0.8128 v -3.50012 h -0.8128 v -5.00888 h 0.8128 v -3.50012 h -0.8128 v -0.98044 h -13.96999 v 0.98044 h -0.8128 v 3.50012 h 0.8128 v 5.00888 h -0.8128 v 3.50012 h 0.8128 v 0.98044 z"
       style="fill:none;stroke:#000000;stroke-width:0.264583;stroke-miterlimit:4;stroke-dasharray:none"
       id="path2033" />
    <path
       d="m 129.50908,327.68689 v -0.98044 h 0.8128 v -3.50012 h -0.8128 v -5.00888 h 0.8128 v -3.50012 h -0.8128 v -0.98044 h -13.97 v 0.98044 h -0.8128 v 3.50012 h 0.8128 v 5.00888 h -0.8128 v 3.50012 h 0.8128 v 0.98044 z"
       style="fill:none;stroke:#000000;stroke-width:0.264583;stroke-miterlimit:4;stroke-dasharray:none"
       id="path2035" />
    <path
       d="m 110.45908,329.28455 v -0.98044 h 0.8128 v -3.50012 h -0.8128 v -5.00888 h 0.8128 v -3.50012 h -0.8128 v -0.98044 H 96.489079 v 0.98044 h -0.8128 v 3.50012 h 0.8128 v 5.00888 h -0.8128 v 3.50012 h 0.8128 v 0.98044 z"
       style="fill:none;stroke:#000000;stroke-width:0.264583;stroke-miterlimit:4;stroke-dasharray:none"
       id="path2037" />
    <path
       d="m 91.409079,327.68689 v -0.98044 h 0.8128 v -3.50012 h -0.8128 v -5.00888 h 0.8128 v -3.50012 h -0.8128 v -0.98044 h -13.96999 v 0.98044 h -0.8128 v 3.50012 h 0.8128 v 5.00888 h -0.8128 v 3.50012 h 0.8128 v 0.98044 z"
       style="fill:none;stroke:#000000;stroke-width:0.264583;stroke-miterlimit:4;stroke-dasharray:none"
       id="path2039" />
    <path
       d="m 72.359089,324.50935 v -0.98044 h 0.8128 v -3.50012 h -0.8128 v -5.00888 h 0.8128 v -3.50012 h -0.8128 v -0.98044 h -13.97 v 0.98044 h -0.8128 v 3.50012 h 0.8128 v 5.00888 h -0.8128 v 3.50012 h 0.8128 v 0.98044 z"
       style="fill:none;stroke:#000000;stroke-width:0.264583;stroke-miterlimit:4;stroke-dasharray:none"
       id="path2041" />
    <path
       d="m 190.33446,252.68832 -0.41656,-0.889 0.7366,-0.3429 -1.47828,-3.17246 -0.7366,0.3429 -2.11582,-4.53898 0.7366,-0.3429 -1.48082,-3.17246 -0.7366,0.3429 -0.41402,-0.889 -12.6619,5.9055 0.41656,0.889 -0.7366,0.3429 1.47828,3.17246 0.7366,-0.3429 2.11582,4.53898 -0.7366,0.3429 1.48082,3.17246 0.7366,-0.3429 0.41402,0.889 z"
       style="fill:none;stroke:#000000;stroke-width:0.264583;stroke-miterlimit:4;stroke-dasharray:none"
       id="path2043" />
    <path
       d="m 207.59884,244.63906 -0.41656,-0.889 0.7366,-0.3429 -1.47828,-3.17246 -0.7366,0.3429 -2.11582,-4.53898 0.7366,-0.3429 -1.48082,-3.17246 -0.7366,0.3429 -0.41402,-0.889 -12.6619,5.9055 0.41656,0.889 -0.7366,0.3429 1.47828,3.17246 0.7366,-0.3429 2.11582,4.53898 -0.7366,0.3429 1.48082,3.17246 0.7366,-0.3429 0.41402,0.889 z"
       style="fill:none;stroke:#000000;stroke-width:0.264583;stroke-miterlimit:4;stroke-dasharray:none"
       id="path2045" />
    <path
       d="m 191.49778,210.10776 -0.41656,-0.88901 0.7366,-0.3429 -1.47828,-3.17246 -0.7366,0.3429 -2.11582,-4.53898 0.7366,-0.3429 -1.48082,-3.17246 -0.7366,0.3429 -0.41402,-0.889 -12.6619,5.9055 0.41656,0.889 -0.7366,0.3429 1.47828,3.17246 0.7366,-0.3429 2.11582,4.53899 -0.7366,0.3429 1.48082,3.17246 0.7366,-0.3429 0.41402,0.889 z"
       style="fill:none;stroke:#000000;stroke-width:0.264583;stroke-miterlimit:4;stroke-dasharray:none"
       id="path2047" />
    <path
       d="m 199.54958,227.37468 -0.41656,-0.889 0.7366,-0.3429 -1.47828,-3.17246 -0.7366,0.3429 -2.11582,-4.53898 0.7366,-0.3429 -1.48082,-3.17246 -0.7366,0.3429 -0.41402,-0.889 -12.6619,5.9055 0.41656,0.889 -0.7366,0.3429 1.47828,3.17246 0.7366,-0.3429 2.11582,4.53898 -0.7366,0.3429 1.48082,3.17246 0.7366,-0.3429 0.41402,0.889 z"
       style="fill:none;stroke:#000000;stroke-width:0.264583;stroke-miterlimit:4;stroke-dasharray:none"
       id="path2049" />
    <path
       d="m 148.55908,307.36689 v -0.98044 h 0.8128 v -3.50012 h -0.8128 v -5.00888 h 0.8128 v -3.50012 h -0.8128 v -0.98044 h -13.97 v 0.98044 h -0.8128 v 3.50012 h 0.8128 v 5.00888 h -0.8128 v 3.50012 h 0.8128 v 0.98044 z"
       style="fill:none;stroke:#000000;stroke-width:0.264583;stroke-miterlimit:4;stroke-dasharray:none"
       id="path2051" />
    <path
       d="m 53.309089,248.3119 v -0.98044 h 0.8128 v -3.50012 h -0.8128 v -5.00888 h 0.8128 v -3.50012 h -0.8128 V 234.3419 H 39.33909 v 0.98044 h -0.8128 v 3.50012 h 0.8128 v 5.00888 h -0.8128 v 3.50012 h 0.8128 v 0.98044 z"
       style="fill:none;stroke:#000000;stroke-width:0.264583;stroke-miterlimit:4;stroke-dasharray:none"
       id="path2053" />
    <path
       id="path2055"
       style="fill:none;stroke:#000000;stroke-width:0.999999;stroke-miterlimit:4;stroke-dasharray:none"
       d="M 187.37305,42.519531 V 146.67578 h 16.58398 v -2.64062 h -3.07226 v -13.22852 h 3.07226 V 111.875 h -3.07226 V 98.646484 h 3.07226 v -3.705078 h 52.79883 v 3.705078 h 3.07226 V 111.875 h -3.07226 v 18.93164 h 3.07226 v 13.22852 h -3.07226 v 3.70507 h -24.89063 l -0.0879,11.1543 0.0801,0.0918 0.0781,0.13672 0.0488,0.14843 0.0156,0.15821 v 25.50195 h 7.82227 v -3.07226 h 13.22851 v 3.07226 h 3.70508 v 52.79883 h -3.70508 v 3.07226 H 239.8222 v -3.07226 H 232 v 55.20117 h 7.82227 v -3.07226 h 13.22851 v 3.07226 h 3.70508 v 52.79883 h -3.70508 v 3.07226 h -13.22851 v -3.07226 h -18.93165 v 3.07226 h -13.22851 v -3.07226 h -3.70508 v -36.10938 c -32.81449,17.69642 -64.91613,31.2828 -97.58984,46.53711 L 60.076172,324.96875 103.89844,61.289062 l 0.0254,-0.107421 0.0645,-0.144532 0.0937,-0.126953 0.11719,-0.105468 0.0234,-0.01367 V 42.5625 l -3.50782,0.369141 -3.757809,1.220703 -3.421875,1.974609 -2.935547,2.644531 -2.322265,3.195313 -1.607422,3.609375 -0.658203,2.679687 -57.394531,338.265621 -2.31836,6.36133 -0.955078,3.83594 -0.138672,3.94922 0.685547,3.89258 1.039063,2.77734 81.955082,175.75977 2.0332,3.38672 2.69531,2.89062 3.23633,2.26367 2.70898,1.23633 15.94727,5.79492 3.83398,0.95117 3.94922,0.13672 3.89063,-0.6875 2.76562,-1.03515 291.64258,-135.96875 H 699.0957 l 3.92578,-0.41211 3.75782,-1.22071 3.41992,-1.97656 2.25586,-1.92383 36.0039,-36.0039 2.48438,-3.06836 1.79492,-3.51953 1.01953,-3.81836 0.23438,-2.95508 V 73.417969 l -0.41211,-3.927735 -1.2207,-3.757812 -1.97657,-3.421875 -1.92383,-2.253906 -12,-12 -3.07226,-2.486329 -3.51953,-1.792968 -3.81641,-1.023438 -2.95508,-0.232422 z"
       transform="matrix(-0.26458333,0,0,-0.26458333,221.5726,351.53416)" />
    <path
       d="m 33.37646,330.3521 a 1.524,1.524 0 1 1 -3.048,0 1.524,1.524 0 1 1 3.048,0 z"
       style="fill:none;stroke:#000000;stroke-width:0.264583;stroke-miterlimit:4;stroke-dasharray:none"
       id="path2057" />
    <path
       d="m 203.2756,256.09134 a 1.524,1.524 0 1 1 -3.048,0 1.524,1.524 0 1 1 3.048,0 z"
       style="fill:none;stroke:#000000;stroke-width:0.264583;stroke-miterlimit:4;stroke-dasharray:none"
       id="path2059" />
  </g>
  <g
     aria-label="NFS.WORKS"
     id="text2882"
     style="font-style:normal;font-variant:normal;font-weight:normal;font-stretch:normal;font-size:5.09909px;line-height:1.25;font-family:Iosevka;-inkscape-font-specification:Iosevka;fill:#ff0000;stroke:none;stroke-width:0.134913" />
</svg>
